<svg width="326" height="330" xmlns="http://www.w3.org/2000/svg" xmlns:xlink="http://www.w3.org/1999/xlink" xml:space="preserve" overflow="hidden"><defs><clipPath id="clip0"><rect x="477" y="195" width="326" height="330"/></clipPath></defs><g clip-path="url(#clip0)" transform="translate(-477 -195)"><path d="M477.032 359.712C475.626 255.198 520.777 195 624.384 195 727.991 195 760.312 281.977 794.12 367.385 832.85 465.166 727.997 524.424 624.384 524.424 520.77 524.424 478.485 466.212 477.032 359.712" fill="#EBF2FC"/><path d="M633.991 399.283C635.857 399.851 637.77 400.283 639.711 400.568 636.862 408.426 629.321 414.103 620.414 414.103L567.487 414.103C556.137 414.103 546.904 404.973 546.904 393.754L546.904 329.797C546.904 318.574 556.137 309.446 567.487 309.446L583.329 309.446C584.771 299.615 593.273 292.003 603.613 292.003L632.17 292.003C643.518 292.003 652.753 301.131 652.753 312.354L652.753 326.216C650.823 325.824 648.858 325.574 646.872 325.49L646.872 312.354C646.872 304.342 640.28 297.818 632.17 297.818L603.613 297.818C596.515 297.818 590.574 302.818 589.21 309.447L620.42 309.447C630.349 309.447 638.654 316.437 640.578 325.692 638.637 325.925 636.724 326.346 634.818 326.873 633.451 320.256 627.513 315.261 620.426 315.261L567.499 315.261C559.395 315.261 552.797 321.786 552.797 329.798L552.797 393.755C552.797 401.761 559.396 408.291 567.499 408.291L620.426 408.291C626.537 408.284 631.786 404.553 633.991 399.283ZM662.959 393.618C645.988 403.304 624.217 397.535 614.422 380.763 604.624 363.996 610.462 342.467 627.421 332.785 644.385 323.104 666.162 328.864 675.961 345.641 685.758 362.41 679.912 383.931 662.959 393.618ZM660.019 388.587C674.175 380.513 679.034 362.547 670.861 348.548 662.694 334.546 644.524 329.731 630.362 337.813 616.203 345.896 611.341 363.853 619.513 377.854 627.686 391.855 645.855 396.667 660.019 388.587ZM671.884 391.46 656.595 400.182 668.357 420.317 683.646 411.594 671.884 391.46ZM685.23 414.331 669.947 423.052C672.382 427.231 677.781 428.663 681.996 426.244 686.218 423.837 687.677 418.505 685.23 414.331ZM603.683 330.511 564.541 330.511 564.541 334.872 603.682 334.872 603.682 330.511 603.683 330.511ZM594.68 349.897 564.541 349.897 564.541 354.258 594.68 354.258 594.68 349.897ZM564.541 373.637 594.68 373.637 594.68 369.276 564.541 369.276 564.541 373.637ZM564.541 393.015 603.682 393.015 603.682 388.655 564.541 388.655 564.541 393.015ZM639.458 369.248 630.327 359.245 625.962 363.15 638.878 377.276 664.112 356.497 660.345 352.032 639.458 369.248Z" fill="#103CA3"/></g></svg>