<svg width="688" height="720" xmlns="http://www.w3.org/2000/svg" xmlns:xlink="http://www.w3.org/1999/xlink" xml:space="preserve" overflow="hidden"><defs><clipPath id="clip0"><rect x="296" y="0" width="688" height="720"/></clipPath><linearGradient x1="514.685" y1="465.309" x2="514.685" y2="674.305" gradientUnits="userSpaceOnUse" spreadMethod="pad" id="fill1"><stop offset="0" stop-color="#2ACAF7" stop-opacity="0"/><stop offset="0.11" stop-color="#2ACAF7" stop-opacity="0"/><stop offset="1" stop-color="#2ACAF7" stop-opacity="0.6"/></linearGradient><linearGradient x1="46400.5" y1="14380.9" x2="46400.5" y2="34881.7" gradientUnits="userSpaceOnUse" spreadMethod="pad" id="fill2"><stop offset="0" stop-color="#2ACAF7" stop-opacity="0"/><stop offset="0.11" stop-color="#2ACAF7" stop-opacity="0"/><stop offset="1" stop-color="#2ACAF7" stop-opacity="0.6"/></linearGradient><linearGradient x1="3223.68" y1="53951.9" x2="3223.68" y2="90354.1" gradientUnits="userSpaceOnUse" spreadMethod="pad" id="fill3"><stop offset="0" stop-color="#2ACAF7" stop-opacity="0"/><stop offset="0.11" stop-color="#2ACAF7" stop-opacity="0"/><stop offset="1" stop-color="#2ACAF7" stop-opacity="0.6"/></linearGradient><linearGradient x1="355.928" y1="336.599" x2="355.928" y2="68.9077" gradientUnits="userSpaceOnUse" spreadMethod="pad" id="fill4"><stop offset="0" stop-color="#2ACAF7" stop-opacity="0.4"/><stop offset="0.1" stop-color="#2ACAF7" stop-opacity="0.4"/><stop offset="0.97" stop-color="#2ACAF7" stop-opacity="0"/><stop offset="1" stop-color="#2ACAF7" stop-opacity="0"/></linearGradient></defs><g clip-path="url(#clip0)" transform="translate(-296 0)"><path d="M604.596 488.078C602.647 488.053 600.713 488.417 598.907 489.15L534.464 452.505 533.474 454.201 596.892 490.292C595.807 491.027 595.133 492.234 595.078 493.543 595.078 496.582 599.225 498.985 604.596 498.985 609.967 498.985 614.078 496.63 614.078 493.543 614.078 490.457 609.932 488.078 604.596 488.078ZM604.596 496.971C600.132 496.971 597.057 495.145 597.057 493.437 597.057 492.684 597.682 491.93 598.789 491.305 599.532 490.9 600.324 490.591 601.145 490.387 602.257 490.126 603.395 489.995 604.537 489.998 608.966 489.998 612.04 491.812 612.04 493.437 612.04 495.063 608.978 496.971 604.596 496.971Z" fill="#CAD6F8" transform="matrix(1.00007 0 0 1 296 0)"/><path d="M389.295 562.667 388.317 564.387 458.923 604.546 459.902 602.826 389.295 562.667Z" fill="#CAD6F8" fill-rule="evenodd" transform="matrix(1.00007 0 0 1 296 0)"/><path d="M373.868 571.586 372.89 573.306 443.497 613.465 444.475 611.745 373.868 571.586Z" fill="#CAD6F8" fill-rule="evenodd" transform="matrix(1.00007 0 0 1 296 0)"/><path d="M176.038 574.03 294.712 504.215 293.676 502.472 173.753 573.076C172.61 572.709 171.42 572.51 170.219 572.487L170.219 545.513 250.776 498.797 249.716 497.077 168.181 544.347 168.181 572.463C163.317 572.699 159.642 574.949 159.642 577.799 159.642 580.838 163.835 583.205 169.159 583.205 174.483 583.205 178.677 580.85 178.677 577.799 178.54 576.161 177.53 574.719 176.038 574.03ZM169.206 581.25C164.789 581.25 161.668 579.436 161.668 577.822 161.668 576.209 164.318 574.654 168.229 574.418 168.554 574.4 168.881 574.4 169.206 574.418 169.536 574.4 169.866 574.4 170.196 574.418 170.556 574.423 170.915 574.462 171.268 574.536 172.207 574.63 173.125 574.873 173.989 575.255 175.685 575.879 176.721 576.869 176.721 577.822 176.757 579.436 173.67 581.25 169.206 581.25Z" fill="#CAD6F8" transform="matrix(1.00007 0 0 1 296 0)"/><path d="M276.808 601.417 340.191 565.314 339.237 563.618 274.806 600.263C272.998 599.537 271.064 599.177 269.116 599.202 263.792 599.202 259.599 601.558 259.599 604.609 259.599 607.66 263.792 610.016 269.116 610.016 274.441 610.016 278.634 607.66 278.634 604.609 278.562 603.318 277.884 602.133 276.808 601.417ZM269.104 608.049C264.688 608.049 261.566 606.27 261.566 604.609 261.566 602.948 264.688 601.169 269.104 601.169 270.251 601.17 271.393 601.305 272.509 601.57 273.329 601.772 274.12 602.077 274.864 602.477 275.972 603.113 276.608 603.855 276.608 604.609 276.667 606.27 273.581 608.049 269.116 608.049L269.104 608.049Z" fill="#CAD6F8" transform="matrix(1.00007 0 0 1 296 0)"/><path d="M270.73 639.602 270.73 624.984 215.686 593.181 215.686 562.402 377.437 468.57 376.447 466.874 213.708 561.259 213.708 594.347 268.751 626.15 268.751 639.531C263.78 639.696 259.952 642.017 259.952 644.903 260.082 646.457 261.011 647.837 262.402 648.542L195.874 687.413C194.047 686.721 192.103 686.385 190.15 686.424 184.826 686.424 180.632 688.839 180.632 691.83 180.632 694.822 184.826 697.249 190.15 697.249 195.474 697.249 199.667 694.893 199.667 691.83 199.596 690.542 198.924 689.359 197.853 688.638L264.534 649.532C266.123 650.072 267.792 650.338 269.47 650.321 274.794 650.321 278.987 647.965 278.987 644.867 278.987 642.123 275.43 639.873 270.73 639.602ZM190.15 695.329C185.732 695.329 182.611 693.55 182.611 691.889 182.611 690.228 185.732 688.462 190.15 688.462 191.296 688.458 192.438 688.588 193.554 688.85 194.374 689.051 195.166 689.355 195.91 689.757 197.017 690.393 197.653 691.147 197.653 691.889 197.7 693.515 194.614 695.294 190.15 695.294L190.15 695.329ZM269.47 648.401C268.635 648.405 267.803 648.326 266.984 648.165 266.076 648.068 265.191 647.813 264.369 647.411 262.862 646.74 262.014 645.833 262.014 644.926 262.014 643.383 264.817 641.687 268.846 641.534 269.084 641.51 269.325 641.51 269.564 641.534 269.986 641.519 270.408 641.546 270.824 641.616 274.582 641.899 277.103 643.513 277.103 644.973 277.008 646.552 273.934 648.366 269.47 648.366L269.47 648.401Z" fill="#CAD6F8" transform="matrix(1.00007 0 0 1 296 0)"/><path d="M82.6066 493.624C77.2705 493.624 73.0893 491.268 73.0893 488.206 73.0893 485.143 77.2705 482.788 82.6066 482.788 87.9427 482.788 92.1123 485.143 92.1123 488.206 92.1123 491.268 87.9307 493.624 82.6066 493.624ZM82.6066 484.767C78.1661 484.767 75.0679 486.581 75.0679 488.206 75.0679 489.832 78.1661 491.645 82.6066 491.645 87.0472 491.645 90.1453 489.832 90.1453 488.206 90.1453 486.581 87.0472 484.767 82.6066 484.767Z" fill="#CAD6F8" transform="matrix(1.00007 0 0 1 296 0)"/><path d="M147.927 444.084 77.3412 484.28 78.3205 485.999 148.906 445.803 147.927 444.084Z" fill="#CAD6F8" fill-rule="evenodd" transform="matrix(1.00007 0 0 1 296 0)"/><path d="M86.8589 501.174C81.5348 501.174 77.3532 498.818 77.3532 495.755 77.3532 492.693 81.5348 490.349 86.8589 490.349 92.1829 490.349 96.3762 492.705 96.3762 495.755 96.3762 498.806 92.2066 501.174 86.8589 501.174ZM86.8589 492.316C82.418 492.316 79.3202 494.13 79.3202 495.755 79.3202 497.381 82.418 499.195 86.8589 499.195 91.2994 499.195 94.4092 497.393 94.4092 495.755 94.4092 494.118 91.3114 492.363 86.8589 492.363L86.8589 492.316Z" fill="#CAD6F8" transform="matrix(1.00007 0 0 1 296 0)"/><path d="M155.61 454.296 85.0241 494.492 86.0034 496.211 156.589 456.015 155.61 454.296Z" fill="#CAD6F8" fill-rule="evenodd" transform="matrix(1.00007 0 0 1 296 0)"/><path d="M118.285 531.496 280.036 437.7 279.046 435.992 116.318 530.365 116.318 563.465 171.35 595.268 171.35 613.926 150.348 626.2C148.527 625.5 146.586 625.163 144.635 625.211 139.311 625.211 135.118 627.566 135.118 630.617 135.118 633.668 139.311 636.024 144.635 636.024 149.959 636.024 154.153 633.668 154.153 630.617 154.083 629.328 153.411 628.144 152.339 627.425L173.329 615.057 173.329 594.102 118.285 562.299 118.285 531.496ZM144.635 634.057C140.218 634.057 137.096 632.278 137.096 630.617 137.096 628.956 140.218 627.189 144.635 627.189 145.781 627.186 146.924 627.316 148.039 627.578 148.86 627.778 149.652 628.083 150.395 628.485 151.502 629.121 152.139 629.863 152.139 630.617 152.186 632.278 149.099 634.057 144.635 634.057Z" fill="#CAD6F8" transform="matrix(1.00007 0 0 1 296 0)"/><path d="M127.685 288.139 246.383 358.084 247.419 356.388 129.735 287.091C130.944 286.395 131.718 285.128 131.784 283.734 131.784 280.73 127.603 278.316 122.267 278.316 116.931 278.316 112.749 280.672 112.749 283.734 112.749 286.49 116.283 288.74 120.924 289.058L120.924 316.15 202.47 363.42 203.46 361.723 122.903 315.007 122.903 289.094C124.541 289.067 126.162 288.744 127.685 288.139ZM122.267 287.115C121.818 287.127 121.369 287.104 120.924 287.044 117.214 286.761 114.728 285.183 114.728 283.687 114.728 282.191 117.814 280.248 122.267 280.248 126.719 280.248 129.817 282.062 129.817 283.687 129.817 284.476 129.099 285.301 127.838 285.937 127.054 286.338 126.217 286.628 125.353 286.797 124.549 286.979 123.727 287.073 122.903 287.079 122.692 287.109 122.479 287.12 122.267 287.115Z" fill="#CAD6F8" transform="matrix(1.00007 0 0 1 296 0)"/><path d="M64.5021 326.057 64.5021 295.219 119.546 263.415 119.546 248.42C124.257 248.067 127.638 245.853 127.638 243.085 127.638 240.046 123.457 237.678 118.12 237.678 116.321 237.661 114.531 237.956 112.832 238.55L76.8703 217.43C77.9497 216.711 78.6275 215.521 78.696 214.226 78.696 211.187 74.5027 208.819 69.1786 208.819 63.8542 208.819 59.6609 211.175 59.6609 214.226 59.6609 217.277 63.8425 219.632 69.1786 219.632 71.1289 219.678 73.07 219.342 74.8913 218.643L110.723 239.61C109.464 240.353 108.662 241.683 108.591 243.144 108.591 246.065 112.502 248.397 117.555 248.515L117.555 262.343 62.5114 294.147 62.5114 327.246 225.251 421.62 226.241 419.924 64.5021 326.057ZM69.214 217.689C64.7847 217.689 61.6632 215.875 61.6632 214.249 61.6632 212.624 64.7847 210.845 69.1786 210.845 73.5722 210.845 76.717 212.624 76.717 214.285 76.717 215.039 76.0811 215.792 74.9736 216.417 74.2307 216.819 73.4389 217.124 72.618 217.324 71.489 217.573 70.3346 217.688 69.1786 217.665L69.214 217.689ZM110.617 243.108C110.617 242.284 111.406 241.447 112.749 240.752 113.531 240.361 114.37 240.094 115.235 239.963 116.195 239.758 117.174 239.655 118.156 239.657 122.62 239.657 125.706 241.471 125.706 243.085 125.706 244.698 123.256 246.123 119.581 246.442 119.108 246.493 118.632 246.52 118.156 246.524 117.972 246.541 117.786 246.541 117.602 246.524 113.421 246.371 110.582 244.628 110.582 243.085L110.617 243.108Z" fill="#CAD6F8" transform="matrix(1.00007 0 0 1 296 0)"/><path d="M176.604 247.16C177.703 246.439 178.395 245.234 178.465 243.921 178.465 240.917 174.283 238.502 168.947 238.502 163.611 238.502 159.43 240.917 159.43 243.921 159.43 246.925 163.611 249.363 168.947 249.363 170.896 249.395 172.831 249.035 174.637 248.303L239.115 284.947 240.105 283.251 176.604 247.16ZM172.34 246.995C171.229 247.261 170.09 247.396 168.947 247.396 164.53 247.396 161.409 245.57 161.409 243.921 161.409 242.272 164.53 240.481 168.947 240.481 173.364 240.481 176.486 242.295 176.486 243.921 176.486 244.663 175.861 245.452 174.719 246.088 173.979 246.514 173.175 246.821 172.34 246.995Z" fill="#CAD6F8" transform="matrix(1.00007 0 0 1 296 0)"/><path d="M672.324 333.524C670.155 333.468 668.003 333.928 666.046 334.867L617.752 307.022 617.752 284.076 633.43 274.994 632.452 273.298 615.785 282.933 615.785 308.164 664.197 336.08C663.353 336.791 662.851 337.829 662.818 338.931 662.818 341.699 666.211 343.866 670.828 344.255L670.828 351.57 559.186 416.979 560.176 418.675 672.795 352.713 672.795 344.302C677.884 344.184 681.842 341.887 681.842 338.931 681.842 335.975 677.648 333.524 672.324 333.524ZM672.795 342.323C672.639 342.346 672.48 342.346 672.324 342.323 671.806 342.323 671.288 342.323 670.816 342.241 667.189 341.887 664.774 340.309 664.774 338.884 664.872 338.133 665.305 337.465 665.952 337.07 666.609 336.605 667.348 336.269 668.131 336.08 669.456 335.641 670.846 335.425 672.242 335.444 676.659 335.444 679.781 337.258 679.781 338.884 679.781 340.509 676.977 342.241 672.795 342.323Z" fill="#CAD6F8" transform="matrix(1.00007 0 0 1 296 0)"/><path d="M518.396 212.247C513.061 212.247 508.879 214.603 508.879 217.701 508.949 219.011 509.636 220.213 510.728 220.94L447.31 256.984 448.299 258.692 512.707 222.035C514.514 222.766 516.448 223.13 518.396 223.108 523.72 223.108 527.902 220.752 527.902 217.701 527.902 214.65 523.72 212.247 518.396 212.247ZM518.396 221.128C517.266 221.13 516.14 221 515.039 220.74 514.189 220.575 513.373 220.268 512.625 219.833 511.447 219.197 510.846 218.443 510.846 217.701 510.846 216.04 513.967 214.226 518.396 214.226 522.825 214.226 525.935 216.04 525.935 217.701 525.935 219.361 522.849 221.128 518.396 221.128Z" fill="#CAD6F8" transform="matrix(1.00007 0 0 1 296 0)"/><path d="M577.42 277.067C572.084 277.067 567.903 274.712 567.903 271.649 567.903 268.586 572.084 266.231 577.42 266.231 582.756 266.231 586.938 268.586 586.938 271.649 586.938 274.712 582.756 277.067 577.42 277.067ZM577.42 268.209C572.979 268.209 569.882 270.023 569.882 271.649 569.882 273.274 572.979 275.088 577.42 275.088 581.861 275.088 584.959 273.274 584.959 271.649 584.959 270.023 581.885 268.209 577.42 268.209Z" fill="#CAD6F8" transform="matrix(1.00007 0 0 1 296 0)"/><path d="M576.921 270.832 506.336 311.028 507.315 312.748 577.901 272.551 576.921 270.832Z" fill="#CAD6F8" fill-rule="evenodd" transform="matrix(1.00007 0 0 1 296 0)"/><path d="M656.719 299.789C651.395 299.789 647.201 302.204 647.201 305.243 647.27 306.547 647.964 307.741 649.062 308.447L585.608 344.538 586.586 346.234 651.041 309.589C652.843 310.322 654.774 310.683 656.719 310.649 662.055 310.649 666.236 308.294 666.236 305.243 666.236 302.192 662.055 299.789 656.719 299.789ZM656.719 308.682C655.576 308.682 654.438 308.547 653.326 308.282 652.505 308.082 651.714 307.777 650.971 307.375 649.863 306.751 649.227 305.997 649.227 305.243 649.227 303.582 652.313 301.768 656.766 301.768 661.218 301.768 664.316 303.582 664.316 305.243 664.316 306.904 661.148 308.682 656.719 308.682Z" fill="#CAD6F8" transform="matrix(1.00007 0 0 1 296 0)"/><path d="M643.528 590.71C641.577 590.665 639.636 591.001 637.815 591.699L579.615 557.54 579.615 538.894 634.646 507.09 634.646 473.991 471.918 379.64 470.941 381.337 632.679 475.145 632.679 505.971 577.636 537.774 577.636 558.729 635.836 592.889C634.765 593.614 634.093 594.801 634.022 596.093 634.022 599.132 638.204 601.499 643.528 601.499 648.852 601.499 653.045 599.143 653.045 596.093 653.045 593.042 648.864 590.71 643.528 590.71ZM643.528 599.556C639.075 599.556 635.989 597.777 635.989 596.116 635.989 595.362 636.625 594.62 637.732 593.984 638.476 593.582 639.268 593.277 640.088 593.077 641.2 592.812 642.338 592.677 643.48 592.677 647.909 592.677 651.031 594.503 651.031 596.116 651.031 597.73 647.957 599.556 643.528 599.556Z" fill="#CAD6F8" transform="matrix(1.00007 0 0 1 296 0)"/><path d="M628.141 536.172C626.143 536.144 624.162 536.545 622.334 537.351L519.067 481.518 518.124 483.214 620.32 538.505C619.314 539.232 618.7 540.386 618.659 541.626 618.659 544.665 622.852 547.033 628.176 547.033 633.501 547.033 637.694 544.677 637.694 541.626 637.694 538.575 633.477 536.172 628.141 536.172ZM628.141 545.019C623.677 545.019 620.602 543.204 620.602 541.591 620.602 540.872 621.215 540.154 622.263 539.529 622.991 539.088 623.787 538.77 624.619 538.587 625.753 538.286 626.921 538.14 628.094 538.151 632.523 538.151 635.644 539.965 635.644 541.591 635.644 543.216 632.534 545.019 628.141 545.019Z" fill="#CAD6F8" transform="matrix(1.00007 0 0 1 296 0)"/><path d="M380.242 575.195 629.722 423.599 628.662 421.844 379.181 573.44 380.242 575.195Z" fill="#BFCBF2" transform="matrix(1.00007 0 0 1 296 0)"/><path d="M453.764 300.425C441.826 293.513 427.055 293.513 415.117 300.425L195.532 428.204C189.609 431.654 185.954 438.012 185.954 444.866 185.954 451.745 189.635 458.122 195.59 461.563L372.477 564.147 353.371 589.048 407.472 589.048C426.639 589.049 445.476 584.021 462.092 574.465L661.429 458.665C668.203 454.733 672.385 447.469 672.385 439.636 672.385 431.803 668.203 424.54 661.429 420.607L453.764 300.425Z" fill="#EAEFFC" transform="matrix(1.00007 0 0 1 296 0)"/><path d="M578.353 402.384 377.249 286.302 377.249 583.334 620.969 442.61C627.563 438.829 631.623 431.765 631.57 424.164L631.57 371.771 578.353 402.384Z" fill="#CAD6F8" transform="matrix(1.00007 0 0 1 296 0)"/><path d="M166.474 383.385 163.729 371.77 80.239 371.77 80.239 424.163C80.1848 431.768 84.2444 438.836 90.8402 442.621L334.62 583.334 334.62 286.301 166.474 383.385Z" fill="#CAD6F8" transform="matrix(1.00007 0 0 1 296 0)"/><path d="M334.631 286.302 334.631 583.335C347.799 590.945 364.081 590.945 377.248 583.335L377.248 286.302C364.078 278.701 347.802 278.701 334.631 286.302Z" fill="#DCE4FB" transform="matrix(1.00007 0 0 1 296 0)"/><path d="M119.758 466.299 119.758 441.834 126.319 438.112 126.319 462.577 119.758 466.299Z" fill="#514EB5" transform="matrix(1.00007 0 0 1 296 0)"/><path d="M119.758 441.833 111.194 436.851 117.756 433.129 126.319 438.111 119.758 441.833Z" fill="#A1B7F6" transform="matrix(1.00007 0 0 1 296 0)"/><path d="M111.194 461.313 111.194 436.848 119.758 441.831 119.758 466.296 111.194 461.313Z" fill="#7E9BED" transform="matrix(1.00007 0 0 1 296 0)"/><path d="M141.867 479.126 141.867 454.661 148.428 450.939 148.428 475.404 141.867 479.126Z" fill="#514EB5" transform="matrix(1.00007 0 0 1 296 0)"/><path d="M141.867 454.66 133.304 449.666 139.865 445.955 148.428 450.938 141.867 454.66Z" fill="#A1B7F6" transform="matrix(1.00007 0 0 1 296 0)"/><path d="M133.304 474.144 133.304 449.667 141.867 454.661 141.867 479.126 133.304 474.144Z" fill="#7E9BED" transform="matrix(1.00007 0 0 1 296 0)"/><path d="M163.976 491.905 163.976 467.44 170.537 463.73 170.537 488.195 163.976 491.905Z" fill="#514EB5" transform="matrix(1.00007 0 0 1 296 0)"/><path d="M163.976 467.439 155.413 462.457 161.974 458.734 170.537 463.729 163.976 467.439Z" fill="#A1B7F6" transform="matrix(1.00007 0 0 1 296 0)"/><path d="M155.413 486.923 155.413 462.458 163.976 467.441 163.976 491.906 155.413 486.923Z" fill="#7E9BED" transform="matrix(1.00007 0 0 1 296 0)"/><path d="M186.274 504.699 186.274 480.234 192.835 476.512 192.835 500.977 186.274 504.699Z" fill="#514EB5" transform="matrix(1.00007 0 0 1 296 0)"/><path d="M186.274 480.233 177.699 475.25 184.272 471.528 192.835 476.511 186.274 480.233Z" fill="#A1B7F6" transform="matrix(1.00007 0 0 1 296 0)"/><path d="M177.699 499.714 177.699 475.248 186.274 480.231 186.274 504.696 177.699 499.714Z" fill="#7E9BED" transform="matrix(1.00007 0 0 1 296 0)"/><path d="M208.195 517.442 208.195 492.977 214.756 489.255 214.756 513.72 208.195 517.442Z" fill="#514EB5" transform="matrix(1.00007 0 0 1 296 0)"/><path d="M208.195 492.976 199.62 487.994 206.192 484.271 214.756 489.254 208.195 492.976Z" fill="#A1B7F6" transform="matrix(1.00007 0 0 1 296 0)"/><path d="M199.62 512.46 199.62 487.995 208.195 492.978 208.195 517.443 199.62 512.46Z" fill="#7E9BED" transform="matrix(1.00007 0 0 1 296 0)"/><path d="M230.304 530.269 230.304 505.804 236.865 502.082 236.865 526.547 230.304 530.269Z" fill="#514EB5" transform="matrix(1.00007 0 0 1 296 0)"/><path d="M230.304 505.806 221.729 500.824 228.302 497.102 236.865 502.084 230.304 505.806Z" fill="#A1B7F6" transform="matrix(1.00007 0 0 1 296 0)"/><path d="M221.729 525.287 221.729 500.822 230.304 505.804 230.304 530.269 221.729 525.287Z" fill="#7E9BED" transform="matrix(1.00007 0 0 1 296 0)"/><path d="M252.414 543.052 252.414 518.587 258.975 514.876 258.975 539.342 252.414 543.052Z" fill="#514EB5" transform="matrix(1.00007 0 0 1 296 0)"/><path d="M252.414 518.586 243.839 513.603 250.411 509.893 258.975 514.875 252.414 518.586Z" fill="#A1B7F6" transform="matrix(1.00007 0 0 1 296 0)"/><path d="M243.839 538.066 243.839 513.601 252.414 518.584 252.414 543.049 243.839 538.066Z" fill="#7E9BED" transform="matrix(1.00007 0 0 1 296 0)"/><path d="M274.523 555.842 274.523 531.377 281.084 527.655 281.084 552.12 274.523 555.842Z" fill="#514EB5" transform="matrix(1.00007 0 0 1 296 0)"/><path d="M274.523 531.376 265.948 526.393 272.509 522.671 281.084 527.654 274.523 531.376Z" fill="#A1B7F6" transform="matrix(1.00007 0 0 1 296 0)"/><path d="M265.948 550.86 265.948 526.395 274.523 531.378 274.523 555.843 265.948 550.86Z" fill="#7E9BED" transform="matrix(1.00007 0 0 1 296 0)"/><path d="M296.62 568.622 296.62 544.156 303.182 540.446 303.182 564.911 296.62 568.622Z" fill="#514EB5" transform="matrix(1.00007 0 0 1 296 0)"/><path d="M296.62 544.159 288.045 539.177 294.618 535.466 303.182 540.449 296.62 544.159Z" fill="#A1B7F6" transform="matrix(1.00007 0 0 1 296 0)"/><path d="M288.045 563.639 288.045 539.174 296.62 544.157 296.62 568.622 288.045 563.639Z" fill="#7E9BED" transform="matrix(1.00007 0 0 1 296 0)"/><path d="M592.097 466.299 592.097 441.834 585.536 438.112 585.536 462.577 592.097 466.299Z" fill="#7E9BED" transform="matrix(1.00007 0 0 1 296 0)"/><path d="M592.097 441.833 600.672 436.851 594.111 433.129 585.536 438.111 592.097 441.833Z" fill="#A1B7F6" transform="matrix(1.00007 0 0 1 296 0)"/><path d="M600.674 461.313 600.674 436.848 592.099 441.831 592.099 466.296 600.674 461.313Z" fill="#514EB5" transform="matrix(1.00007 0 0 1 296 0)"/><path d="M569.991 479.126 569.991 454.661 563.43 450.939 563.43 475.404 569.991 479.126Z" fill="#7E9BED" transform="matrix(1.00007 0 0 1 296 0)"/><path d="M569.991 454.66 578.566 449.666 572.005 445.955 563.43 450.938 569.991 454.66Z" fill="#A1B7F6" transform="matrix(1.00007 0 0 1 296 0)"/><path d="M578.564 474.144 578.564 449.667 569.989 454.661 569.989 479.126 578.564 474.144Z" fill="#514EB5" transform="matrix(1.00007 0 0 1 296 0)"/><path d="M547.881 491.905 547.881 467.44 541.32 463.73 541.32 488.195 547.881 491.905Z" fill="#7E9BED" transform="matrix(1.00007 0 0 1 296 0)"/><path d="M547.881 467.439 556.456 462.457 549.895 458.734 541.32 463.729 547.881 467.439Z" fill="#A1B7F6" transform="matrix(1.00007 0 0 1 296 0)"/><path d="M556.454 486.923 556.454 462.458 547.879 467.441 547.879 491.906 556.454 486.923Z" fill="#514EB5" transform="matrix(1.00007 0 0 1 296 0)"/><path d="M525.593 504.699 525.593 480.234 519.02 476.512 519.02 500.977 525.593 504.699Z" fill="#7E9BED" transform="matrix(1.00007 0 0 1 296 0)"/><path d="M525.593 480.233 534.156 475.25 527.595 471.528 519.02 476.511 525.593 480.233Z" fill="#A1B7F6" transform="matrix(1.00007 0 0 1 296 0)"/><path d="M534.158 499.714 534.158 475.248 525.595 480.231 525.595 504.696 534.158 499.714Z" fill="#514EB5" transform="matrix(1.00007 0 0 1 296 0)"/><path d="M503.672 517.442 503.672 492.977 497.099 489.255 497.099 513.72 503.672 517.442Z" fill="#7E9BED" transform="matrix(1.00007 0 0 1 296 0)"/><path d="M503.672 492.976 512.236 487.994 505.675 484.271 497.099 489.254 503.672 492.976Z" fill="#A1B7F6" transform="matrix(1.00007 0 0 1 296 0)"/><path d="M512.238 512.46 512.238 487.995 503.674 492.978 503.674 517.443 512.238 512.46Z" fill="#514EB5" transform="matrix(1.00007 0 0 1 296 0)"/><path d="M481.551 530.269 481.551 505.804 474.991 502.082 474.991 526.547 481.551 530.269Z" fill="#7E9BED" transform="matrix(1.00007 0 0 1 296 0)"/><path d="M481.551 505.806 490.127 500.824 483.566 497.102 474.991 502.084 481.551 505.806Z" fill="#A1B7F6" transform="matrix(1.00007 0 0 1 296 0)"/><path d="M490.128 525.287 490.128 500.822 481.553 505.804 481.553 530.269 490.128 525.287Z" fill="#514EB5" transform="matrix(1.00007 0 0 1 296 0)"/><path d="M459.456 543.052 459.456 518.587 452.895 514.876 452.895 539.342 459.456 543.052Z" fill="#7E9BED" transform="matrix(1.00007 0 0 1 296 0)"/><path d="M459.456 518.586 468.02 513.603 461.458 509.893 452.895 514.875 459.456 518.586Z" fill="#A1B7F6" transform="matrix(1.00007 0 0 1 296 0)"/><path d="M468.018 538.066 468.018 513.601 459.455 518.584 459.455 543.049 468.018 538.066Z" fill="#514EB5" transform="matrix(1.00007 0 0 1 296 0)"/><path d="M437.346 555.842 437.346 531.377 430.785 527.655 430.785 552.12 437.346 555.842Z" fill="#7E9BED" transform="matrix(1.00007 0 0 1 296 0)"/><path d="M437.346 531.376 445.909 526.393 439.349 522.671 430.785 527.654 437.346 531.376Z" fill="#A1B7F6" transform="matrix(1.00007 0 0 1 296 0)"/><path d="M445.908 550.86 445.908 526.395 437.345 531.378 437.345 555.843 445.908 550.86Z" fill="#514EB5" transform="matrix(1.00007 0 0 1 296 0)"/><path d="M415.247 568.622 415.247 544.156 408.675 540.446 408.675 564.911 415.247 568.622Z" fill="#7E9BED" transform="matrix(1.00007 0 0 1 296 0)"/><path d="M415.247 544.159 423.811 539.177 417.25 535.466 408.675 540.449 415.247 544.159Z" fill="#A1B7F6" transform="matrix(1.00007 0 0 1 296 0)"/><path d="M423.809 563.639 423.809 539.174 415.246 544.157 415.246 568.622 423.809 563.639Z" fill="#514EB5" transform="matrix(1.00007 0 0 1 296 0)"/><path d="M377.248 220.363 620.969 361.075C627.552 364.878 631.62 371.925 631.62 379.527 631.62 387.129 627.552 394.177 620.969 397.979L377.236 538.704C364.066 546.305 347.789 546.305 334.619 538.704L90.8988 397.991C84.3161 394.186 80.2489 387.137 80.2489 379.533 80.2489 371.93 84.3161 364.881 90.8988 361.075L334.631 220.363C347.799 212.752 364.081 212.752 377.248 220.363Z" fill="#FFFFFF" transform="matrix(1.00007 0 0 1 296 0)"/><path d="M377.248 212.6 620.969 353.372C627.552 357.174 631.62 364.222 631.62 371.824 631.62 379.426 627.552 386.474 620.969 390.276L377.236 530.942C364.069 538.552 347.787 538.552 334.619 530.942L90.8988 390.229C84.3158 386.427 80.2474 379.379 80.2474 371.777 80.2474 364.175 84.3158 357.127 90.8988 353.325L334.631 212.6C347.801 205 364.078 205 377.248 212.6Z" fill="#EFF3FD" transform="matrix(1.00007 0 0 1 296 0)"/><path d="M373.395 244.321 572.708 359.391C578.094 362.499 581.422 368.263 581.422 374.48 581.422 380.698 578.094 386.462 572.708 389.569L373.395 504.651C362.626 510.874 349.31 510.874 338.541 504.651L139.192 389.581C133.807 386.473 130.478 380.71 130.478 374.492 130.478 368.274 133.807 362.511 139.192 359.403L338.505 244.321C349.283 238.085 362.617 238.085 373.395 244.321Z" fill="#61D8F9" transform="matrix(1.00007 0 0 1 296 0)"/><path d="M372.572 244.262 562.827 354.114C567.969 357.081 571.147 362.584 571.147 368.52 571.147 374.456 567.969 379.959 562.827 382.926L372.572 492.777C362.29 498.719 349.578 498.719 339.296 492.777L149.029 382.938C143.888 379.967 140.711 374.463 140.711 368.526 140.711 362.589 143.888 357.084 149.029 354.114L339.296 244.262C349.581 238.333 362.287 238.333 372.572 244.262Z" fill="#00BFF5" transform="matrix(1.00007 0 0 1 296 0)"/><path d="M372.408 277.986C362.216 272.102 349.618 272.102 339.426 277.986L339.426 487.3C349.618 493.184 362.216 493.184 372.408 487.3L373.798 486.487 373.798 278.74 372.408 277.986Z" fill="#D7E0FA" transform="matrix(1.00007 0 0 1 296 0)"/><path d="M209.467 352.995 207.312 344.008 142.762 344.008 142.762 364.197C142.73 370.088 145.888 375.557 151.008 378.473L339.473 487.253 339.473 277.986 209.467 352.995Z" fill="#CAD6F8" transform="matrix(1.00007 0 0 1 296 0)"/><path d="M527.843 367.673 373.797 278.741 373.797 486.477 560.813 378.463C565.921 375.548 569.077 370.092 569.058 364.21L569.058 344.009 527.843 367.673Z" fill="#CAD6F8" transform="matrix(1.00007 0 0 1 296 0)"/><path d="M372.408 226.959 560.873 335.739C565.952 338.685 569.089 344.131 569.089 350.003 569.089 355.876 565.952 361.321 560.873 364.268L372.408 473.059C362.216 478.943 349.618 478.943 339.426 473.059L150.961 364.28C145.882 361.333 142.745 355.887 142.745 350.015 142.745 344.143 145.882 338.697 150.961 335.751L339.426 226.959C349.618 221.075 362.216 221.075 372.408 226.959Z" fill="#FFFFFF" transform="matrix(1.00007 0 0 1 296 0)"/><path d="M372.408 222.954 560.873 331.722C565.958 334.667 569.099 340.116 569.099 345.993 569.099 351.869 565.958 357.318 560.873 360.263L372.408 469.043C362.216 474.927 349.618 474.927 339.426 469.043L150.961 360.263C145.882 357.316 142.745 351.871 142.745 345.998 142.745 340.126 145.882 334.681 150.961 331.734L339.426 222.954C349.618 217.07 362.216 217.07 372.408 222.954Z" fill="#D7E0FA" transform="matrix(1.00007 0 0 1 296 0)"/><path d="M371.406 229.492 534.77 323.807C539.18 326.357 541.904 331.081 541.904 336.174 541.904 341.269 539.18 345.992 534.77 348.543L371.406 442.893C362.575 447.986 351.662 447.986 342.83 442.893L179.478 348.543C175.069 345.992 172.344 341.269 172.344 336.174 172.344 331.081 175.069 326.357 179.478 323.807L342.842 229.492C351.67 224.398 362.579 224.398 371.406 229.492Z" fill="#A1B7F6" transform="matrix(1.00007 0 0 1 296 0)"/><path d="M548.904 624.018C544.942 621.725 540.039 621.725 536.077 624.018L463.223 666.423C461.255 667.566 460.041 669.677 460.041 671.953 460.041 674.229 461.255 676.34 463.223 677.484L521.907 711.454 515.557 719.7 533.497 719.7C539.859 719.698 546.11 718.029 551.625 714.858L617.741 676.447C619.988 675.144 621.375 672.736 621.375 670.139 621.375 667.542 619.988 665.134 617.741 663.832L548.904 624.018Z" fill="#EAEFFC" transform="matrix(1.00007 0 0 1 296 0)"/><path d="M565.879 656.012 527.939 634.068C520.113 629.549 510.44 629.549 502.614 634.068L483.072 644.563 481.447 637.66 431.81 637.66 431.81 668.804C431.787 673.333 434.214 677.537 438.147 679.782L501.448 716.297C509.27 720.828 518.95 720.828 526.773 716.297L591.24 679.865C595.168 677.622 597.591 673.422 597.565 668.898L597.565 637.813 565.879 656.012Z" fill="#7E9BED" transform="matrix(1.00007 0 0 1 296 0)"/><path d="M527.938 594.843 591.239 631.429C595.152 633.688 597.57 637.877 597.57 642.395 597.57 646.914 595.152 651.102 591.239 653.361L526.772 689.806C518.946 694.324 509.273 694.324 501.447 689.806L438.182 653.244C434.298 650.974 431.902 646.8 431.902 642.301 431.902 637.802 434.298 633.628 438.182 631.358L502.613 594.843C510.439 590.325 520.112 590.325 527.938 594.843Z" fill="#FFFFFF" transform="matrix(1.00007 0 0 1 296 0)"/><path d="M527.938 590.251 591.239 626.836C595.152 629.099 597.569 633.289 597.569 637.809 597.569 642.328 595.152 646.518 591.239 648.781L526.772 685.214C518.95 689.744 509.269 689.744 501.447 685.214L438.182 648.64C434.246 646.383 431.811 642.18 431.811 637.644 431.811 633.107 434.246 628.904 438.182 626.648L502.613 590.251C510.439 585.732 520.112 585.732 527.938 590.251Z" fill="#E8EEFC" transform="matrix(1.00007 0 0 1 296 0)"/><path d="M524.169 603.605 569.66 629.896C572.474 631.521 574.214 634.533 574.214 637.782 574.214 641.032 572.474 644.044 569.66 645.668L523.333 671.865C517.705 675.112 510.75 675.112 505.122 671.865L459.631 645.562C456.817 643.941 455.076 640.931 455.076 637.682 455.076 634.434 456.817 631.423 459.631 629.802L505.959 603.605C511.586 600.359 518.541 600.359 524.169 603.605Z" fill="#61D8F9" transform="matrix(1.00007 0 0 1 296 0)"/><path d="M631.819 223.684C628.77 221.921 624.998 221.921 621.949 223.684L565.88 256.289C564.364 257.169 563.428 258.794 563.428 260.547 563.428 262.3 564.364 263.925 565.88 264.805L611.041 291.002 606.165 297.363 619.97 297.363C624.864 297.353 629.672 296.066 633.916 293.629L684.813 264.063C686.543 263.059 687.611 261.204 687.611 259.204 687.611 257.204 686.543 255.35 684.813 254.345L631.819 223.684Z" fill="#EAEFFC" transform="matrix(1.00007 0 0 1 296 0)"/><path d="M647.567 249.987 619.368 233.673C613.544 230.311 606.345 230.311 600.521 233.673L585.998 241.471 584.82 236.347 547.881 236.347 547.881 259.493C547.865 262.86 549.669 265.985 552.592 267.656L599.708 294.865C605.532 298.228 612.731 298.228 618.555 294.865L666.484 267.774C669.405 266.107 671.209 262.986 671.195 259.622L671.195 236.453 647.567 249.987Z" fill="#7E9BED" transform="matrix(1.00007 0 0 1 296 0)"/><path d="M619.368 204.52 666.425 231.718C669.333 233.4 671.13 236.515 671.13 239.875 671.13 243.235 669.333 246.35 666.425 248.032L618.496 275.124C612.672 278.486 605.473 278.486 599.65 275.124L552.533 247.914C549.625 246.232 547.828 243.117 547.828 239.757 547.828 236.397 549.625 233.282 552.533 231.6L600.462 204.508C606.303 201.127 613.531 201.131 619.368 204.52Z" fill="#FFFFFF" transform="matrix(1.00007 0 0 1 296 0)"/><path d="M619.368 201.092 666.425 228.29C669.333 229.972 671.13 233.087 671.13 236.447 671.13 239.807 669.333 242.922 666.425 244.604L618.496 271.696C612.672 275.059 605.473 275.059 599.65 271.696L552.533 244.486C549.625 242.804 547.828 239.689 547.828 236.329 547.828 232.97 549.625 229.854 552.533 228.172L600.462 201.08C606.303 197.699 613.531 197.704 619.368 201.092Z" fill="#E8EEFC" transform="matrix(1.00007 0 0 1 296 0)"/><path d="M616.589 211.022 650.419 230.575C652.512 231.78 653.807 234.019 653.807 236.435 653.807 238.851 652.512 241.09 650.419 242.295L615.965 261.778C611.782 264.19 606.613 264.19 602.431 261.778L568.601 242.225C566.484 241.023 565.173 238.769 565.173 236.335 565.173 233.901 566.484 231.648 568.601 230.446L603.09 211.022C607.264 208.623 612.415 208.623 616.589 211.022Z" fill="#61D8F9" transform="matrix(1.00007 0 0 1 296 0)"/><path d="M73.9018 480.422C71.4213 478.982 68.349 478.982 65.8685 480.422L20.2365 506.961C19.0044 507.68 18.2447 509.003 18.2447 510.43 18.2447 511.856 19.0044 513.18 20.2365 513.899L57.0107 535.207 53.0058 540.39 64.2432 540.39C68.2281 540.385 72.1435 539.338 75.5982 537.351L117.013 513.298C118.425 512.482 119.298 510.971 119.298 509.34 119.298 507.71 118.425 506.198 117.013 505.382L73.9018 480.422Z" fill="#EAEFFC" transform="matrix(1.00007 0 0 1 296 0)"/><path d="M82.9836 500.93 59.496 487.349C54.6519 484.549 48.6621 484.549 43.818 487.349L31.7212 493.851 30.7196 489.575 0 489.575 0 508.857C-0.0182094 511.662 1.4848 514.266 3.92231 515.654L43.0995 538.305C47.9436 541.105 53.9334 541.105 58.7774 538.305L98.6731 515.748C101.107 514.363 102.61 511.764 102.596 508.963L102.596 489.669 82.9836 500.93Z" fill="#7E9BED" transform="matrix(1.00007 0 0 1 296 0)"/><path d="M59.496 463.083 98.6731 485.734C101.095 487.132 102.592 489.723 102.592 492.519 102.592 495.315 101.095 497.907 98.6731 499.304L58.7774 521.814C53.9334 524.613 47.9436 524.613 43.0995 521.814L3.92231 499.221C1.50118 497.821 0.00546282 495.228 0.00546282 492.431 0.00546282 489.634 1.50118 487.041 3.92231 485.64L43.818 463.083C48.6621 460.284 54.6519 460.284 59.496 463.083Z" fill="#FFFFFF" transform="matrix(1.00007 0 0 1 296 0)"/><path d="M59.496 460.232 98.6731 482.871C101.094 484.272 102.59 486.865 102.59 489.662 102.59 492.459 101.094 495.052 98.6731 496.453L58.7774 519.009C53.9334 521.809 47.9436 521.809 43.0995 519.009L3.92231 496.358C1.50082 494.961 0.00400607 492.369 0.00400607 489.573 0.00400607 486.778 1.50082 484.186 3.92231 482.789L43.818 460.232C48.6621 457.432 54.6519 457.432 59.496 460.232Z" fill="#E8EEFC" transform="matrix(1.00007 0 0 1 296 0)"/><path d="M57.1874 468.499 85.3511 484.766C87.0909 485.773 88.1656 487.638 88.1656 489.648 88.1656 491.659 87.0909 493.523 85.3511 494.531L56.6691 510.739C53.19 512.75 48.8875 512.75 45.4084 510.739L17.2447 494.46C15.5042 493.456 14.4284 491.593 14.4284 489.583 14.4284 487.574 15.5042 485.711 17.2447 484.707L45.9383 468.499C49.4145 466.492 53.7112 466.492 57.1874 468.499Z" fill="#61D8F9" transform="matrix(1.00007 0 0 1 296 0)"/><path d="M423.387 283.675C413.799 283.675 407.037 279.824 407.037 276.231 407.037 272.638 413.799 268.775 423.387 268.775 425.866 268.775 428.336 269.064 430.749 269.635 432.565 270.066 434.318 270.727 435.967 271.602 438.323 272.98 439.736 274.606 439.736 276.231 439.736 279.824 433.058 283.675 423.387 283.675Z" fill="#61D8F9" transform="matrix(1.00007 0 0 1 296 0)"/><path d="M447.769 305.855C438.181 305.855 431.42 302.003 431.42 298.399 431.42 294.795 438.181 290.943 447.769 290.943 450.249 290.937 452.72 291.225 455.131 291.803 456.955 292.223 458.713 292.885 460.361 293.77 462.717 295.136 464.119 296.762 464.119 298.387 464.095 302.003 457.44 305.855 447.769 305.855Z" fill="#61D8F9" transform="matrix(1.00007 0 0 1 296 0)"/><path d="M399.005 261.495C389.416 261.495 382.655 257.643 382.655 254.051 382.655 250.458 389.416 246.607 399.005 246.607 401.484 246.602 403.955 246.89 406.367 247.467 408.186 247.887 409.941 248.548 411.585 249.434 413.94 250.8 415.354 252.425 415.354 254.051 415.354 257.643 408.734 261.495 399.005 261.495Z" fill="#61D8F9" transform="matrix(1.00007 0 0 1 296 0)"/><path d="M482.436 286.019 484.238 278.34 539.482 284.052 539.482 334.066C539.519 339.118 536.809 343.811 532.415 346.305L527.385 349.214 521.661 346.646 515.924 355.787 505.182 361.983 499.433 359.403 493.709 368.614 482.966 374.798 476.453 371.865 471.517 381.418 460.787 387.614 454.52 384.528 450.221 393.703 438.595 400.418 432.941 396.99 427.134 407.037 416.403 413.233 411.232 409.535 404.942 419.853 394.211 426.049 389.229 422.232 382.821 432.657 371.218 439.359 371.218 221.812 482.436 286.019Z" fill="#CAD6F8" transform="matrix(1.00007 0 0 1 296 0)"/><path d="M371.206 221.812 371.206 439.359C362.488 444.376 351.725 444.376 343.007 439.359L343.007 221.8C351.722 216.77 362.495 216.775 371.206 221.812Z" fill="#DCE4FB" transform="matrix(1.00007 0 0 1 296 0)"/><path d="M210.032 298.588 343.018 221.8 343.018 439.359 331.451 432.669 325.715 419.865 319.99 426.061 309.259 419.853 303.37 406.896 297.834 413.198 287.103 406.99 280.448 393.656 275.63 400.418 264.9 394.222 259.14 381.43 253.403 387.614 242.649 381.418 236.924 368.602 231.199 374.798 220.457 368.614 214.732 355.798 209.008 361.983 198.277 355.787 192.541 342.983 186.816 349.167 181.822 346.305C177.444 343.811 174.739 339.139 174.754 334.102L174.754 285.949 210.032 298.588Z" fill="#CAD6F8" transform="matrix(1.00007 0 0 1 296 0)"/><path d="M343.018 182.717 181.822 275.772C177.485 278.302 174.81 282.96 174.81 287.981 174.81 293.001 177.485 297.659 181.822 300.189L343.018 393.244C351.736 398.261 362.499 398.261 371.217 393.244L532.414 300.189C536.745 297.658 539.416 293.003 539.416 287.987 539.416 282.97 536.745 278.315 532.414 275.783L371.206 182.729C362.499 177.689 351.729 177.684 343.018 182.717Z" fill="#FFFFFF" transform="matrix(1.00007 0 0 1 296 0)"/><path d="M343.018 179.042 181.822 272.097C177.485 274.627 174.81 279.285 174.81 284.305 174.81 289.326 177.485 293.984 181.822 296.514L343.018 389.569C351.736 394.586 362.499 394.586 371.217 389.569L532.414 296.514C536.751 293.984 539.426 289.326 539.426 284.305 539.426 279.285 536.751 274.627 532.414 272.097L371.206 179.042C362.491 174.03 351.733 174.03 343.018 179.042Z" fill="#E8EEFC" transform="matrix(1.00007 0 0 1 296 0)"/><path d="M503.13 284.358 367.977 206.334C360.679 202.104 351.646 202.104 344.348 206.334L209.206 284.347C207.579 285.303 206.208 286.641 205.213 288.245 203.987 286.343 203.335 284.127 203.335 281.863 203.335 277.667 205.577 273.777 209.206 271.672L344.348 193.66C351.646 189.43 360.679 189.43 367.977 193.66L503.13 271.684C506.76 273.788 509.002 277.679 509.002 281.875 509.002 284.139 508.349 286.355 507.123 288.257 506.128 286.653 504.758 285.314 503.13 284.358Z" fill="#00BFF5" transform="matrix(1.00007 0 0 1 296 0)"/><path d="M503.13 292.121 367.977 370.169C360.679 374.399 351.646 374.399 344.348 370.169L209.206 292.121C207.576 291.168 206.205 289.829 205.213 288.222 206.208 286.618 207.579 285.279 209.206 284.323L344.348 206.31C351.646 202.08 360.679 202.08 367.977 206.31L503.13 284.335C504.758 285.291 506.128 286.629 507.123 288.234 506.124 289.832 504.754 291.166 503.13 292.121Z" fill="#61D8F9" transform="matrix(1.00007 0 0 1 296 0)"/><path d="M527.385 349.179 527.385 316.527 515.947 323.182 515.947 355.822 527.385 349.179Z" fill="#514EB5" transform="matrix(1.00007 0 0 1 296 0)"/><path d="M505.191 361.983 505.179 329.331 493.754 335.975 493.742 368.614 505.191 361.983Z" fill="#514EB5" transform="matrix(1.00007 0 0 1 296 0)"/><path d="M482.99 374.775 482.99 342.123 471.553 348.779 471.553 381.418 482.99 374.775Z" fill="#514EB5" transform="matrix(1.00007 0 0 1 296 0)"/><path d="M460.785 387.565 460.785 354.925 449.36 361.569 449.36 394.209 460.785 387.565Z" fill="#514EB5" transform="matrix(1.00007 0 0 1 296 0)"/><path d="M438.595 400.359 438.595 367.72 427.158 374.375 427.158 407.014 438.595 400.359Z" fill="#514EB5" transform="matrix(1.00007 0 0 1 296 0)"/><path d="M416.391 413.164 416.391 380.524 404.965 387.168 404.965 419.807 416.391 413.164Z" fill="#514EB5" transform="matrix(1.00007 0 0 1 296 0)"/><path d="M394.197 425.965 394.197 393.314 382.76 399.969 382.76 432.609 394.197 425.965Z" fill="#514EB5" transform="matrix(1.00007 0 0 1 296 0)"/><path d="M186.851 349.167 186.851 316.527 198.289 323.182 198.289 355.822 186.851 349.167Z" fill="#514EB5" transform="matrix(1.00007 0 0 1 296 0)"/><path d="M209.043 361.983 209.055 329.331 220.492 335.975 220.492 368.614 209.043 361.983Z" fill="#514EB5" transform="matrix(1.00007 0 0 1 296 0)"/><path d="M231.247 374.775 231.247 342.123 242.684 348.779 242.684 381.418 231.247 374.775Z" fill="#514EB5" transform="matrix(1.00007 0 0 1 296 0)"/><path d="M253.45 387.565 253.45 354.925 264.876 361.569 264.876 394.221 253.45 387.565Z" fill="#514EB5" transform="matrix(1.00007 0 0 1 296 0)"/><path d="M275.642 400.359 275.642 367.72 287.079 374.375 287.068 407.027 275.642 400.359Z" fill="#514EB5" transform="matrix(1.00007 0 0 1 296 0)"/><path d="M297.845 413.164 297.845 380.524 309.271 387.168 309.271 419.807 297.845 413.164Z" fill="#514EB5" transform="matrix(1.00007 0 0 1 296 0)"/><path d="M320.037 425.965 320.037 393.314 331.475 399.969 331.475 432.609 320.037 425.965Z" fill="#514EB5" transform="matrix(1.00007 0 0 1 296 0)"/><path d="M322.181 304.206 332.876 310.378 332.876 292.215 322.181 304.206Z" fill="#5A5ACC" transform="matrix(1.00007 0 0 1 296 0)"/><path d="M363.16 247.714 269.481 273.781 286.161 283.416 306.939 277.244 327.965 289.376 327.965 271.201 358.449 262.379 358.614 262.473 358.449 262.662 358.449 290.377 375.67 269.752 375.67 244.239 363.16 247.714Z" fill="#514EB5" transform="matrix(1.00007 0 0 1 296 0)"/><path d="M375.671 244.239 375.671 269.752 390.042 252.531 375.671 244.239Z" fill="#23234F" transform="matrix(1.00007 0 0 1 296 0)"/><path d="M327.965 271.201 327.965 289.376 332.876 292.215 332.876 310.378 338.86 313.841 343.325 308.482 343.325 280.083 327.965 271.201Z" fill="#23234F" transform="matrix(1.00007 0 0 1 296 0)"/><path d="M343.325 280.083 343.325 308.482 358.449 290.377 358.449 262.662 343.325 280.083Z" fill="#5A5ACC" transform="matrix(1.00007 0 0 1 296 0)"/><path d="M353.054 321.71 370.452 331.758 432.681 295.855 432.681 275.772 353.054 321.71Z" fill="#514EB5" transform="matrix(1.00007 0 0 1 296 0)"/><path d="M432.681 275.772 432.681 295.855 450.079 285.819 432.681 275.772Z" fill="#23234F" transform="matrix(1.00007 0 0 1 296 0)"/><path d="M315.502 51.0974C314.546 50.1436 313.25 49.6075 311.9 49.6075 309.102 49.6075 306.799 51.9099 306.799 54.708 306.799 57.5057 309.102 59.8081 311.9 59.8081 313.25 59.8081 314.546 59.272 315.502 58.3182 317.48 56.3359 317.48 53.0797 315.502 51.0974Z" fill="#2ACAF7" transform="matrix(1.00007 0 0 1 296 0)"/><path d="M241.836 194.449C240.88 193.495 239.584 192.959 238.233 192.959 235.435 192.959 233.133 195.261 233.133 198.059 233.133 200.857 235.435 203.159 238.233 203.159 239.584 203.159 240.88 202.623 241.836 201.67 243.813 199.687 243.813 196.431 241.836 194.449Z" fill="#2ACAF7" transform="matrix(1.00007 0 0 1 296 0)"/><path d="M270.848 85.6338C269.892 84.6799 268.596 84.1439 267.245 84.1439 264.447 84.1439 262.145 86.4463 262.145 89.2439 262.145 92.042 264.447 94.3444 267.245 94.3444 268.596 94.3444 269.892 93.8083 270.848 92.8545 271.806 91.8978 272.346 90.598 272.346 89.2439 272.346 87.8903 271.806 86.5901 270.848 85.6338Z" fill="#2ACAF7" transform="matrix(1.00007 0 0 1 296 0)"/><path d="M387.813 154.306C386.857 153.348 385.558 152.81 384.204 152.81 381.406 152.81 379.104 155.112 379.104 157.91 379.104 160.708 381.406 163.011 384.204 163.011 385.558 163.011 386.857 162.472 387.813 161.515 388.771 160.56 389.31 159.262 389.31 157.91 389.31 156.558 388.771 155.26 387.813 154.306Z" fill="#2ACAF7" transform="matrix(1.00007 0 0 1 296 0)"/><path d="M479.985 120.936C479.029 119.982 477.733 119.446 476.383 119.446 473.584 119.446 471.282 121.748 471.282 124.546 471.282 127.344 473.584 129.646 476.383 129.646 477.733 129.646 479.029 129.11 479.985 128.156 481.962 126.174 481.962 122.918 479.985 120.936Z" fill="#2ACAF7" transform="matrix(1.00007 0 0 1 296 0)"/><path d="M574.252 501.884C574.249 498.651 572.511 495.657 569.705 494.051L524.167 467.76C518.543 464.501 511.582 464.501 505.957 467.76L459.63 493.945C457.026 495.443 455.342 498.155 455.154 501.154L455.071 501.154 455.071 637.791C455.07 641.025 456.809 644.022 459.618 645.624L505.109 671.927C510.737 675.173 517.691 675.173 523.319 671.927L569.646 645.73C572.485 644.105 574.229 641.062 574.193 637.791L574.193 501.884 574.252 501.884Z" fill="url(#fill1)" transform="matrix(1.00007 0 0 1 296 0)"/><path d="M653.798 135.377C653.795 132.975 652.502 130.75 650.417 129.558L616.588 110.005C612.405 107.592 607.237 107.592 603.054 110.005L568.6 129.475C566.664 130.595 565.415 132.615 565.278 134.847L565.278 236.394C565.277 238.8 566.57 241.03 568.659 242.225L602.488 261.778C606.671 264.19 611.839 264.19 616.022 261.778L650.476 242.295C652.583 241.09 653.879 238.833 653.857 236.406L653.857 135.377 653.798 135.377Z" fill="url(#fill2)" transform="matrix(1.00007 0 0 1 296 0)"/><path d="M88.1663 327.812C88.1605 325.81 87.0858 323.957 85.3511 322.958L57.1874 306.692C53.7083 304.68 49.4058 304.68 45.9267 306.692L17.2447 322.899C15.6299 323.825 14.5872 325.506 14.4765 327.364L14.4765 489.62C14.479 491.62 15.5556 493.471 17.2917 494.462L45.4084 510.74C48.8875 512.752 53.19 512.752 56.6691 510.74L85.3511 494.533C87.1076 493.527 88.1867 491.644 88.1663 489.62L88.1663 327.812Z" fill="url(#fill3)" transform="matrix(1.00007 0 0 1 296 0)"/><path d="M507.114 0 204.757 0 204.757 278.375 205.334 278.375C205.324 282.556 207.581 286.429 211.224 288.481L344.622 365.493C351.828 369.656 360.738 369.656 367.944 365.493L501.283 288.469C504.905 286.41 507.139 282.541 507.114 278.375L507.114 0Z" fill="url(#fill4)" transform="matrix(1.00007 0 0 1 296 0)"/></g></svg>