<svg width="334" height="326" xmlns="http://www.w3.org/2000/svg" xmlns:xlink="http://www.w3.org/1999/xlink" xml:space="preserve" overflow="hidden"><defs><clipPath id="clip0"><rect x="473" y="197" width="334" height="326"/></clipPath></defs><g clip-path="url(#clip0)" transform="translate(-473 -197)"><path d="M795.754 363.334C836.421 460.828 753.606 522.339 653.751 522.339 553.895 522.339 473 451.152 473 363.334 473 275.517 553.508 197 653.337 197 753.166 197 789.34 238.078 795.754 363.334" fill="#EBF2FC"/><path d="M639.667 291.238C604.148 291.238 575.251 319.808 575.251 354.925 575.251 390.042 604.148 418.612 639.667 418.612 675.185 418.612 704.082 390.042 704.082 354.925 704.082 319.808 675.185 291.238 639.667 291.238ZM639.667 407.032C610.606 407.032 586.963 383.657 586.963 354.925 586.963 326.193 610.606 302.818 639.667 302.818 668.728 302.818 692.37 326.193 692.37 354.925 692.37 383.657 668.727 407.032 639.667 407.032Z" fill="#103CA3"/><path d="M663.821 332.408 630.695 365.16 615.512 350.149C613.226 347.888 609.518 347.888 607.231 350.149 604.944 352.41 604.944 356.075 607.231 358.336L626.554 377.442C627.652 378.527 629.141 379.138 630.694 379.138L630.695 379.138C632.248 379.138 633.737 378.527 634.835 377.442L672.103 340.597C674.39 338.336 674.39 334.67 672.103 332.409 669.816 330.148 666.108 330.147 663.821 332.408Z" fill="#103CA3"/></g></svg>