<svg width="334" height="334" xmlns="http://www.w3.org/2000/svg" xmlns:xlink="http://www.w3.org/1999/xlink" xml:space="preserve" overflow="hidden"><defs><clipPath id="clip0"><rect x="473" y="193" width="334" height="334"/></clipPath></defs><g clip-path="url(#clip0)" transform="translate(-473 -193)"><path d="M707.483 223.95C707.483 223.95 835.129 335.609 800.318 445.445 800.318 445.445 764.147 560.119 576.397 516.39 541.289 508.21 510.484 487.464 492.125 457.985 483.162 443.454 477.039 427.387 474.077 410.621 468.24 378.773 487.171 311.408 505.812 284.326 546.439 225.294 627.372 149.504 707.483 223.95" fill="#EBF2FC"/><path d="M713.475 408.316 693.488 388.554 712.568 350.826C714.588 346.832 714.624 342.749 712.67 339.621 710.715 336.494 707.004 334.701 702.488 334.701L675.813 334.701C669.248 320.962 655.102 311.429 638.739 311.429 622.379 311.429 608.234 320.962 601.669 334.701L585.718 334.701 585.718 312.209C585.718 310.142 584.024 308.467 581.934 308.467L568.534 308.467C566.443 308.467 564.749 310.142 564.749 312.209 564.749 314.276 566.443 315.951 568.534 315.951L578.149 315.951 578.149 426.669C578.149 428.736 579.843 430.41 581.934 430.41L586.784 430.41C585.856 432.042 585.324 433.931 585.324 435.943 585.324 442.104 590.295 447.116 596.405 447.116 602.516 447.116 607.488 442.104 607.488 435.943 607.488 433.931 606.955 432.043 606.028 430.41L644.612 430.41C643.685 432.042 643.152 433.931 643.152 435.943 643.152 442.104 648.123 447.116 654.234 447.116 660.345 447.116 665.317 442.104 665.317 435.943 665.317 433.931 664.783 432.043 663.857 430.41L670.377 430.41C672.468 430.41 674.162 428.736 674.162 426.669 674.162 424.602 672.468 422.927 670.377 422.927L585.718 422.927 585.718 412.138 667.111 412.138C670.92 412.138 674.965 410.894 678.562 408.835L695.757 425.835C696.467 426.536 697.429 426.931 698.433 426.931 699.437 426.931 700.4 426.536 701.11 425.834L713.476 413.607C714.953 412.146 714.953 409.777 713.475 408.316ZM654.235 432.253C656.172 432.253 657.748 433.908 657.748 435.943 657.748 437.978 656.172 439.633 654.235 439.633 652.298 439.633 650.722 437.978 650.722 435.943 650.722 433.908 652.298 432.253 654.235 432.253ZM596.405 432.253C598.342 432.253 599.919 433.908 599.919 435.943 599.919 437.978 598.342 439.633 596.405 439.633 594.469 439.633 592.893 437.978 592.893 435.943 592.893 433.908 594.469 432.253 596.405 432.253ZM688.675 381.337 686.189 381.337 675.198 370.47C676.036 368.862 676.769 367.205 677.379 365.502L696.683 365.502 688.675 381.337ZM702.488 342.184C704.322 342.184 705.686 342.684 706.231 343.555 706.776 344.427 706.618 345.857 705.798 347.478L700.468 358.018 679.265 358.018C679.566 356.025 679.72 353.997 679.72 351.945 679.72 348.58 679.296 345.312 678.51 342.184L702.488 342.184ZM638.74 318.912C657.163 318.912 672.152 333.731 672.152 351.945 672.152 360.768 668.677 369.064 662.366 375.303 656.055 381.542 647.664 384.978 638.74 384.978 620.318 384.978 605.33 370.159 605.33 351.945 605.331 333.731 620.319 318.912 638.74 318.912ZM585.718 342.184 598.971 342.184C598.185 345.313 597.761 348.58 597.761 351.945 597.761 354.009 597.92 356.036 598.223 358.018L585.719 358.018 585.719 342.184 585.718 342.184ZM604.682 404.655 585.718 404.655 585.718 388.821 604.682 388.821 604.682 404.655ZM585.718 381.337 585.718 365.502 600.128 365.502C601.275 368.685 602.809 371.687 604.682 374.449L604.682 381.337 585.718 381.337ZM612.251 404.655 612.251 388.821 621.793 388.821C624.763 390.161 627.919 391.158 631.215 391.766L631.215 404.655 612.251 404.655ZM657.748 404.655 638.784 404.655 638.784 392.462C644.737 392.455 650.491 391.195 655.749 388.821L657.748 388.821 657.748 404.655ZM667.111 404.655 665.317 404.655 665.317 395.741 672.939 403.277C670.99 404.142 668.962 404.655 667.111 404.655ZM698.433 417.897 663.992 383.848C665.287 382.842 666.535 381.764 667.718 380.595 668.901 379.426 669.992 378.192 671.008 376.912L705.447 410.962 698.433 417.897Z" fill="#103CA3"/></g></svg>