<svg width="334" height="326" xmlns="http://www.w3.org/2000/svg" xmlns:xlink="http://www.w3.org/1999/xlink" xml:space="preserve" overflow="hidden"><defs><clipPath id="clip0"><rect x="473" y="197" width="334" height="326"/></clipPath></defs><g clip-path="url(#clip0)" transform="translate(-473 -197)"><path d="M795.754 363.334C836.421 460.828 753.606 522.339 653.751 522.339 553.895 522.339 473 451.152 473 363.334 473 275.517 553.508 197 653.337 197 753.166 197 789.34 238.078 795.754 363.334" fill="#EBF2FC"/><path d="M671.203 356.989 638.668 356.989 638.668 362.35 671.203 362.35C692.135 362.35 709.162 379.184 709.162 399.879 709.162 420.573 692.135 437.408 671.203 437.408 650.272 437.408 633.245 420.573 633.245 399.879L633.245 319.46C633.245 295.812 613.784 276.57 589.865 276.57 565.946 276.57 546.484 295.812 546.484 319.46 546.484 343.109 565.946 362.35 589.865 362.35L622.4 362.35 622.4 356.989 589.865 356.989C568.934 356.989 551.907 340.155 551.907 319.46 551.907 298.766 568.934 281.931 589.865 281.931 610.796 281.931 627.823 298.766 627.823 319.46L627.823 399.879C627.823 423.527 647.284 442.769 671.203 442.769 695.122 442.769 714.584 423.527 714.584 399.879 714.584 376.23 695.122 356.989 671.203 356.989Z" fill="#103CA3"/><path d="M589.865 287.293C571.924 287.293 557.329 301.722 557.329 319.46 557.329 337.198 571.924 351.628 589.865 351.628 607.805 351.628 622.4 337.198 622.4 319.46 622.4 301.722 607.805 287.293 589.865 287.293ZM582.121 293.782C579.969 296.214 577.602 299.318 575.584 302.926 573.521 301.867 572.106 300.773 571.265 300.007 574.31 297.16 578.006 294.997 582.121 293.782ZM567.719 304.049C568.901 305.097 570.726 306.475 573.266 307.762 572.147 310.571 571.341 313.592 571.04 316.779L562.89 316.779C563.365 312.07 565.092 307.724 567.719 304.049ZM562.89 322.141 571.04 322.141C571.341 325.328 572.147 328.349 573.266 331.158 570.723 332.445 568.901 333.823 567.719 334.871 565.092 331.196 563.365 326.851 562.89 322.141ZM571.265 338.913C572.106 338.149 573.521 337.053 575.584 335.994 577.604 339.602 579.969 342.706 582.121 345.138 578.006 343.923 574.31 341.758 571.265 338.913ZM587.154 342.634C585.117 340.447 582.731 337.509 580.698 334.032 582.569 333.52 584.711 333.131 587.154 332.962L587.154 342.634ZM587.154 327.59C583.762 327.797 580.834 328.381 578.309 329.156 577.425 326.939 576.756 324.594 576.471 322.141L587.154 322.141 587.154 327.59ZM587.154 316.779 576.471 316.779C576.756 314.329 577.431 311.987 578.317 309.767 580.839 310.539 583.764 311.123 587.154 311.33L587.154 316.779ZM587.154 305.958C584.716 305.789 582.577 305.403 580.709 304.891 582.74 301.425 585.12 298.49 587.154 296.3L587.154 305.958ZM608.464 300.007C607.624 300.771 606.208 301.867 604.145 302.926 602.128 299.318 599.761 296.214 597.608 293.782 601.724 294.997 605.419 297.163 608.464 300.007ZM592.576 296.289C594.612 298.476 596.998 301.414 599.032 304.891 597.161 305.4 595.019 305.789 592.576 305.958L592.576 296.289ZM592.576 311.33C595.968 311.123 598.896 310.539 601.42 309.764 602.304 311.981 602.974 314.327 603.259 316.779L592.576 316.779 592.576 311.33ZM592.576 322.141 603.259 322.141C602.974 324.591 602.299 326.934 601.412 329.153 598.891 328.381 595.965 327.797 592.576 327.59L592.576 322.141ZM592.576 332.962C595.014 333.131 597.153 333.517 599.021 334.029 596.99 337.495 594.61 340.431 592.576 342.621L592.576 332.962ZM597.608 345.138C599.761 342.706 602.128 339.602 604.145 335.994 606.208 337.053 607.624 338.149 608.464 338.913 605.419 341.76 601.724 343.923 597.608 345.138ZM612.011 334.871C610.828 333.823 609.004 332.445 606.463 331.158 607.583 328.349 608.391 325.328 608.689 322.141L616.839 322.141C616.365 326.851 614.638 331.196 612.011 334.871ZM608.689 316.779C608.388 313.592 607.583 310.571 606.463 307.762 609.007 306.475 610.828 305.097 612.011 304.049 614.635 307.727 616.365 312.07 616.839 316.779L608.689 316.779Z" fill="#103CA3"/><path d="M673.915 426.685 673.915 405.24 679.337 405.24C691.297 405.24 701.028 395.619 701.028 383.795L701.028 381.114 690.183 381.114C682.022 381.114 674.904 385.599 671.203 392.202 667.503 385.599 660.385 381.114 652.224 381.114L641.379 381.114 641.379 383.795C641.379 395.619 651.11 405.24 663.07 405.24L668.492 405.24 668.492 426.685 673.915 426.685ZM690.183 386.476 695.38 386.476C694.084 394.073 687.384 399.879 679.337 399.879L674.14 399.879C675.436 392.282 682.135 386.476 690.183 386.476ZM663.07 399.879C655.023 399.879 648.323 394.073 647.027 386.476L652.224 386.476C660.272 386.476 666.971 392.282 668.267 399.879L663.07 399.879Z" fill="#103CA3"/><path d="M638.668 346.266 644.091 346.266 644.091 351.627 638.668 351.627Z" fill="#103CA3" fill-rule="evenodd"/><path d="M649.513 346.266 654.936 346.266 654.936 351.627 649.513 351.627Z" fill="#103CA3" fill-rule="evenodd"/><path d="M660.358 346.266 665.781 346.266 665.781 351.627 660.358 351.627Z" fill="#103CA3" fill-rule="evenodd"/><path d="M616.978 367.711 622.401 367.711 622.401 373.072 616.978 373.072Z" fill="#103CA3" fill-rule="evenodd"/><path d="M606.133 367.711 611.556 367.711 611.556 373.072 606.133 373.072Z" fill="#103CA3" fill-rule="evenodd"/><path d="M595.287 367.711 600.71 367.711 600.71 373.072 595.287 373.072Z" fill="#103CA3" fill-rule="evenodd"/></g></svg>