<svg width="387" height="384" xmlns="http://www.w3.org/2000/svg" xmlns:xlink="http://www.w3.org/1999/xlink" xml:space="preserve" overflow="hidden"><defs><clipPath id="clip0"><rect x="446" y="168" width="387" height="384"/></clipPath><clipPath id="clip1"><rect x="560" y="296" width="159" height="127"/></clipPath></defs><g clip-path="url(#clip0)" transform="translate(-446 -168)"><path d="M832.781 315.7C832.781 421.7 735.548 551.863 622.279 551.863 509.01 551.863 446 473.106 446 367.106 446 261.106 509.018 168 622.279 168 735.54 168 832.781 209.7 832.781 315.7" fill="#EBF2FC"/><g clip-path="url(#clip1)"><path d="M571.298 296.922 707.483 296.922C713.354 296.922 718.148 301.716 718.148 307.587L718.148 412.289C718.148 418.16 713.354 422.955 707.483 422.955L571.298 422.955C565.427 422.942 560.633 418.148 560.633 412.277L560.633 307.587C560.633 301.716 565.427 296.922 571.298 296.922ZM663.63 383.845 667.848 383.845 667.848 373.077C667.848 372.872 667.758 372.68 667.617 372.539 667.476 372.398 667.284 372.308 667.079 372.308L641.98 372.308 641.98 383.845 646.184 383.845C647.517 383.845 648.607 384.934 648.607 386.268L648.607 395.946C648.607 397.279 647.517 398.368 646.184 398.368L632.507 398.368C631.174 398.368 630.084 397.279 630.084 395.946L630.084 386.268C630.084 384.934 631.174 383.845 632.507 383.845L636.711 383.845 636.711 372.308 611.638 372.308C611.433 372.308 611.241 372.398 611.1 372.539 610.959 372.68 610.869 372.872 610.869 373.077L610.869 383.845 615.15 383.845C616.483 383.845 617.573 384.934 617.573 386.268L617.573 395.946C617.573 397.279 616.483 398.368 615.15 398.368L601.473 398.368C600.14 398.368 599.05 397.279 599.05 395.946L599.05 386.268C599.05 384.934 600.14 383.845 601.473 383.845L605.626 383.845 605.626 373.077C605.626 371.424 606.305 369.924 607.395 368.834 608.485 367.745 609.984 367.078 611.638 367.078L636.737 367.078 636.737 351.593 632.532 351.593C631.199 351.593 630.11 350.504 630.11 349.17L630.11 339.492C630.11 338.159 631.199 337.07 632.532 337.07L646.21 337.07C647.543 337.07 648.633 338.159 648.633 339.492L648.633 349.17C648.633 350.504 647.543 351.593 646.21 351.593L642.005 351.593 642.005 367.065 667.104 367.065C668.758 367.065 670.258 367.745 671.347 368.821 672.437 369.911 673.116 371.411 673.116 373.064L673.116 383.832 677.333 383.832C678.667 383.832 679.756 384.922 679.756 386.255L679.756 395.933C679.756 397.266 678.667 398.356 677.333 398.356L663.656 398.356C662.323 398.356 661.233 397.266 661.233 395.933L661.233 386.268C661.22 384.934 662.31 383.845 663.63 383.845ZM711.854 326.776 567.414 326.776 567.414 413.315C567.414 414.135 567.734 414.853 568.272 415.404 568.811 415.943 569.541 416.263 570.362 416.263L708.854 416.263C709.675 416.263 710.393 415.943 710.944 415.404 711.495 414.853 711.803 414.135 711.803 413.315L711.803 326.776 711.854 326.776ZM697.331 308.907C700.24 308.907 702.599 311.266 702.599 314.176 702.599 317.085 700.24 319.444 697.331 319.444 694.421 319.444 692.062 317.085 692.062 314.176 692.075 311.266 694.434 308.907 697.331 308.907ZM661.643 308.907C664.553 308.907 666.912 311.266 666.912 314.176 666.912 317.085 664.553 319.444 661.643 319.444 658.734 319.444 656.375 317.085 656.375 314.176 656.375 311.266 658.734 308.907 661.643 308.907ZM679.487 308.907C682.397 308.907 684.755 311.266 684.755 314.176 684.755 317.085 682.397 319.444 679.487 319.444 676.577 319.444 674.219 317.085 674.219 314.176 674.219 311.266 676.577 308.907 679.487 308.907Z" fill="#1930AB" fill-rule="evenodd"/></g></g></svg>