<svg width="338" height="334" xmlns="http://www.w3.org/2000/svg" xmlns:xlink="http://www.w3.org/1999/xlink" xml:space="preserve" overflow="hidden"><defs><clipPath id="clip0"><rect x="471" y="193" width="338" height="334"/></clipPath><clipPath id="clip1"><rect x="554" y="277" width="166" height="165"/></clipPath></defs><g clip-path="url(#clip0)" transform="translate(-471 -193)"><path d="M798.018 363.46C839.223 463.372 755.314 526.408 654.139 526.408 552.964 526.408 471 453.455 471 363.46 471 273.464 552.572 193 653.72 193 754.868 193 791.52 235.097 798.018 363.46" fill="#EBF2FC"/><g clip-path="url(#clip1)"><path d="M650.645 339.179 681.432 352.862 712.22 339.179 712.22 304.971 681.432 291.288 650.645 304.971 650.645 339.179ZM602.753 325.496C587.64 325.496 575.387 337.749 575.387 352.862 575.387 367.976 587.64 380.229 602.753 380.229 617.866 380.229 630.12 367.976 630.12 352.862 630.12 337.749 617.866 325.496 602.753 325.496ZM561.703 434.962 561.703 421.279C561.703 393.912 578.807 380.229 602.753 380.229 626.699 380.229 643.803 393.912 643.803 421.279L643.803 434.962 561.703 434.962ZM650.645 304.971 681.432 318.654 712.22 304.971M681.432 318.654 681.432 352.862 681.432 318.654Z" stroke="#1930AB" stroke-width="13.68" fill="none"/></g></g></svg>