<svg width="387" height="384" xmlns="http://www.w3.org/2000/svg" xmlns:xlink="http://www.w3.org/1999/xlink" xml:space="preserve" overflow="hidden"><defs><clipPath id="clip0"><rect x="446" y="168" width="387" height="384"/></clipPath></defs><g clip-path="url(#clip0)" transform="translate(-446 -168)"><path d="M832.781 315.7C832.781 421.7 735.548 551.863 622.279 551.863 509.01 551.863 446 473.106 446 367.106 446 261.106 509.018 168 622.279 168 735.54 168 832.781 209.7 832.781 315.7" fill="#EBF2FC"/><path d="M604.312 314.128 702.088 314.128 702.088 355.429 604.312 355.429 604.312 314.128ZM588.291 415.197C587.391 418.207 586.101 420.64 584.528 422.535L703.486 422.535C707.773 422.293 710.972 421.151 713.109 419.121 715.205 417.132 716.375 414.162 716.63 410.224L716.63 297.288 589.555 297.288 589.555 404.888C589.555 409.458 589.609 410.789 588.291 415.197ZM574.489 427.871C573.884 427.911 573.265 427.911 572.661 427.884 570.215 427.736 567.809 426.984 565.632 425.707 560.86 422.898 557.178 417.522 556.842 410.493 556.828 410.385 556.815 410.264 556.815 410.157L556.815 315.539C556.815 314.061 558.011 312.878 559.476 312.878L584.219 312.878 584.219 294.613C584.219 293.135 585.415 291.952 586.88 291.952L719.291 291.952C720.769 291.952 721.952 293.148 721.952 294.613L721.952 410.291C721.952 410.439 721.939 410.574 721.925 410.708 721.562 415.95 719.842 420.049 716.764 422.979 713.7 425.895 709.372 427.521 703.768 427.844 703.66 427.857 703.539 427.871 703.418 427.871L574.489 427.871ZM573.01 422.575C573.145 422.549 573.292 422.535 573.44 422.535L574.408 422.535C575.47 422.428 576.505 422.132 577.472 421.621 583.399 418.517 584.219 410.936 584.219 404.929L584.219 318.2 562.151 318.2 562.151 410.238C562.406 415.291 565 419.135 568.346 421.111 569.798 421.971 571.384 422.468 572.956 422.562L573.01 422.575ZM611.744 324.41 616.986 324.41 623.8 335.861 623.8 324.41 629.095 324.41 629.095 345.134 623.8 345.134 617.026 333.751 617.026 345.134 611.758 345.134 611.758 324.41 611.744 324.41ZM633.705 324.41 648.718 324.41 648.718 328.845 639.337 328.845 639.337 332.151 648.032 332.151 648.032 336.371 639.337 336.371 639.337 340.457 649 340.457 649 345.148 633.705 345.148 633.705 324.41ZM651.056 324.41 656.378 324.41 658.287 335.982 661.096 324.41 666.378 324.41 669.2 335.995 671.122 324.41 676.431 324.41 672.426 345.134 666.929 345.134 663.744 332.084 660.572 345.134 655.075 345.134 651.056 324.41ZM678.192 338.293 683.514 337.917C683.621 338.898 683.863 339.651 684.213 340.161 684.791 340.995 685.61 341.411 686.686 341.411 687.479 341.411 688.097 341.196 688.527 340.766 688.957 340.336 689.172 339.839 689.172 339.274 689.172 338.737 688.97 338.253 688.554 337.836 688.151 337.406 687.183 337.016 685.691 336.64 683.232 336.008 681.484 335.175 680.436 334.127 679.374 333.079 678.85 331.748 678.85 330.135 678.85 329.073 679.119 328.065 679.657 327.125 680.194 326.17 681.014 325.431 682.089 324.894 683.178 324.356 684.67 324.087 686.551 324.087 688.876 324.087 690.637 324.584 691.86 325.566 693.083 326.547 693.795 328.119 694.037 330.27L688.769 330.632C688.634 329.692 688.339 329.006 687.882 328.576 687.425 328.146 686.807 327.931 686.014 327.931 685.369 327.931 684.871 328.092 684.535 328.401 684.199 328.711 684.038 329.1 684.038 329.557 684.038 329.88 684.172 330.175 684.441 330.444 684.697 330.713 685.328 330.968 686.309 331.21 688.755 331.815 690.516 332.42 691.564 333.038 692.626 333.656 693.392 334.423 693.876 335.336 694.36 336.25 694.602 337.272 694.602 338.401 694.602 339.731 694.279 340.954 693.634 342.083 692.989 343.199 692.089 344.059 690.933 344.637 689.777 345.215 688.325 345.511 686.565 345.511 683.473 345.511 681.337 344.825 680.154 343.468 679.025 342.097 678.353 340.376 678.192 338.293ZM604.93 373.735C603.452 373.735 602.269 372.538 602.269 371.073 602.269 369.608 603.465 368.412 604.93 368.412L645.586 368.412C647.051 368.412 648.247 369.608 648.247 371.073 648.247 372.538 647.051 373.735 645.586 373.735L604.93 373.735ZM657.252 373.735C655.774 373.735 654.577 372.538 654.577 371.06 654.577 369.582 655.774 368.385 657.252 368.385L701.107 368.385C702.585 368.385 703.781 369.582 703.781 371.06 703.781 372.538 702.585 373.735 701.107 373.735L657.252 373.735ZM657.252 389.204C655.774 389.204 654.577 388.008 654.577 386.529 654.577 385.051 655.774 383.855 657.252 383.855L701.107 383.855C702.585 383.855 703.781 385.051 703.781 386.529 703.781 388.008 702.585 389.204 701.107 389.204L657.252 389.204ZM657.252 404.673C655.774 404.673 654.577 403.477 654.577 401.999 654.577 400.52 655.774 399.324 657.252 399.324L701.107 399.324C702.585 399.324 703.781 400.52 703.781 401.999 703.781 403.477 702.585 404.673 701.107 404.673L657.252 404.673ZM604.93 404.673C603.452 404.673 602.269 403.477 602.269 402.012 602.269 400.547 603.465 399.351 604.93 399.351L645.586 399.351C647.051 399.351 648.247 400.547 648.247 402.012 648.247 403.477 647.051 404.673 645.586 404.673L604.93 404.673ZM606.22 389.204C604.742 389.204 603.559 388.008 603.559 386.543 603.559 385.078 604.755 383.882 606.22 383.882L646.876 383.882C648.355 383.882 649.537 385.078 649.537 386.543 649.537 388.008 648.341 389.204 646.876 389.204L606.22 389.204Z" fill="#1930AB" fill-rule="evenodd"/></g></svg>