<svg width="338" height="334" xmlns="http://www.w3.org/2000/svg" xmlns:xlink="http://www.w3.org/1999/xlink" xml:space="preserve" overflow="hidden"><defs><clipPath id="clip0"><rect x="471" y="193" width="338" height="334"/></clipPath></defs><g clip-path="url(#clip0)" transform="translate(-471 -193)"><path d="M798.018 363.46C839.223 463.372 755.314 526.408 654.139 526.408 552.964 526.408 471 453.455 471 363.46 471 273.464 552.572 193 653.72 193 754.868 193 791.52 235.097 798.018 363.46" fill="#EBF2FC"/><path d="M691.949 311.896C706.404 311.896 718.165 300.136 718.165 285.681 718.165 271.226 706.404 259.466 691.949 259.466 677.495 259.466 665.735 271.226 665.735 285.681 665.735 300.136 677.494 311.896 691.949 311.896ZM691.949 270.819C700.144 270.819 706.812 277.486 706.812 285.681 706.812 293.876 700.144 300.543 691.949 300.543 683.755 300.543 677.088 293.876 677.088 285.681 677.088 277.486 683.754 270.819 691.949 270.819Z" fill="#1930AB"/><path d="M722.271 390.627C713.077 412.118 692.341 427.209 667.9 428.723L677.822 418.801C680.038 416.583 680.038 412.99 677.822 410.773 675.604 408.557 672.011 408.557 669.794 410.773L650.055 430.513C647.838 432.73 647.838 436.324 650.055 438.541L669.794 458.28C670.902 459.387 672.355 459.942 673.808 459.942 675.261 459.942 676.713 459.388 677.822 458.28 680.039 456.063 680.039 452.469 677.822 450.252L667.679 440.109C703.617 438.33 735.867 411.32 738.369 376.041 738.922 368.25 738.515 344.8 738.515 344.8 738.515 333.608 731.57 323.712 720.953 320.174 720.91 320.16 713.577 317.909 713.577 317.909 710.688 317.021 707.613 318.554 706.578 321.392L697.107 347.376C697.107 347.376 694.713 332.544 694.514 332.217 694.526 332.197 694.541 332.18 694.552 332.161L699.583 323.447C700.12 322.517 700.12 321.372 699.583 320.442 699.046 319.512 698.053 318.939 696.98 318.939L686.919 318.939C685.845 318.939 684.852 319.512 684.316 320.442 683.779 321.372 683.779 322.517 684.316 323.447L689.347 332.161C689.358 332.18 689.372 332.198 689.384 332.217 689.186 332.544 686.792 347.376 686.792 347.376L677.321 321.392C676.287 318.554 673.21 317.019 670.323 317.909 670.323 317.909 662.99 320.16 662.946 320.174 652.329 323.712 645.197 333.608 645.197 344.8L645.197 384.951C645.197 388.085 647.738 390.627 650.873 390.627L722.271 390.627ZM656.549 379.275 656.549 344.8C656.549 338.524 660.535 332.971 666.476 330.963L668.5 330.342 686.334 379.274 656.549 379.274 656.549 379.275ZM727.094 373.101C727.094 376.66 722.442 379.275 718.684 379.275L697.564 379.275 715.399 330.343 717.423 330.964C723.364 332.972 727.094 338.524 727.094 344.801L727.094 373.101Z" fill="#1930AB"/><path d="M588.028 407.895C597.92 407.895 605.967 399.848 605.967 389.956 605.967 380.066 597.92 372.018 588.028 372.018 578.137 372.018 570.089 380.065 570.089 389.956 570.09 399.847 578.137 407.895 588.028 407.895ZM588.028 383.37C591.66 383.37 594.615 386.325 594.615 389.956 594.615 393.588 591.66 396.542 588.028 396.542 584.397 396.542 581.442 393.588 581.442 389.956 581.442 386.325 584.397 383.37 588.028 383.37Z" fill="#1930AB"/><path d="M617.685 272.596C615.467 270.38 611.874 270.38 609.657 272.596 607.44 274.813 607.44 278.407 609.657 280.624L619.797 290.764C580.526 292.659 549.135 324.243 548.785 366.642L541.839 378.672C541.086 379.976 540.883 381.526 541.272 382.98 541.662 384.434 542.613 385.674 543.917 386.426L550.031 389.956 543.917 393.487C542.613 394.239 541.662 395.479 541.272 396.933 540.882 398.387 541.086 399.937 541.839 401.241L555.162 424.316C556.729 427.031 560.2 427.959 562.915 426.393L569.03 422.863 569.03 429.923C569.03 433.058 571.571 435.599 574.706 435.599L601.35 435.599C604.485 435.599 607.026 433.058 607.026 429.923L607.026 422.863 613.141 426.393C614.444 427.146 615.994 427.35 617.448 426.96 618.902 426.571 620.142 425.62 620.894 424.316L634.216 401.241C635.784 398.526 634.853 395.054 632.139 393.487L626.024 389.956 632.139 386.426C634.853 384.858 635.784 381.387 634.216 378.672L620.894 355.597C620.142 354.294 618.902 353.342 617.448 352.953 615.994 352.561 614.444 352.767 613.141 353.52L607.026 357.05 607.026 349.989C607.026 346.855 604.485 344.313 601.35 344.313L574.706 344.313C571.572 344.313 569.03 346.855 569.03 349.989L569.03 357.05 562.916 353.52C562.422 353.235 561.903 353.034 561.374 352.911 566.953 325.182 590.676 303.944 619.579 302.153L609.657 312.075C607.44 314.292 607.44 317.886 609.657 320.103 610.765 321.211 612.218 321.765 613.671 321.765 615.124 321.765 616.576 321.211 617.685 320.103L637.425 300.363C638.49 299.298 639.088 297.854 639.088 296.349 639.088 294.843 638.49 293.4 637.425 292.335L617.685 272.596ZM571.868 371.797C573.625 372.811 575.787 372.811 577.544 371.797 579.301 370.784 580.383 368.91 580.383 366.881L580.383 355.665 595.675 355.665 595.675 366.881C595.675 368.91 596.757 370.783 598.513 371.797 600.27 372.811 602.434 372.811 604.189 371.797L613.903 366.19 621.548 379.432 611.835 385.04C610.079 386.054 608.997 387.928 608.997 389.956 608.997 391.985 610.079 393.858 611.835 394.873L621.548 400.48 613.903 413.723 604.189 408.115C602.432 407.102 600.269 407.102 598.513 408.115 596.757 409.129 595.675 411.003 595.675 413.032L595.675 424.247 580.383 424.247 580.383 413.032C580.383 411.003 579.301 409.13 577.544 408.115 575.787 407.102 573.625 407.102 571.868 408.115L562.155 413.723 554.508 400.48 564.222 394.873C565.978 393.859 567.06 391.985 567.06 389.956 567.06 387.928 565.978 386.055 564.222 385.04L554.508 379.432 562.155 366.19 571.868 371.797Z" fill="#1930AB"/></g></svg>