<svg width="387" height="384" xmlns="http://www.w3.org/2000/svg" xmlns:xlink="http://www.w3.org/1999/xlink" xml:space="preserve" overflow="hidden"><defs><clipPath id="clip0"><rect x="446" y="168" width="387" height="384"/></clipPath><clipPath id="clip1"><rect x="551" y="296" width="138" height="138"/></clipPath></defs><g clip-path="url(#clip0)" transform="translate(-446 -168)"><path d="M832.781 315.7C832.781 421.7 735.548 551.863 622.279 551.863 509.01 551.863 446 473.106 446 367.106 446 261.106 509.018 168 622.279 168 735.54 168 832.781 209.7 832.781 315.7" fill="#EBF2FC"/><g clip-path="url(#clip1)"><path d="M557.28 302.621 682.657 302.621 682.657 427.998 557.28 427.998Z" fill="#FFFFFF" fill-rule="evenodd" fill-opacity="0.01"/><path d="M567.728 315.681 672.209 315.681 672.209 347.025 567.728 347.025Z" stroke="#103CA3" stroke-width="8.55" stroke-linejoin="round" fill="none" fill-rule="evenodd"/><path d="M567.728 409.792 599.531 377.662 616.716 394.12 637.726 373.145 649.429 384.555" stroke="#103CA3" stroke-width="8.55" stroke-linecap="round" stroke-linejoin="round" fill="none" fill-rule="evenodd"/><path d="M672.209 344.862 672.209 412.775" stroke="#103CA3" stroke-width="8.55" stroke-linecap="round" fill="none" fill-rule="evenodd"/><path d="M567.728 344.862 567.728 381.43" stroke="#103CA3" stroke-width="8.55" stroke-linecap="round" fill="none" fill-rule="evenodd"/><path d="M591.277 414.938 672.209 414.938" stroke="#103CA3" stroke-width="8.55" stroke-linecap="round" fill="none" fill-rule="evenodd"/><path d="M601.684 331.353 656.537 331.353" stroke="#103CA3" stroke-width="8.55" stroke-linecap="round" fill="none" fill-rule="evenodd"/><path d="M583.4 331.344 586.012 331.344" stroke="#103CA3" stroke-width="8.55" stroke-linecap="round" fill="none" fill-rule="evenodd"/></g></g></svg>