<svg width="326" height="330" xmlns="http://www.w3.org/2000/svg" xmlns:xlink="http://www.w3.org/1999/xlink" xml:space="preserve" overflow="hidden"><defs><clipPath id="clip0"><rect x="477" y="195" width="326" height="330"/></clipPath></defs><g clip-path="url(#clip0)" transform="translate(-477 -195)"><path d="M477.032 359.712C475.626 255.198 520.777 195 624.384 195 727.991 195 760.312 281.977 794.12 367.385 832.85 465.166 727.997 524.424 624.384 524.424 520.77 524.424 478.485 466.212 477.032 359.712" fill="#EBF2FC"/><path d="M668.971 381.186 649.964 377.009 649.964 371.071C657.056 366.01 661.752 357.89 662.066 348.675 668.358 342.107 671.839 333.572 671.839 324.49L671.839 314.054C671.839 307.969 667.238 302.923 661.295 302.144 656.196 291.814 645.599 285.217 633.884 285.217L629.793 285.217C621.889 285.217 614.097 287.861 607.855 292.66 599.088 299.4 594.062 309.565 594.062 320.545L594.062 323.666 578.263 323.666 571.701 315.015 567.812 317.899 572.187 323.666 566.11 323.666 559.548 315.015 555.659 317.899 560.034 323.666 553.958 323.666 547.395 315.015 543.506 317.899 549.704 326.069 543.506 334.24 547.395 337.123 553.958 328.472 560.034 328.472 555.659 334.24 559.548 337.123 566.11 328.472 572.187 328.472 567.812 334.24 571.701 337.121 578.263 328.47 594.307 328.47C595.165 336.049 598.473 343.076 603.835 348.672 604.151 357.888 608.844 366.008 615.937 371.069L615.937 377.007 596.93 381.181C582.361 384.386 572.187 396.923 572.187 411.68L572.187 434.206 693.714 434.206 693.714 411.68C693.714 396.923 683.54 384.386 668.971 381.186ZM652.096 382.399 648.387 398.898 636.924 390.805 648.173 381.536 652.096 382.399ZM632.95 387.823 620.798 377.809 620.798 373.878C624.502 375.565 628.609 376.533 632.95 376.533 637.291 376.533 641.399 375.565 645.103 373.878L645.103 377.809 632.95 387.823ZM603.784 340.879C601.351 337.135 599.8 332.918 599.214 328.472L603.784 328.472 603.784 340.879ZM598.923 323.666 598.923 320.545C598.923 311.057 603.266 302.274 610.84 296.452 616.233 292.306 622.966 290.023 629.793 290.023L633.884 290.023C644.155 290.023 653.406 296.055 657.453 305.389L658.084 306.845 659.686 306.845C663.706 306.845 666.978 310.079 666.978 314.054L666.978 324.49C666.978 330.392 665.269 336.03 662.117 340.879L662.117 326.069C662.117 310.168 649.033 297.233 632.95 297.233 617.686 297.233 605.15 308.887 603.908 323.666L598.923 323.666ZM628.765 323.666C629.608 322.236 631.159 321.263 632.95 321.263 635.631 321.263 637.811 323.419 637.811 326.069 637.811 328.72 635.631 330.875 632.95 330.875 631.159 330.875 629.608 329.902 628.765 328.472L632.95 328.472 632.95 323.666 628.765 323.666ZM632.95 335.681C638.312 335.681 642.672 331.37 642.672 326.069 642.672 320.768 638.312 316.457 632.95 316.457 628.432 316.457 624.66 319.531 623.573 323.666L618.586 323.666C619.748 316.858 625.736 311.651 632.95 311.651 640.993 311.651 647.534 318.118 647.534 326.069 647.534 334.021 640.993 340.488 632.95 340.488 625.739 340.488 619.75 335.28 618.586 328.472L623.573 328.472C624.66 332.608 628.432 335.681 632.95 335.681ZM632.95 345.294C643.671 345.294 652.395 336.669 652.395 326.069 652.395 315.469 643.671 306.845 632.95 306.845 623.053 306.845 614.877 314.198 613.674 323.666L608.766 323.666C609.991 311.54 620.367 302.039 632.948 302.039 646.35 302.039 657.253 312.819 657.253 326.069 657.253 339.32 646.35 350.1 632.948 350.1 620.367 350.1 609.989 340.598 608.766 328.472L613.674 328.472C614.877 337.94 623.053 345.294 632.95 345.294ZM608.645 347.697 608.645 341.975C613.873 349.758 622.81 354.906 632.95 354.906 643.09 354.906 652.028 349.758 657.256 341.975L657.256 347.697C657.256 360.947 646.352 371.727 632.95 371.727 619.548 371.727 608.645 360.947 608.645 347.697ZM617.725 381.539 628.974 390.807 617.511 398.901 613.802 382.401 617.725 381.539ZM623.423 429.4 601.353 429.4 601.353 419.788 596.492 419.788 596.492 429.4 577.048 429.4 577.048 411.68C577.048 399.196 585.657 388.585 597.982 385.879L609.058 383.444 614.362 407.035 622.764 401.1 625.574 403.878 623.423 429.4ZM637.6 429.4 628.301 429.4 630.605 402.056 626.772 398.266 632.95 393.905 639.129 398.269 635.296 402.058 637.6 429.4ZM688.853 429.4 669.408 429.4 669.408 419.788 664.547 419.788 664.547 429.4 642.478 429.4 640.327 403.878 643.137 401.1 651.539 407.035 656.842 383.444 667.918 385.879C680.244 388.585 688.853 399.196 688.853 411.68L688.853 429.4Z" fill="#103CA3"/></g></svg>