<svg width="334" height="326" xmlns="http://www.w3.org/2000/svg" xmlns:xlink="http://www.w3.org/1999/xlink" xml:space="preserve" overflow="hidden"><defs><clipPath id="clip0"><rect x="473" y="197" width="334" height="326"/></clipPath></defs><g clip-path="url(#clip0)" transform="translate(-473 -197)"><path d="M795.754 363.334C836.421 460.828 753.606 522.339 653.751 522.339 553.895 522.339 473 451.152 473 363.334 473 275.517 553.508 197 653.337 197 753.166 197 789.34 238.078 795.754 363.334" fill="#EBF2FC"/><path d="M582.139 303.067C582.139 292.729 590.615 284.349 601.071 284.349 611.527 284.349 620.003 292.729 620.003 303.067 620.003 313.405 611.527 321.785 601.071 321.785 590.615 321.785 582.139 313.405 582.139 303.067ZM639.202 343.215C638.62 336.565 633.492 331.182 626.811 330.209L613.451 328.267 605.113 347.178 604.037 337.857C604.008 337.562 603.757 337.337 603.458 337.337L598.694 337.337C598.393 337.337 598.139 337.566 598.115 337.864L597.138 347.415 588.696 328.267 575.337 330.209C568.657 331.182 563.527 336.565 562.945 343.215L558.838 390.183 571.946 390.183 574.13 358.505 577.043 380.104 575.586 401.703 578.497 401.703 578.497 450.66 595.974 450.66 598.803 401.703 601.882 401.703 604.711 450.66 622.187 450.66 622.187 401.701 626.557 401.701 625.1 380.102 628.011 358.503 630.196 390.18 643.303 390.18 639.202 343.215ZM595.247 328.986C595.254 330.713 596.695 333.017 597.568 333.881 598.442 334.744 599.906 334.744 601.071 334.744 602.236 334.744 603.7 334.744 604.574 333.881 605.447 333.017 606.888 330.713 606.895 328.986 606.902 326.97 603.339 326.682 601.069 326.682 598.804 326.682 595.24 326.97 595.247 328.986ZM685.285 363.691C683.869 359.507 679.783 354.801 672.773 353.2L672.773 350.27C672.773 347.479 670.485 345.217 667.663 345.217 664.84 345.217 662.552 347.479 662.552 350.27L662.552 353.351C656.495 355.185 651.966 360.184 651.315 366.408 650.596 373.261 655.049 381.248 666.616 383.643 671.452 384.642 674.154 386.999 673.846 389.943 673.597 392.304 671.394 394.697 667.665 394.697 663.17 394.697 660.442 392.586 659.734 390.491 658.838 387.843 655.942 386.417 653.266 387.303 650.59 388.187 649.144 391.05 650.039 393.699 651.456 397.882 655.543 402.589 662.554 404.19L662.554 407.12C662.554 409.91 664.842 412.173 667.665 412.173 670.487 412.173 672.775 409.91 672.775 407.12L672.775 404.039C678.833 402.205 683.359 397.206 684.012 390.984 684.731 384.131 680.278 376.144 668.713 373.749 663.877 372.75 661.176 370.392 661.484 367.449 661.731 365.087 663.933 362.694 667.665 362.694 672.467 362.694 674.939 364.961 675.595 366.901 676.493 369.549 679.392 370.975 682.064 370.088 684.737 369.201 686.181 366.339 685.285 363.691ZM666.609 324.666C657.377 324.666 648.692 326.966 641.097 331.008 642.974 333.248 644.384 335.878 645.196 338.767 651.566 335.357 658.859 333.417 666.609 333.417 691.48 333.417 711.642 353.351 711.642 377.94 711.642 402.529 691.48 422.466 666.609 422.466 653.634 422.466 641.975 417.009 633.757 408.327L633.76 408.361 628.925 416.008C638.643 425.414 651.937 431.219 666.609 431.219 696.37 431.219 720.495 407.367 720.495 377.942 720.495 348.518 696.37 324.666 666.609 324.666Z" fill="#103CA3"/></g></svg>