<svg width="334" height="334" xmlns="http://www.w3.org/2000/svg" xmlns:xlink="http://www.w3.org/1999/xlink" xml:space="preserve" overflow="hidden"><defs><clipPath id="clip0"><rect x="473" y="193" width="334" height="334"/></clipPath></defs><g clip-path="url(#clip0)" transform="translate(-473 -193)"><path d="M707.483 223.95C707.483 223.95 835.129 335.609 800.318 445.445 800.318 445.445 764.147 560.119 576.397 516.39 541.289 508.21 510.484 487.464 492.125 457.985 483.162 443.454 477.039 427.387 474.077 410.621 468.24 378.773 487.171 311.408 505.812 284.326 546.439 225.294 627.372 149.504 707.483 223.95" fill="#EBF2FC"/><path d="M663.732 414.142 671.071 421.397 595.012 421.397C584.561 421.397 576.063 412.993 576.063 402.663L576.063 344.319C576.063 339.632 577.825 335.351 580.714 332.062L585.946 337.235C584.378 339.194 583.402 341.634 583.402 344.319L583.402 349.724 598.578 349.724 618.808 369.725 583.402 369.725 583.402 402.663C583.402 408.993 588.61 414.142 595.012 414.142L663.732 414.142ZM694.86 421.397 694.691 421.397 709.549 436.087C711.46 437.976 711.46 441.038 709.549 442.927 708.593 443.872 707.343 444.344 706.09 444.344 704.838 444.344 703.588 443.872 702.632 442.927L566.959 308.791C565.048 306.902 565.048 303.84 566.959 301.951 568.869 300.062 571.966 300.062 573.876 301.951L597.781 325.583 694.86 325.583C705.308 325.583 713.808 333.989 713.808 344.319L713.808 402.663C713.808 412.995 705.31 421.397 694.86 421.397ZM605.119 332.838 622.201 349.724 706.472 349.724 706.472 344.319C706.472 337.99 701.264 332.838 694.862 332.838L605.119 332.838ZM687.355 414.142 694.862 414.142C701.264 414.142 706.472 408.993 706.472 402.663L706.472 369.725 642.431 369.725 687.355 414.142Z" fill="#103CA3"/></g></svg>