<svg width="334" height="326" xmlns="http://www.w3.org/2000/svg" xmlns:xlink="http://www.w3.org/1999/xlink" xml:space="preserve" overflow="hidden"><defs><clipPath id="clip0"><rect x="473" y="197" width="334" height="326"/></clipPath><clipPath id="clip1"><rect x="559" y="286" width="162" height="160"/></clipPath></defs><g clip-path="url(#clip0)" transform="translate(-473 -197)"><path d="M795.754 363.334C836.421 460.828 753.606 522.339 653.751 522.339 553.895 522.339 473 451.152 473 363.334 473 275.517 553.508 197 653.337 197 753.166 197 789.34 238.078 795.754 363.334" fill="#EBF2FC"/><g clip-path="url(#clip1)"><path d="M565.862 293.058 713.472 293.058 713.472 438.999 565.862 438.999Z" fill="#FFFFFF" fill-rule="evenodd" fill-opacity="0.01"/><path d="M578.162 308.26 701.17 308.26 701.17 344.745 578.162 344.745Z" stroke="#103CA3" stroke-width="10.01" stroke-linejoin="round" fill="none" fill-rule="evenodd"/><path d="M578.162 417.807 615.605 380.407 635.838 399.565 660.573 375.15 674.351 388.43" stroke="#103CA3" stroke-width="10.01" stroke-linecap="round" stroke-linejoin="round" fill="none" fill-rule="evenodd"/><path d="M701.171 342.228 701.171 421.279" stroke="#103CA3" stroke-width="10.01" stroke-linecap="round" fill="none" fill-rule="evenodd"/><path d="M578.162 342.228 578.162 384.794" stroke="#103CA3" stroke-width="10.01" stroke-linecap="round" fill="none" fill-rule="evenodd"/><path d="M605.887 423.797 701.171 423.797" stroke="#103CA3" stroke-width="10.01" stroke-linecap="round" fill="none" fill-rule="evenodd"/><path d="M618.14 326.503 682.72 326.503" stroke="#103CA3" stroke-width="10.01" stroke-linecap="round" fill="none" fill-rule="evenodd"/><path d="M596.614 326.492 599.689 326.492" stroke="#103CA3" stroke-width="10.01" stroke-linecap="round" fill="none" fill-rule="evenodd"/></g></g></svg>