<svg width="334" height="338" xmlns="http://www.w3.org/2000/svg" xmlns:xlink="http://www.w3.org/1999/xlink" xml:space="preserve" overflow="hidden"><defs><clipPath id="clip0"><rect x="473" y="191" width="334" height="338"/></clipPath><clipPath id="clip1"><rect x="560" y="316" width="159" height="127"/></clipPath></defs><g clip-path="url(#clip0)" transform="translate(-473 -191)"><path d="M707.483 222.304C707.483 222.304 835.129 335.241 800.318 446.333 800.318 446.333 764.147 562.319 576.397 518.089 541.289 509.816 510.484 488.832 492.125 459.016 483.162 444.319 477.039 428.068 474.077 411.111 468.24 378.898 487.171 310.763 505.812 283.37 546.439 223.664 627.372 147.006 707.483 222.304" fill="#EBF2FC"/><g clip-path="url(#clip1)"><path d="M571.574 316.746 707.759 316.746C713.63 316.746 718.424 321.54 718.424 327.411L718.424 432.113C718.424 437.984 713.63 442.778 707.759 442.778L571.574 442.778C565.703 442.766 560.909 437.971 560.909 432.101L560.909 327.411C560.909 321.54 565.703 316.746 571.574 316.746ZM663.907 403.669 668.124 403.669 668.124 392.901C668.124 392.696 668.034 392.504 667.893 392.363 667.752 392.222 667.56 392.132 667.355 392.132L642.256 392.132 642.256 403.669 646.461 403.669C647.794 403.669 648.883 404.758 648.883 406.092L648.883 415.77C648.883 417.103 647.794 418.192 646.461 418.192L632.783 418.192C631.45 418.192 630.36 417.103 630.36 415.77L630.36 406.092C630.36 404.758 631.45 403.669 632.783 403.669L636.988 403.669 636.988 392.132 611.914 392.132C611.709 392.132 611.517 392.222 611.376 392.363 611.235 392.504 611.145 392.696 611.145 392.901L611.145 403.669 615.427 403.669C616.76 403.669 617.849 404.758 617.849 406.092L617.849 415.77C617.849 417.103 616.76 418.192 615.427 418.192L601.749 418.192C600.416 418.192 599.326 417.103 599.326 415.77L599.326 406.092C599.326 404.758 600.416 403.669 601.749 403.669L605.902 403.669 605.902 392.901C605.902 391.248 606.582 389.748 607.671 388.658 608.761 387.569 610.261 386.902 611.914 386.902L637.013 386.902 637.013 371.417 632.809 371.417C631.476 371.417 630.386 370.328 630.386 368.994L630.386 359.316C630.386 357.983 631.476 356.894 632.809 356.894L646.486 356.894C647.819 356.894 648.909 357.983 648.909 359.316L648.909 368.994C648.909 370.328 647.819 371.417 646.486 371.417L642.282 371.417 642.282 386.889 667.381 386.889C669.034 386.889 670.534 387.569 671.624 388.645 672.713 389.735 673.393 391.235 673.393 392.888L673.393 403.656 677.61 403.656C678.943 403.656 680.033 404.746 680.033 406.079L680.033 415.757C680.033 417.09 678.943 418.18 677.61 418.18L663.932 418.18C662.599 418.18 661.51 417.09 661.51 415.757L661.51 406.092C661.497 404.758 662.586 403.669 663.907 403.669ZM712.13 346.6 567.69 346.6 567.69 433.139C567.69 433.959 568.01 434.677 568.549 435.228 569.087 435.767 569.818 436.087 570.638 436.087L709.131 436.087C709.951 436.087 710.669 435.767 711.22 435.228 711.772 434.677 712.079 433.959 712.079 433.139L712.079 346.6 712.13 346.6ZM697.607 328.731C700.517 328.731 702.875 331.09 702.875 333.999 702.875 336.909 700.517 339.268 697.607 339.268 694.697 339.268 692.338 336.909 692.338 333.999 692.351 331.09 694.71 328.731 697.607 328.731ZM661.92 328.731C664.83 328.731 667.188 331.09 667.188 333.999 667.188 336.909 664.83 339.268 661.92 339.268 659.01 339.268 656.651 336.909 656.651 333.999 656.651 331.09 659.01 328.731 661.92 328.731ZM679.763 328.731C682.673 328.731 685.032 331.09 685.032 333.999 685.032 336.909 682.673 339.268 679.763 339.268 676.854 339.268 674.495 336.909 674.495 333.999 674.495 331.09 676.854 328.731 679.763 328.731Z" fill="#1930AB" fill-rule="evenodd"/></g></g></svg>