<svg width="204" height="154" xmlns="http://www.w3.org/2000/svg" xmlns:xlink="http://www.w3.org/1999/xlink" xml:space="preserve" overflow="hidden"><defs><clipPath id="clip0"><rect x="538" y="283" width="204" height="154"/></clipPath></defs><g clip-path="url(#clip0)" transform="translate(-538 -283)"><path d="M177.306 153.835 140.708 153.835C126.619 153.835 115.099 142.316 115.099 128.227 115.099 75.5337 101.64 17.6527 166.217 1.12712 195.473-6.34834 203.097 25.8741 171.985 28.0952 153.007 29.4543 149.294 41.7201 148.714 60.2513L178.069 60.2513C192.158 60.2513 203.677 71.7711 203.677 85.8601L203.677 127.448C203.677 141.968 191.809 153.835 177.306 153.835L177.306 153.835ZM63.3674 153.835 26.7691 153.835C12.6801 153.835 1.16027 142.316 1.16027 128.227 1.16027 75.5337-12.2989 17.6527 52.2785 1.12712 81.5505-6.36492 89.1752 25.8575 58.0467 28.0952 39.068 29.4543 35.3551 41.7201 34.775 60.2513L64.1465 60.2513C78.2355 60.2513 89.7553 71.7711 89.7553 85.8601L89.7553 127.448C89.7387 141.968 77.8708 153.835 63.3674 153.835L63.3674 153.835Z" fill="#BBC1C9" fill-rule="evenodd" transform="matrix(1.00158 0 0 1 538 283.082)"/></g></svg>