<svg width="334" height="330" xmlns="http://www.w3.org/2000/svg" xmlns:xlink="http://www.w3.org/1999/xlink" xml:space="preserve" overflow="hidden"><defs><clipPath id="clip0"><rect x="473" y="195" width="334" height="330"/></clipPath><clipPath id="clip1"><rect x="577" y="283" width="137" height="138"/></clipPath></defs><g clip-path="url(#clip0)" transform="translate(-473 -195)"><path d="M795.754 363.237C836.421 461.846 753.606 524.061 653.751 524.061 553.895 524.061 473 452.059 473 363.237 473 274.415 553.508 195 653.337 195 753.166 195 789.34 236.548 795.754 363.237" fill="#EBF2FC"/><g clip-path="url(#clip1)"><path d="M582.958 289.171 708.119 289.171 708.119 414.332 582.958 414.332Z" fill="#FFFFFF" fill-rule="evenodd" fill-opacity="0.01"/><path d="M593.388 302.209 697.689 302.209 697.689 333.499 593.388 333.499Z" stroke="#103CA3" stroke-width="8.53" stroke-linejoin="round" fill="none" fill-rule="evenodd"/><path d="M593.388 396.158 625.136 364.084 642.292 380.513 663.265 359.574 674.948 370.964" stroke="#103CA3" stroke-width="8.53" stroke-linecap="round" stroke-linejoin="round" fill="none" fill-rule="evenodd"/><path d="M697.689 331.34 697.689 399.135" stroke="#103CA3" stroke-width="8.53" stroke-linecap="round" fill="none" fill-rule="evenodd"/><path d="M593.388 331.34 593.388 367.845" stroke="#103CA3" stroke-width="8.53" stroke-linecap="round" fill="none" fill-rule="evenodd"/><path d="M616.896 401.295 697.689 401.295" stroke="#103CA3" stroke-width="8.53" stroke-linecap="round" fill="none" fill-rule="evenodd"/><path d="M627.286 317.854 682.044 317.854" stroke="#103CA3" stroke-width="8.53" stroke-linecap="round" fill="none" fill-rule="evenodd"/><path d="M609.033 317.845 611.64 317.845" stroke="#103CA3" stroke-width="8.53" stroke-linecap="round" fill="none" fill-rule="evenodd"/></g></g></svg>