<svg width="334" height="338" xmlns="http://www.w3.org/2000/svg" xmlns:xlink="http://www.w3.org/1999/xlink" xml:space="preserve" overflow="hidden"><defs><clipPath id="clip0"><rect x="473" y="191" width="334" height="338"/></clipPath><clipPath id="clip1"><rect x="549" y="307" width="182" height="105"/></clipPath></defs><g clip-path="url(#clip0)" transform="translate(-473 -191)"><path d="M707.483 222.304C707.483 222.304 835.129 335.241 800.318 446.333 800.318 446.333 764.147 562.319 576.397 518.089 541.289 509.816 510.484 488.832 492.125 459.016 483.162 444.319 477.039 428.068 474.077 411.111 468.24 378.898 487.171 310.763 505.812 283.37 546.439 223.664 627.372 147.006 707.483 222.304" fill="#EBF2FC"/><g clip-path="url(#clip1)"><path d="M573.148 307.71 705.33 307.71C707.057 307.718 708.476 309.136 708.484 310.863L708.484 365.947 703.533 362.601 703.533 320.84 575.329 320.84 575.329 398.115 703.533 398.115 703.533 389.893 708.484 392.118 708.484 399.766C708.479 400.414 708.278 401.046 707.909 401.578L725.239 401.578C727.841 401.721 729.906 403.901 729.906 406.507 729.906 409.114 727.841 411.294 725.239 411.437L554.065 411.437C553.975 411.442 553.885 411.444 553.795 411.444 551.087 411.444 548.859 409.216 548.859 406.507 548.859 403.799 551.087 401.571 553.795 401.571 553.885 401.571 553.975 401.573 554.065 401.578L570.569 401.578C570.194 401.049 569.993 400.415 569.995 399.766L569.995 310.863C569.995 309.133 571.418 307.71 573.148 307.71ZM591.48 312.794C592.523 312.794 593.381 313.652 593.381 314.695 593.381 315.737 592.523 316.596 591.48 316.596 590.437 316.596 589.579 315.737 589.579 314.695 589.579 313.652 590.437 312.794 591.48 312.794ZM584.834 312.794C585.877 312.794 586.735 313.652 586.735 314.695 586.735 315.737 585.877 316.596 584.834 316.596 583.791 316.596 582.933 315.737 582.933 314.695 582.933 313.652 583.791 312.794 584.834 312.794ZM578.188 312.794C579.231 312.794 580.089 313.652 580.089 314.695 580.089 315.737 579.231 316.596 578.188 316.596 577.145 316.596 576.287 315.737 576.287 314.695 576.287 313.652 577.145 312.794 578.188 312.794ZM634.48 404.157 644.795 404.157C645.765 404.157 646.563 404.955 646.563 405.925 646.563 406.895 645.765 407.694 644.795 407.694L634.48 407.694C633.51 407.694 632.711 406.895 632.711 405.925 632.711 404.955 633.51 404.157 634.48 404.157Z" fill="#1930AB"/><path d="M604.02 374.096C602.664 374.096 602.664 369.056 604.02 369.056L658.426 369.056C660.684 370.605 663.313 371.531 666.044 371.738 668.094 371.945 670.164 371.76 672.145 371.193L674.93 374.14 604.02 374.096ZM586.499 374.096C585.158 374.096 585.158 369.056 586.499 369.056L599.231 369.056C600.572 369.056 600.572 374.096 599.231 374.096L586.499 374.096ZM586.072 363.559C584.716 363.559 584.716 358.52 586.072 358.52L598.789 358.52C600.13 358.52 600.13 363.559 598.789 363.559L586.072 363.559ZM604.02 363.559C602.664 363.559 602.664 358.52 604.02 358.52L651.249 358.52 651.397 358.844C652.148 360.465 652.87 362.056 653.74 363.559L604.02 363.559Z" fill="#1930AB"/><path d="M664.305 326.867 689.357 326.867C689.391 326.866 689.426 326.865 689.46 326.865 691.678 326.865 693.51 328.672 693.542 330.89L693.542 346.878C693.534 349.106 691.703 350.937 689.474 350.945L681.031 350.945C680.344 349.609 679.476 348.375 678.452 347.276 675.355 344.075 671.373 341.868 667.017 340.939 664.78 340.451 662.498 340.204 660.209 340.203L660.209 330.89C660.241 328.667 662.083 326.858 664.305 326.867Z" fill="#1930AB"/><path d="M626.758 326.867 651.809 326.867C654.032 326.883 655.854 328.711 655.862 330.934L655.862 340.438C653.813 340.645 651.927 340.939 650.35 341.234 646.792 341.929 644.417 345.402 645.06 348.971 645.184 349.673 645.423 350.35 645.767 350.975L626.758 350.975C624.532 350.967 622.705 349.133 622.705 346.908L622.705 330.89C622.729 328.681 624.549 326.874 626.758 326.867Z" fill="#1930AB"/><path d="M589.21 326.867 614.262 326.867C616.496 326.842 618.356 328.656 618.388 330.89L618.388 346.878C618.372 349.103 616.546 350.929 614.321 350.945L589.269 350.945C587.044 350.937 585.217 349.104 585.217 346.878L585.217 330.89C585.24 328.703 587.024 326.906 589.21 326.867Z" fill="#1930AB"/><path d="M651.618 347.748C658.455 352.301 657.512 364.134 666.737 365.107 669.382 365.36 672.016 364.499 674.002 362.734 675.135 361.703 675.84 360.282 675.976 358.755 676.566 352.64 670.966 348.646 665.661 347.438 661.029 346.63 656.283 346.735 651.691 347.748L651.618 347.748ZM679.616 359.846C679.268 362.177 678.039 364.288 676.183 365.74L683.226 373.108C686.472 369.785 688.824 365.693 690.064 361.216 686.54 361.146 683.035 360.677 679.616 359.816L679.616 359.846ZM691.832 362.69C690.513 367.021 688.259 371.01 685.23 374.376L717.9 389.038C718.582 389.392 719.304 389.659 720.052 389.834 720.274 389.878 720.501 389.9 720.728 389.9 722.636 389.9 724.206 388.33 724.206 386.422 724.206 386.121 724.167 385.822 724.089 385.531 723.764 384.632 723.132 383.875 722.306 383.394L691.832 362.764 691.832 362.69Z" fill="#1930AB"/></g></g></svg>