<svg width="1147" height="1112" xmlns="http://www.w3.org/2000/svg" xmlns:xlink="http://www.w3.org/1999/xlink" xml:space="preserve" overflow="hidden"><defs><clipPath id="clip0"><rect x="1625" y="681" width="1147" height="1112"/></clipPath></defs><g clip-path="url(#clip0)" transform="translate(-1625 -681)"><path d="M2432.84 766.553C2432.84 766.553 2870.58 1145.66 2751.2 1518.37 2751.2 1518.37 2627.16 1907.62 1983.3 1759.17 1862.9 1731.45 1757.26 1661 1694.3 1560.94 1663.63 1511.78 1642.62 1457.2 1632.4 1400.16 1612.39 1292.06 1638.71 1180.73 1702.63 1088.89 1841.96 888.511 2158.11 513.86 2432.84 766.553" fill="#FFFFFF" fill-rule="evenodd"/><path d="M2472.83 1058.93 2472.83 1010.93 2424.73 1010.93 2424.73 1026.93 2023.92 1026.93 2023.92 1010.93 1975.83 1010.93 1975.83 1058.93 2023.92 1058.93 2023.92 1042.93 2139.66 1042.93C2055.61 1075.86 1995.3 1156.27 1992.06 1250.93L1975.83 1250.93 1975.83 1298.93 2023.92 1298.93 2023.92 1250.93 2008.09 1250.93C2012.29 1136.58 2105.95 1044.69 2221.14 1043.01L2127.45 1128.02 2151.52 1256.16C2113.45 1280.3 2088.05 1322.66 2088.05 1370.93 2088.05 1445.92 2149.19 1506.93 2224.33 1506.93 2299.47 1506.93 2360.6 1445.92 2360.6 1370.93 2360.6 1322.66 2335.21 1280.3 2297.13 1256.16L2321.21 1128.02 2227.52 1043.01C2342.71 1044.69 2436.36 1136.58 2440.56 1250.93L2424.73 1250.93 2424.73 1298.93 2472.83 1298.93 2472.83 1250.93 2456.6 1250.93C2453.36 1156.27 2393.05 1075.86 2309 1042.93L2424.73 1042.93 2424.73 1058.93 2472.83 1058.93ZM2440.76 1026.93 2456.8 1026.93 2456.8 1042.93 2440.76 1042.93 2440.76 1026.93ZM2007.89 1042.93 1991.86 1042.93 1991.86 1026.93 2007.89 1026.93 2007.89 1042.93ZM2007.89 1282.93 1991.86 1282.93 1991.86 1266.93 2007.89 1266.93 2007.89 1282.93ZM2280.44 1476.98C2275.32 1479.69 2269.94 1481.97 2264.41 1483.93L2264.41 1402.93 2248.38 1402.93 2248.38 1488.51C2240.6 1490.09 2232.56 1490.93 2224.33 1490.93 2216.1 1490.93 2208.05 1490.09 2200.28 1488.51L2200.28 1402.93 2184.25 1402.93 2184.25 1483.93C2178.72 1481.97 2173.34 1479.69 2168.21 1476.98L2168.21 1410.93C2168.21 1393.28 2182.6 1378.93 2200.28 1378.93L2248.38 1378.93C2266.06 1378.93 2280.44 1393.28 2280.44 1410.93L2280.44 1476.98ZM2192.27 1322.93C2192.27 1305.28 2206.64 1290.93 2224.33 1290.93 2242.01 1290.93 2256.39 1305.28 2256.39 1322.93 2256.39 1340.57 2242.01 1354.93 2224.33 1354.93 2206.64 1354.93 2192.27 1340.57 2192.27 1322.93ZM2344.57 1370.93C2344.57 1410.07 2325.61 1444.78 2296.47 1466.7L2296.47 1410.93C2296.47 1385.23 2276.12 1364.25 2250.67 1363.04 2263.75 1354.45 2272.43 1339.7 2272.43 1322.93 2272.43 1296.46 2250.85 1274.93 2224.33 1274.93 2197.8 1274.93 2176.23 1296.46 2176.23 1322.93 2176.23 1339.7 2184.9 1354.45 2197.99 1363.04 2172.54 1364.25 2152.18 1385.23 2152.18 1410.93L2152.18 1466.7C2123.04 1444.78 2104.09 1410.07 2104.09 1370.93 2104.09 1304.76 2158.03 1250.93 2224.33 1250.93 2290.63 1250.93 2344.57 1304.76 2344.57 1370.93ZM2232.35 1069.02 2303.8 1133.85 2282.35 1248.06C2264.71 1239.73 2245.1 1234.93 2224.33 1234.93 2203.56 1234.93 2183.94 1239.73 2166.31 1248.06L2144.86 1133.85 2216.31 1069.02 2216.31 1148.06C2202.51 1151.64 2192.27 1164.06 2192.27 1178.93 2192.27 1196.57 2206.64 1210.93 2224.33 1210.93 2242.01 1210.93 2256.39 1196.57 2256.39 1178.93 2256.39 1164.06 2246.14 1151.64 2232.35 1148.06L2232.35 1069.02ZM2240.36 1178.93C2240.36 1187.75 2233.17 1194.93 2224.33 1194.93 2215.49 1194.93 2208.29 1187.75 2208.29 1178.93 2208.29 1170.1 2215.49 1162.93 2224.33 1162.93 2233.17 1162.93 2240.36 1170.1 2240.36 1178.93ZM2440.76 1266.93 2456.8 1266.93 2456.8 1282.93 2440.76 1282.93 2440.76 1266.93Z" fill="#1930AB" fill-rule="evenodd"/><path d="M2128.83 1354.93 2144.83 1354.93 2144.83 1370.93 2128.83 1370.93Z" fill="#1930AB" fill-rule="evenodd"/><path d="M2304.83 1354.93 2320.83 1354.93 2320.83 1370.93 2304.83 1370.93Z" fill="#1930AB" fill-rule="evenodd"/></g></svg>