<svg width="100" height="100" xmlns="http://www.w3.org/2000/svg" xmlns:xlink="http://www.w3.org/1999/xlink" overflow="hidden"><defs><clipPath id="clip0"><rect x="718" y="430" width="100" height="100"/></clipPath></defs><g clip-path="url(#clip0)" transform="translate(-718 -430)"><path d="M746.38 444.64C742 441.56 737.38 440.43 732.29 442.64 732.29 442.47 732.29 442.3 732.22 442.14 731.95 440.87 731.72 439.59 731.4 438.33 731.114 437.369 730.542 436.518 729.76 435.89 728.248 434.539 726.34 433.715 724.32 433.54 722.52 433.38 720.7 433.4 718.88 433.37 718.5 433.37 718.35 433.29 718.37 432.87 718.37 432.09 718.37 431.31 718.37 430.53 718.36 430.19 718.48 430.1 718.8 430.11 720.8 430.21 722.88 430.32 724.92 430.36 729.45 430.46 733.99 430.6 738.52 430.58 743.99 430.58 749.52 430.41 754.94 430.24 758.61 430.13 762.28 429.9 766 430.05 774.944 430.311 783.762 432.237 792 435.73 799.028 438.837 804.994 443.933 809.16 450.39 812.98 456.193 815.535 462.735 816.66 469.59 818.215 477.982 817.925 486.612 815.81 494.88 813.592 503.691 808.781 511.633 802 517.68 797.544 521.597 792.339 524.567 786.7 526.41 782.544 527.81 778.255 528.779 773.9 529.3 769.437 529.829 764.944 530.06 760.45 529.99 759.05 529.99 757.66 529.99 756.27 529.99 755.94 529.99 755.84 529.9 755.84 529.57 755.84 527.7 755.84 525.83 755.84 523.96 755.84 523.46 755.84 523.48 756.36 523.51 758.53 523.64 760.7 523.85 762.87 523.84 767.495 523.893 772.097 523.197 776.5 521.78 783.795 519.322 790.012 514.409 794.09 507.88 797.261 502.971 799.356 497.447 800.24 491.67 801.799 482.685 801.359 473.466 798.95 464.67 797.462 459.031 794.747 453.789 791 449.32 785.328 442.553 777.38 438.09 768.65 436.77 763.522 435.959 758.294 436.002 753.18 436.9 751.04 437.26 748.92 437.77 746.79 438.2 746.46 438.26 746.37 438.41 746.38 438.74 746.38 440.54 746.38 442.34 746.38 444.14Z"/><path d="M753.77 530C743.5 528.955 733.15 528.955 722.88 530 722.88 529.8 722.88 529.66 722.88 529.52 722.88 527.68 722.88 525.83 722.88 523.99 722.88 523.62 722.98 523.51 723.37 523.48 724.72 523.432 726.065 523.305 727.4 523.1 730.407 522.647 732.678 520.137 732.83 517.1 732.887 516.518 732.913 515.934 732.91 515.35 732.91 506.11 732.927 496.87 732.96 487.63L732.96 477.69C732.98 476.994 732.818 476.304 732.49 475.69 731.894 474.451 730.634 473.671 729.26 473.69L723.42 473.69C722.87 473.69 722.87 473.69 722.86 473.15 722.86 472.15 722.86 471.15 722.78 470.15 722.78 469.76 722.89 469.62 723.27 469.58 726.746 469.154 730.187 468.486 733.57 467.58 736.661 466.766 739.672 465.678 742.57 464.33 743.111 463.986 743.828 464.145 744.171 464.686 744.321 464.922 744.381 465.204 744.34 465.48L744 492.78C743.94 497.247 743.877 501.713 743.81 506.18 743.81 509.18 743.72 512.18 743.68 515.18 743.68 515.79 743.68 516.4 743.68 517.01 743.818 519.94 745.919 522.407 748.79 523.01 750.256 523.321 751.752 523.468 753.25 523.45 753.64 523.45 753.75 523.57 753.74 523.95 753.74 525.81 753.74 527.66 753.74 529.52 753.8 529.67 753.78 529.8 753.77 530Z"/><path d="M747.73 453.64C747.73 459.074 743.324 463.48 737.89 463.48 732.456 463.48 728.05 459.074 728.05 453.64 728.05 448.206 732.456 443.8 737.89 443.8 743.324 443.8 747.73 448.206 747.73 453.64Z" fill="#ED3237"/></g></svg>