<svg width="281" height="278" xmlns="http://www.w3.org/2000/svg" xmlns:xlink="http://www.w3.org/1999/xlink" xml:space="preserve" overflow="hidden"><defs><clipPath id="clip0"><rect x="499" y="221" width="281" height="278"/></clipPath></defs><g clip-path="url(#clip0)" transform="translate(-499 -221)"><path d="M770.999 362.781C805.271 445.883 735.479 498.314 651.326 498.314 567.174 498.314 499 437.635 499 362.781 499 287.927 566.848 221 650.978 221 735.108 221 765.594 256.014 770.999 362.781" fill="#EBF2FC"/><path d="M670.718 422.834 658.735 410.851 652.211 417.375 670.718 435.882 703.106 403.495 696.582 396.971 670.718 422.834Z" fill="#103CA3"/><path d="M619.824 334.093C619.824 336.648 617.752 338.72 615.197 338.72 612.642 338.72 610.57 336.648 610.57 334.093 610.57 331.538 612.642 329.466 615.197 329.466 617.752 329.466 619.824 331.538 619.824 334.093Z" fill="#103CA3" fill-rule="evenodd"/><path d="M619.824 371.107C619.824 373.662 617.752 375.734 615.197 375.734 612.642 375.734 610.57 373.662 610.57 371.107 610.57 368.552 612.642 366.48 615.197 366.48 617.752 366.48 619.824 368.552 619.824 371.107Z" fill="#103CA3" fill-rule="evenodd"/><path d="M619.824 408.121C619.824 410.676 617.752 412.748 615.197 412.748 612.642 412.748 610.57 410.676 610.57 408.121 610.57 405.566 612.642 403.494 615.197 403.494 617.752 403.494 619.824 405.566 619.824 408.121Z" fill="#103CA3" fill-rule="evenodd"/><path d="M675.345 310.959 601.317 310.959C596.241 310.959 592.063 315.137 592.063 320.213L592.063 422.002C592.063 427.078 596.241 431.255 601.317 431.255L638.331 431.255 638.331 422.002 601.317 422.002 601.317 394.241 684.599 394.241 684.599 320.213C684.599 315.137 680.422 310.959 675.345 310.959ZM675.345 384.988 601.317 384.988 601.317 357.227 675.345 357.227 675.345 384.988ZM675.345 347.973 601.317 347.973 601.317 320.213 675.345 320.213 675.345 347.973Z" fill="#103CA3"/></g></svg>