<svg width="249" height="251" xmlns="http://www.w3.org/2000/svg" xmlns:xlink="http://www.w3.org/1999/xlink" xml:space="preserve" overflow="hidden"><defs><clipPath id="clip0"><rect x="515" y="234" width="249" height="251"/></clipPath><clipPath id="clip1"><rect x="582" y="312" width="114" height="115"/></clipPath></defs><g clip-path="url(#clip0)" transform="translate(-515 -234)"><path d="M763.229 330.494C763.229 399.746 700.826 484.784 628.133 484.784 555.439 484.784 515 433.33 515 364.079 515 294.827 555.444 234 628.133 234 700.821 234 763.229 261.243 763.229 330.494" fill="#EBF2FC"/><g clip-path="url(#clip1)"><path d="M677.505 380.427 677.505 362.146 688.474 362.146 688.474 319.401 693.141 321.734 694.777 318.463 686.645 314.399 678.516 318.465 680.152 321.735 684.817 319.401 684.817 358.49 677.505 358.49 677.505 329.24 662.88 329.24 662.88 320.099 602.552 320.099C601.543 320.099 600.724 319.28 600.724 318.271L600.724 312.787 582.443 312.787 582.443 380.427C582.443 385.467 586.543 389.568 591.583 389.568L629.974 389.568 629.974 418.818C629.974 422.851 633.253 426.13 637.286 426.13 641.319 426.13 644.599 422.851 644.599 418.818L644.599 389.568 668.364 389.568C673.404 389.568 677.505 385.467 677.505 380.427ZM597.068 380.427C597.068 383.451 594.607 385.912 591.583 385.912 588.559 385.912 586.099 383.451 586.099 380.427L586.099 316.443 597.068 316.443 597.068 318.271C597.068 321.295 599.528 323.755 602.552 323.755L659.224 323.755 659.224 329.24 597.068 329.24 597.068 380.427ZM629.974 385.912 598.848 385.912C600.009 384.38 600.724 382.493 600.724 380.427L600.724 332.896 673.849 332.896 673.849 358.49 659.13 358.49C658.196 347.247 648.767 338.38 637.286 338.38 625.19 338.38 615.349 348.221 615.349 360.318 615.349 369.848 621.467 377.954 629.974 380.976L629.974 385.912ZM640.942 418.818C640.942 420.834 639.301 422.474 637.286 422.474 635.27 422.474 633.63 420.834 633.63 418.818L633.63 381.924C634.822 382.126 636.038 382.255 637.286 382.255 638.535 382.255 639.75 382.126 640.942 381.924L640.942 418.818ZM637.286 378.599C627.206 378.599 619.005 370.398 619.005 360.318 619.005 350.238 627.206 342.037 637.286 342.037 646.749 342.037 654.555 349.265 655.474 358.49L651.783 358.49C650.878 351.287 644.728 345.693 637.286 345.693 629.222 345.693 622.661 352.254 622.661 360.318 622.661 368.382 629.222 374.943 637.286 374.943 644.73 374.943 650.88 369.349 651.783 362.146L655.474 362.146C654.553 371.371 646.749 378.599 637.286 378.599ZM648.09 362.146C647.217 367.325 642.712 371.287 637.286 371.287 631.237 371.287 626.317 366.367 626.317 360.318 626.317 354.269 631.237 349.349 637.286 349.349 642.71 349.349 647.215 353.311 648.09 358.49L637.286 358.49 637.286 362.146 648.09 362.146ZM644.599 380.976C652.555 378.151 658.406 370.875 659.13 362.146L673.849 362.146 673.849 380.427C673.849 383.451 671.388 385.912 668.364 385.912L644.599 385.912 644.599 380.976Z" fill="#103CA3"/><path d="M684.817 365.802 688.473 365.802 688.473 369.458 684.817 369.458Z" fill="#103CA3" fill-rule="evenodd"/><path d="M684.817 373.115 688.473 373.115 688.473 376.771 684.817 376.771Z" fill="#103CA3" fill-rule="evenodd"/><path d="M684.817 380.427 688.473 380.427 688.473 384.083 684.817 384.083Z" fill="#103CA3" fill-rule="evenodd"/><path d="M648.255 393.224 648.255 426.13 695.786 426.13 695.786 393.224 648.255 393.224ZM692.13 422.474 651.911 422.474 651.911 396.88 692.13 396.88 692.13 422.474Z" fill="#103CA3"/><path d="M655.567 400.537 688.473 400.537 688.473 404.193 655.567 404.193Z" fill="#103CA3" fill-rule="evenodd"/><path d="M655.567 407.849 688.473 407.849 688.473 411.505 655.567 411.505Z" fill="#103CA3" fill-rule="evenodd"/><path d="M655.567 415.161 681.161 415.161 681.161 418.817 655.567 418.817Z" fill="#103CA3" fill-rule="evenodd"/><path d="M684.817 415.161 688.473 415.161 688.473 418.817 684.817 418.817Z" fill="#103CA3" fill-rule="evenodd"/><path d="M606.208 393.224C597.135 393.224 589.755 400.604 589.755 409.677 589.755 418.75 597.135 426.13 606.208 426.13 615.281 426.13 622.661 418.75 622.661 409.677 622.661 400.604 615.281 393.224 606.208 393.224ZM606.208 422.474C599.153 422.474 593.411 416.732 593.411 409.677 593.411 403.244 598.19 397.919 604.38 397.027L604.38 411.505 618.859 411.505C617.967 417.695 612.641 422.474 606.208 422.474ZM608.036 407.849 608.036 397.027C613.628 397.833 618.053 402.257 618.859 407.849L608.036 407.849Z" fill="#103CA3"/></g></g></svg>