<svg width="255" height="261" xmlns="http://www.w3.org/2000/svg" xmlns:xlink="http://www.w3.org/1999/xlink" xml:space="preserve" overflow="hidden"><defs><clipPath id="clip0"><rect x="512" y="229" width="255" height="261"/></clipPath></defs><g clip-path="url(#clip0)" transform="translate(-512 -229)"><path d="M512.025 359.404C510.924 276.659 546.266 229 627.365 229 708.464 229 733.764 297.86 760.227 365.478 790.543 442.892 708.469 489.807 627.365 489.807 546.261 489.807 513.162 443.721 512.025 359.404" fill="#EBF2FC"/><path d="M626.318 340.119C614.949 340.119 605.594 349.474 605.594 360.843 605.594 372.212 614.949 381.567 626.318 381.567 637.687 381.567 647.042 372.212 647.042 360.843 647.029 349.479 637.682 340.132 626.318 340.119ZM626.318 374.031C619.083 374.031 613.13 368.078 613.13 360.843 613.13 353.608 619.083 347.655 626.318 347.655 633.553 347.655 639.506 353.608 639.506 360.843 639.498 368.075 633.55 374.023 626.318 374.031Z" fill="#103CA3"/><path d="M678.021 376.461 670.539 370.302C671.866 364.066 671.866 357.62 670.539 351.384L678.021 345.225C679.796 343.771 680.258 341.218 679.106 339.234L671.426 325.933C670.284 323.942 667.841 323.066 665.694 323.877L656.613 327.279C651.883 323.005 646.302 319.779 640.237 317.814L638.644 308.26C638.273 305.995 636.293 304.318 633.998 304.324L618.638 304.324C616.343 304.318 614.364 305.995 613.992 308.26L612.4 317.814C606.335 319.779 600.754 323.005 596.023 327.279L586.942 323.876C584.795 323.066 582.353 323.942 581.211 325.933L573.531 339.235C572.379 341.219 572.842 343.772 574.617 345.226L582.098 351.384C580.772 357.62 580.772 364.066 582.098 370.302L574.616 376.461C572.841 377.915 572.379 380.468 573.531 382.452L581.211 395.753C582.353 397.744 584.796 398.62 586.942 397.809L596.024 394.407C600.754 398.681 606.335 401.907 612.4 403.872L613.993 413.426C614.364 415.691 616.343 417.368 618.638 417.362L633.998 417.362C636.293 417.368 638.273 415.691 638.644 413.427L640.236 403.872C646.301 401.907 651.882 398.681 656.613 394.407L665.694 397.81C667.841 398.62 670.283 397.744 671.425 395.754L679.104 382.451C680.257 380.467 679.795 377.915 678.021 376.461ZM666.096 389.913 654.767 385.668 653.051 387.395C648.332 392.152 642.427 395.565 635.948 397.28L633.593 397.9 631.605 409.826 621.033 409.826 619.045 397.9 616.69 397.28C610.212 395.565 604.307 392.152 599.587 387.395L597.872 385.668 586.54 389.913 581.255 380.757 590.588 373.074 589.952 370.726C588.204 364.254 588.204 357.432 589.952 350.96L590.588 348.612 581.255 340.929 586.541 331.774 597.871 336.018 599.587 334.291C604.306 329.534 610.211 326.121 616.689 324.407L619.044 323.786 621.032 311.86 631.605 311.86 633.593 323.786 635.948 324.407C642.426 326.121 648.331 329.534 653.051 334.291L654.766 336.018 666.096 331.774 671.382 340.929 662.049 348.612 662.685 350.96C664.434 357.432 664.434 364.254 662.685 370.726L662.049 373.074 671.382 380.757 666.096 389.913Z" fill="#103CA3"/></g></svg>