<svg width="334" height="319" xmlns="http://www.w3.org/2000/svg" xmlns:xlink="http://www.w3.org/1999/xlink" xml:space="preserve" overflow="hidden"><defs><clipPath id="clip0"><rect x="473" y="200" width="334" height="319"/></clipPath></defs><g clip-path="url(#clip0)" transform="translate(-473 -200)"><path d="M806.333 322.443C806.333 410.318 722.537 518.223 624.92 518.223 527.303 518.223 473 452.933 473 365.059 473 277.185 527.31 200 624.92 200 722.53 200 806.333 234.569 806.333 322.443" fill="#EBF2FC"/><path d="M556.541 370.529 550.604 370.529 550.604 441.887C550.604 443.6 551.791 444.741 553.573 444.741L630.76 444.741 630.76 439.033 556.541 439.033 556.541 370.529Z" fill="#2F49BA"/><path d="M722.792 439.033 648.573 439.033 648.573 444.741 725.761 444.741C727.542 444.741 728.729 443.6 728.729 441.887L728.729 370.529 722.792 370.529 722.792 439.033Z" fill="#2F49BA"/><path d="M725.761 273.482 648.573 273.482 648.573 279.191 722.792 279.191 722.792 296.317 657.479 296.317 657.479 302.025 722.792 302.025 722.792 353.403 728.729 353.403 728.729 276.336C728.729 274.624 727.542 273.482 725.761 273.482Z" fill="#2F49BA"/><path d="M556.541 302.025 621.854 302.025 621.854 296.317 556.541 296.317 556.541 279.191 630.76 279.191 630.76 273.482 553.573 273.482C551.791 273.482 550.604 274.624 550.604 276.336L550.604 353.403 556.541 353.403 556.541 302.025Z" fill="#2F49BA"/><path d="M562.479 284.899 568.417 284.899 568.417 290.608 562.479 290.608Z" fill="#2F49BA" fill-rule="evenodd"/><path d="M574.354 284.899 580.292 284.899 580.292 290.608 574.354 290.608Z" fill="#2F49BA" fill-rule="evenodd"/><path d="M586.229 284.899 592.167 284.899 592.167 290.608 586.229 290.608Z" fill="#2F49BA" fill-rule="evenodd"/><path d="M704.979 284.899 716.854 284.899 716.854 290.608 704.979 290.608Z" fill="#2F49BA" fill-rule="evenodd"/><path d="M598.104 319.151 598.104 404.781C598.104 406.493 599.292 407.635 601.073 407.635L678.261 407.635C680.042 407.635 681.229 406.493 681.229 404.781L681.229 319.151C681.229 317.439 680.042 316.297 678.261 316.297L601.073 316.297C599.292 316.297 598.104 317.439 598.104 319.151ZM675.292 373.383 604.042 373.383 604.042 350.549 675.292 350.549 675.292 373.383ZM675.292 401.926 604.042 401.926 604.042 379.092 675.292 379.092 675.292 401.926ZM604.042 322.006 675.292 322.006 675.292 344.84 604.042 344.84 604.042 322.006Z" fill="#2F49BA"/><path d="M609.979 327.714 615.917 327.714 615.917 339.131 609.979 339.131Z" fill="#2F49BA" fill-rule="evenodd"/><path d="M621.854 327.714 627.792 327.714 627.792 339.131 621.854 339.131Z" fill="#2F49BA" fill-rule="evenodd"/><path d="M633.729 327.714 639.667 327.714 639.667 339.131 633.729 339.131Z" fill="#2F49BA" fill-rule="evenodd"/><path d="M609.979 356.257 615.917 356.257 615.917 367.674 609.979 367.674Z" fill="#2F49BA" fill-rule="evenodd"/><path d="M621.854 356.257 627.792 356.257 627.792 367.674 621.854 367.674Z" fill="#2F49BA" fill-rule="evenodd"/><path d="M633.729 356.257 639.667 356.257 639.667 367.674 633.729 367.674Z" fill="#2F49BA" fill-rule="evenodd"/><path d="M651.542 330.568 657.48 330.568 657.48 336.277 651.542 336.277Z" fill="#2F49BA" fill-rule="evenodd"/><path d="M663.417 330.568 669.355 330.568 669.355 336.277 663.417 336.277Z" fill="#2F49BA" fill-rule="evenodd"/><path d="M651.542 359.112 657.48 359.112 657.48 364.821 651.542 364.821Z" fill="#2F49BA" fill-rule="evenodd"/><path d="M663.417 359.112 669.355 359.112 669.355 364.821 663.417 364.821Z" fill="#2F49BA" fill-rule="evenodd"/><path d="M636.698 387.655 654.511 387.655 654.511 393.364 636.698 393.364Z" fill="#2F49BA" fill-rule="evenodd"/><path d="M660.448 387.655 666.386 387.655 666.386 393.364 660.448 393.364Z" fill="#2F49BA" fill-rule="evenodd"/><path d="M624.823 387.655 630.761 387.655 630.761 393.364 624.823 393.364Z" fill="#2F49BA" fill-rule="evenodd"/><path d="M612.948 387.655 618.886 387.655 618.886 393.364 612.948 393.364Z" fill="#2F49BA" fill-rule="evenodd"/><path d="M704.089 355.401 699.932 351.405 691.026 359.968C689.839 361.11 689.839 362.822 691.026 363.964L699.932 372.527 704.089 368.531 700.229 364.82 728.729 364.82 728.729 359.112 700.229 359.112 704.089 355.401Z" fill="#2F49BA"/><path d="M575.245 368.531 579.401 372.527 588.307 363.964C589.495 362.822 589.495 361.11 588.307 359.968L579.401 351.405 575.245 355.401 579.104 359.112 550.604 359.112 550.604 364.82 579.104 364.82 575.245 368.531Z" fill="#2F49BA"/><path d="M650.651 425.617 641.745 417.054C640.557 415.913 638.776 415.913 637.589 417.054L628.682 425.617 632.839 429.613 636.698 425.903 636.698 444.741 642.635 444.741 642.635 425.903 646.495 429.613 650.651 425.617Z" fill="#2F49BA"/><path d="M628.682 298.315 637.589 306.878C638.182 307.448 638.776 307.734 639.667 307.734 640.557 307.734 641.151 307.448 641.745 306.878L650.651 298.315 646.495 294.319 642.635 298.029 642.635 273.482 636.698 273.482 636.698 298.029 632.839 294.319 628.682 298.315Z" fill="#2F49BA"/></g></svg>