<svg width="334" height="317" xmlns="http://www.w3.org/2000/svg" xmlns:xlink="http://www.w3.org/1999/xlink" xml:space="preserve" overflow="hidden"><defs><clipPath id="clip0"><rect x="473" y="201" width="334" height="317"/></clipPath></defs><g clip-path="url(#clip0)" transform="translate(-473 -201)"><path d="M795.754 362.752C836.421 457.56 753.606 517.376 653.751 517.376 553.895 517.376 473 448.15 473 362.752 473 277.354 553.508 201 653.337 201 753.166 201 789.34 240.946 795.754 362.752" fill="#EBF2FC"/><path d="M719.873 302.235C718.457 302.235 717.31 303.338 717.31 304.699L717.31 431.475 585.669 431.475C584.254 431.475 583.106 432.579 583.106 433.94 583.106 435.301 584.254 436.404 585.669 436.404L719.873 436.404C721.288 436.404 722.436 435.301 722.436 433.94L722.436 304.699C722.436 303.338 721.288 302.235 719.873 302.235Z" fill="#2F49BA"/><path d="M719.873 281.972 708.836 281.972C707.42 281.972 706.273 283.076 706.273 284.437 706.273 285.798 707.42 286.901 708.836 286.901L717.31 286.901 717.31 294.842C717.31 296.203 718.457 297.306 719.873 297.306 721.288 297.306 722.436 296.203 722.436 294.842L722.436 284.437C722.436 283.076 721.288 281.972 719.873 281.972Z" fill="#2F49BA"/><path d="M698.583 281.972 564.376 281.972C562.96 281.972 561.813 283.076 561.813 284.437L561.813 413.677C561.813 415.038 562.96 416.141 564.376 416.141 565.791 416.141 566.939 415.038 566.939 413.677L566.939 286.901 698.583 286.901C699.998 286.901 701.146 285.798 701.146 284.437 701.146 283.076 699.999 281.972 698.583 281.972Z" fill="#2F49BA"/><path d="M575.417 431.475 566.939 431.475 566.939 423.535C566.939 422.174 565.791 421.07 564.376 421.07 562.96 421.07 561.813 422.174 561.813 423.535L561.813 433.94C561.813 435.301 562.96 436.404 564.376 436.404L575.417 436.404C576.832 436.404 577.98 435.301 577.98 433.94 577.98 432.579 576.832 431.475 575.417 431.475Z" fill="#2F49BA"/><path d="M708.836 379.998C710.251 379.998 711.399 378.895 711.399 377.534L711.399 364.391C711.399 363.03 710.251 361.927 708.836 361.927L635.359 361.927C633.944 361.927 632.796 363.03 632.796 364.391L632.796 377.534C632.796 378.895 633.944 379.998 635.359 379.998L636.213 379.998 636.213 384.927 635.359 384.927C633.944 384.927 632.796 386.03 632.796 387.391L632.796 400.534C632.796 401.895 633.944 402.998 635.359 402.998L636.213 402.998 636.213 407.927 635.359 407.927C633.944 407.927 632.796 409.03 632.796 410.391L632.796 423.534C632.796 424.895 633.944 425.999 635.359 425.999L708.836 425.999C710.251 425.999 711.399 424.895 711.399 423.534L711.399 410.391C711.399 409.03 710.251 407.927 708.836 407.927L707.982 407.927 707.982 402.998 708.836 402.998C710.251 402.998 711.399 401.895 711.399 400.534L711.399 387.391C711.399 386.03 710.251 384.927 708.836 384.927L707.982 384.927 707.982 379.998 708.836 379.998ZM706.273 421.07 637.922 421.07 637.922 412.856 706.272 412.856 706.272 421.07 706.273 421.07ZM706.273 398.07 695.166 398.07C693.75 398.07 692.603 399.173 692.603 400.534 692.603 401.895 693.75 402.998 695.166 402.998L702.855 402.998 702.855 407.927 641.34 407.927 641.34 402.998 684.913 402.998C686.329 402.998 687.476 401.895 687.476 400.534 687.476 399.173 686.329 398.07 684.913 398.07L637.922 398.07 637.922 389.855 706.272 389.855 706.272 398.07 706.273 398.07ZM641.34 384.927 641.34 379.998 702.855 379.998 702.855 384.927 641.34 384.927ZM706.273 375.069 637.922 375.069 637.922 366.855 706.272 366.855 706.272 375.069 706.273 375.069Z" fill="#2F49BA"/><path d="M648.894 310.449C650.309 310.449 651.457 309.346 651.457 307.985L651.457 294.842C651.457 293.481 650.309 292.377 648.894 292.377L575.417 292.377C574.001 292.377 572.854 293.481 572.854 294.842L572.854 307.985C572.854 309.346 574.001 310.449 575.417 310.449L576.271 310.449 576.271 315.378 575.417 315.378C574.001 315.378 572.854 316.481 572.854 317.842L572.854 330.985C572.854 332.346 574.001 333.449 575.417 333.449L576.271 333.449 576.271 338.378 575.417 338.378C574.001 338.378 572.854 339.481 572.854 340.842L572.854 353.985C572.854 355.346 574.001 356.449 575.417 356.449L648.894 356.449C650.309 356.449 651.457 355.346 651.457 353.985L651.457 340.842C651.457 339.481 650.309 338.378 648.894 338.378L648.039 338.378 648.039 333.449 648.894 333.449C650.309 333.449 651.457 332.346 651.457 330.985L651.457 317.842C651.457 316.481 650.309 315.378 648.894 315.378L648.039 315.378 648.039 310.449 648.894 310.449 648.894 310.449ZM646.33 351.521 577.98 351.521 577.98 343.307 646.33 343.307 646.33 351.521 646.33 351.521ZM646.33 328.521 635.224 328.521C633.808 328.521 632.661 329.624 632.661 330.985 632.661 332.346 633.808 333.45 635.224 333.45L642.913 333.45 642.913 338.378 581.398 338.378 581.398 333.45 624.971 333.45C626.387 333.45 627.534 332.346 627.534 330.985 627.534 329.624 626.387 328.521 624.971 328.521L577.98 328.521 577.98 320.307 646.33 320.307 646.33 328.521 646.33 328.521ZM581.398 310.449 642.913 310.449 642.913 315.378 581.398 315.378 581.398 310.449ZM646.33 305.52 577.98 305.52 577.98 297.306 646.33 297.306 646.33 305.52 646.33 305.52Z" fill="#2F49BA"/><path d="M592.287 393.689C592.287 395.05 591.14 396.153 589.724 396.153 588.308 396.153 587.161 395.05 587.161 393.689 587.161 392.328 588.308 391.225 589.724 391.225 591.14 391.225 592.287 392.328 592.287 393.689Z" fill="#2F49BA" fill-rule="evenodd"/><path d="M602.539 393.689C602.539 395.05 601.391 396.153 599.976 396.153 598.56 396.153 597.413 395.05 597.413 393.689 597.413 392.328 598.56 391.225 599.976 391.225 601.391 391.225 602.539 392.328 602.539 393.689Z" fill="#2F49BA" fill-rule="evenodd"/><path d="M612.792 393.689C612.792 395.05 611.645 396.153 610.229 396.153 608.813 396.153 607.666 395.05 607.666 393.689 607.666 392.328 608.813 391.225 610.229 391.225 611.645 391.225 612.792 392.328 612.792 393.689Z" fill="#2F49BA" fill-rule="evenodd"/><path d="M697.088 324.687C697.088 326.048 695.94 327.151 694.525 327.151 693.109 327.151 691.962 326.048 691.962 324.687 691.962 323.326 693.109 322.223 694.525 322.223 695.94 322.223 697.088 323.326 697.088 324.687Z" fill="#2F49BA" fill-rule="evenodd"/><path d="M686.836 324.687C686.836 326.048 685.688 327.151 684.273 327.151 682.857 327.151 681.71 326.048 681.71 324.687 681.71 323.326 682.857 322.223 684.273 322.223 685.688 322.223 686.836 323.326 686.836 324.687Z" fill="#2F49BA" fill-rule="evenodd"/><path d="M676.583 324.687C676.583 326.048 675.435 327.151 674.02 327.151 672.604 327.151 671.457 326.048 671.457 324.687 671.457 323.326 672.604 322.223 674.02 322.223 675.435 322.223 676.583 323.326 676.583 324.687Z" fill="#2F49BA" fill-rule="evenodd"/></g></svg>