<svg width="334" height="325" xmlns="http://www.w3.org/2000/svg" xmlns:xlink="http://www.w3.org/1999/xlink" xml:space="preserve" overflow="hidden"><defs><clipPath id="clip0"><rect x="473" y="197" width="334" height="325"/></clipPath></defs><g clip-path="url(#clip0)" transform="translate(-473 -197)"><path d="M707.483 227.097C707.483 227.097 835.129 335.681 800.318 442.49 800.318 442.49 764.147 554.006 576.397 511.481 541.289 503.526 510.484 483.352 492.125 454.685 483.162 440.555 477.039 424.93 474.077 408.626 468.24 377.655 487.171 312.146 505.812 285.81 546.439 228.405 627.372 154.702 707.483 227.097" fill="#EBF2FC"/><path d="M702.123 284.015 577.211 284.015C566.932 284.015 558.474 292.147 558.474 302.029L558.474 416.121C558.474 426.004 566.932 434.136 577.211 434.136L702.123 434.136C712.401 434.136 720.859 426.004 720.859 416.121L720.859 302.029C720.859 292.147 712.401 284.015 702.123 284.015ZM708.368 416.121C708.368 419.415 705.549 422.126 702.123 422.126L577.211 422.126C573.785 422.126 570.965 419.415 570.965 416.121L570.965 302.029C570.965 298.735 573.785 296.024 577.211 296.024L702.123 296.024C705.549 296.024 708.368 298.735 708.368 302.029L708.368 416.121Z" fill="#2F49BA"/><path d="M680.263 350.068C683.689 350.068 686.509 347.357 686.509 344.063 686.509 340.769 683.689 338.058 680.263 338.058L611.031 338.058 619.087 330.282C620.056 329.194 620.589 327.808 620.589 326.376 620.589 323.082 617.77 320.371 614.344 320.371 612.854 320.371 611.413 320.884 610.281 321.815L591.544 339.83C589.754 341.539 589.21 344.131 590.17 346.375 591.141 348.611 593.427 350.073 595.948 350.068L680.263 350.068Z" fill="#2F49BA"/><path d="M686.509 371.085 602.193 371.085C598.767 371.085 595.948 373.796 595.948 377.09 595.948 380.384 598.767 383.095 602.193 383.095L671.425 383.095 663.369 390.871C661.984 392.011 661.186 393.679 661.186 395.432 661.186 398.726 664.005 401.437 667.431 401.437 669.254 401.437 670.989 400.669 672.175 399.338L690.912 381.323C692.702 379.613 693.246 377.021 692.286 374.778 691.316 372.542 689.029 371.08 686.509 371.085Z" fill="#2F49BA"/></g></svg>