<svg width="334" height="329" xmlns="http://www.w3.org/2000/svg" xmlns:xlink="http://www.w3.org/1999/xlink" xml:space="preserve" overflow="hidden"><defs><clipPath id="clip0"><rect x="473" y="195" width="334" height="329"/></clipPath><clipPath id="clip1"><rect x="532" y="271" width="196" height="188"/></clipPath></defs><g clip-path="url(#clip0)" transform="translate(-473 -195)"><path d="M473.033 359.103C471.592 254.976 517.85 195 623.999 195 730.147 195 763.262 281.655 797.899 366.748 837.578 464.168 730.154 523.207 623.999 523.207 517.844 523.207 474.521 465.21 473.033 359.103" fill="#EBF2FC"/><g clip-path="url(#clip1)"><path d="M543.683 364.504C543.683 318.613 582.515 281.277 630.246 281.277 654.112 281.277 676.773 290.706 693.102 307.284L688.679 307.284C685.819 307.284 683.501 309.513 683.501 312.263 683.501 315.012 685.819 317.241 688.679 317.241L706.239 317.241C709.099 317.241 711.417 315.012 711.417 312.263L711.417 295.379C711.417 292.629 709.099 290.401 706.239 290.401 703.379 290.401 701.061 292.629 701.061 295.379L701.061 300.894C682.748 282.052 657.186 271.321 630.246 271.321 576.805 271.321 533.327 313.123 533.327 364.504 533.327 387.164 541.889 409.006 557.435 426.007 558.458 427.126 559.888 427.698 561.325 427.698 562.539 427.698 563.759 427.289 564.742 426.458 566.889 424.643 567.1 421.497 565.211 419.432 551.329 404.25 543.683 384.743 543.683 364.504Z" fill="#2F49BA"/><path d="M720.991 331.706C719.984 329.132 716.996 327.831 714.322 328.799 711.645 329.767 710.291 332.637 711.298 335.211 714.955 344.562 716.81 354.417 716.81 364.504 716.81 410.395 677.978 447.73 630.246 447.73 616.435 447.73 602.721 444.526 590.541 438.472L595.221 436.879C597.916 435.96 599.328 433.116 598.373 430.524 597.419 427.932 594.456 426.576 591.764 427.493L575.211 433.129C572.516 434.048 571.105 436.892 572.059 439.484L577.921 455.398C578.674 457.441 580.669 458.716 582.802 458.716 583.375 458.716 583.959 458.624 584.53 458.429 587.226 457.511 588.637 454.666 587.683 452.075L585.961 447.4C599.562 454.127 614.851 457.687 630.246 457.687 683.688 457.687 727.166 415.885 727.166 364.504 727.166 353.217 725.088 342.181 720.991 331.706Z" fill="#2F49BA"/><path d="M630.246 302.502C595.076 302.502 566.463 330.012 566.463 363.826 566.463 397.64 595.076 425.151 630.246 425.151 665.417 425.151 694.03 397.641 694.03 363.826 694.03 330.012 665.417 302.502 630.246 302.502ZM679.213 368.805 683.422 368.805C680.974 393.163 660.759 412.599 635.424 414.953L635.424 410.905C635.424 408.156 633.106 405.927 630.246 405.927 627.386 405.927 625.068 408.156 625.068 410.905L625.068 414.953C599.733 412.599 579.518 393.163 577.07 368.805L581.28 368.805C584.14 368.805 586.458 366.577 586.458 363.827 586.458 361.077 584.14 358.849 581.28 358.849L577.07 358.849C579.518 334.49 599.733 315.054 625.068 312.701L625.068 316.748C625.068 319.498 627.386 321.726 630.246 321.726 633.106 321.726 635.424 319.498 635.424 316.748L635.424 312.701C660.759 315.054 680.974 334.49 683.422 358.848L679.213 358.848C676.353 358.848 674.035 361.077 674.035 363.826 674.035 366.576 676.353 368.805 679.213 368.805Z" fill="#2F49BA"/><path d="M653.531 363.853 635.424 363.853 635.424 336.866C635.424 334.116 633.106 331.887 630.246 331.887 627.386 331.887 625.068 334.116 625.068 336.866L625.068 368.832C625.068 371.581 627.386 373.81 630.246 373.81L653.531 373.81C656.39 373.81 658.708 371.581 658.708 368.832 658.708 366.082 656.39 363.853 653.531 363.853Z" fill="#2F49BA"/></g></g></svg>