<svg width="334" height="338" xmlns="http://www.w3.org/2000/svg" xmlns:xlink="http://www.w3.org/1999/xlink" xml:space="preserve" overflow="hidden"><defs><clipPath id="clip0"><rect x="473" y="191" width="334" height="338"/></clipPath></defs><g clip-path="url(#clip0)" transform="translate(-473 -191)"><path d="M707.483 222.304C707.483 222.304 835.129 335.241 800.318 446.333 800.318 446.333 764.147 562.319 576.397 518.089 541.289 509.816 510.484 488.832 492.125 459.016 483.162 444.319 477.039 428.068 474.077 411.111 468.24 378.898 487.171 310.763 505.812 283.37 546.439 223.664 627.372 147.006 707.483 222.304" fill="#EBF2FC"/><path d="M608.846 345.35 694.754 345.35 694.754 381.638 608.846 381.638 608.846 345.35ZM594.771 434.151C593.979 436.796 592.846 438.933 591.464 440.598L695.982 440.598C699.749 440.386 702.559 439.382 704.437 437.599 706.279 435.851 707.306 433.242 707.53 429.782L707.53 330.554 595.881 330.554 595.881 425.094C595.881 429.109 595.928 430.278 594.771 434.151ZM582.643 445.286C582.112 445.322 581.569 445.322 581.037 445.298 578.888 445.168 576.774 444.507 574.861 443.385 570.669 440.917 567.434 436.194 567.138 430.018 567.127 429.923 567.115 429.817 567.115 429.723L567.115 346.59C567.115 345.291 568.166 344.252 569.453 344.252L591.193 344.252 591.193 328.204C591.193 326.905 592.243 325.866 593.531 325.866L709.869 325.866C711.168 325.866 712.207 326.917 712.207 328.204L712.207 429.841C712.207 429.971 712.195 430.089 712.183 430.207 711.864 434.812 710.353 438.414 707.649 440.988 704.956 443.55 701.154 444.979 696.23 445.263 696.135 445.274 696.029 445.286 695.923 445.286L582.643 445.286ZM581.344 440.634C581.462 440.61 581.592 440.598 581.722 440.598L582.572 440.598C583.505 440.504 584.414 440.244 585.265 439.795 590.472 437.068 591.193 430.408 591.193 425.129L591.193 348.928 571.803 348.928 571.803 429.793C572.027 434.233 574.306 437.611 577.247 439.347 578.522 440.102 579.915 440.539 581.297 440.622L581.344 440.634ZM615.376 354.384 619.982 354.384 625.969 364.445 625.969 354.384 630.621 354.384 630.621 372.593 625.969 372.593 620.017 362.591 620.017 372.593 615.388 372.593 615.388 354.384 615.376 354.384ZM634.672 354.384 647.862 354.384 647.862 358.281 639.619 358.281 639.619 361.186 647.26 361.186 647.26 364.894 639.619 364.894 639.619 368.483 648.11 368.483 648.11 372.605 634.672 372.605 634.672 354.384ZM649.917 354.384 654.593 354.384 656.27 364.551 658.737 354.384 663.378 354.384 665.858 364.563 667.547 354.384 672.211 354.384 668.692 372.593 663.862 372.593 661.064 361.127 658.277 372.593 653.447 372.593 649.917 354.384ZM673.758 366.582 678.434 366.252C678.529 367.114 678.741 367.775 679.048 368.224 679.556 368.956 680.276 369.322 681.221 369.322 681.918 369.322 682.461 369.133 682.839 368.755 683.217 368.377 683.406 367.94 683.406 367.444 683.406 366.972 683.228 366.547 682.862 366.181 682.508 365.803 681.658 365.46 680.347 365.13 678.186 364.575 676.651 363.843 675.73 362.922 674.797 362 674.337 360.831 674.337 359.414 674.337 358.482 674.573 357.596 675.045 356.769 675.517 355.931 676.238 355.281 677.182 354.809 678.139 354.337 679.45 354.101 681.103 354.101 683.146 354.101 684.693 354.537 685.767 355.4 686.842 356.262 687.468 357.643 687.68 359.533L683.051 359.851C682.933 359.025 682.673 358.422 682.272 358.045 681.87 357.667 681.327 357.478 680.631 357.478 680.064 357.478 679.627 357.62 679.332 357.891 679.036 358.163 678.895 358.505 678.895 358.907 678.895 359.19 679.013 359.45 679.249 359.686 679.473 359.922 680.028 360.147 680.89 360.359 683.04 360.89 684.586 361.422 685.508 361.965 686.44 362.508 687.113 363.181 687.539 363.984 687.964 364.787 688.176 365.685 688.176 366.677 688.176 367.846 687.893 368.92 687.326 369.912 686.759 370.892 685.968 371.648 684.953 372.156 683.937 372.664 682.662 372.923 681.115 372.923 678.399 372.923 676.521 372.321 675.482 371.129 674.49 369.924 673.9 368.413 673.758 366.582ZM609.39 397.721C608.091 397.721 607.051 396.67 607.051 395.383 607.051 394.096 608.102 393.045 609.39 393.045L645.11 393.045C646.398 393.045 647.449 394.096 647.449 395.383 647.449 396.67 646.398 397.721 645.11 397.721L609.39 397.721ZM655.36 397.721C654.061 397.721 653.01 396.67 653.01 395.371 653.01 394.073 654.061 393.022 655.36 393.022L693.892 393.022C695.191 393.022 696.241 394.073 696.241 395.371 696.241 396.67 695.191 397.721 693.892 397.721L655.36 397.721ZM655.36 411.313C654.061 411.313 653.01 410.262 653.01 408.963 653.01 407.664 654.061 406.613 655.36 406.613L693.892 406.613C695.191 406.613 696.241 407.664 696.241 408.963 696.241 410.262 695.191 411.313 693.892 411.313L655.36 411.313ZM655.36 424.905C654.061 424.905 653.01 423.854 653.01 422.555 653.01 421.256 654.061 420.205 655.36 420.205L693.892 420.205C695.191 420.205 696.241 421.256 696.241 422.555 696.241 423.854 695.191 424.905 693.892 424.905L655.36 424.905ZM609.39 424.905C608.091 424.905 607.051 423.854 607.051 422.567 607.051 421.279 608.102 420.229 609.39 420.229L645.11 420.229C646.398 420.229 647.449 421.279 647.449 422.567 647.449 423.854 646.398 424.905 645.11 424.905L609.39 424.905ZM610.523 411.313C609.224 411.313 608.185 410.262 608.185 408.975 608.185 407.688 609.236 406.637 610.523 406.637L646.244 406.637C647.543 406.637 648.582 407.688 648.582 408.975 648.582 410.262 647.531 411.313 646.244 411.313L610.523 411.313Z" fill="#1930AB" fill-rule="evenodd"/></g></svg>