<svg width="237" height="240" xmlns="http://www.w3.org/2000/svg" xmlns:xlink="http://www.w3.org/1999/xlink" xml:space="preserve" overflow="hidden"><defs><clipPath id="clip0"><rect x="521" y="240" width="237" height="240"/></clipPath><clipPath id="clip1"><rect x="559" y="323" width="128" height="102"/></clipPath></defs><g clip-path="url(#clip0)" transform="translate(-521 -240)"><path d="M687.7 262.255C687.7 262.255 778.446 342.544 753.698 421.522 753.698 421.522 727.983 503.979 594.507 472.536 569.549 466.654 547.648 451.736 534.597 430.539 528.224 420.091 523.872 408.537 521.766 396.482 517.616 373.581 531.074 325.142 544.327 305.668 573.21 263.221 630.747 208.724 687.7 262.255" fill="#EBF2FC"/><g clip-path="url(#clip1)"><path d="M642.321 323.825C655.546 325.48 667.583 332.382 675.739 342.989 692.76 365.036 688.799 396.784 666.893 413.913 666.873 413.925 666.858 413.94 666.838 413.958 644.939 431.082 613.396 427.098 596.38 405.06 596.37 405.045 596.358 405.03 596.345 405.017 594.145 402.163 592.252 399.082 590.698 395.826 593.854 395.733 596.988 395.281 600.042 394.477 601.039 396.237 602.158 397.924 603.392 399.526 617.411 417.643 643.365 420.89 661.362 406.779 679.361 392.673 682.585 366.553 668.569 348.439 658.61 335.572 642.094 329.754 626.334 333.561 624.825 330.771 623.011 328.159 620.924 325.775 621.533 325.576 622.148 325.4 622.769 325.225 629.14 323.451 635.796 322.979 642.348 323.825L642.321 323.825ZM559.716 355.555 559.716 351.723C560.697 336.057 573.626 323.653 589.437 323.645L589.45 323.645C605.911 323.643 619.255 337.065 619.265 353.632 619.273 370.199 605.931 383.63 589.47 383.638 573.643 383.643 560.697 371.234 559.716 355.555ZM581.466 347.364 586.819 352.467 596.82 342.24C597.809 341.228 598.43 340.419 599.651 341.678L603.619 345.759C604.915 347.055 604.848 347.809 603.622 349.023L589.076 363.393C586.493 365.946 586.94 366.103 584.319 363.475L574.793 353.945C574.251 353.348 574.306 352.748 574.899 352.146L579.498 347.356C580.193 346.627 580.747 346.672 581.466 347.364ZM633.302 349.422C633.608 346.963 635.833 345.221 638.269 345.53L638.279 345.53C640.707 345.858 642.415 348.098 642.101 350.539L639.208 373.951 655.294 386.529C657.235 388.047 657.594 390.859 656.085 392.82 655.363 393.756 654.3 394.367 653.131 394.517 651.961 394.671 650.779 394.348 649.852 393.616L631.848 379.53C631.226 379.078 630.733 378.471 630.416 377.768 630.082 377.014 629.957 376.182 630.055 375.362L633.302 349.434 633.302 349.422Z" fill="#1930AB" fill-rule="evenodd"/></g></g></svg>