<svg width="281" height="278" xmlns="http://www.w3.org/2000/svg" xmlns:xlink="http://www.w3.org/1999/xlink" xml:space="preserve" overflow="hidden"><defs><clipPath id="clip0"><rect x="499" y="221" width="281" height="278"/></clipPath><clipPath id="clip1"><rect x="548" y="317" width="182" height="104"/></clipPath></defs><g clip-path="url(#clip0)" transform="translate(-499 -221)"><path d="M770.999 362.781C805.271 445.883 735.479 498.314 651.326 498.314 567.174 498.314 499 437.635 499 362.781 499 287.927 566.848 221 650.978 221 735.108 221 765.594 256.014 770.999 362.781" fill="#EBF2FC"/><g clip-path="url(#clip1)"><path d="M572.939 317.064 705.121 317.064C706.848 317.072 708.266 318.491 708.274 320.217L708.274 375.301 703.323 371.956 703.323 330.194 575.12 330.194 575.12 407.47 703.323 407.47 703.323 399.247 708.274 401.472 708.274 409.12C708.269 409.768 708.069 410.4 707.7 410.932L725.029 410.932C727.632 411.075 729.696 413.255 729.696 415.862 729.696 418.468 727.632 420.649 725.029 420.791L553.856 420.791C553.766 420.796 553.676 420.798 553.586 420.798 550.878 420.798 548.649 418.57 548.649 415.862 548.649 413.154 550.878 410.925 553.586 410.925 553.676 410.925 553.766 410.928 553.856 410.932L570.36 410.932C569.985 410.403 569.784 409.769 569.785 409.12L569.785 320.217C569.785 318.488 571.209 317.064 572.939 317.064ZM591.27 322.148C592.313 322.148 593.171 323.006 593.171 324.049 593.171 325.092 592.313 325.95 591.27 325.95 590.228 325.95 589.369 325.092 589.369 324.049 589.369 323.006 590.228 322.148 591.27 322.148ZM584.624 322.148C585.667 322.148 586.525 323.006 586.525 324.049 586.525 325.092 585.667 325.95 584.624 325.95 583.582 325.95 582.723 325.092 582.723 324.049 582.723 323.006 583.582 322.148 584.624 322.148ZM577.978 322.148C579.021 322.148 579.879 323.006 579.879 324.049 579.879 325.092 579.021 325.95 577.978 325.95 576.936 325.95 576.078 325.092 576.078 324.049 576.078 323.006 576.936 322.148 577.978 322.148ZM634.27 413.511 644.585 413.511C645.555 413.511 646.354 414.31 646.354 415.28 646.354 416.25 645.555 417.048 644.585 417.048L634.27 417.048C633.3 417.048 632.502 416.25 632.502 415.28 632.502 414.31 633.3 413.511 634.27 413.511Z" fill="#1930AB"/><path d="M603.811 383.45C602.455 383.45 602.455 378.41 603.811 378.41L658.216 378.41C660.475 379.959 663.103 380.885 665.835 381.092 667.884 381.3 669.955 381.115 671.935 380.547L674.721 383.494 603.811 383.45ZM586.29 383.45C584.949 383.45 584.949 378.41 586.29 378.41L599.022 378.41C600.363 378.41 600.363 383.45 599.022 383.45L586.29 383.45ZM585.862 372.914C584.507 372.914 584.507 367.874 585.862 367.874L598.579 367.874C599.92 367.874 599.92 372.914 598.579 372.914L585.862 372.914ZM603.811 372.914C602.455 372.914 602.455 367.874 603.811 367.874L651.04 367.874 651.187 368.198C651.939 369.819 652.661 371.41 653.53 372.914L603.811 372.914Z" fill="#1930AB"/><path d="M664.096 336.221 689.147 336.221C689.182 336.22 689.216 336.219 689.251 336.219 691.468 336.219 693.301 338.026 693.332 340.244L693.332 356.232C693.324 358.46 691.493 360.291 689.265 360.299L680.821 360.299C680.135 358.963 679.267 357.729 678.242 356.63 675.145 353.429 671.163 351.222 666.807 350.294 664.571 349.805 662.288 349.558 659.999 349.557L659.999 340.244C660.031 338.021 661.873 336.213 664.096 336.221Z" fill="#1930AB"/><path d="M626.548 336.221 651.6 336.221C653.822 336.237 655.644 338.065 655.652 340.288L655.652 349.793C653.604 349.999 651.718 350.294 650.141 350.588 646.582 351.283 644.207 354.757 644.851 358.325 644.975 359.027 645.214 359.704 645.558 360.329L626.548 360.329C624.323 360.321 622.496 358.487 622.496 356.262L622.496 340.244C622.52 338.035 624.339 336.229 626.548 336.221Z" fill="#1930AB"/><path d="M589.001 336.221 614.052 336.221C616.286 336.196 618.146 338.01 618.178 340.244L618.178 356.232C618.162 358.457 616.336 360.284 614.111 360.299L589.06 360.299C586.834 360.291 585.008 358.458 585.008 356.232L585.008 340.244C585.031 338.057 586.814 336.26 589.001 336.221Z" fill="#1930AB"/><path d="M651.408 357.102C658.246 361.655 657.303 373.488 666.527 374.461 669.172 374.714 671.806 373.854 673.792 372.088 674.925 371.057 675.631 369.636 675.767 368.11 676.356 361.994 670.757 358.001 665.452 356.792 660.819 355.984 656.074 356.089 651.482 357.102L651.408 357.102ZM679.407 369.2C679.059 371.531 677.829 373.642 675.973 375.094L683.017 382.462C686.262 379.139 688.615 375.047 689.854 370.57 686.33 370.5 682.825 370.031 679.407 369.171L679.407 369.2ZM691.623 372.044C690.304 376.375 688.05 380.365 685.021 383.73L717.691 398.392C718.372 398.746 719.095 399.013 719.842 399.188 720.065 399.232 720.291 399.254 720.518 399.254 722.426 399.254 723.996 397.684 723.996 395.777 723.996 395.476 723.957 395.176 723.88 394.885 723.554 393.986 722.923 393.229 722.097 392.748L691.623 372.118 691.623 372.044Z" fill="#1930AB"/></g></g></svg>