<svg width="281" height="278" xmlns="http://www.w3.org/2000/svg" xmlns:xlink="http://www.w3.org/1999/xlink" xml:space="preserve" overflow="hidden"><defs><clipPath id="clip0"><rect x="499" y="221" width="281" height="278"/></clipPath></defs><g clip-path="url(#clip0)" transform="translate(-499 -221)"><path d="M770.999 362.781C805.271 445.883 735.479 498.314 651.326 498.314 567.174 498.314 499 437.635 499 362.781 499 287.927 566.848 221 650.978 221 735.108 221 765.594 256.014 770.999 362.781" fill="#EBF2FC"/><path d="M642.808 299.246C659.584 299.246 674.787 306.051 685.776 317.05 696.776 328.049 703.581 343.243 703.581 360.018 703.581 376.794 696.776 391.997 685.776 402.986 674.777 413.986 659.584 420.791 642.808 420.791 626.033 420.791 610.83 413.986 599.84 402.986 588.841 391.997 582.036 376.794 582.036 360.018 582.036 343.243 588.841 328.04 599.84 317.05 610.83 306.051 626.033 299.246 642.808 299.246ZM620.345 355.251C619.801 354.756 619.366 354.163 619.059 353.52 618.753 352.867 618.565 352.145 618.535 351.433 618.505 350.72 618.604 349.998 618.851 349.316 619.079 348.653 619.455 348.02 619.959 347.466 620.454 346.912 621.047 346.487 621.69 346.18 622.353 345.874 623.065 345.686 623.777 345.656 624.49 345.616 625.212 345.725 625.894 345.973 626.557 346.21 627.19 346.576 627.734 347.08L636.191 354.756 656.36 333.519C656.874 332.985 657.477 332.57 658.13 332.283 658.793 331.986 659.515 331.828 660.237 331.808 660.949 331.788 661.681 331.917 662.354 332.174L662.393 332.194C663.026 332.441 663.64 332.827 664.164 333.322 664.698 333.836 665.113 334.439 665.41 335.092 665.707 335.755 665.865 336.467 665.885 337.189 665.905 337.901 665.776 338.633 665.519 339.306L665.489 339.365C665.232 339.998 664.856 340.602 664.372 341.116L639.94 366.398C638.931 367.447 638.515 367.882 636.686 367.971L636.656 367.971C635.954 367.991 635.251 367.882 634.589 367.645 633.946 367.407 633.323 367.041 632.788 366.547L620.345 355.251ZM620.681 385.508C619.366 385.508 618.169 384.974 617.298 384.104 616.438 383.233 615.894 382.036 615.894 380.721 615.894 379.405 616.428 378.199 617.298 377.338 618.159 376.478 619.366 375.934 620.681 375.934L664.935 375.934C666.251 375.934 667.448 376.468 668.318 377.338 669.189 378.209 669.723 379.405 669.723 380.721 669.723 382.036 669.189 383.243 668.318 384.104 667.448 384.974 666.251 385.508 664.935 385.508L620.681 385.508ZM679.357 323.47C670 314.112 657.082 308.336 642.808 308.336 628.535 308.336 615.607 314.122 606.26 323.47 596.902 332.817 591.126 345.745 591.126 360.018 591.126 374.292 596.912 387.22 606.26 396.567 615.607 405.924 628.535 411.701 642.808 411.701 657.082 411.701 670.01 405.914 679.357 396.567 688.704 387.22 694.491 374.292 694.491 360.018 694.501 345.745 688.714 332.817 679.357 323.47Z" fill="#1930AB"/></g></svg>