<svg width="281" height="278" xmlns="http://www.w3.org/2000/svg" xmlns:xlink="http://www.w3.org/1999/xlink" xml:space="preserve" overflow="hidden"><defs><clipPath id="clip0"><rect x="499" y="221" width="281" height="278"/></clipPath><clipPath id="clip1"><rect x="575" y="287" width="129" height="146"/></clipPath></defs><g clip-path="url(#clip0)" transform="translate(-499 -221)"><path d="M770.999 362.781C805.271 445.883 735.479 498.314 651.326 498.314 567.174 498.314 499 437.635 499 362.781 499 287.927 566.848 221 650.978 221 735.108 221 765.594 256.014 770.999 362.781" fill="#EBF2FC"/><g clip-path="url(#clip1)"><path d="M617.077 287.269 669.071 287.269C677.65 287.275 684.706 294.336 684.706 302.915L684.706 334.22 679.298 334.22 679.298 302.762 606.827 302.762 606.827 308.064 601.431 308.064 601.431 302.891C601.431 302.887 601.431 302.884 601.431 302.88 601.431 294.316 608.478 287.269 617.042 287.269 617.054 287.269 617.066 287.269 617.077 287.269ZM599.546 334.491 610.291 341.984C610.485 342.102 610.654 342.258 610.786 342.443 610.973 342.712 611.073 343.031 611.073 343.358 611.073 343.888 610.811 344.384 610.373 344.682L599.652 352.069C599.36 352.3 598.999 352.425 598.627 352.423 597.772 352.424 597.056 351.745 597.013 350.891L597.013 335.798C597.023 335.469 597.129 335.149 597.319 334.879 597.825 334.164 598.828 333.989 599.546 334.491ZM581.166 317.513 626.986 317.513C628.531 317.519 630.013 318.133 631.11 319.221L631.216 319.339C632.252 320.419 632.831 321.86 632.83 323.357L632.83 356.593C632.83 359.825 630.171 362.484 626.939 362.484L581.166 362.484C577.934 362.484 575.275 359.825 575.275 356.593L575.275 323.357C575.275 320.125 577.934 317.466 581.166 317.466L581.166 317.513ZM629.731 327.421 578.409 327.421 578.409 356.593C578.416 358.089 579.647 359.315 581.142 359.315 581.15 359.315 581.158 359.315 581.166 359.315L626.986 359.315C626.99 359.315 626.994 359.315 626.998 359.315 628.478 359.315 629.696 358.097 629.696 356.617 629.696 356.609 629.696 356.601 629.696 356.593L629.696 327.421 629.731 327.421ZM673.324 389.866 662.025 400.693C661.691 401.079 661.204 401.298 660.694 401.294 659.716 401.281 658.92 400.47 658.927 399.492L658.927 389.854 652.942 389.854C650.424 389.848 648.349 387.789 648.323 385.271L648.323 350.113C648.348 347.609 650.402 345.556 652.906 345.53L699.021 345.53C699.044 345.53 699.068 345.53 699.092 345.53 701.61 345.53 703.686 347.595 703.698 350.113L703.698 385.271C703.685 387.78 701.624 389.841 699.115 389.854L673.324 389.866ZM661.401 375.727C660.108 375.727 659.045 374.664 659.045 373.371 659.045 372.078 660.108 371.015 661.401 371.015L686.143 371.015C687.436 371.015 688.499 372.078 688.499 373.371 688.499 374.664 687.436 375.727 686.143 375.727L661.401 375.727ZM661.401 363.203C660.108 363.203 659.045 362.139 659.045 360.847 659.045 359.554 660.108 358.49 661.401 358.49L691.716 358.49C693.009 358.49 694.072 359.554 694.072 360.847 694.072 362.139 693.009 363.203 691.716 363.203L661.401 363.203ZM684.694 399.727 684.694 416.399C684.694 424.977 677.638 432.039 669.059 432.045L617.077 432.045C608.494 432.045 601.431 424.982 601.431 416.399L601.431 371.898 606.827 371.898 606.827 410.319 679.298 410.319 679.298 399.715 684.694 399.727ZM643.045 415.22C646.574 415.22 649.478 418.124 649.478 421.653 649.478 425.182 646.574 428.086 643.045 428.086 639.516 428.086 636.612 425.182 636.612 421.653L636.612 421.63C636.612 418.114 639.505 415.22 643.021 415.22 643.029 415.22 643.037 415.22 643.045 415.22Z" fill="#1930AB" fill-rule="evenodd"/></g></g></svg>