<svg width="281" height="278" xmlns="http://www.w3.org/2000/svg" xmlns:xlink="http://www.w3.org/1999/xlink" xml:space="preserve" overflow="hidden"><defs><clipPath id="clip0"><rect x="499" y="221" width="281" height="278"/></clipPath></defs><g clip-path="url(#clip0)" transform="translate(-499 -221)"><path d="M770.999 362.781C805.271 445.883 735.479 498.314 651.326 498.314 567.174 498.314 499 437.635 499 362.781 499 287.927 566.848 221 650.978 221 735.108 221 765.594 256.014 770.999 362.781" fill="#EBF2FC"/><path d="M614.863 291.171 664.054 291.171C672.225 291.171 678.849 297.806 678.849 305.971L678.849 413.345C678.849 421.516 672.225 428.143 664.054 428.143L614.863 428.143C606.692 428.143 600.065 421.516 600.065 413.345L600.065 305.952C600.065 297.763 606.679 291.171 614.863 291.171ZM614.769 364.129C613.74 364.129 612.904 363.293 612.904 362.264 612.904 361.235 613.74 360.402 614.769 360.402L664.146 360.402C665.175 360.402 666.011 361.235 666.011 362.264 666.011 363.293 665.175 364.129 664.146 364.129L614.769 364.129ZM614.769 374.328C613.74 374.328 612.904 373.492 612.904 372.463 612.904 371.434 613.74 370.598 614.769 370.598L655.38 370.598C656.409 370.598 657.245 371.434 657.245 372.463 657.245 373.492 656.409 374.328 655.38 374.328L614.769 374.328ZM614.769 394.721C613.74 394.721 612.904 393.888 612.904 392.859 612.904 391.83 613.74 390.994 614.769 390.994L627.741 390.994C628.77 390.994 629.607 391.83 629.607 392.859 629.607 393.888 628.77 394.721 627.741 394.721L614.769 394.721ZM614.769 384.525C613.74 384.525 612.904 383.689 612.904 382.66 612.904 381.631 613.74 380.797 614.769 380.797L635.403 380.797C636.432 380.797 637.268 381.631 637.268 382.66 637.268 383.689 636.432 384.525 635.403 384.525L614.769 384.525ZM647.654 394.6C647.996 394.899 648.192 395.331 648.192 395.785 648.192 396.649 647.481 397.359 646.617 397.359 646.236 397.359 645.867 397.221 645.58 396.969L640.615 392.62C640.274 392.321 640.078 391.889 640.078 391.436 640.078 391.054 640.216 390.686 640.467 390.399L640.626 390.241 645.58 385.899C645.867 385.649 646.235 385.511 646.616 385.511 647.07 385.511 647.503 385.707 647.802 386.049 648.37 386.7 648.303 387.701 647.654 388.271L644.04 391.436 647.654 394.6ZM659.569 396.969C659.282 397.221 658.913 397.359 658.531 397.359 658.078 397.359 657.646 397.163 657.347 396.822 657.096 396.535 656.957 396.166 656.957 395.785 656.957 395.331 657.153 394.899 657.494 394.6L661.107 391.436 657.494 388.271C657.153 387.972 656.957 387.54 656.957 387.087 656.957 386.705 657.096 386.336 657.347 386.049 657.918 385.393 658.915 385.329 659.569 385.899L664.521 390.241 664.682 390.399C664.932 390.685 665.07 391.054 665.07 391.434 665.07 391.889 664.874 392.321 664.531 392.62L659.569 396.969ZM652.288 385.002C652.483 384.155 653.333 383.627 654.182 383.823 655.029 384.021 655.56 384.87 655.361 385.717L652.524 397.87C652.325 398.711 651.472 399.243 650.629 399.049 649.78 398.851 649.252 398.001 649.45 397.154L652.288 385.002ZM661.002 333.899C660.785 333.749 660.557 333.696 660.308 333.738 660.059 333.784 659.858 333.913 659.708 334.127L658.896 335.279C658.601 335.153 658.296 335.054 657.98 334.971 657.666 334.888 657.347 334.826 657.028 334.778L656.763 333.269C656.72 333.015 656.597 332.817 656.388 332.669 656.179 332.522 655.951 332.474 655.696 332.519L653.799 332.849C653.558 332.892 653.362 333.015 653.21 333.224 653.06 333.433 653.009 333.663 653.051 333.918L653.293 335.298C652.99 335.429 652.698 335.577 652.422 335.743 652.143 335.909 651.886 336.089 651.642 336.281L650.366 335.397C650.163 335.247 649.938 335.191 649.686 335.234 649.437 335.277 649.241 335.408 649.088 335.62L647.992 337.182C647.842 337.396 647.788 337.627 647.831 337.876 647.877 338.122 648.006 338.326 648.22 338.474L649.372 339.288C649.246 339.583 649.147 339.886 649.064 340.202 648.981 340.518 648.919 340.837 648.871 341.156L647.362 341.419C647.108 341.461 646.907 341.587 646.762 341.796 646.615 342.003 646.567 342.233 646.609 342.488L646.942 344.382C646.985 344.626 647.108 344.822 647.317 344.975 647.526 345.122 647.754 345.176 648.008 345.13L649.391 344.889C649.522 345.194 649.67 345.484 649.836 345.76 650.002 346.038 650.184 346.304 650.377 346.558L649.49 347.818C649.34 348.021 649.284 348.244 649.327 348.496 649.37 348.745 649.501 348.943 649.713 349.096L651.277 350.208C651.489 350.347 651.72 350.393 651.966 350.35 652.215 350.307 652.419 350.184 652.569 349.983L653.381 348.812C653.673 348.935 653.979 349.037 654.295 349.117 654.611 349.2 654.927 349.265 655.246 349.31L655.511 350.822C655.554 351.076 655.68 351.275 655.887 351.422 656.096 351.567 656.326 351.618 656.581 351.572L658.475 351.242C658.719 351.2 658.915 351.076 659.065 350.867 659.215 350.658 659.268 350.428 659.223 350.173L658.982 348.79C659.282 348.664 659.573 348.516 659.853 348.348 660.131 348.179 660.397 348 660.651 347.804L661.911 348.694C662.114 348.844 662.339 348.9 662.594 348.855 662.854 348.809 663.047 348.681 663.186 348.472L664.301 346.907C664.44 346.692 664.486 346.464 664.443 346.215 664.4 345.966 664.277 345.765 664.076 345.612L662.902 344.803C663.028 344.508 663.127 344.203 663.21 343.887 663.293 343.573 663.358 343.254 663.403 342.935L664.915 342.673C665.169 342.627 665.368 342.504 665.515 342.295 665.66 342.088 665.711 341.858 665.665 341.603L665.335 339.709C665.292 339.465 665.169 339.269 664.96 339.117 664.751 338.967 664.521 338.916 664.266 338.959L662.883 339.2C662.754 338.904 662.606 338.617 662.441 338.34 662.272 338.055 662.093 337.793 661.9 337.552L662.787 336.273C662.937 336.07 662.993 335.845 662.948 335.593 662.905 335.346 662.774 335.148 662.562 334.995L661.002 333.899ZM655.584 338.873C656.021 338.798 656.447 338.808 656.865 338.905 657.28 339.004 657.658 339.17 657.993 339.406 658.328 339.642 658.612 339.939 658.848 340.298 659.078 340.66 659.234 341.057 659.309 341.494 659.386 341.928 659.376 342.354 659.279 342.772 659.18 343.187 659.011 343.565 658.778 343.9 658.536 344.238 658.232 344.528 657.883 344.755 657.524 344.988 657.127 345.141 656.691 345.216 656.256 345.293 655.83 345.283 655.41 345.186 654.994 345.087 654.619 344.921 654.281 344.685 653.947 344.449 653.662 344.152 653.429 343.793 653.196 343.431 653.041 343.034 652.966 342.598 652.891 342.164 652.901 341.737 652.998 341.319 653.097 340.901 653.263 340.526 653.499 340.189 653.735 339.856 654.032 339.572 654.391 339.336 654.753 339.103 655.15 338.951 655.584 338.873ZM641.046 315.749C640.952 315.656 640.861 315.589 640.773 315.554 640.69 315.519 640.588 315.5 640.47 315.5 640.352 315.5 640.248 315.519 640.162 315.554 640.074 315.591 639.982 315.656 639.897 315.741L638.074 317.558C637.776 317.853 637.306 317.893 636.962 317.652 636.756 317.521 636.534 317.392 636.3 317.263 636.049 317.129 635.802 317.006 635.561 316.896 635.309 316.778 635.049 316.671 634.794 316.572 634.561 316.481 634.293 316.387 634.007 316.291 633.65 316.174 633.407 315.838 633.406 315.463L633.406 312.681C633.406 312.558 633.388 312.451 633.35 312.357 633.309 312.262 633.25 312.177 633.176 312.105 633.104 312.03 633.019 311.97 632.924 311.928 632.83 311.893 632.723 311.874 632.6 311.874L629.105 311.874C628.993 311.874 628.894 311.891 628.811 311.925 628.717 311.966 628.623 312.027 628.535 312.116 628.454 312.193 628.395 312.276 628.36 312.365 628.323 312.453 628.304 312.561 628.304 312.681L628.304 315.23C628.304 315.658 627.993 316.015 627.586 316.087 627.307 316.154 627.053 316.221 626.825 316.291 626.568 316.371 626.308 316.462 626.053 316.561L626.01 316.577C625.777 316.666 625.541 316.768 625.3 316.88L625.257 316.896C625.024 317.006 624.802 317.119 624.587 317.234 624.244 317.422 623.829 317.352 623.564 317.092L621.532 315.09C621.455 315.007 621.372 314.945 621.289 314.911 621.208 314.876 621.112 314.857 620.999 314.857 620.887 314.857 620.785 314.878 620.699 314.913 620.603 314.954 620.509 315.021 620.418 315.109L617.979 317.556C617.888 317.647 617.821 317.738 617.784 317.829 617.749 317.915 617.73 318.016 617.73 318.134 617.73 318.252 617.749 318.357 617.784 318.443 617.824 318.531 617.885 318.619 617.971 318.705L619.788 320.527C620.091 320.833 620.123 321.304 619.882 321.642 619.75 321.846 619.622 322.068 619.496 322.304 619.359 322.556 619.236 322.802 619.126 323.044 618.894 323.549 618.692 324.068 618.523 324.598 618.406 324.954 618.07 325.196 617.695 325.195L614.911 325.198C614.788 325.198 614.68 325.217 614.589 325.254 614.498 325.289 614.412 325.348 614.335 325.426 614.254 325.506 614.198 325.589 614.161 325.68 614.123 325.774 614.104 325.881 614.104 326.005L614.104 329.499C614.104 329.612 614.12 329.711 614.155 329.794 614.195 329.888 614.26 329.979 614.345 330.07 614.426 330.148 614.509 330.207 614.595 330.244 614.683 330.279 614.79 330.298 614.911 330.298L617.459 330.298C617.888 330.298 618.247 330.609 618.319 331.018 618.384 331.295 618.453 331.549 618.523 331.78 618.604 332.037 618.692 332.294 618.791 332.549L618.813 332.61C618.898 332.827 619 333.066 619.113 333.32 619.236 333.591 619.357 333.84 619.472 334.063 619.651 334.408 619.576 334.818 619.316 335.081L617.32 337.069C617.237 337.15 617.175 337.23 617.14 337.313 617.106 337.396 617.089 337.493 617.089 337.603 617.089 337.718 617.108 337.817 617.146 337.903 617.186 337.999 617.253 338.096 617.341 338.184L619.769 340.641C619.855 340.722 619.949 340.783 620.04 340.818 620.134 340.853 620.241 340.875 620.364 340.875 620.487 340.875 620.6 340.853 620.694 340.818L620.721 340.808C620.801 340.773 620.879 340.719 620.951 340.649L622.752 338.822C623.047 338.522 623.502 338.482 623.84 338.699 624.068 338.843 624.301 338.983 624.534 339.109 624.786 339.245 625.032 339.366 625.273 339.478 625.78 339.707 626.299 339.908 626.828 340.081 627.195 340.202 627.428 340.542 627.428 340.909L627.428 343.691C627.428 343.814 627.447 343.924 627.484 344.015L627.498 344.047C627.532 344.122 627.586 344.195 627.658 344.267 627.741 344.347 627.827 344.409 627.913 344.444 628.004 344.481 628.111 344.5 628.234 344.5L631.729 344.5C631.841 344.5 631.941 344.481 632.024 344.449 632.117 344.409 632.211 344.345 632.3 344.259 632.38 344.179 632.439 344.096 632.474 344.007 632.511 343.919 632.53 343.814 632.53 343.691L632.53 341.143C632.53 340.714 632.841 340.357 633.248 340.285 633.53 340.218 633.787 340.148 634.02 340.079 634.283 339.996 634.54 339.907 634.784 339.813 635.028 339.717 635.285 339.61 635.55 339.489 635.823 339.366 636.073 339.245 636.292 339.133 636.638 338.951 637.051 339.026 637.311 339.288L639.302 341.282C639.377 341.362 639.457 341.421 639.546 341.459L639.589 341.48C639.661 341.504 639.747 341.515 639.846 341.515 639.969 341.515 640.074 341.496 640.151 341.461 640.24 341.421 640.32 341.362 640.395 341.282L642.874 338.835C642.954 338.747 643.013 338.656 643.048 338.565 643.086 338.471 643.104 338.361 643.104 338.24 643.104 338.114 643.086 338.005 643.048 337.911L643.037 337.881C643.002 337.804 642.949 337.723 642.879 337.651L641.052 335.853C640.76 335.565 640.709 335.107 640.931 334.762 641.076 334.537 641.212 334.304 641.338 334.068 641.475 333.816 641.598 333.57 641.708 333.331 641.823 333.077 641.931 332.819 642.032 332.562 642.124 332.329 642.217 332.064 642.314 331.774 642.431 331.419 642.765 331.177 643.139 331.177L645.923 331.177C646.047 331.177 646.154 331.155 646.245 331.12L646.28 331.107C646.358 331.069 646.43 331.016 646.5 330.946 646.58 330.866 646.639 330.78 646.676 330.692 646.711 330.6 646.73 330.491 646.73 330.367L646.73 326.876C646.73 326.763 646.714 326.664 646.679 326.578 646.639 326.484 646.575 326.393 646.489 326.302 646.408 326.224 646.325 326.166 646.24 326.131 646.151 326.093 646.044 326.074 645.923 326.074L643.375 326.074C642.938 326.074 642.576 325.753 642.512 325.335 642.453 325.099 642.383 324.852 642.306 324.603 642.231 324.357 642.142 324.099 642.04 323.834L642.024 323.789C641.928 323.537 641.829 323.296 641.724 323.068 641.609 322.819 641.491 322.58 641.368 322.358 641.183 322.015 641.253 321.599 641.513 321.334L643.514 319.303C643.597 319.225 643.659 319.142 643.694 319.059 643.729 318.978 643.745 318.882 643.745 318.769 643.745 318.657 643.726 318.555 643.691 318.469 643.648 318.373 643.584 318.276 643.496 318.188L641.046 315.749ZM641.448 313.954C641.756 314.083 642.035 314.273 642.279 314.517L644.734 316.969C644.975 317.215 645.162 317.489 645.291 317.789 645.422 318.097 645.489 318.424 645.489 318.769 645.489 319.12 645.42 319.45 645.286 319.756 645.154 320.056 644.961 320.321 644.718 320.557L643.19 322.106 643.303 322.347C643.426 322.615 643.541 322.891 643.648 323.17L643.667 323.212C643.772 323.491 643.873 323.786 643.967 324.091L644.04 324.33 645.923 324.33C646.272 324.33 646.599 324.394 646.907 324.523 647.213 324.653 647.49 324.842 647.721 325.08L647.74 325.099C647.979 325.346 648.161 325.616 648.284 325.914 648.41 326.222 648.474 326.543 648.474 326.876L648.474 330.367C648.474 330.716 648.41 331.04 648.287 331.345 648.157 331.655 647.969 331.936 647.732 332.173 647.502 332.401 647.25 332.575 646.974 332.701L646.899 332.734C646.596 332.857 646.269 332.918 645.923 332.918L643.755 332.918 643.651 333.189C643.538 333.478 643.418 333.768 643.289 334.052 643.159 334.337 643.02 334.618 642.871 334.893L642.761 335.094 644.136 336.448C644.353 336.678 644.522 336.935 644.64 337.214L644.669 337.278C644.787 337.581 644.849 337.903 644.849 338.24 644.849 338.575 644.787 338.894 644.669 339.197 644.547 339.502 644.369 339.782 644.144 340.022L641.652 342.485C641.413 342.737 641.14 342.93 640.84 343.059 640.526 343.19 640.197 343.26 639.846 343.26 639.53 343.26 639.229 343.203 638.945 343.091L638.857 343.059C638.549 342.924 638.272 342.728 638.042 342.482L636.52 340.958 636.266 341.076C636 341.196 635.714 341.317 635.411 341.432 635.116 341.547 634.821 341.649 634.529 341.74L634.272 341.812 634.272 343.691C634.278 344.368 634.008 345.019 633.524 345.492L633.506 345.51C633.259 345.749 632.986 345.931 632.691 346.052 632.38 346.178 632.061 346.242 631.729 346.242L628.234 346.242C627.889 346.242 627.562 346.18 627.259 346.057 626.947 345.929 626.663 345.74 626.426 345.5 626.207 345.281 626.03 345.024 625.903 344.741L625.871 344.669C625.748 344.364 625.683 344.039 625.683 343.691L625.683 341.523 625.415 341.421C625.123 341.309 624.837 341.185 624.553 341.057 624.255 340.92 623.971 340.781 623.711 340.641L623.51 340.529 622.154 341.904C621.926 342.121 621.669 342.292 621.39 342.41L621.326 342.437C621.02 342.557 620.693 342.618 620.364 342.616 620.029 342.616 619.71 342.557 619.407 342.437 619.1 342.317 618.819 342.138 618.579 341.912L616.101 339.403C615.859 339.157 615.672 338.884 615.543 338.583 615.411 338.273 615.344 337.94 615.345 337.603 615.345 337.252 615.415 336.922 615.549 336.616 615.683 336.312 615.878 336.039 616.122 335.813L617.647 334.29 617.526 334.036C617.422 333.797 617.309 333.532 617.197 333.237L617.173 333.181C617.06 332.894 616.955 332.594 616.862 332.289L616.789 332.042 614.911 332.042C614.562 332.042 614.236 331.978 613.927 331.849 613.625 331.723 613.354 331.536 613.11 331.292L613.094 331.276C612.853 331.027 612.673 330.756 612.55 330.458 612.424 330.15 612.362 329.831 612.362 329.499L612.362 326.005C612.362 325.656 612.424 325.329 612.547 325.027 612.675 324.717 612.864 324.436 613.102 324.201 613.354 323.949 613.63 323.764 613.935 323.639 614.238 323.515 614.565 323.454 614.911 323.454L617.079 323.454 617.183 323.183C617.295 322.891 617.416 322.603 617.548 322.32 617.682 322.023 617.821 321.741 617.963 321.479L618.078 321.272 616.752 319.943C616.509 319.708 616.316 319.426 616.184 319.115 616.052 318.805 615.985 318.471 615.985 318.134 615.985 317.794 616.052 317.467 616.184 317.156 616.316 316.847 616.507 316.565 616.746 316.328L619.198 313.871C619.445 313.63 619.718 313.442 620.018 313.314 620.329 313.182 620.656 313.115 620.999 313.115 621.35 313.115 621.68 313.182 621.988 313.319 622.285 313.45 622.553 313.64 622.787 313.887L624.335 315.412 624.571 315.299C624.823 315.184 625.097 315.069 625.383 314.956L625.421 314.94C625.707 314.828 626.008 314.726 626.316 314.632L626.562 314.56 626.562 312.681C626.556 312.004 626.826 311.353 627.31 310.88L627.329 310.862C627.575 310.623 627.849 310.444 628.143 310.32 628.454 310.194 628.773 310.13 629.105 310.13L632.6 310.13C632.945 310.13 633.272 310.192 633.575 310.315 633.889 310.446 634.165 310.628 634.409 310.872 634.652 311.116 634.837 311.395 634.963 311.703 635.087 312.006 635.151 312.333 635.151 312.681L635.151 314.849 635.419 314.951C635.708 315.063 636 315.187 636.282 315.315 636.579 315.452 636.863 315.591 637.123 315.731L637.329 315.846 638.661 314.522C638.905 314.273 639.184 314.083 639.487 313.954 639.8 313.823 640.13 313.756 640.47 313.756 640.81 313.756 641.137 313.82 641.448 313.954ZM633.43 321.074C634.376 321.484 635.199 322.033 635.882 322.719L635.933 322.773C636.598 323.451 637.134 324.255 637.53 325.174L637.557 325.249C637.94 326.184 638.133 327.189 638.133 328.186 638.133 329.207 637.932 330.236 637.53 331.193L637.53 331.201C637.126 332.139 636.571 332.959 635.882 333.65 635.191 334.341 634.371 334.893 633.43 335.298L633.355 335.328C631.449 336.105 629.31 336.095 627.412 335.298L627.404 335.298C626.463 334.893 625.643 334.341 624.954 333.653 624.26 332.959 623.711 332.139 623.304 331.201L623.277 331.126C622.891 330.188 622.701 329.183 622.701 328.186 622.701 327.165 622.902 326.136 623.304 325.179L623.304 325.174C623.711 324.231 624.263 323.411 624.952 322.722 625.635 322.033 626.458 321.484 627.404 321.074L627.479 321.047C628.414 320.661 629.419 320.468 630.418 320.468 631.439 320.468 632.466 320.669 633.422 321.074L633.43 321.074ZM634.65 323.952C634.119 323.421 633.481 322.993 632.742 322.674 632.016 322.366 631.22 322.213 630.418 322.213 629.633 322.213 628.856 322.358 628.143 322.65L628.092 322.674C627.353 322.993 626.715 323.421 626.184 323.952 625.651 324.48 625.225 325.118 624.904 325.86 624.595 326.589 624.443 327.385 624.443 328.186 624.443 328.969 624.59 329.746 624.879 330.461L624.904 330.512C625.225 331.254 625.651 331.892 626.179 332.42 626.71 332.951 627.35 333.379 628.092 333.698 628.819 334.006 629.615 334.159 630.418 334.159 631.201 334.159 631.978 334.014 632.691 333.722L632.742 333.698C633.484 333.379 634.125 332.951 634.65 332.423 635.183 331.892 635.609 331.254 635.931 330.512 636.236 329.783 636.392 328.987 636.392 328.186 636.392 327.404 636.244 326.626 635.952 325.911L635.931 325.86C635.617 325.139 635.207 324.515 634.698 323.995L634.65 323.952ZM605.162 407.586 673.731 407.586 673.731 305.829 605.162 305.829 605.162 407.586ZM639.438 412.217C642.785 412.217 645.521 414.913 645.521 418.3 645.521 421.652 642.828 424.386 639.438 424.386 636.091 424.386 633.353 421.693 633.353 418.3 633.353 414.956 636.049 412.217 639.438 412.217Z" fill="#1930AB" fill-rule="evenodd"/></g></svg>