<svg width="374" height="368" xmlns="http://www.w3.org/2000/svg" xmlns:xlink="http://www.w3.org/1999/xlink" xml:space="preserve" overflow="hidden"><defs><clipPath id="clip0"><rect x="453" y="176" width="374" height="368"/></clipPath></defs><g clip-path="url(#clip0)" transform="translate(-453 -176)"><path d="M814.359 364C859.924 474.196 767.169 543.724 655.394 543.724 543.618 543.724 453 463.264 453 364 453 264.737 543.144 176 654.912 176 766.68 176 807.204 222.43 814.359 364" fill="#EBF2FC"/><path d="M703.366 445.695 581.065 445.695C577.115 444.77 574.376 442.249 572.036 439.067 570.456 436.877 568.635 434.868 567.018 432.701 566.368 431.725 565.255 431.154 564.083 431.197 559.485 431.16 555.721 427.368 555.717 422.77 555.649 418.835 555.649 414.885 555.717 410.95 555.664 407.943 557.299 405.148 559.945 403.719 561.373 403.052 562.853 402.501 564.369 402.071L564.369 400.13C564.369 370.629 564.459 341.12 564.301 311.619 564.301 305.246 568.357 301.311 574.549 301.461 583.329 301.68 592.117 301.461 600.883 301.552 601.989 301.662 603.039 301.007 603.426 299.964 612.357 283.223 626.329 273.63 645.259 272.878 666.266 272.058 681.84 281.681 691.787 300.243 692.101 301.079 692.943 301.606 693.833 301.522 699.521 301.469 705.21 301.522 710.89 301.522 713.518 301.394 716.071 302.443 717.85 304.381 719.58 306.299 720.002 308.602 720.002 311.107 719.972 340.782 719.972 370.456 720.002 400.13L720.002 402.267C725.374 403.463 726.615 404.524 728.677 409.558L728.677 424.418C727.074 428.819 724.162 431.415 719.264 431.309 718.688 431.436 718.181 431.775 717.842 432.257 715.976 434.515 714.08 436.772 712.365 439.112 710.055 442.264 707.309 444.777 703.366 445.695ZM673.948 390.876 673.948 388.905C673.948 380.801 674.106 372.691 673.887 364.587 673.775 360.434 675.204 357.409 678.116 354.46 689.402 343.001 693.547 329.097 690.282 313.409 685.407 289.942 663.685 275.075 640.06 279.236 622.702 282.291 611.371 292.847 605.818 309.565 605.585 310.178 605.585 310.855 605.818 311.468 607.391 314.478 606.759 317.089 604.908 319.669 601.372 324.613 597.881 329.586 594.375 334.544 594.044 335.011 593.758 335.507 593.306 336.207 596.361 336.207 599.062 336.162 601.763 336.207 601.813 336.204 601.864 336.203 601.914 336.203 603.441 336.203 604.698 337.46 604.698 338.987 604.698 339.001 604.698 339.015 604.697 339.028 604.696 340.556 603.491 341.834 601.966 341.925 601.432 341.993 600.898 342.015 600.409 342.053L600.07 347.004C603.163 348.614 603.795 350.013 603.08 353.271 603.882 354.25 604.619 355.28 605.284 356.356 606.037 357.763 605.676 359.057 604.464 360.118 601.989 362.292 601.289 364.474 602.207 366.957 603.125 369.44 605.217 370.719 608.512 370.719 618.534 370.719 628.556 370.667 638.608 370.719 643.002 370.757 646.312 369.117 648.539 365.279 649.525 363.579 651.052 363.12 652.52 363.925 653.987 364.73 654.461 366.378 653.52 368.139 651.869 371.458 649.001 374.017 645.515 375.279 643.44 375.96 641.279 376.34 639.097 376.407 635.335 376.588 631.573 376.46 627.856 376.46L627.856 390.876 673.948 390.876ZM694.766 307.435C695.278 309.324 695.391 311.348 696.392 312.702 696.911 313.417 699.01 312.988 700.394 313.056L701.749 313.056C706.338 313.056 708.52 315.215 708.52 319.76L708.52 390.026C708.52 394.48 706.323 396.684 701.907 396.684L582.63 396.684C578.115 396.684 575.941 394.51 575.941 389.913L575.941 319.85C575.941 315.2 578.078 313.078 582.78 313.078L599.656 313.078 600.138 307.375C599.694 307.375 599.152 307.3 598.633 307.3L574.286 307.3C571.013 307.3 570.178 308.135 570.178 311.378L570.178 402.455 614.983 402.455C619.941 402.455 621.972 404.457 622.018 409.362 622.018 409.904 622.078 410.438 622.108 410.957L662.368 410.957C662.413 410.515 662.43 410.07 662.421 409.625 661.932 404.908 665.032 402.327 669.704 402.387 683.834 402.568 697.964 402.455 712.101 402.455L714.171 402.455C714.208 401.921 714.261 401.537 714.261 401.154L714.261 310.626C714.261 308.21 713.313 307.308 710.83 307.293L696.309 307.293C695.872 307.293 695.436 307.36 694.766 307.413L694.766 307.435ZM616.269 408.339C616.021 408.283 615.77 408.243 615.517 408.218L564.693 408.218C562.594 408.218 561.518 409.37 561.495 411.521L561.495 421.303C561.495 424.553 562.293 425.471 565.663 425.471L718.813 425.471C722.153 425.471 722.951 424.666 722.951 421.273L722.951 412.319C722.951 409.076 722.078 408.196 718.873 408.196L668.267 408.196C668.229 408.768 668.199 409.099 668.192 409.43 668.109 415.005 666.198 416.879 660.608 416.879L622.95 416.879C618.564 416.879 616.269 414.621 616.247 410.25L616.269 408.339ZM598.295 318.985 581.802 318.985 581.802 390.876 622.01 390.876 622.01 379.522C622.01 377.265 621.303 376.513 619 376.513 615.118 376.513 611.228 376.55 607.346 376.513 602.291 376.452 597.865 373.002 596.572 368.116 595.602 364.715 596.246 361.051 598.317 358.184 596.18 355.927 595.97 355.227 596.504 352.24 593.743 350.239 593.344 348.99 594.299 345.597 594.45 345.002 594.548 344.395 594.593 343.784 594.706 342.61 594.42 342.023 592.975 341.918 588.212 341.579 585.963 336.726 588.634 332.738 589.823 330.963 591.094 329.247 592.328 327.472 594.254 324.71 596.195 321.964 598.295 318.985ZM573.3 431.309C575.091 433.567 576.671 435.5 578.221 437.479 579.413 439.09 581.326 440.014 583.329 439.947 622.579 439.947 661.827 439.934 701.071 439.909 702.155 439.909 703.577 439.781 704.262 439.119 706.669 436.772 708.829 434.169 711.078 431.663L710.71 431.309 573.3 431.309ZM696.978 318.94 696.978 321.076C696.798 324.327 696.858 327.615 696.369 330.857 694.727 341.915 689.348 352.085 681.133 359.667 680.162 360.528 679.633 361.786 679.696 363.082L679.696 389.243C679.696 389.785 679.749 390.327 679.779 390.853L702.621 390.853 702.621 318.94 696.978 318.94Z" fill="#1930AB"/><path d="M627.976 293.418C629.436 294.028 630.79 294.713 632.227 295.149 633.048 295.273 633.882 295.273 634.703 295.149 634.808 295.149 634.914 295.044 635.019 295.021 637.803 294.464 639.24 292.643 639.894 289.98 640.346 288.159 641.662 287.301 643.513 287.294L649.924 287.294C651.389 287.252 652.701 288.232 653.076 289.649 653.126 289.748 653.169 289.852 653.204 289.957 653.686 293.426 656.372 294.539 659.178 295.457 659.769 295.533 660.369 295.422 660.894 295.141 665.807 293.125 665.303 292.23 670.306 297.128 670.464 297.286 670.6 297.474 670.773 297.617 673.27 299.716 674 302.131 672.067 304.99 670.231 307.706 672.39 309.813 673.316 311.965 673.677 312.793 675.415 313.124 676.589 313.47 678.597 314.064 679.598 315.328 679.598 317.405 679.598 319.594 679.545 321.784 679.47 323.973 679.45 325.255 678.588 326.381 677.356 326.734 677.208 326.814 677.052 326.877 676.89 326.922 673.549 327.427 672.322 329.932 671.442 332.731 671.352 333.15 671.352 333.583 671.442 334.002 671.516 334.265 671.622 334.518 671.758 334.755 673.895 339.758 673.895 339.766 670.058 343.641 669.862 343.836 669.636 344.017 669.456 344.227 667.251 346.861 664.844 347.538 661.631 345.732 658.945 344.227 655.063 346.003 653.911 348.87 652.181 353.173 651.985 353.331 647.381 353.384 645.921 353.384 644.461 353.241 643.002 353.173 641.593 353.182 640.349 352.226 639.992 350.864 639.94 350.765 639.897 350.662 639.864 350.555 639.405 347.177 636.855 345.981 634.063 345.123 633.361 345.016 632.643 345.132 632.009 345.454 627.412 347.342 627.849 348.245 623.124 343.731 623.003 343.618 622.89 343.49 622.77 343.37 619.226 339.706 619.173 339.683 621.265 335.041 621.829 333.784 621.596 332.821 621.265 331.58 620.513 328.924 618.865 327.592 616.352 326.953 614.305 326.433 613.455 324.981 613.478 322.935 613.5 320.888 613.478 318.992 613.523 317.028 613.435 315.507 614.436 314.121 615.908 313.725 616.06 313.653 616.215 313.59 616.375 313.537 619.918 313.169 620.701 310.264 621.709 307.631 621.787 307.04 621.674 306.438 621.385 305.916 619.354 300.942 618.519 301.484 623.387 296.511 624.173 295.702 625.026 294.962 625.937 294.299 626.588 293.941 627.27 293.646 627.976 293.418ZM673.91 320.331C674.301 318.985 673.549 318.398 672.405 318.074 671.758 317.886 671.156 317.548 670.517 317.322 669.091 316.891 668.009 315.716 667.695 314.26 667.212 312.646 666.567 311.086 665.769 309.602 664.982 308.339 664.928 306.748 665.626 305.434 665.95 304.787 666.153 304.065 666.522 303.44 667.131 302.417 666.8 301.732 666.01 300.965 665.22 300.197 664.505 299.671 663.414 300.378 662.85 300.732 662.15 300.86 661.563 301.183 660.166 301.975 658.434 301.907 657.102 301.01 655.672 300.221 654.157 299.595 652.587 299.144 651.137 298.837 649.974 297.743 649.578 296.315 649.382 295.676 649.013 295.081 648.825 294.434 648.657 293.416 647.685 292.715 646.666 292.877 645.432 292.877 644.634 293.155 644.333 294.449 644.206 294.991 643.882 295.48 643.732 296.022 643.345 297.712 641.949 298.997 640.233 299.242 639.177 299.425 638.169 299.819 637.269 300.401 634.771 302.206 632.348 301.905 629.903 300.401 628.789 299.723 628.029 300.024 627.141 300.912 626.253 301.8 626.095 302.552 626.727 303.553 628.315 306.074 628.443 308.564 626.622 311.077 626.261 311.585 626.021 312.169 625.922 312.785 625.479 315.795 623.613 317.382 620.776 318.052 619.542 318.33 619.166 319.067 619.173 320.354 619.181 321.641 619.602 322.19 620.746 322.476 623.53 323.168 625.486 324.665 625.922 327.743 626.018 328.414 626.277 329.052 626.675 329.601 628.541 332.061 628.217 334.507 626.735 336.959 626.073 338.058 626.299 338.833 627.224 339.721 628.15 340.608 628.812 340.812 629.857 340.18 632.378 338.675 634.876 338.464 637.381 340.3 637.936 340.692 638.575 340.95 639.247 341.052 642.069 341.466 643.559 343.204 644.221 345.838 644.325 346.277 644.495 346.698 644.725 347.087 644.882 347.363 645.133 347.574 645.432 347.681 647.2 348.185 648.208 347.681 648.9 345.928 649.126 345.356 649.405 344.792 649.585 344.205 649.991 342.833 651.12 341.791 652.52 341.496 654.183 340.982 655.793 340.31 657.327 339.487 658.544 338.74 660.068 338.683 661.338 339.337 661.992 339.66 662.714 339.864 663.339 340.232 664.415 340.887 665.137 340.548 665.965 339.721 666.792 338.893 667.131 338.163 666.469 337.095 666.123 336.523 665.95 335.853 665.641 335.251 664.917 333.889 664.98 332.236 665.807 330.933 666.657 329.368 667.071 327.562 667.913 325.989 668.489 325.015 669.257 324.167 670.171 323.499 670.875 323.035 671.662 322.708 672.488 322.536 673.602 322.19 674.203 321.603 673.91 320.331Z" fill="#1930AB"/><path d="M571.532 419.708C568.65 419.708 567.251 418.782 567.258 416.856 567.266 414.93 568.703 413.959 571.555 413.967 572.228 413.94 572.903 413.97 573.571 414.057 574.928 414.293 575.928 415.482 575.928 416.859 575.928 418.369 574.726 419.629 573.217 419.7 572.63 419.745 572.096 419.708 571.532 419.708Z" fill="#1930AB"/><path d="M586.016 419.715 584.511 419.715C584.508 419.715 584.506 419.715 584.503 419.715 582.984 419.715 581.734 418.465 581.734 416.946 581.734 416.941 581.734 416.936 581.734 416.931 581.679 415.402 582.877 414.093 584.405 414.012 585.357 413.944 586.313 413.944 587.264 414.012 589.138 414.095 590.274 415.238 590.274 416.924 590.274 418.609 589.093 419.685 587.189 419.753L586.016 419.753 586.016 419.715Z" fill="#1930AB"/><path d="M659.479 320.347C659.479 327.454 653.63 333.303 646.523 333.303 639.415 333.303 633.567 327.454 633.567 320.347 633.567 313.239 639.415 307.39 646.523 307.39 653.63 307.39 659.479 313.239 659.479 320.347L659.479 320.347ZM653.723 320.219C653.686 316.303 650.454 313.101 646.538 313.101 642.597 313.101 639.353 316.345 639.353 320.287 639.353 324.229 642.597 327.472 646.538 327.472 646.563 327.472 646.588 327.472 646.613 327.472 650.522 327.447 653.724 324.225 653.724 320.317 653.724 320.284 653.724 320.251 653.723 320.219Z" fill="#1930AB"/></g></svg>