<svg width="334" height="342" xmlns="http://www.w3.org/2000/svg" xmlns:xlink="http://www.w3.org/1999/xlink" xml:space="preserve" overflow="hidden"><defs><clipPath id="clip0"><rect x="473" y="189" width="334" height="342"/></clipPath></defs><g clip-path="url(#clip0)" transform="translate(-473 -189)"><path d="M806.301 359.683C807.741 467.985 761.483 530.365 655.334 530.365 549.186 530.365 516.092 440.242 481.434 351.732 441.755 250.406 549.179 189 655.334 189 761.49 189 804.812 249.322 806.301 359.683" fill="#EBF2FC"/><path d="M607.066 432.902C605.317 431.989 603.403 431.297 601.866 430.117 599.902 428.534 598.742 426.156 598.703 423.634 598.662 422.948 598.648 422.2 598.648 421.486L598.648 359.737C598.648 353.158 602.799 349.063 609.378 349.056L628.689 349.056C628.689 348.439 628.758 347.931 628.758 347.43L628.758 337.991C628.756 337.921 628.755 337.851 628.755 337.781 628.755 333.487 632.289 329.954 636.583 329.954 636.659 329.954 636.735 329.955 636.812 329.957 649.439 329.93 662.069 329.93 674.701 329.957 674.766 329.956 674.831 329.955 674.896 329.955 679.25 329.955 682.833 333.538 682.833 337.892 682.833 337.966 682.832 338.04 682.83 338.114L682.83 349.09 702.142 349.09C707.699 349.09 711.17 351.738 712.659 357.083 712.714 357.21 712.788 357.328 712.878 357.432L712.878 424.663C712.109 426.373 711.226 428.03 710.237 429.623 708.899 431.509 706.704 432.236 704.584 432.957L607.066 432.902ZM603.306 381.498C603.306 381.93 603.217 382.26 603.217 382.589L603.217 422.481C603.217 426.138 605.467 428.292 609.158 428.299L702.252 428.299C706.1 428.299 708.295 426.11 708.302 422.289L708.302 382.685C708.302 382.294 708.247 381.903 708.227 381.622 706.697 382.218 705.132 382.722 703.541 383.131 694.726 384.887 685.883 386.561 677.054 388.262 673.939 388.859 670.832 389.47 667.676 390.08L667.676 394.196C667.587 401.015 662.407 406.27 655.787 406.277 649.167 406.284 644.015 401.07 643.905 394.21L643.905 390.094C643.432 389.957 643.075 389.82 642.705 389.751 634.527 388.201 626.323 386.739 618.166 385.079 613.233 384.105 608.109 383.837 603.306 381.498ZM667.662 385.415C677.534 383.529 687.159 381.704 696.777 379.831 699.446 379.37 702.085 378.752 704.68 377.979 707.122 377.183 708.364 375.324 708.316 372.614 708.241 368.498 708.316 364.327 708.316 360.183 708.316 355.532 706.375 353.584 701.723 353.584L655.252 353.584C646.869 353.584 638.479 353.632 630.096 353.632 623.043 353.632 615.991 353.577 608.939 353.632 605.714 353.632 603.361 355.656 603.286 358.667 603.169 363.572 603.286 368.477 603.286 373.389 603.254 375.146 604.266 376.764 605.859 377.505 607.035 378.124 608.294 378.569 609.597 378.829 618.845 380.634 628.12 382.376 637.361 384.132 639.487 384.53 641.621 384.914 643.898 385.333L643.898 378.137C643.898 375.084 645.634 373.382 648.701 373.376L662.709 373.376C665.927 373.376 667.649 375.104 667.662 378.308 667.676 380.641 667.669 382.973 667.669 385.443L667.662 385.415ZM673.151 348.85 678.241 348.85 678.241 338.752C678.241 335.72 677.02 334.499 674.008 334.499L636.88 334.499C634.953 334.499 633.45 335.665 633.389 337.373 633.286 341.174 633.389 344.974 633.389 348.843L638.431 348.843 638.431 339.445 673.199 339.445 673.151 348.85ZM648.509 377.986 648.509 395.273C648.525 395.604 648.583 395.931 648.68 396.248 649.47 399.516 652.419 401.836 655.782 401.836 659.79 401.836 663.088 398.538 663.088 394.53 663.088 394.488 663.087 394.445 663.087 394.402 663.141 389.168 663.087 383.927 663.087 378.692 663.064 378.461 663.025 378.232 662.97 378.006L648.509 377.986ZM668.52 343.993 643.034 343.993 643.034 348.919 668.534 348.919 668.52 343.993Z" fill="#1930AB"/><path d="M566.453 291.91C567.448 289.297 568.998 287.245 571.942 286.642 572.596 286.524 573.26 286.471 573.924 286.484L637.546 286.484C639.429 286.433 641.245 287.196 642.526 288.576 648.413 294.812 654.312 301.041 660.061 307.408 661.015 308.578 661.579 310.017 661.673 311.524 661.893 315.276 661.769 319.07 661.749 322.809 661.749 324.304 660.843 325.272 659.56 325.32 659.552 325.32 659.543 325.32 659.535 325.32 658.244 325.32 657.182 324.258 657.182 322.967 657.182 322.916 657.184 322.866 657.187 322.816 657.146 319.866 657.187 316.916 657.187 313.733L645.442 313.733C639.638 313.733 635.982 310.056 635.968 304.279L635.968 291.073 574.308 291.073C571.688 291.073 571.029 291.759 571.029 294.373L571.029 407.293C571.029 409.906 571.715 410.592 574.315 410.592L591.047 410.592C592.982 410.592 593.99 411.409 593.956 412.925 593.922 414.441 592.934 415.148 591.075 415.154L573.924 415.154C570.22 415.154 568.011 413.583 566.707 410.057 566.639 409.937 566.556 409.827 566.46 409.728L566.453 291.91ZM640.544 294.654C640.544 298.414 640.489 301.741 640.544 305.068 640.577 307.303 642.425 309.123 644.66 309.123 647.226 309.191 649.791 309.123 652.364 309.123 652.755 309.123 653.146 309.054 653.736 309.006L640.544 294.654Z" fill="#1930AB"/><path d="M712.878 329.943C711.986 330.492 711.149 331.254 710.182 331.528 708.172 332.104 706.066 332.447 704.008 332.825 703.27 332.933 702.666 333.475 702.478 334.197 701.6 336.404 700.611 338.565 699.514 340.673 698.746 342.148 697.353 342.498 696.18 341.75 695.007 341.002 694.925 339.843 695.597 338.361 696.715 335.905 697.765 333.415 698.691 330.876 698.981 329.811 699.866 329.006 700.955 328.818 703.336 328.345 705.709 327.837 708.282 327.309 708.282 326.088 708.337 324.867 708.241 323.653 708.241 323.351 707.719 322.912 707.376 322.829 705.202 322.308 703.013 321.848 700.818 321.416 699.774 321.214 698.937 320.423 698.677 319.392 697.731 316.868 696.709 314.364 695.577 311.915 695.01 310.96 695.059 309.755 695.7 308.848 697.072 306.79 698.403 304.732 699.782 302.592L696.667 299.594C694.747 300.842 692.73 302.077 690.788 303.436 689.54 304.307 688.476 304.279 687.104 303.586 684.899 302.489 682.62 301.545 680.285 300.76 678.913 300.287 678.083 299.656 677.815 298.181 677.397 295.841 676.848 293.529 676.334 291.142L672.046 291.142C671.545 293.536 671.044 295.985 670.509 298.428 670.111 300.273 668.588 301.11 667.134 300.321 666.156 299.822 665.676 298.68 666.002 297.632 666.633 294.558 667.299 291.458 667.957 288.418 668.13 287.232 669.212 286.374 670.406 286.477L677.843 286.477C679.441 286.477 680.196 287.108 680.532 288.665 681.019 290.902 681.527 293.125 681.904 295.375 681.988 296.08 682.513 296.658 683.208 296.809 684.813 297.385 686.35 298.181 687.962 298.729 688.544 298.923 689.18 298.881 689.732 298.613 691.694 297.447 693.567 296.136 695.494 294.901 696.866 294.01 697.772 294.078 698.924 295.217 700.694 296.953 702.423 298.723 704.179 300.479 705.123 301.296 705.257 302.732 704.481 303.71 703.239 305.631 702.018 307.565 700.722 309.445 700.243 310.029 700.185 310.858 700.578 311.503 701.319 313.033 701.854 314.673 702.581 316.216 702.828 316.727 703.263 317.123 703.795 317.321 705.819 317.849 707.911 318.151 709.914 318.693 710.937 319.086 711.916 319.582 712.837 320.174L712.878 329.943Z" fill="#1930AB"/><path d="M693.265 325.313C692.682 327.645 692.195 330.012 691.481 332.303 690.946 334.018 689.649 334.636 688.332 334.114 687.015 333.593 686.638 332.317 687.289 330.636 690.431 322.5 686.24 313.829 678.042 311.524 676.888 311.253 675.713 311.078 674.529 311.002 672.821 310.824 671.902 309.98 671.957 308.56 672.012 307.14 673 306.406 674.756 306.42 684.765 306.523 692.956 314.995 692.915 325.203L693.265 325.313Z" fill="#1930AB"/><path d="M608.795 317.327 624.216 317.327C626.014 317.327 627.07 318.199 627.043 319.612 627.015 321.025 625.932 321.883 624.155 321.883L593.448 321.883C591.205 321.883 589.812 320.147 590.889 318.562 591.472 317.863 592.32 317.435 593.229 317.382 598.388 317.279 603.574 317.327 608.795 317.327Z" fill="#1930AB"/><path d="M608.754 311.483 593.908 311.483C593.338 311.511 592.767 311.469 592.207 311.359 591.272 311.228 590.57 310.421 590.57 309.477 590.57 309.374 590.578 309.272 590.594 309.171 590.903 308.335 591.465 307.616 592.2 307.113 592.563 306.818 593.297 306.941 593.867 306.941L623.565 306.941C625.884 306.941 626.995 307.682 626.995 309.212 626.995 310.742 625.877 311.517 623.565 311.517L608.754 311.483Z" fill="#1930AB"/><path d="M601.2 332.235 593.195 332.235C591.541 332.235 590.492 331.288 590.526 329.916 590.56 328.544 591.582 327.68 593.146 327.673L609.302 327.673C610.99 327.673 611.971 328.585 611.944 330.005 611.916 331.425 610.942 332.228 609.199 332.235 606.538 332.242 603.869 332.235 601.2 332.235Z" fill="#1930AB"/><path d="M581.1 332.461C580.291 332.291 579.508 332.019 578.767 331.652 578.223 331.25 577.902 330.612 577.902 329.936 577.902 329.35 578.143 328.789 578.569 328.386 579.543 327.371 582.458 327.33 583.494 328.318 583.956 328.726 584.22 329.314 584.22 329.93 584.22 330.572 583.934 331.181 583.439 331.59 582.701 331.982 581.915 332.275 581.1 332.461Z" fill="#1930AB"/><path d="M581.079 317.183C581.784 317.279 582.475 317.458 583.137 317.719 584.029 318.177 584.441 319.242 584.091 320.181 583.686 321.553 582.609 321.89 581.292 321.903 579.975 321.917 578.548 321.828 578.02 320.243 577.639 319.317 578.02 318.241 578.898 317.76 579.595 317.469 580.329 317.275 581.079 317.183Z" fill="#1930AB"/><path d="M580.668 311.483C579.415 311.612 578.257 310.756 578.013 309.521 578.013 308.793 578.486 307.51 578.953 307.414 580.346 307.127 581.784 307.139 583.172 307.449 583.645 307.559 584.091 308.937 584.064 309.719 584.043 310.934 582.918 311.476 580.668 311.483Z" fill="#1930AB"/><path d="M658.003 394.217C657.986 395.42 656.991 396.401 655.787 396.401 655.753 396.401 655.719 396.4 655.684 396.399 655.673 396.399 655.661 396.399 655.649 396.399 654.415 396.399 653.399 395.383 653.399 394.149 653.399 392.914 654.415 391.898 655.649 391.898 655.707 391.898 655.764 391.901 655.822 391.905 657.024 391.919 658.006 392.912 658.006 394.114 658.006 394.148 658.005 394.183 658.003 394.217Z" fill="#1930AB"/></g></svg>