<svg width="334" height="323" xmlns="http://www.w3.org/2000/svg" xmlns:xlink="http://www.w3.org/1999/xlink" xml:space="preserve" overflow="hidden"><defs><clipPath id="clip0"><rect x="473" y="198" width="334" height="323"/></clipPath></defs><g clip-path="url(#clip0)" transform="translate(-473 -198)"><path d="M707.732 222.602C707.732 222.602 835.057 332.817 800.333 441.172 800.333 441.172 764.253 554.335 576.976 511.177 541.956 503.119 511.228 482.638 492.916 453.548 483.994 439.255 477.883 423.389 474.913 406.804 469.091 375.377 476.746 343.011 495.34 316.311 535.866 258.058 627.822 149.139 707.732 222.602" fill="#EBF2FC"/><path d="M701.393 452.641C698.378 449.714 695.349 446.813 692.354 443.851 687.734 439.278 683.155 434.658 678.555 430.065 678.32 429.83 678.071 429.609 677.749 429.313 668.133 435.605 657.785 437.371 646.86 433.577 635.934 429.783 628.83 422.081 625.15 411.008L592.024 411.008 592.024 406.133 624.136 406.133C623.293 400.314 623.969 394.375 626.096 388.895 626.23 388.387 626.276 387.86 626.231 387.337L626.231 362.135 631.093 362.135 631.093 379.594C632.671 378.124 634.228 376.734 635.686 375.25 635.953 374.814 636.064 374.3 636.001 373.793L636.001 357.193 640.829 357.193 640.829 371.462C642.515 370.697 643.992 370.079 645.402 369.327 645.678 369.179 645.778 368.515 645.785 368.085L645.785 359.691 650.654 359.691 650.654 367.662 655.562 366.99 655.562 349.887 660.451 349.887 660.451 366.943 665.393 367.655 665.393 344.992 670.329 344.992 670.329 367.836C670.329 368.81 670.517 369.394 671.544 369.743 672.793 370.24 674.013 370.807 675.197 371.442L675.197 354.796 680.14 354.796 680.14 373.739C680.067 374.548 680.418 375.339 681.066 375.827 682.47 376.955 683.813 378.171 685.015 379.185L685.015 364.579 689.89 364.579 689.89 387.391C689.876 388.103 689.99 388.813 690.226 389.486 692.112 394.574 692.718 400.049 691.992 405.427L691.992 406.099 694.678 406.099 694.678 410.847C694.55 410.907 694.463 410.994 694.389 410.981 691.703 410.45 690.125 411.505 689.688 414.265 689.56 414.926 689.284 415.55 688.883 416.091 687.969 417.374 688.258 418.226 689.373 419.321 696.464 426.298 703.475 433.362 710.505 440.4 712.419 442.314 712.412 443.388 710.505 445.329 708.598 447.269 706.664 449.196 704.717 451.104 704.139 451.668 703.475 452.131 702.85 452.648L701.393 452.641ZM687.419 401.184C687.411 385.076 674.155 371.825 658.047 371.825 641.934 371.825 628.675 385.084 628.675 401.197 628.675 417.31 641.934 430.569 658.047 430.569 658.054 430.569 658.06 430.569 658.067 430.569 674.175 430.55 687.419 417.291 687.419 401.184ZM705.771 442.945 685.102 422.269 681.543 426.211C688.366 433.047 695.181 439.876 701.991 446.698L705.771 442.945Z" fill="#1930AB"/><path d="M626.13 423.263 626.13 428.064C625.837 428.114 625.541 428.148 625.244 428.165 614.963 428.165 604.675 428.239 594.394 428.131 588.642 428.183 583.611 424.122 582.448 418.488 582.22 417.316 582.118 416.123 582.146 414.929L582.146 338.444C582.146 330.386 587.297 325.249 595.328 325.249L691.441 325.249C699.412 325.249 704.569 330.393 704.569 338.33L704.569 415.245C704.662 418.431 703.573 421.542 701.514 423.975L697.847 420.785C699.862 418.589 699.687 415.89 699.687 413.21L699.687 338.592C699.687 333.072 696.807 330.178 691.307 330.171L595.442 330.171C589.909 330.171 587.028 333.039 587.028 338.565L587.028 414.876C587.028 420.402 589.902 423.263 595.442 423.263L626.13 423.263Z" fill="#1930AB"/><path d="M689.789 320.287 685.008 320.287 685.008 318.4C684.974 313.699 681.892 310.577 677.178 310.57L580.736 310.57C575.223 310.57 572.302 313.464 572.302 318.944L572.302 395.294C572.302 399.236 573.873 402.009 577.801 403.467L576.653 408.107C574.293 407.569 572.164 406.294 570.576 404.467 568.516 402.218 567.391 399.264 567.433 396.214L567.433 318.138C567.433 310.886 572.846 305.681 580.192 305.681L676.89 305.681C685.25 305.681 690.676 311.772 689.789 320.287Z" fill="#1930AB"/><path d="M606.717 371.879 611.451 371.879 611.451 401.117 606.717 401.117Z" fill="#1930AB"/><path d="M616.494 379.225 621.235 379.225 621.235 401.13 616.494 401.13Z" fill="#1930AB"/><path d="M596.94 386.652 601.641 386.652 601.641 401.177 596.94 401.177Z" fill="#1930AB"/><path d="M577.318 315.579 582.019 315.579 582.019 320.28 577.318 320.28Z" fill="#1930AB"/><path d="M587.149 315.532 591.85 315.532 591.85 320.286 587.149 320.286Z" fill="#1930AB"/><path d="M596.913 315.566 601.614 315.566 601.614 320.267 596.913 320.267Z" fill="#1930AB"/><path d="M611.619 335.147 616.32 335.147 616.32 339.895 611.619 339.895Z" fill="#1930AB"/><path d="M592.031 335.174 596.779 335.174 596.779 339.834 592.031 339.834Z" fill="#1930AB"/><path d="M601.835 335.127 606.536 335.127 606.536 339.828 601.835 339.828Z" fill="#1930AB"/><path d="M658.047 376.707C658.056 376.707 658.065 376.707 658.074 376.707 671.509 376.707 682.564 387.762 682.564 401.197 682.564 414.632 671.509 425.687 658.074 425.687 644.639 425.687 633.584 414.632 633.584 401.197 633.584 401.175 633.584 401.152 633.584 401.13 633.61 387.726 644.643 376.711 658.047 376.707ZM645.758 386.229C639.56 390.386 636.948 400.27 639.319 406.072L676.856 406.072C679.193 399.458 676.057 389.788 670.275 386.276L670.275 401.103 665.42 401.103 665.42 399.424C665.42 394.401 665.42 389.385 665.387 384.362 665.387 383.845 665.111 383.019 664.749 382.885 663.346 382.403 661.918 381.997 660.471 381.669L660.471 401.143 655.582 401.143 655.582 381.71C654.239 382.045 653.078 382.381 651.923 382.61 650.989 382.811 650.647 383.281 650.66 384.302 650.714 389.231 650.66 394.153 650.66 399.075L650.66 401.09 645.731 401.09 645.758 386.229ZM674.969 411.115 641.132 411.115C645.275 417.421 650.848 420.798 658.201 420.745 665.427 420.698 670.913 417.327 674.969 411.115Z" fill="#1930AB"/></g></svg>