<svg width="1147" height="1138" xmlns="http://www.w3.org/2000/svg" xmlns:xlink="http://www.w3.org/1999/xlink" xml:space="preserve" overflow="hidden"><defs><clipPath id="clip0"><rect x="1626" y="668" width="1147" height="1138"/></clipPath><clipPath id="clip1"><rect x="1999" y="888" width="404" height="699"/></clipPath><clipPath id="clip2"><rect x="1999" y="888" width="404" height="699"/></clipPath><clipPath id="clip3"><rect x="1999" y="888" width="404" height="699"/></clipPath></defs><g clip-path="url(#clip0)" transform="translate(-1626 -668)"><path d="M2772.83 1106.41C2772.83 1420.39 2484.74 1805.93 2149.13 1805.93 1813.52 1805.93 1626.83 1572.65 1626.83 1258.68 1626.83 944.707 1813.55 668.93 2149.13 668.93 2484.71 668.93 2772.83 792.444 2772.83 1106.41" fill="#EBF2FC" fill-rule="evenodd"/><g clip-path="url(#clip1)"><g clip-path="url(#clip2)"><g clip-path="url(#clip3)"><path d="M70.2514 0 331.749 0C351.088 0 368.735 7.89341 381.421 20.5793 394.107 33.2651 402 50.9125 402 70.2514L402 622.565C402 641.904 394.107 659.551 381.421 672.237 368.735 684.923 351.088 692.816 331.749 692.816L70.2514 692.816C50.9125 692.816 33.2651 684.923 20.5793 672.237 7.89341 659.551 0 641.904 0 622.565L0 70.2514C0 50.9125 7.89341 33.2651 20.5793 20.5793 33.2651 7.89341 50.9125 0 70.2514 0L70.2514 0ZM296.905 254.844 337.274 254.844C347.423 254.844 355.655 263.133 355.655 273.225L355.655 313.594C355.655 323.743 347.367 331.974 337.274 331.974L296.905 331.974C286.756 331.974 278.525 323.686 278.525 313.594L278.525 273.225C278.525 263.133 286.813 254.844 296.905 254.844L296.905 254.844ZM180.816 254.844 221.185 254.844C231.333 254.844 239.565 263.133 239.565 273.225L239.565 313.594C239.565 323.743 231.277 331.974 221.185 331.974L180.816 331.974C170.667 331.974 162.435 323.686 162.435 313.594L162.435 273.225C162.435 263.133 170.667 254.844 180.816 254.844L180.816 254.844ZM64.726 254.844 105.095 254.844C115.244 254.844 123.476 263.133 123.476 273.225L123.476 313.594C123.476 323.743 115.187 331.974 105.095 331.974L64.726 331.974C54.5773 331.974 46.3456 323.686 46.3456 313.594L46.3456 273.225C46.2892 263.133 54.5773 254.844 64.726 254.844L64.726 254.844ZM296.905 139.431 337.274 139.431C347.423 139.431 355.655 147.72 355.655 157.812L355.655 198.181C355.655 208.33 347.367 216.561 337.274 216.561L296.905 216.561C286.756 216.561 278.525 208.273 278.525 198.181L278.525 157.812C278.525 147.72 286.813 139.431 296.905 139.431L296.905 139.431ZM180.816 139.431 221.185 139.431C231.333 139.431 239.565 147.72 239.565 157.812L239.565 198.181C239.565 208.33 231.277 216.561 221.185 216.561L180.816 216.561C170.667 216.561 162.435 208.273 162.435 198.181L162.435 157.812C162.435 147.72 170.667 139.431 180.816 139.431L180.816 139.431ZM64.726 139.431 105.095 139.431C115.244 139.431 123.476 147.72 123.476 157.812L123.476 198.181C123.476 208.33 115.187 216.561 105.095 216.561L64.726 216.561C54.5773 216.561 46.3456 208.273 46.3456 198.181L46.3456 157.812C46.2892 147.72 54.5773 139.431 64.726 139.431L64.726 139.431ZM184.875 488.884C184.593 488.715 184.198 488.546 183.917 488.32 180.083 485.276 175.854 481.893 172.246 478.905 166.946 474.563 160.856 469.545 156.571 465.993 153.696 463.625 150.37 461.934 147.212 461.257 145.182 460.919 143.378 460.919 141.912 461.483 140.728 461.99 139.713 462.949 139.093 464.358 138.247 466.332 137.796 469.094 138.022 472.815 138.247 476.142 139.375 479.75 140.897 483.302 143.153 488.433 146.254 493.226 148.565 496.27 148.734 496.496 148.847 496.608 148.904 496.834L192.881 559.643 308.463 559.643C315.624 547.916 321.713 537.541 322.446 522.882L321.995 502.303C321.938 502.021 321.938 501.739 321.938 501.457 321.938 501.175 321.938 499.202 321.995 496.608 322.164 482.964 322.333 466.162 309.873 464.076L301.81 464.076C301.754 467.91 301.528 471.857 301.303 475.578 301.077 478.961 300.852 482.175 300.852 485.276 300.852 488.602 298.145 491.309 294.819 491.309 291.492 491.309 288.786 488.602 288.786 485.276 288.786 482.175 289.012 478.51 289.237 474.789 290.027 461.934 290.985 447.275 280.78 445.414L272.83 445.414C272.379 445.414 271.984 445.358 271.533 445.245 271.59 449.868 271.308 454.661 271.026 459.284 270.8 462.667 270.575 465.88 270.575 468.981 270.575 472.308 267.869 475.014 264.542 475.014 261.216 475.014 258.509 472.308 258.509 468.981 258.509 465.88 258.735 462.216 258.96 458.494 259.75 445.64 260.708 430.98 250.503 429.12L242.553 429.12C241.989 429.12 241.482 429.063 240.975 428.894L240.975 452.293C240.975 455.619 238.268 458.325 234.942 458.325 231.615 458.325 228.909 455.619 228.909 452.293L228.909 389.709C228.909 379.222 224.624 372.513 219.099 369.806 217.069 368.792 214.87 368.284 212.784 368.284 210.698 368.284 208.499 368.792 206.469 369.806 201.056 372.569 196.828 379.222 196.828 390.047L196.828 500.104C196.828 503.431 194.122 506.137 190.795 506.137 187.469 506.137 184.762 503.431 184.762 500.104L184.762 488.941 184.875 488.941 184.875 488.884ZM178.56 559.756 139.375 503.712 139.15 503.487C136.443 499.935 132.835 494.353 130.072 488.208 128.042 483.584 126.52 478.566 126.182 473.661 125.844 467.797 126.633 463.174 128.268 459.453 130.298 454.886 133.624 451.898 137.627 450.319 141.348 448.797 145.521 448.571 149.749 449.473 154.824 450.488 160.067 453.025 164.465 456.69 168.073 459.735 174.163 464.64 180.139 469.545L185.044 473.605 185.044 390.047C185.044 374.035 192.148 363.717 201.338 359.094 205.06 357.233 209.006 356.275 213.066 356.275 217.125 356.275 221.128 357.233 224.793 359.094 233.983 363.717 241.257 374.091 241.257 389.822L241.257 417.505 241.087 417.449C241.595 417.28 242.102 417.223 242.666 417.223L251.011 417.223C251.462 417.223 251.969 417.28 252.364 417.392 263.471 419.14 268.432 425.568 270.462 433.969 271.251 433.63 272.154 433.405 272.999 433.405L281.344 433.405C281.795 433.405 282.302 433.461 282.697 433.574 294.65 435.434 299.442 442.764 301.19 452.067 301.472 452.011 301.754 452.011 302.149 452.011L310.493 452.011C310.944 452.011 311.452 452.067 311.846 452.18 334.737 455.732 334.455 478.51 334.23 496.834L334.23 501.626 334.737 522.769 334.737 523.446C334.004 538.443 328.986 549.043 322.615 559.868L385.086 559.868 385.086 108.309 16.8581 108.309 16.8581 559.812 16.8581 559.812 178.56 559.812 178.56 559.756ZM163.168 637.111C158.601 637.111 154.654 633.39 154.654 628.598 154.654 624.031 158.376 620.084 163.168 620.084L240.467 620.084C245.034 620.084 248.981 623.805 248.981 628.598 248.981 633.164 245.26 637.111 240.467 637.111L163.168 637.111 163.168 637.111ZM155.895 40.3128C163.394 40.3128 169.426 46.3456 169.426 53.8443 169.426 61.3431 163.394 67.3759 155.895 67.3759 148.396 67.3759 142.363 61.3431 142.363 53.8443 142.363 46.3456 148.396 40.3128 155.895 40.3128L155.895 40.3128ZM201 40.3128C208.499 40.3128 214.532 46.3456 214.532 53.8443 214.532 61.3431 208.499 67.3759 201 67.3759 193.501 67.3759 187.469 61.3431 187.469 53.8443 187.469 46.3456 193.501 40.3128 201 40.3128L201 40.3128ZM246.105 40.3128C253.604 40.3128 259.637 46.3456 259.637 53.8443 259.637 61.3431 253.604 67.3759 246.105 67.3759 238.607 67.3759 232.574 61.3431 232.574 53.8443 232.63 46.3456 238.607 40.3128 246.105 40.3128L246.105 40.3128ZM385.199 576.614 16.8581 576.614 16.8581 622.339C16.8581 637.111 22.8909 650.417 32.6449 659.946 42.3989 669.7 55.7049 675.732 70.2514 675.732L331.749 675.732C346.521 675.732 359.827 669.7 369.355 659.946 379.109 650.192 385.142 636.886 385.142 622.339L385.142 576.614 385.199 576.614 385.199 576.614ZM16.8581 91.2817 385.199 91.2817 385.199 70.3078C385.199 55.5358 379.166 42.2298 369.412 32.7013 359.658 22.9473 346.352 16.9145 331.805 16.9145L70.2514 16.9145C55.4794 16.9145 42.1734 22.9473 32.6449 32.7013 22.8909 42.4553 16.8581 55.7613 16.8581 70.3078L16.8581 91.2817 16.8581 91.2817 16.8581 91.2817Z" fill="#1930AB" transform="matrix(1 0 0 1.00083 2000 890.805)"/></g></g></g></g></svg>