<svg width="334" height="346" xmlns="http://www.w3.org/2000/svg" xmlns:xlink="http://www.w3.org/1999/xlink" xml:space="preserve" overflow="hidden"><defs><clipPath id="clip0"><rect x="473" y="187" width="334" height="346"/></clipPath></defs><g clip-path="url(#clip0)" transform="translate(-473 -187)"><path d="M806.333 319.954C806.333 415.372 718.851 532.54 616.941 532.54 519.786 532.54 480.033 473.126 476.544 384.891 476.213 376.541 475.467 368.212 474.433 359.918 463.143 269.41 519.286 187 616.941 187 718.851 187 806.333 224.537 806.333 319.954" fill="#EBF2FC"/><path d="M683.038 422.842 661.73 438.157C658.825 435.406 655.926 432.74 653.141 429.961 652.387 429.036 651.087 428.744 650.01 429.258 646.12 430.616 642.174 431.833 638.227 433.043 637.221 433.209 636.455 434.051 636.384 435.068 635.765 439.015 634.977 442.933 634.232 446.936L607.915 446.936C607.275 443.468 606.508 439.979 606.037 436.44 605.763 434.231 604.841 433.176 602.695 432.613 599.059 431.65 595.492 430.405 591.925 429.195 591.01 428.753 589.902 428.988 589.245 429.764 586.431 432.578 583.456 435.308 580.438 438.206L559.123 422.892C560.868 419.304 562.528 415.744 564.343 412.262 565.024 411.275 564.914 409.933 564.082 409.069 561.578 405.854 559.193 402.555 556.837 399.22 556.345 398.32 555.3 397.862 554.304 398.109 551.237 398.601 548.142 398.981 545.054 399.396 544.175 399.516 543.288 399.586 542.282 399.691 539.567 391.419 536.88 383.252 534.15 374.944 537.731 373.044 541.185 371.145 544.702 369.386 545.766 368.991 546.421 367.902 546.271 366.777 546.172 362.76 546.151 358.743 546.271 354.726 546.313 353.319 545.792 352.616 544.575 352.011 541.1 350.28 537.703 348.409 534.143 346.517 535.388 342.725 536.591 339.039 537.794 335.353 539.103 331.378 540.474 327.418 541.677 323.394 542.099 321.987 542.754 321.664 544.111 321.882 547.425 322.416 550.759 322.782 554.065 323.289 555.173 323.579 556.346 323.087 556.914 322.093 559.25 318.758 561.67 315.48 564.139 312.244 564.897 311.473 565.02 310.269 564.434 309.36 562.605 305.843 560.917 302.283 559.102 298.548L580.417 283.212C583.456 286.097 586.431 288.84 589.337 291.71 589.907 292.405 590.874 292.641 591.7 292.287 595.78 290.922 599.889 289.614 603.997 288.327 604.941 288.156 605.656 287.363 605.727 286.406 606.353 282.453 607.134 278.527 607.887 274.482L634.225 274.482C634.928 278.478 635.751 282.453 636.405 286.441 636.454 287.337 637.114 288.09 637.995 288.256 642.113 289.532 646.212 290.854 650.292 292.224 651.161 292.625 652.199 292.4 652.824 291.675 655.68 288.861 658.621 286.125 661.709 283.198L683.017 298.513C681.209 302.22 679.499 305.829 677.67 309.388 677.101 310.236 677.195 311.375 677.895 312.118 680.442 315.445 682.918 318.836 685.352 322.247 685.819 323.088 686.793 323.521 687.73 323.303 691.099 322.782 694.497 322.409 697.867 321.896 699.274 321.671 699.977 321.896 700.455 323.408 702.702 330.541 705.033 337.646 707.448 344.723 707.961 346.221 707.581 346.833 706.28 347.452 703.164 348.979 700.139 350.695 697.051 352.271 696.264 352.567 695.773 353.363 695.862 354.199 695.923 358.508 695.923 362.823 695.862 367.142 695.779 368.035 696.317 368.877 697.163 369.175 700.357 370.821 703.494 372.559 706.702 374.177 707.701 374.683 707.919 375.197 707.56 376.287 705.103 383.603 702.695 390.933 700.336 398.277 699.956 399.466 699.407 399.72 698.275 399.551 694.898 399.03 691.507 398.643 688.138 398.102 686.973 397.799 685.741 398.321 685.148 399.368 682.82 402.716 680.393 405.987 677.924 409.216 677.212 409.95 677.098 411.085 677.649 411.946 679.492 415.491 681.209 419.086 683.038 422.842ZM579.917 430.7C582.661 428.104 585.327 425.53 588.07 423.039 588.57 422.621 589.227 422.439 589.871 422.54 596.385 424.556 602.878 426.639 609.35 428.787 609.994 429.092 610.474 429.662 610.666 430.348 611.369 433.507 611.833 436.679 612.495 439.866 612.607 440.387 613.254 441.182 613.669 441.189 618.875 441.28 624.081 441.245 629.406 441.245 630.109 437.566 630.714 433.971 631.467 430.412 631.632 429.718 632.096 429.133 632.733 428.815 639.142 426.704 645.592 424.65 652.015 422.547 652.779 422.211 653.678 422.425 654.21 423.067 656.813 425.628 659.493 428.104 662.236 430.7L675.708 421.006C674.069 417.665 672.528 414.429 670.91 411.228 670.399 410.495 670.457 409.498 671.051 408.829 675.037 403.507 678.979 398.151 682.876 392.762 683.286 392.033 684.142 391.67 684.951 391.883 688.553 392.425 692.162 392.854 695.862 393.339 697.585 388.077 699.274 382.928 700.99 377.701 697.684 375.943 694.539 374.184 691.339 372.601 690.492 372.269 689.98 371.391 690.108 370.491 690.15 363.953 690.15 357.42 690.108 350.892 690.028 349.955 690.585 349.072 691.465 348.74 694.659 347.129 697.796 345.405 701.018 343.682 699.274 338.385 697.578 333.235 695.869 328.058 692.141 328.543 688.581 328.951 685.043 329.514 684.172 329.727 683.26 329.328 682.827 328.543 678.958 323.211 675.053 317.902 671.114 312.617 670.504 311.964 670.411 310.973 670.889 310.218 672.549 306.989 674.097 303.711 675.722 300.37L662.236 290.676C659.535 293.237 656.855 295.713 654.259 298.266 653.682 298.947 652.719 299.169 651.903 298.808 645.59 296.735 639.259 294.7 632.909 292.702 632.031 292.521 631.383 291.762 631.34 290.866 630.862 287.736 630.278 284.612 629.617 281.51 629.511 280.989 628.857 280.202 628.442 280.195 623.236 280.103 618.031 280.131 612.706 280.131 612.002 283.817 611.299 287.391 610.722 290.986 610.666 291.822 610.052 292.522 609.231 292.688 602.843 294.709 596.465 296.759 590.096 298.836 589.332 299.165 588.435 298.946 587.909 298.302 585.299 295.741 582.626 293.265 579.896 290.683L566.397 300.384C568.029 303.718 569.569 306.961 571.194 310.155 571.697 310.895 571.636 311.888 571.047 312.561 567.06 317.879 563.119 323.235 559.222 328.628 558.802 329.365 557.929 329.727 557.111 329.5 553.516 328.951 549.901 328.515 546.215 328.023 544.477 333.306 542.789 338.455 541.079 343.668 544.343 345.398 547.41 347.101 550.583 348.683 551.493 349.001 552.076 349.904 551.99 350.864 551.934 357.402 551.934 363.935 551.99 370.463 552.103 371.415 551.554 372.33 550.66 372.679 547.467 374.282 544.329 376.013 541.1 377.729 542.845 383.019 544.54 388.169 546.25 393.367 549.985 392.868 553.545 392.453 557.083 391.89 557.952 391.67 558.866 392.072 559.292 392.861 563.166 398.193 567.072 403.502 571.012 408.787 571.62 409.442 571.707 410.435 571.223 411.186 569.569 414.415 568.015 417.693 566.397 421.034L579.917 430.7Z" fill="#1930AB"/><path d="M621.147 300.264C654.263 300.307 681.49 327.568 681.49 360.684 681.49 393.83 654.215 421.105 621.07 421.105 587.924 421.105 560.649 393.83 560.649 360.684 560.649 360.642 560.649 360.6 560.65 360.558 560.761 327.447 588.036 300.264 621.147 300.264ZM566.404 360.586C566.404 360.619 566.404 360.652 566.404 360.684 566.404 390.673 591.081 415.35 621.07 415.35 651.059 415.35 675.736 390.673 675.736 360.684 675.736 330.735 651.124 306.076 621.175 306.019 591.206 306.018 566.516 330.616 566.404 360.586Z" fill="#1930AB"/><path d="M658.473 360.699 658.473 379.748C658.646 383.254 656.761 386.557 653.654 388.19 644.387 393.569 635.132 398.962 625.889 404.369 622.941 406.263 619.143 406.263 616.195 404.369 606.97 398.925 597.731 393.513 588.478 388.134 585.378 386.496 583.502 383.194 583.681 379.692 583.718 366.988 583.718 354.285 583.681 341.586 583.503 338.077 585.393 334.771 588.507 333.144 597.774 327.77 607.026 322.376 616.265 316.964 619.152 315.085 622.884 315.052 625.804 316.88 635.184 322.325 644.54 327.786 653.872 333.264 656.849 334.867 658.652 338.046 658.501 341.424 658.473 347.867 658.463 354.292 658.473 360.699ZM652.719 342.767C651.867 343.225 651.241 343.541 650.643 343.893 642.202 348.817 633.81 353.741 625.319 358.581 624.32 359.158 623.912 359.657 623.912 360.874 623.961 372.904 623.912 384.94 623.947 396.976 623.947 397.49 623.989 398.003 624.024 398.707 624.65 398.376 625.122 398.151 625.572 397.884 633.788 393.1 641.977 388.267 650.228 383.54 651.917 382.712 652.925 380.918 652.754 379.045 652.676 367.607 652.712 356.168 652.712 344.737L652.719 342.767ZM617.982 398.601C618.087 398.383 618.172 398.285 618.172 398.186L618.172 360.248C618.172 359.876 618.038 359.327 617.785 359.179 616.068 358.145 614.267 357.202 612.157 356.035L612.157 371.11C606.396 367.726 600.979 364.568 595.605 361.332 595.169 360.889 594.934 360.285 594.957 359.665 594.901 355.591 594.957 351.511 594.908 347.438 594.908 346.869 594.908 346.031 594.549 345.785 592.967 344.695 591.271 343.78 589.386 342.669L589.386 379.397C589.274 381.096 590.213 382.7 591.75 383.434 600.05 388.211 608.309 393.065 616.589 397.891 617.039 398.151 617.517 398.369 617.982 398.608L617.982 398.601ZM614.837 350.85C616.244 351.68 617.468 352.313 618.594 353.087 620.289 354.255 621.844 354.128 623.588 353.087 631.826 348.205 640.113 343.408 648.378 338.568 648.807 338.322 649.201 338.012 649.785 337.625 640.872 332.419 632.199 327.383 623.525 322.269 622.071 321.268 620.139 321.268 618.685 322.269 610.448 327.144 602.154 331.934 593.888 336.767 593.445 337.02 593.037 337.33 592.404 337.752 594.198 338.8 595.823 339.665 597.328 340.685 597.995 341.196 598.935 341.175 599.579 340.636 603.406 338.293 607.317 336.035 611.109 333.679 611.764 333.16 612.698 333.16 613.353 333.679 615.013 334.748 616.751 335.691 618.453 336.697L628.505 342.627 614.837 350.85ZM604.145 344.617C605.748 345.553 607.113 346.369 608.506 347.143 608.794 347.326 609.146 347.382 609.477 347.298 612.03 345.82 614.556 344.294 617.264 342.676 615.688 341.74 614.45 340.945 613.107 340.256 612.676 340.018 612.165 339.972 611.7 340.129 609.202 341.494 606.768 342.992 604.145 344.582L604.145 344.617ZM600.726 349.288 600.726 357.062C600.734 357.409 600.891 357.737 601.155 357.962 602.801 358.996 604.482 359.967 606.445 361.135L606.445 353.397C606.383 352.942 606.126 352.536 605.741 352.285 604.222 351.265 602.653 350.4 600.726 349.288Z" fill="#1930AB"/></g></svg>