<svg width="334" height="331" xmlns="http://www.w3.org/2000/svg" xmlns:xlink="http://www.w3.org/1999/xlink" xml:space="preserve" overflow="hidden"><defs><clipPath id="clip0"><rect x="473" y="194" width="334" height="331"/></clipPath></defs><g clip-path="url(#clip0)" transform="translate(-473 -194)"><path d="M806.333 321.352C806.333 412.75 722.537 524.982 624.92 524.982 527.303 524.982 473 457.074 473 365.677 473 274.279 527.31 194 624.92 194 722.53 194 806.333 229.955 806.333 321.352" fill="#EBF2FC"/><path d="M627.002 349.99 621.49 349.99 621.49 347.84C621.45 345.435 620.453 344.431 618.02 344.431L576.358 344.431C576.358 345.105 576.277 345.637 576.277 346.203L576.277 358.035C576.277 363.426 572.719 367.011 567.335 367.038L554.27 367.038C554.068 367.066 553.867 367.107 553.67 367.159L553.67 430.775C553.67 434.029 554.492 434.851 557.713 434.851L617.407 434.851C620.655 434.851 621.484 434.029 621.484 430.808L621.484 424.07C621.457 423.917 621.412 423.768 621.349 423.625 619.631 423.41 618.263 423.268 617.131 425.384 615.365 428.692 611.188 429.912 607.583 428.753 604.099 427.627 601.722 424.362 601.722 420.7 601.722 416.885 604.302 413.519 607.987 412.527 611.613 411.461 615.528 413.05 617.387 416.341 618.114 417.689 618.95 417.905 620.284 417.891 626.274 417.83 632.271 417.891 638.477 417.891L638.477 401.558C638.477 399.118 639.481 398.114 641.9 398.101L655.316 398.101C655.357 397.555 655.424 397.056 655.424 396.558L655.424 385.251C655.424 381.916 656.212 381.148 659.615 381.148L672.377 381.148 672.377 367.523C672.377 365.259 673.422 364.201 675.747 364.187L689.338 364.187 689.338 350.179C689.439 348.4 690.456 347.288 692.228 347.274 697.816 347.225 703.407 347.225 709 347.274 710.779 347.274 711.809 348.38 711.924 350.152 711.958 350.677 711.924 351.21 711.924 351.735L711.924 417.871 717.449 417.871 717.449 423.544 627.157 423.544 627.157 431.455C627.157 436.974 623.613 440.505 618.094 440.511L557.16 440.511C551.534 440.511 548.03 436.987 548.03 431.347L548.03 367.24C547.969 364.504 549.072 361.867 551.062 359.989 557.167 353.943 563.245 347.879 569.296 341.796 571.178 339.811 573.818 338.715 576.553 338.784 590.097 338.831 603.634 338.986 617.171 338.724 623.262 338.569 628.141 342.665 627.002 349.99ZM695.099 352.968 695.099 417.81 706.183 417.81 706.183 352.968 695.099 352.968ZM678.139 369.928 678.139 417.77 689.23 417.77 689.23 369.928 678.139 369.928ZM661.205 386.875 661.205 417.79 672.249 417.79 672.249 386.888 661.205 386.875ZM644.198 403.842 644.198 417.783 655.283 417.783 655.283 403.855 644.198 403.842ZM558.225 361.351C561.466 361.351 564.802 361.492 568.117 361.256 568.959 361.196 570.354 360.01 570.408 359.235 570.65 355.771 570.516 352.281 570.516 349.087L558.225 361.351ZM610.109 423.544C610.136 423.545 610.163 423.546 610.19 423.546 611.735 423.546 613.007 422.274 613.007 420.729 613.007 419.184 611.735 417.912 610.19 417.912 608.658 417.912 607.393 419.162 607.374 420.694 607.376 422.214 608.591 423.48 610.109 423.544Z" fill="#1930AB"/><path d="M663.631 340.166C657.567 346.23 651.448 352.2 645.559 358.359 643.437 360.582 641.267 361.654 638.147 361.431 634.576 361.175 630.978 361.371 627.198 361.371L627.198 412.13 621.524 412.13 621.524 361.384C619.597 361.384 617.791 361.29 616.005 361.452 615.527 361.499 615.015 362.274 614.691 362.799 613.177 365.418 610.372 367.037 607.347 367.037 602.693 367.037 598.864 363.207 598.864 358.553 598.864 353.899 602.693 350.07 607.347 350.07 607.468 350.07 607.59 350.072 607.711 350.078 610.727 350.14 613.467 351.885 614.799 354.592 615.096 355.354 615.874 355.823 616.686 355.731 624.098 355.69 631.51 355.731 638.922 355.684 639.545 355.693 640.152 355.48 640.634 355.084 646.577 349.208 652.491 343.301 658.375 337.363 658.441 337.272 658.487 337.169 658.51 337.059 640.506 323.354 640.02 297.917 653.443 282.998 660.431 275.211 670.413 270.756 680.876 270.756 701.096 270.756 717.734 287.395 717.734 307.615 717.734 314.15 715.996 320.568 712.699 326.211 703.313 342.369 682.296 349.707 663.631 340.166ZM678.017 276.9C665.942 276.9 653.76 287.486 650.586 300.484 647.299 314.398 654.013 328.871 666.758 335.348 678.738 341.554 692.606 338.313 699.101 332.45 692.538 325.038 685.935 317.707 679.453 310.214 678.627 309.195 678.154 307.934 678.105 306.623 677.99 297.324 678.044 288.032 678.044 278.733L678.017 276.9ZM711.708 304.783C710.293 287.412 694.863 277.008 683.812 276.981L683.812 304.79 711.708 304.783ZM687.222 310.578 703.548 328.926C708.353 323.536 711.122 317.599 711.769 310.578L687.222 310.578ZM607.333 355.724C605.807 355.751 604.566 357.014 604.566 358.54 604.566 360.085 605.838 361.357 607.383 361.357 608.928 361.357 610.2 360.085 610.2 358.54 610.2 358.5 610.199 358.46 610.197 358.419 610.111 356.906 608.829 355.714 607.313 355.738L607.333 355.724Z" fill="#1930AB"/><path d="M611.558 308.435C615.871 304.743 620.129 301.138 624.314 297.439 624.671 297.129 624.698 296.199 624.57 295.626 623.808 292.109 624.779 289.171 627.541 286.954 630.061 284.752 633.72 284.381 636.631 286.031 639.652 287.455 641.493 290.611 641.247 293.941 641.071 298.42 637.339 302.009 632.857 302.009 631.967 302.009 631.082 301.867 630.237 301.589 629.331 301.188 628.265 301.399 627.582 302.115 623.067 306.063 618.472 309.924 613.95 313.873 613.363 314.434 612.92 315.127 612.656 315.895 611.383 319.264 609.011 321.4 605.406 321.777 601.801 322.154 598.877 320.571 597.084 317.316 596.788 316.558 596.014 316.088 595.204 316.178 592.024 316.238 588.85 316.225 585.67 316.178 584.863 316.065 584.074 316.508 583.749 317.256 581.944 320.944 577.631 322.736 573.743 321.413 572.987 321.113 572.117 321.357 571.627 322.006 569.532 324.156 567.443 326.312 565.253 328.36 564.478 328.978 564.214 330.048 564.613 330.954 565.601 334.439 564.197 338.187 561.163 340.166 559.774 341.091 558.141 341.585 556.471 341.585 551.829 341.585 548.008 337.765 548.008 333.122 548.008 328.479 551.829 324.659 556.471 324.659 556.602 324.659 556.733 324.662 556.864 324.668 557.04 324.643 557.219 324.657 557.39 324.708 559.889 326.056 561.352 324.492 562.827 322.821 563.643 321.892 564.552 321.049 565.435 320.187 567.2 318.469 568.804 317.114 567.982 313.873 567.012 310.181 570.004 306.421 573.73 305.268 577.501 304.038 581.653 305.676 583.568 309.15 583.966 310.118 584.977 310.697 586.014 310.551 589.127 310.477 592.246 310.551 595.366 310.497 595.905 310.487 596.417 310.255 596.781 309.857 600.79 303.779 606.464 303.105 611.558 308.435ZM635.614 293.53C635.602 291.993 634.334 290.735 632.797 290.735 631.252 290.735 629.981 292.006 629.981 293.551 629.981 295.096 631.252 296.368 632.797 296.368 632.82 296.368 632.842 296.368 632.864 296.367 634.389 296.324 635.618 295.055 635.614 293.53ZM579.087 313.267C579.049 311.748 577.79 310.52 576.271 310.52 574.726 310.52 573.454 311.791 573.454 313.337 573.454 314.882 574.726 316.153 576.271 316.153 576.311 316.153 576.351 316.152 576.391 316.151 577.913 316.078 579.117 314.79 579.087 313.267ZM607.347 313.395C607.347 313.374 607.347 313.354 607.347 313.334 607.347 311.789 606.076 310.517 604.531 310.517 602.986 310.517 601.714 311.789 601.714 313.334 601.714 314.874 602.977 316.143 604.517 316.151 606.04 316.148 607.303 314.918 607.347 313.395ZM556.554 330.308C556.529 330.307 556.505 330.307 556.48 330.307 554.935 330.307 553.663 331.578 553.663 333.123 553.663 334.668 554.935 335.94 556.48 335.94 558.017 335.94 559.285 334.681 559.296 333.144 559.294 331.624 558.073 330.362 556.554 330.308Z" fill="#1930AB"/><path d="M579.201 386.949 612.892 386.949 612.892 392.387 579.201 392.387Z" fill="#1930AB"/><path d="M562.234 401.019 590.278 401.019 590.278 406.497 562.234 406.497Z" fill="#1930AB"/><path d="M562.221 372.779 578.959 372.779 578.959 378.217 562.221 378.217Z" fill="#1930AB"/><path d="M596.148 401.032 612.879 401.032 612.879 406.483 596.148 406.483Z" fill="#1930AB"/><path d="M579.181 415.169 595.919 415.169 595.919 420.607 579.181 420.607Z" fill="#1930AB"/><path d="M584.888 372.806 598.782 372.806 598.782 378.257 584.888 378.257Z" fill="#1930AB"/><path d="M562.255 386.848 573.306 386.848 573.306 392.346 562.255 392.346Z" fill="#1930AB"/><path d="M562.288 415.203 573.399 415.203 573.399 420.641 562.288 420.641Z" fill="#1930AB"/><path d="M593.129 364.127 584.855 364.127 584.855 358.669 593.102 358.669 593.129 364.127Z" fill="#1930AB"/><path d="M604.631 372.826 612.946 372.826 612.946 378.217 604.631 378.217Z" fill="#1930AB"/></g></svg>