<svg width="1147" height="1138" xmlns="http://www.w3.org/2000/svg" xmlns:xlink="http://www.w3.org/1999/xlink" xml:space="preserve" overflow="hidden"><defs><clipPath id="clip0"><rect x="1625" y="668" width="1147" height="1138"/></clipPath><clipPath id="clip1"><rect x="1918" y="894" width="564" height="687"/></clipPath><clipPath id="clip2"><rect x="1918" y="894" width="564" height="687"/></clipPath><clipPath id="clip3"><rect x="1918" y="894" width="564" height="687"/></clipPath></defs><g clip-path="url(#clip0)" transform="translate(-1625 -668)"><path d="M2771.83 1106.41C2771.83 1420.39 2483.74 1805.93 2148.13 1805.93 1812.52 1805.93 1625.83 1572.65 1625.83 1258.68 1625.83 944.707 1812.55 668.93 2148.13 668.93 2483.71 668.93 2771.83 792.444 2771.83 1106.41" fill="#EBF2FC" fill-rule="evenodd"/><g clip-path="url(#clip1)"><g clip-path="url(#clip2)"><g clip-path="url(#clip3)"><path d="M239.378 636.684C284.807 642.741 331.029 636.673 373.357 619.099 392.287 611.406 410.33 601.693 427.173 590.126L430.746 629.706C416.651 638.292 401.905 645.755 386.644 652.036 338.528 671.854 286.032 678.614 234.465 671.63 178.972 663.541 127.678 637.432 88.4826 597.327 47.0999 555.086 18.6476 501.9 6.4757 444.032-8.54038 373.012 2.87314 298.953 38.5751 235.749 74.3114 172.066 131.779 123.377 200.467 98.5869 222.643 89.7693 246.62 86.4372 270.36 88.8734 291.312 91.1828 310.341 102.155 322.836 119.131 323.569 120.177 324.187 121.3 324.678 122.48 341.035 159.827 321.161 183.218 302.348 205.659 291.183 218.555 280.911 230.892 287.052 242.727 291.438 248.751 298.051 252.771 305.418 253.892 320.114 257.08 335.3 257.288 350.078 254.506 364.593 252.161 379.61 248.924 393.901 245.965 404.284 243.788 414.333 241.666 423.991 239.88L415.952 277.394C411.095 278.343 406.183 279.404 401.214 280.465 386.979 283.479 372.129 286.661 355.605 289.229 336.09 292.801 316.051 292.365 296.71 287.945 277.673 282.977 263.215 273.096 256.013 258.86 238.875 225.98 256.795 204.822 275.552 182.715 287.164 168.982 299.334 154.803 293.416 138.055 286.381 129.728 276.358 124.496 265.504 123.485 247.393 121.891 229.162 124.607 212.302 131.412 151.602 153.45 100.868 196.613 69.3904 252.999 37.8137 308.718 27.7072 374.063 40.9755 436.719 51.6809 488.05 76.8649 535.241 113.548 572.708 147.348 607.275 191.586 629.756 239.433 636.684ZM228.882 563.832C239.011 590.193 268.594 603.356 294.956 593.224 321.319 583.097 334.479 553.514 324.35 527.152 314.22 500.789 284.638 487.629 258.276 497.758 258.247 497.77 258.219 497.78 258.191 497.791 231.88 507.955 218.766 537.503 228.882 563.832ZM503.039 0C499.075 62.189 417.571 100.485 446.6 165.186 454.988 183.515 470.62 197.529 489.753 203.873 497.292 206.2 505.29 206.622 513.032 205.101 516.573 204.355 520.018 203.213 523.303 201.696 565.674 182.492 570.755 130.519 558.194 90.6039 546.471 53.8153 521.182 21.2693 503.039 0ZM557.412 346.673C523.998 354.372 489.308 354.696 455.755 347.622L483.277 650.528C484.672 669.341 488.301 682.293 511.189 685.977 518.24 685.748 524.942 682.857 529.946 677.883 534.644 672.35 537.217 665.322 537.204 658.065L557.412 346.673ZM529.891 229.999C517.051 235.302 493.939 238.094 477.75 229.999L456.258 329.758C491.93 337.685 526.82 339.193 560.259 329.758 548.09 281.246 537.929 280.744 529.891 230.278ZM348.85 452.182C359.499 479.798 389.11 495.095 417.794 487.799L407.522 372.743C375.291 370.481 347.327 394.776 345.065 427.008 344.464 435.576 345.756 444.17 348.85 452.182ZM94.2326 456.983C104.442 483.315 134.064 496.384 160.396 486.175 186.727 475.965 199.796 446.342 189.587 420.011 179.395 393.725 149.852 380.648 123.541 390.775 97.2097 400.901 84.0735 430.455 94.1991 456.785 94.2102 456.814 94.2214 456.843 94.2326 456.872ZM124.211 306.256C134.28 332.41 163.645 345.45 189.799 335.381 215.953 325.312 228.993 295.947 218.924 269.793 208.857 243.644 179.503 230.603 153.351 240.661 127.211 250.748 114.173 280.096 124.211 306.256Z" fill="#1930AB" transform="matrix(1 0 0 1.00022 1918 894.437)"/></g></g></g></g></svg>