<svg width="1147" height="1138" xmlns="http://www.w3.org/2000/svg" xmlns:xlink="http://www.w3.org/1999/xlink" xml:space="preserve" overflow="hidden"><defs><clipPath id="clip0"><rect x="1626" y="668" width="1147" height="1138"/></clipPath><clipPath id="clip1"><rect x="1865" y="1046" width="671" height="383"/></clipPath><clipPath id="clip2"><rect x="1865" y="1046" width="671" height="383"/></clipPath><clipPath id="clip3"><rect x="1865" y="1046" width="671" height="383"/></clipPath></defs><g clip-path="url(#clip0)" transform="translate(-1626 -668)"><path d="M2772.83 1106.41C2772.83 1420.39 2484.74 1805.93 2149.13 1805.93 1813.52 1805.93 1626.83 1572.65 1626.83 1258.68 1626.83 944.707 1813.55 668.93 2149.13 668.93 2484.71 668.93 2772.83 792.444 2772.83 1106.41" fill="#EBF2FC" fill-rule="evenodd"/><g clip-path="url(#clip1)"><g clip-path="url(#clip2)"><g clip-path="url(#clip3)"><path d="M16.8758 349.248 79.2103 349.248C77.1743 347.134 75.9083 344.276 75.9083 341.13L75.9083 11.7073C75.9083 5.27286 81.1811 0 87.6156 0L577.547 0C583.982 0 589.255 5.27286 589.255 11.7073L589.255 341.13C589.255 344.276 587.989 347.134 585.953 349.248L651.367 349.248C656.014 349.248 660.243 351.141 663.297 354.195 669.881 360.764 669.894 371.426 663.325 378.012 663.316 378.021 663.306 378.031 663.297 378.04 660.243 381.094 656.014 383 651.367 383L16.8758 383C12.2294 383 8.00065 381.094 4.94657 378.04-1.63814 371.471-1.65124 360.81 4.9173 354.224 4.92705 354.215 4.9368 354.204 4.94657 354.195 8.00065 351.141 12.2294 349.248 16.8758 349.248ZM442.45 236.665C443.325 232.867 447.136 230.505 450.934 231.379 454.732 232.267 457.094 236.065 456.22 239.876L442.398 299.052C441.512 302.85 437.712 305.211 433.914 304.325 430.118 303.45 427.747 299.663 428.623 295.865 428.625 295.857 428.627 295.849 428.628 295.841L442.45 236.665ZM127.632 108.094C123.038 108.094 119.318 104.374 119.318 99.7797 119.318 95.1986 123.038 91.4658 127.632 91.4658L337.058 91.4658C341.639 91.4658 345.359 95.1986 345.359 99.7797 345.359 104.374 341.639 108.094 337.058 108.094L127.632 108.094ZM127.632 161.044C123.038 161.044 119.318 157.311 119.318 152.73 119.318 148.136 123.038 144.416 127.632 144.416L321.54 144.416C326.121 144.416 329.841 148.136 329.841 152.73 329.841 157.311 326.121 161.044 321.54 161.044L127.632 161.044ZM127.632 266.932C123.038 266.932 119.318 263.212 119.318 258.618 119.318 254.024 123.038 250.304 127.632 250.304L264.191 250.304C268.772 250.304 272.505 254.024 272.505 258.618 272.505 263.212 268.772 266.932 264.191 266.932L127.632 266.932ZM127.632 213.981C123.044 213.981 119.324 210.262 119.324 205.674 119.324 201.086 123.044 197.367 127.632 197.367L277.686 197.367C282.274 197.367 285.994 201.086 285.994 205.674 285.994 210.262 282.274 213.981 277.686 213.981L127.632 213.981ZM424.06 103.356C424.06 97.7306 425.679 92.523 428.446 88.0724L477.65 88.0724C480.417 92.4838 482.023 97.7306 482.023 103.356 482.023 119.357 469.049 132.343 453.048 132.343 437.047 132.343 424.06 119.357 424.06 103.356ZM536.683 104.452 536.683 110.521C536.683 116.199 532.049 120.845 526.372 120.845L515.8 120.845C514.476 126.719 512.331 132.377 509.431 137.656L516.479 144.703C520.486 148.723 520.486 155.288 516.479 159.295L507.891 167.896C503.884 171.903 497.319 171.903 493.299 167.896L486.878 161.462C481.527 164.79 475.667 167.348 469.441 169.006L469.441 177.776C469.441 183.454 464.781 188.1 459.117 188.1L446.979 188.1C441.302 188.1 436.655 183.454 436.655 177.776L436.655 169.123C430.441 167.523 424.503 165.001 419.035 161.644L412.784 167.896C408.777 171.903 402.199 171.903 398.192 167.896L389.604 159.308C385.597 155.288 385.597 148.723 389.604 144.703L396.365 137.956C393.379 132.594 391.177 126.832 389.826 120.845L379.724 120.845C374.047 120.845 369.4 116.199 369.4 110.521L369.4 98.3831C369.4 92.8754 373.786 88.3334 379.228 88.0724L413.789 88.0724C412.17 92.5099 411.296 97.2999 411.296 102.299 411.296 103.03 411.309 103.747 411.348 104.452 411.309 105.17 411.296 105.888 411.296 106.606 411.296 129.537 429.881 148.136 452.813 148.136 475.745 148.136 494.343 129.537 494.343 106.606 494.343 105.888 494.33 105.17 494.278 104.452 494.33 103.747 494.343 103.03 494.343 102.299 494.343 97.2999 493.456 92.5099 491.837 88.0724L526.855 88.0724C532.311 88.3334 536.683 92.8754 536.683 98.3831L536.683 104.452ZM418.879 283.729C421.802 286.3 422.103 290.764 419.545 293.688 416.977 296.618 412.521 296.915 409.586 294.353L385.401 273.171C382.478 270.599 382.178 266.136 384.736 263.212L385.428 262.52 409.586 241.364C412.51 238.793 416.973 239.093 419.545 242.029 422.103 244.953 421.802 249.417 418.879 251.988L400.763 267.858 418.879 283.729ZM476.893 294.353C473.958 296.915 469.502 296.618 466.935 293.688 464.377 290.764 464.677 286.3 467.601 283.729L485.716 267.858 467.601 251.988C464.677 249.417 464.377 244.953 466.935 242.029 469.506 239.093 473.97 238.793 476.893 241.364L501.052 262.52 501.744 263.212C504.302 266.136 504.002 270.599 501.065 273.171L476.893 294.353ZM570.917 48.6565 95.9164 48.6565 95.9164 335.035 570.917 335.035 570.917 48.6565ZM153.578 18.8596C157.481 18.8596 160.626 22.0181 160.626 25.9075 160.626 29.7969 157.481 32.9554 153.578 32.9554 149.689 32.9554 146.531 29.7969 146.531 25.9075 146.531 22.0181 149.689 18.8596 153.578 18.8596ZM128.95 18.8596C132.839 18.8596 135.985 22.0181 135.985 25.9075 135.985 29.7969 132.839 32.9554 128.95 32.9554 125.048 32.9554 121.889 29.7969 121.889 25.9075 121.889 22.0181 125.048 18.8596 128.95 18.8596ZM104.309 18.8596C108.198 18.8596 111.356 22.0181 111.356 25.9075 111.356 29.7969 108.198 32.9554 104.309 32.9554 100.406 32.9554 97.2607 29.7969 97.2607 25.9075 97.2607 22.0181 100.406 18.8596 104.309 18.8596ZM314.897 357.562 353.347 357.562C356.949 357.562 359.899 360.512 359.899 364.114 359.899 367.716 356.949 370.666 353.347 370.666L314.897 370.666C311.294 370.666 308.345 367.716 308.345 364.114 308.345 360.512 311.294 357.562 314.897 357.562Z" fill="#1930AB" fill-rule="evenodd" transform="matrix(1.00109 0 0 1 1866.51 1046)"/></g></g></g></g></svg>