<svg id="Layer_1" data-name="Layer 1" xmlns="http://www.w3.org/2000/svg" viewBox="0 0 495.14 500.81"><defs><style>.cls-1{fill:#e0ffc2;}.cls-2{fill:#a2ce5b;}</style></defs><title>08</title><path class="cls-1" d="M349.57,45.69s189.61,167.76,137.9,332.78c0,0-53.73,172.29-332.62,106.59C102.7,472.77,56.94,441.6,29.67,397.31A204.12,204.12,0,0,1,2.86,326.15C-5.81,278.3,22.31,177.09,50,136.4,110.35,47.71,230.57-66.16,349.57,45.69" transform="translate(-1.26 0.81)"/><path class="cls-2" d="M136.48,190.66c.7-2.37,1.24-4.8,2.13-7.08A21.26,21.26,0,0,1,158.89,170q81.72.24,163.46-.05c13.62-.06,21.57,10.67,22.58,20.87.18,1.82.24,3.65.24,5.48q0,44.87.06,89.74a5.08,5.08,0,0,0,1.27,3.44c5.24,4.67,4.85,11.93.26,15.83a1.71,1.71,0,0,0-.32.49c.93,2.28,1.76,4.54,2.8,6.7a2.71,2.71,0,0,0,1.85,1.28c6.53.61,10.06,4.37,10.08,10.89,0,2.34,0,4.68,0,7a9.82,9.82,0,0,1-9.66,9.9c-1.52,0-2.32.44-2.58,1.92a4.55,4.55,0,0,1-.52,1.43c-1.61,2.78-2.11,5.05.45,8,2.73,3.14,1.9,8.15-1,11.32a91,91,0,0,1-6.5,6.53,9.61,9.61,0,0,1-13.32-.14c-1.17-1.12-2.1-1.3-3.35-.45a.76.76,0,0,1-.21.08c-3.63,1.08-6.28,2.53-6.69,7.2-.36,4-4.75,6.62-8.93,6.73-2.71.07-5.41.05-8.12,0a9.67,9.67,0,0,1-10-9.33c-.11-1.89-.86-2.49-2.46-3.16-3.27-1.36-5.93-2.79-9.43.37-2.89,2.63-7.85,1.55-10.9-1.22a90.87,90.87,0,0,1-6.52-6.5,9.56,9.56,0,0,1,.16-13.31c1.12-1.19,1.26-2.06.43-3.37a18.11,18.11,0,0,1-1.23-2.81c-1.29-3.24-1.28-3.24-4.88-3.24q-16.45,0-32.91,0c-2.8,0-4.62-1.39-5-3.66-.46-2.93,1.52-5.13,4.75-5.14,7.53,0,15.07,0,22.6,0h2.63c0-2.82,0-5.43,0-8,0-6.68,3.54-10.4,10.2-11a2.7,2.7,0,0,0,1.83-1.31c1-2.11,1.78-4.31,2.7-6.6-.46-.51-1-1.08-1.53-1.69a9.78,9.78,0,0,1,.22-13.19c1.89-2,3.88-4,5.88-5.91a9.69,9.69,0,0,1,13.81-.2c1.12,1,2,1.28,3.2.4a4.19,4.19,0,0,1,1.39-.64c3.18-.78,5-2.23,5.31-6s4.05-6.85,8.05-7.19a75.88,75.88,0,0,1,9.42-.15c5.64.23,9.38,3.87,9.78,9.53a2.4,2.4,0,0,0,2,2.6c1.73.52,3.34,1.46,5.07,2.05a2.4,2.4,0,0,0,2-.23,10.87,10.87,0,0,1,8.72-3.19V237.54H145.3v2.39c0,25.53-.05,51.06.07,76.58a23,23,0,0,0,1.56,8.3c2.11,5.29,6.09,8.13,12.08,8,7.75-.15,15.5-.05,23.25,0,3.36,0,5.37,1.69,5.34,4.43s-2.06,4.38-5.43,4.38c-7.54,0-15.08-.27-22.6.07-13.44.61-21-9.68-22.67-19.24a13.82,13.82,0,0,0-.42-1.43Zm8.93,37.68H336.28c0-2,0-3.76,0-5.57,0-10,.14-20.05-.11-30.06-.22-8.72-5.8-13.87-14.41-13.87h-21.5q-70.77,0-141.53,0a11.72,11.72,0,0,0-9.91,4.63,17.47,17.47,0,0,0-3.52,11.07v31.81C145.3,227,145.37,227.6,145.41,228.34ZM341.58,357.66c-.38-.47-.65-.9-1-1.25-.81-.85-1.66-1.66-2.48-2.49-2.14-2.2-2.19-3.72-.84-6.51a85.86,85.86,0,0,0,4.17-9.84c1.34-4,2.12-4.78,6.35-4.78,5.09,0,4.55.38,4.56-4.63,0-5.34,0-5.34-5.38-5.49-3.09-.09-4.23-1.19-5.28-4.22a88.63,88.63,0,0,0-4.16-10.08c-1.69-3.42-1.69-4.72,1-7.39,3.44-3.47,3.44-3.47,0-6.89-3.66-3.66-3.66-3.66-7.35-.08-2.41,2.34-3.91,2.39-6.86,1a98.63,98.63,0,0,0-10.48-4.32c-3.17-1.09-4.23-2.23-4.28-5.69,0-4.9,0-4.9-4.85-4.9-5.24,0-5.24,0-5.29,5.16,0,3.33-1.06,4.42-4.19,5.5a79.51,79.51,0,0,0-9.88,4.07c-3.5,1.76-4.78,1.76-7.56-1-3.85-3.78-2.88-3.78-6.77.07-3.69,3.66-3.68,3.68-.11,7.35,2.45,2.52,2.48,3.85.95,7a94,94,0,0,0-4.14,10.08c-1.08,3.16-2.26,4.25-5.69,4.3-5,.07-5,.07-5,5,0,5.93-.66,5.09,5.11,5.15,3.47,0,4.52,1,5.62,4.3a74.79,74.79,0,0,0,4,9.68c1.81,3.62,1.79,4.88-1,7.72-3.81,3.82-3.67,2.81,0,6.57s3.78,3.79,7.66.05c2.23-2.15,3.74-2.23,6.51-.89a80.83,80.83,0,0,0,9.83,4.19c4.1,1.36,4.91,2.17,4.93,6.51,0,5-.47,4.44,4.46,4.46,5.59,0,5.59,0,5.68-5.49,0-.22,0-.44,0-.66.05-2.26,1.26-3.56,3.33-4.36,4-1.56,8-3.16,11.88-4.92,2.15-1,3.94-.8,5.62.8,1,1,2,1.94,2.95,2.94.8.83,1.53,1,2.41.08,1.57-1.63,3.21-3.2,4.78-4.83A8.14,8.14,0,0,0,341.58,357.66Z" transform="translate(-1.26 0.81)"/><path class="cls-2" d="M235.45,285.06,225.63,274a14.93,14.93,0,0,1-1.26-1.5,4.4,4.4,0,0,1,.7-5.77,4.15,4.15,0,0,1,5.77,0c4.51,4.87,8.95,9.81,13.24,14.87a5.48,5.48,0,0,1-.24,7.28Q237.69,296,231.33,303a4.4,4.4,0,1,1-6.55-5.86c2.66-3.11,5.42-6.12,8.14-9.17C233.74,287,234.54,286.09,235.45,285.06Z" transform="translate(-1.26 0.81)"/><path class="cls-2" d="M171.32,285.07c3.42,3.85,6.69,7.5,9.92,11.18a8.93,8.93,0,0,1,1.62,2.31,4.29,4.29,0,0,1-1.5,5.09,4.16,4.16,0,0,1-5.44-.26c-4.56-4.94-9.06-9.94-13.39-15.09a5.44,5.44,0,0,1,.41-7.1q6.18-7.12,12.54-14.09a4.3,4.3,0,0,1,6.27-.32,4.42,4.42,0,0,1,.18,6.31c-2.73,3.16-5.54,6.23-8.31,9.34Z" transform="translate(-1.26 0.81)"/><path class="cls-2" d="M212.14,267.33c-.9,3.81-1.89,8.08-2.9,12.34q-2.82,11.82-5.66,23.65c-.1.42-.22.85-.36,1.26a4.42,4.42,0,0,1-5.28,3.14,4.3,4.3,0,0,1-3.21-5.22c1.13-5.13,2.39-10.23,3.61-15.35q2.44-10.33,4.91-20.67c.66-2.74,2.34-4.27,4.58-4.22C210.29,262.3,212.21,264.35,212.14,267.33Z" transform="translate(-1.26 0.81)"/><path class="cls-2" d="M202.91,332.8a4.33,4.33,0,0,1,4.41,4.45,4.4,4.4,0,0,1-4.33,4.34,4.53,4.53,0,0,1-4.56-4.38A4.42,4.42,0,0,1,202.91,332.8Z" transform="translate(-1.26 0.81)"/><path class="cls-2" d="M287.77,218.71c-6.66,0-13.31.11-20,0a14.8,14.8,0,0,1-3.64-29.09,15.93,15.93,0,0,1,4.11-.58c12.94,0,25.88-.1,38.82,0,6.33,0,11.13,3,13.74,8.81,2.5,5.57,1.66,10.89-2.2,15.6a14.39,14.39,0,0,1-11.57,5.28c-6.44,0-12.87,0-19.3,0Zm-.11-20.83c-6.43,0-12.87-.07-19.3,0a6,6,0,1,0,0,11.95c12.87.07,25.73,0,38.6,0a6,6,0,0,0,5.71-3.39c2-4.08-.85-8.5-5.74-8.58C300.52,197.8,294.09,197.87,287.66,197.88Z" transform="translate(-1.26 0.81)"/><path class="cls-2" d="M230.84,203.84A14.84,14.84,0,1,1,216.11,189,14.88,14.88,0,0,1,230.84,203.84Zm-8.82.1a6,6,0,0,0-6-6,5.92,5.92,0,0,0-6,5.78,6,6,0,0,0,5.82,6.17A6.1,6.1,0,0,0,222,203.94Z" transform="translate(-1.26 0.81)"/><path class="cls-2" d="M192.35,203.89A14.81,14.81,0,1,1,177.47,189,14.83,14.83,0,0,1,192.35,203.89Zm-14.87-6a6,6,0,0,0-5.9,6.08,6,6,0,0,0,11.9-.12A5.92,5.92,0,0,0,177.48,197.9Z" transform="translate(-1.26 0.81)"/><path class="cls-2" d="M304.61,300.7a27,27,0,1,1-27,27.06A27.09,27.09,0,0,1,304.61,300.7ZM286.5,327.61a18.17,18.17,0,1,0,18.16-18.06A18.18,18.18,0,0,0,286.5,327.61Z" transform="translate(-1.26 0.81)"/></svg>