<svg id="Layer_1" data-name="Layer 1" xmlns="http://www.w3.org/2000/svg" viewBox="0 0 473.84 491.2"><defs><style>.cls-1{fill:#fff0d9;}.cls-2{fill:#ffa63b;}</style></defs><title>05</title><path class="cls-1" d="M494.69,192.08c0,135.64-124.36,302.2-269.23,302.2-138.11,0-194.62-84.46-199.58-209.89-.47-11.87-1.53-23.71-3-35.5C6.83,120.23,86.64,3.08,225.46,3.08c144.87,0,269.23,53.36,269.23,189" transform="translate(-20.84 -3.08)"/><path class="cls-2" d="M319.42,338.34l-30.29,21.77c-4.13-3.91-8.25-7.7-12.21-11.65a3.69,3.69,0,0,0-4.45-1c-5.53,1.93-11.14,3.66-16.75,5.38a3.14,3.14,0,0,0-2.62,2.88c-.88,5.61-2,11.18-3.06,16.87H212.63c-.91-4.93-2-9.89-2.67-14.92-.39-3.14-1.7-4.64-4.75-5.44-5.17-1.37-10.24-3.14-15.31-4.86a3.18,3.18,0,0,0-3.81.81c-4,4-8.23,7.88-12.52,12l-30.3-21.77c2.48-5.1,4.84-10.16,7.42-15.11a3.6,3.6,0,0,0-.37-4.54c-3.56-4.57-6.95-9.26-10.3-14a3.22,3.22,0,0,0-3.6-1.58c-4.36.7-8.76,1.24-13.15,1.83-1.25.17-2.51.27-3.94.42-3.86-11.76-7.68-23.37-11.56-35.18,5.09-2.7,10-5.4,15-7.9a3.47,3.47,0,0,0,2.23-3.71c-.14-5.71-.17-11.42,0-17.13.06-2-.68-3-2.41-3.86-4.94-2.46-9.77-5.12-14.83-7.81,1.77-5.39,3.48-10.63,5.19-15.87,1.86-5.65,3.81-11.28,5.52-17,.6-2,1.53-2.46,3.46-2.15,4.71.76,9.45,1.28,14.15,2a3.61,3.61,0,0,0,4.05-1.7c3.32-4.74,6.76-9.4,10.27-14a3.3,3.3,0,0,0,.42-4.1c-2.6-5-5-10.06-7.58-15.37l30.3-21.8c4.32,4.1,8.55,8,12.68,12.08a2.88,2.88,0,0,0,3.36.82c5.8-1.94,11.64-3.8,17.48-5.63a3,3,0,0,0,2.46-2.73c.89-5.62,2-11.2,3.07-16.95h37.44c1,5.68,2.17,11.33,3.1,17a2.78,2.78,0,0,0,2.26,2.58q8.78,2.72,17.48,5.64a3.06,3.06,0,0,0,3.6-.78c4.06-4,8.24-7.89,12.63-12.05l30.29,21.77c-2.57,5.27-5,10.4-7.6,15.46a3.12,3.12,0,0,0,.32,3.88c3.62,4.73,7.14,9.55,10.6,14.4a3.07,3.07,0,0,0,3.38,1.5c4.79-.74,9.62-1.27,14.41-2,2-.32,3,0,3.68,2.15q4.79,15.21,9.94,30.3c.73,2.13.19,3-1.66,3.88-4.43,2.17-8.73,4.61-13.12,6.85a2.63,2.63,0,0,0-1.69,2.74q.13,9.19,0,18.4a2.79,2.79,0,0,0,1.85,2.89c4.54,2.34,9,4.81,13.56,7.11,1.42.72,1.73,1.45,1.22,3q-5.24,15.6-10.27,31.26c-.54,1.69-1.32,2.05-2.93,1.81-4.8-.74-9.62-1.29-14.41-2.06a3.79,3.79,0,0,0-4.25,1.8c-3.31,4.76-6.76,9.41-10.27,14a3.14,3.14,0,0,0-.39,3.88C314.38,327.89,316.82,333,319.42,338.34ZM172.83,349.51c3.9-3.69,7.69-7.35,11.59-10.89a3.21,3.21,0,0,1,2.56-.71q13.89,4.3,27.69,8.88a3.5,3.5,0,0,1,1.87,2.22c1,4.49,1.66,9,2.6,13.53.16.74,1.08,1.87,1.67,1.88,7.4.13,14.8.08,22.37.08,1-5.23,1.86-10.34,2.93-15.4a3.42,3.42,0,0,1,1.8-2.27c9.11-3,18.28-5.92,27.41-8.91a2.66,2.66,0,0,1,3.12.74c3.7,3.64,7.51,7.16,11.41,10.85L309,335.73c-2.33-4.75-4.52-9.35-6.82-13.9a2.76,2.76,0,0,1,.2-3.41q8.5-11.35,16.81-22.84a2.62,2.62,0,0,1,2.95-1.25c5.12.77,10.25,1.38,15.51,2.07,2.45-7.48,4.85-14.8,7.29-22.23-4.7-2.5-9.17-5-13.72-7.25a2.8,2.8,0,0,1-1.75-3q.09-13.94,0-27.86A3,3,0,0,1,331.4,233c4.54-2.29,9-4.74,13.58-7.19-2.48-7.53-4.89-14.85-7.32-22.21-5.3.69-10.36,1.27-15.39,2.07a2.83,2.83,0,0,1-3.15-1.38q-8.25-11.37-16.65-22.64a2.8,2.8,0,0,1-.32-3.41c2.36-4.59,4.56-9.25,6.87-14l-19.17-13.78c-3.84,3.64-7.65,7.16-11.34,10.79a2.87,2.87,0,0,1-3.35.77q-13.46-4.42-27-8.68a2.8,2.8,0,0,1-2.23-2.61c-.68-4.45-1.51-8.89-2.45-13.3-.15-.74-1.08-1.86-1.67-1.87-7.4-.13-14.8-.09-22.37-.09-1,5.24-2,10.32-2.82,15.43a2.65,2.65,0,0,1-2.12,2.42q-13.62,4.31-27.2,8.74a2.66,2.66,0,0,1-3.11-.76c-3.71-3.64-7.51-7.16-11.39-10.83l-19.19,13.79c2.32,4.74,4.51,9.35,6.82,13.89a2.8,2.8,0,0,1-.21,3.42q-8.5,11.34-16.81,22.84a2.64,2.64,0,0,1-3,1.24c-5.11-.78-10.25-1.4-15.49-2.1-2.47,7.51-4.87,14.83-7.3,22.24,4.64,2.46,9,4.88,13.51,7.13a3,3,0,0,1,2,3.1q-.12,13.94,0,27.86a3,3,0,0,1-1.89,3.15c-4.54,2.28-9,4.74-13.59,7.18,2.48,7.52,4.89,14.84,7.32,22.23,5.31-.71,10.37-1.3,15.4-2.1a2.79,2.79,0,0,1,3.14,1.38q8.26,11.37,16.66,22.64a2.79,2.79,0,0,1,.3,3.41c-2.35,4.59-4.56,9.25-6.86,14Z" transform="translate(-20.84 -3.08)"/><path class="cls-2" d="M231.44,164.09a85.89,85.89,0,1,1-86,85.71A86,86,0,0,1,231.44,164.09Zm-77.82,85.75a77.71,77.71,0,1,0,77.86-77.57A77.86,77.86,0,0,0,153.62,249.84Z" transform="translate(-20.84 -3.08)"/><path class="cls-2" d="M284.5,250c0,9,0,18.06,0,27.08a12.84,12.84,0,0,1-6.85,12q-19.76,11.47-39.47,23a12.75,12.75,0,0,1-13.78,0Q204.73,300.47,185,289a12.83,12.83,0,0,1-6.82-12q.08-27.09,0-54.17a12.81,12.81,0,0,1,6.86-12q19.76-11.46,39.46-23a12.6,12.6,0,0,1,13.56-.12q20,11.61,39.9,23.29a12.54,12.54,0,0,1,6.58,11.6Q284.48,236.34,284.5,250Zm-8.18-25.49c-1.21.65-2.1,1.1-2.95,1.6-12,7-23.93,14-36,20.88-1.42.82-2,1.53-2,3.26.07,17.1,0,34.21.05,51.32,0,.73.06,1.46.11,2.46.89-.47,1.56-.79,2.2-1.17,11.68-6.8,23.32-13.67,35.05-20.39a6.46,6.46,0,0,0,3.59-6.39c-.11-16.26-.06-32.52-.06-48.77Zm-49.38,79.37c.15-.31.27-.45.27-.59q0-27,0-53.93c0-.53-.19-1.31-.55-1.52-2.44-1.47-5-2.81-8-4.47V264.8c-8.19-4.81-15.89-9.3-23.53-13.9a3.21,3.21,0,0,1-.92-2.37c-.08-5.79,0-11.59-.07-17.38,0-.81,0-2-.51-2.35-2.25-1.55-4.66-2.85-7.34-4.43,0,17.8,0,35,0,52.21a5.93,5.93,0,0,0,3.36,5.74c11.8,6.79,23.54,13.69,35.31,20.55C225.6,303.24,226.28,303.55,226.94,303.89ZM222.47,236c2,1.18,3.74,2.08,5.34,3.18,2.41,1.66,4.62,1.48,7.1,0,11.71-6.94,23.49-13.76,35.24-20.64.61-.35,1.17-.79,2-1.34-12.67-7.4-25-14.56-37.33-21.83a6.07,6.07,0,0,0-6.88,0c-11.71,6.93-23.5,13.74-35.25,20.61-.63.36-1.21.8-2.11,1.4,2.55,1.49,4.86,2.72,7,4.17a2.56,2.56,0,0,0,3.2-.07c5.44-3.33,11-6.54,16.39-9.89a2.57,2.57,0,0,1,3.19,0c2.36,1.52,4.83,2.86,7.25,4.29l14.29,8.43Zm-15.2-8.86c2.28,1.33,4.22,2.49,6.2,3.59a1.76,1.76,0,0,0,1.38.22c3.63-2.1,7.22-4.27,11.07-6.57-2.24-1.33-4-2.46-5.91-3.44a2.49,2.49,0,0,0-2-.18C214.46,222.7,211,224.83,207.27,227.09Zm-4.86,6.69c0,4,0,7.5,0,11a1.74,1.74,0,0,0,.61,1.28c2.34,1.47,4.73,2.85,7.52,4.51,0-4.06,0-7.54,0-11a2.25,2.25,0,0,0-1-1.58C207.38,236.59,205.15,235.36,202.41,233.78Z" transform="translate(-20.84 -3.08)"/></svg>