<svg id="Layer_1" data-name="Layer 1" xmlns="http://www.w3.org/2000/svg" viewBox="0 0 494.68 491.2"><defs><style>.cls-1{fill:#d7ffec;}.cls-2{fill:#68cecf;}</style></defs><title>02</title><path class="cls-1" d="M494.69,192.08c0,135.64-124.36,302.2-269.23,302.2S0,393.5,0,257.86,80.6,3.08,225.46,3.08s269.23,53.36,269.23,189" transform="translate(0 -3.08)"/><path class="cls-2" d="M228.55,234.58h-8.18c0-1.14,0-2.17,0-3.19-.06-3.57-1.54-5.06-5.15-5.06q-20.19,0-40.37,0H153.39c0,1-.12,1.79-.12,2.63,0,5.85,0,11.7,0,17.56,0,8-5.28,13.32-13.27,13.36-6.46,0-12.93,0-19.39,0a7.57,7.57,0,0,0-.89.18v94.41c0,4.83,1.22,6.05,6,6.05h88.59c4.82,0,6.05-1.22,6.05-6q0-5,0-10a2.85,2.85,0,0,0-.2-.66c-2.55-.32-4.58-.53-6.26,2.61-2.62,4.91-8.82,6.72-14.17,5a12.56,12.56,0,0,1,.6-24.08,12.1,12.1,0,0,1,13.95,5.66c1.08,2,2.32,2.32,4.3,2.3,8.89-.09,17.79,0,27,0V321.11c0-3.32,0-6.64,0-10,0-3.62,1.49-5.11,5.08-5.13,6.55,0,13.1,0,19.91,0,.06-.81.16-1.55.16-2.29,0-5.6,0-11.19,0-16.78,0-4.95,1.17-6.09,6.22-6.09h18.94V270.6c0-3.32,0-6.64,0-10s1.55-4.93,5-4.95c6.62,0,13.24,0,20.17,0V237.75c0-1,0-1.93,0-2.89.15-2.64,1.66-4.29,4.29-4.31q12.44-.11,24.89,0c2.64,0,4.17,1.64,4.34,4.27.05.78,0,1.57,0,2.35v98.15h8.2v8.42h-134c0,4.1,0,7.92,0,11.74,0,8.19-5.26,13.43-13.45,13.44q-45.21,0-90.43,0c-8.35,0-13.55-5.23-13.55-13.6q0-47.56,0-95.14a14.35,14.35,0,0,1,4.5-10.76q13.59-13.46,27.06-27a14.34,14.34,0,0,1,10.77-4.47c20.1.07,40.19.3,60.28-.09C223,217.63,230.24,223.71,228.55,234.58ZM329.61,239v96.23h16.45V239Zm-25.17,25.17v71H320.9v-71Zm-25.13,25.15v45.88H295.7V289.34Zm-25.24,25.18v20.69h16.45V314.52ZM126.48,251.44c4.81,0,9.76.21,14.68-.14,1.25-.09,3.32-1.85,3.4-3,.36-5.14.16-10.32.16-15.06Zm77,92.3a4.18,4.18,0,1,0-4.06-4.23A4.24,4.24,0,0,0,203.48,343.74Z" transform="translate(0 -3.08)"/><path class="cls-2" d="M282.91,220c-9,9-18.08,17.86-26.82,27-3.15,3.3-6.37,4.89-11,4.56-5.3-.38-10.64-.09-16.25-.09v75.33h-8.42V251.49c-2.86,0-5.54-.14-8.19.1-.71.07-1.47,1.22-1.95,2a12.59,12.59,0,1,1-10.36-18.88,12,12,0,0,1,10.52,6.7,2.68,2.68,0,0,0,2.8,1.69c11-.06,22,0,33-.07a3.91,3.91,0,0,0,2.54-.89q13.23-13.08,26.33-26.3a1.16,1.16,0,0,0,.2-.45c-26.72-20.34-27.44-58.09-7.52-80.23a54.7,54.7,0,0,1,87.94,64.13C341.8,223.27,310.61,234.16,282.91,220Zm21.35-93.89c-17.92,0-36,15.71-40.71,35a46.14,46.14,0,0,0,24,51.74c17.78,9.21,38.36,4.4,48-4.3-9.74-11-19.54-21.88-29.16-33a9,9,0,0,1-2-5.33c-.17-13.8-.09-27.59-.09-41.39Zm50,41.38c-2.1-25.78-25-41.22-41.4-41.26V167.5Zm-36.34,8.6,24.23,27.23c7.13-8,11.24-16.81,12.2-27.23Zm-118.56,67a4.18,4.18,0,1,0,4.25,4A4.22,4.22,0,0,0,199.33,243.11Z" transform="translate(0 -3.08)"/><path class="cls-2" d="M205.63,172.91c6.4-5.48,12.72-10.83,18.93-16.32.53-.46.57-1.84.38-2.69-1.13-5.22.31-9.58,4.41-12.87a11.72,11.72,0,0,1,13.49-1.37,12,12,0,0,1,6.85,11.74,12.46,12.46,0,0,1-16.34,11.35,3.49,3.49,0,0,0-3.94.78c-6.7,5.86-13.52,11.59-20.23,17.45a7.52,7.52,0,0,0-1.92,3c-1.89,5-5.41,8.17-10.76,8.73s-9.69-1.79-12.35-6.62a2.68,2.68,0,0,0-2.79-1.69c-4.72.09-9.43.07-14.15,0a2.7,2.7,0,0,0-2.85,1.6,12.17,12.17,0,0,1-14.85,6.17,2.69,2.69,0,0,0-3.14.88c-3.11,3.19-6.21,6.39-9.46,9.43a3.25,3.25,0,0,0-.95,3.85A12.31,12.31,0,0,1,130.84,220a12.56,12.56,0,1,1-6.38-23,1.82,1.82,0,0,1,.78.06c3.71,2,5.88-.32,8.07-2.8,1.21-1.38,2.56-2.63,3.87-3.91,2.62-2.55,5-4.56,3.78-9.37-1.44-5.48,3-11.06,8.53-12.77a12.31,12.31,0,0,1,14.6,5.76,3.41,3.41,0,0,0,3.63,2.08c4.62-.11,9.25,0,13.88-.08a2.92,2.92,0,0,0,2.1-.95C189.65,166,198.07,165,205.63,172.91Zm35.7-22.12a4.18,4.18,0,1,0-4.08,4.21A4.2,4.2,0,0,0,241.33,150.79Zm-83.89,29.29a4.18,4.18,0,1,0-4,4.28A4.2,4.2,0,0,0,157.44,180.08Zm41.94.19a4.18,4.18,0,1,0-4.2,4.09A4.21,4.21,0,0,0,199.38,180.27ZM124,205.37a4.18,4.18,0,1,0,4.07,4.21A4.22,4.22,0,0,0,124,205.37Z" transform="translate(0 -3.08)"/><path class="cls-2" d="M207.61,297.5h-50v-8.07h50Z" transform="translate(0 -3.08)"/><path class="cls-2" d="M132.43,310.31h41.62v8.13H132.43Z" transform="translate(0 -3.08)"/><path class="cls-2" d="M132.41,276.47V268.4h24.84v8.07Z" transform="translate(0 -3.08)"/><path class="cls-2" d="M182.76,318.42v-8.09h24.83v8.09Z" transform="translate(0 -3.08)"/><path class="cls-2" d="M157.58,339.38v-8.07h24.84v8.07Z" transform="translate(0 -3.08)"/><path class="cls-2" d="M186.67,276.53H166.05v-8.09h20.62Z" transform="translate(0 -3.08)"/><path class="cls-2" d="M132.46,289.28h16.4v8.16h-16.4Z" transform="translate(0 -3.08)"/><path class="cls-2" d="M149,331.36v8.07H132.51v-8.07Z" transform="translate(0 -3.08)"/><path class="cls-2" d="M178.28,255.56H166v-8.1h12.24Z" transform="translate(0 -3.08)"/><path class="cls-2" d="M207.69,268.47v8H195.35v-8Z" transform="translate(0 -3.08)"/></svg>