<svg id="Layer_1" data-name="Layer 1" xmlns="http://www.w3.org/2000/svg" viewBox="0 0 485.89 497.6"><defs><style>.cls-1{fill:#dcf8ff;}.cls-2{fill:#2b9bf7;}</style></defs><title>06</title><path class="cls-1" d="M7.1,251.2C5,93.33,72.43,2.4,227.16,2.4s203,131.38,253.49,260.39C538.49,410.49,381.9,500,227.16,500S9.27,412.07,7.1,251.2" transform="translate(-7.06 -2.4)"/><path class="cls-2" d="M227.91,337.15V326.6h-2.54q-26.73,0-53.47,0c-11.74,0-20.61-7.58-22.47-19.11a26.19,26.19,0,0,1-.23-4.16q0-54.24,0-108.48c0-13.75,9.22-23.06,23-23.22h3V169q0-12.66,0-25.31c0-3.75,1.22-4.94,5-4.94h140c3.51,0,4.72,1.18,4.73,4.73,0,9.24,0,18.48,0,28.18,1.53,0,2.95,0,4.37,0,11.1.45,19.44,7.7,21.33,18.58a27.19,27.19,0,0,1,.27,4.6q0,54.24,0,108.48c0,14-9.35,23.27-23.35,23.28-2.71,0-5.42,0-8.14,0-3,0-5-1.85-5-4.4s2-4.35,5-4.38,6.16,0,9.24,0A13.2,13.2,0,0,0,342,304.26c0-2.41,0-4.83,0-7.41H157.78c.25,3.82.05,7.75.87,11.46,1.24,5.68,6.65,9.4,12.8,9.47,5,.06,10,0,15,0h95.5c.81,0,1.61,0,2.42,0a4.29,4.29,0,0,1,4.39,4.26,4.36,4.36,0,0,1-4.44,4.49c-3,.1-6,0-9,0h-3.13v10.57a22.5,22.5,0,0,1,14.72,6.24,21.33,21.33,0,0,1,6.7,14.85c.15,3.73-1.49,5.38-5.26,5.38H212.38c-4.73,0-6.47-2-5.83-6.76C208.06,345.75,215.84,338.48,227.91,337.15Zm-52.75-49.39v-55.7c0-.66,0-1.32,0-2a4.38,4.38,0,0,1,8.75,0c.06.65,0,1.32,0,2v55.69H315.86V175.85H184v10.08c0,3.3.05,6.6,0,9.9a4.39,4.39,0,0,1-4.45,4.48,4.45,4.45,0,0,1-4.3-4.43c-.08-3.3,0-6.6,0-9.9v-5.36c-12-1.6-17.38,6.61-17.29,15.21.32,29.77.12,59.55.12,89.32v2.61ZM316,147.28H184.12v19.41H316Zm9,33.39v107h16.95c0-.7.08-1.2.08-1.71q0-46,0-92a14.88,14.88,0,0,0-.26-3.06C340.1,183.48,333.6,179.46,325,180.67ZM283.82,354.76a12.4,12.4,0,0,0-11.44-8.67q-22.31-.15-44.6,0a12.28,12.28,0,0,0-11.51,8.67Zm-46.88-28.05V337H263V326.71Z" transform="translate(-7.06 -2.4)"/><path class="cls-2" d="M250.15,302.86a4.29,4.29,0,0,1,4.24,4.41,4.43,4.43,0,0,1-4.37,4.34,4.52,4.52,0,0,1-4.39-4.58A4.39,4.39,0,0,1,250.15,302.86Z" transform="translate(-7.06 -2.4)"/><path class="cls-2" d="M305,322.28a4.41,4.41,0,0,1-4.35,4.3,4.52,4.52,0,0,1-4.41-4.51,4.4,4.4,0,0,1,4.62-4.24A4.29,4.29,0,0,1,305,322.28Z" transform="translate(-7.06 -2.4)"/><path class="cls-2" d="M290.19,232.7c-5.39-5.38-10.65-10.49-15.71-15.78a6.12,6.12,0,0,1-1.71-4.2c.11-1.24,1.42-2.67,2.59-3.42,1.54-1,3.31-.44,4.64.83,2.07,2,4.06,4,6.09,6q6.3,6.3,12.59,12.6c2.78,2.8,2.8,5,0,7.75q-8.93,9-17.89,17.89c-2.38,2.37-5.05,2.65-6.95.78s-1.76-4.51.67-6.94C279.69,243.12,284.84,238,290.19,232.7Z" transform="translate(-7.06 -2.4)"/><path class="cls-2" d="M209.6,232.4c5.42,5.41,10.46,10.42,15.48,15.45a11.92,11.92,0,0,1,1.72,2,4.24,4.24,0,0,1-.72,5.42,4.5,4.5,0,0,1-5.49.42,11.08,11.08,0,0,1-1.3-1.18q-9-9-18-18.05c-2.7-2.7-2.69-4.85,0-7.56,6.11-6.14,12.21-12.28,18.37-18.35,2.81-2.78,6.92-1.76,7.73,1.84.45,1.94-.5,3.38-1.81,4.68-4.62,4.61-9.23,9.24-13.86,13.83A18,18,0,0,1,209.6,232.4Z" transform="translate(-7.06 -2.4)"/><path class="cls-2" d="M237.15,251.61a13.92,13.92,0,0,1,.63-2q8.19-18.48,16.42-36.93c1.15-2.57,2.88-3.64,5.08-3.23,3.13.58,4.41,3.51,2.93,6.87q-6,13.56-12,27.09c-1.55,3.47-3,7-4.65,10.42a4.25,4.25,0,0,1-5.09,2.47C238.52,255.84,237.18,254.13,237.15,251.61Z" transform="translate(-7.06 -2.4)"/><path class="cls-2" d="M184,213.17a4.46,4.46,0,0,1-4.36,4.31,4.51,4.51,0,0,1-4.41-4.5,4.39,4.39,0,0,1,8.77.19Z" transform="translate(-7.06 -2.4)"/><path class="cls-2" d="M276.66,161.34H254.24a4.23,4.23,0,0,1-4.39-3,3.78,3.78,0,0,1,1.38-4.68,7.36,7.36,0,0,1,3.67-1.09c2.92-.15,5.86-.05,8.79-.05h33.86a15.3,15.3,0,0,1,2.62.15,4.2,4.2,0,0,1,3.64,4.5,4.12,4.12,0,0,1-4.07,4.08c-3.44.12-6.89.06-10.33.06Z" transform="translate(-7.06 -2.4)"/><path class="cls-2" d="M194.91,161.31a4.36,4.36,0,0,1-4.28-4.4A4.44,4.44,0,0,1,195,152.6a4.38,4.38,0,0,1,4.35,4.55A4.28,4.28,0,0,1,194.91,161.31Z" transform="translate(-7.06 -2.4)"/><path class="cls-2" d="M211.12,161.32A4.28,4.28,0,0,1,206.8,157a4.37,4.37,0,0,1,4.28-4.4,4.48,4.48,0,0,1,4.48,4.47A4.38,4.38,0,0,1,211.12,161.32Z" transform="translate(-7.06 -2.4)"/><path class="cls-2" d="M231.6,157a4.26,4.26,0,0,1-4.26,4.37,4.35,4.35,0,0,1-4.46-4.43,4.4,4.4,0,0,1,4.41-4.29A4.33,4.33,0,0,1,231.6,157Z" transform="translate(-7.06 -2.4)"/></svg>