<svg id="Layer_1" data-name="Layer 1" xmlns="http://www.w3.org/2000/svg" viewBox="0 0 496.01 488.74"><defs><style>.cls-1{fill:#e9e3ff;}.cls-2{fill:#c964cc;}</style></defs><title>03</title><path class="cls-1" d="M480.28,256.28C540.84,402.74,417.56,495.15,269,495.15S0,388.21,0,256.28,119.81,6.41,268.36,6.41,470.77,68.12,480.28,256.28" transform="translate(-0.03 -6.41)"/><path class="cls-2" d="M332.76,364.86H170.21c-5.25-1.23-8.89-4.58-12-8.81-2.1-2.91-4.52-5.58-6.67-8.46a4.49,4.49,0,0,0-3.9-2,11.21,11.21,0,0,1-11.12-11.2c-.09-5.23-.09-10.48,0-15.71a10.71,10.71,0,0,1,5.62-9.61,39.15,39.15,0,0,1,5.88-2.19V304.3c0-39.21.12-78.43-.09-117.64,0-8.47,5.39-13.7,13.62-13.5,11.67.29,23.35,0,35,.12a3.26,3.26,0,0,0,3.38-2.11c11.87-22.25,30.44-35,55.6-36,27.92-1.09,48.62,11.7,61.84,36.37a2.64,2.64,0,0,0,2.72,1.7c7.56-.07,15.12,0,22.67,0a11.78,11.78,0,0,1,9.25,3.8c2.3,2.55,2.86,5.61,2.86,8.94q-.06,59.16,0,118.32v2.84c7.14,1.59,8.79,3,11.53,9.69v19.75c-2.13,5.85-6,9.3-12.51,9.16A3.13,3.13,0,0,0,352,347c-2.48,3-5,6-7.28,9.11C341.65,360.3,338,363.64,332.76,364.86ZM293.66,292v-2.62c0-10.77.21-21.55-.08-32.32-.15-5.52,1.75-9.54,5.62-13.46,15-15.23,20.51-33.71,16.17-54.56-6.48-31.19-35.35-50.95-66.75-45.42-23.07,4.06-38.13,18.09-45.51,40.31a3.55,3.55,0,0,0,0,2.53c2.09,4,1.25,7.47-1.21,10.9-4.7,6.57-9.34,13.18-14,19.77-.44.62-.82,1.28-1.42,2.21,4.06,0,7.65-.06,11.24,0a3.7,3.7,0,0,1,3.9,3.75,3.86,3.86,0,0,1-3.63,3.85c-.71.09-1.42.12-2.07.17l-.45,6.58c4.11,2.14,4.95,4,4,8.33a37.94,37.94,0,0,1,2.93,4.1c1,1.87.52,3.59-1.09,5-3.29,2.89-4.22,5.79-3,9.09s4,5,8.38,5c13.32,0,26.64-.07,40,0,5.84.05,10.24-2.13,13.2-7.23,1.31-2.26,3.34-2.87,5.29-1.8s2.58,3.26,1.33,5.6a19.17,19.17,0,0,1-10.64,9.49,30.32,30.32,0,0,1-8.53,1.5c-5,.24-10,.07-14.94.07V292Zm27.67-110.9c.68,2.51.83,5.2,2.16,7,.69.95,3.48.38,5.32.47.6,0,1.2,0,1.8,0,6.1,0,9,2.87,9,8.91v93.39c0,5.92-2.92,8.85-8.79,8.85H172.29c-6,0-8.89-2.89-8.89-9V197.6c0-6.18,2.84-9,9.09-9,6.81,0,13.62,0,20.43,0h2l.64-7.58c-.59,0-1.31-.1-2-.1H161.2c-4.35,0-5.46,1.11-5.46,5.42V307.39h59.55c6.59,0,9.29,2.66,9.35,9.18,0,.72.08,1.43.12,2.12h53.51a14.56,14.56,0,0,0,.07-1.77c-.65-6.27,3.47-9.7,9.68-9.62,18.78.24,37.56.09,56.35.09h2.75c.05-.71.12-1.22.12-1.73q0-60.17,0-120.32c0-3.21-1.26-4.41-4.56-4.43q-9.65,0-19.3,0C322.8,180.91,322.22,181,321.33,181.07ZM217,315.21a8.22,8.22,0,0,0-1-.16q-33.76,0-67.55,0c-2.79,0-4.22,1.53-4.25,4.39,0,4.34,0,8.68,0,13s1.06,5.54,5.54,5.54H353.29c4.44,0,5.5-1.07,5.5-5.58v-11.9c0-4.31-1.16-5.48-5.42-5.48H286.11c-.05.76-.09,1.2-.1,1.64-.11,7.41-2.65,9.9-10.08,9.9H246.08c-6.73,0-13.46,0-20.2,0-5.83,0-8.88-3-8.91-8.81ZM193.11,196.45H171.19V292h53.44c0-5.11,0-10.1,0-15.09,0-3-.94-4-4-4-5.16,0-10.33.05-15.49,0a15,15,0,0,1-14.32-11.16,15.35,15.35,0,0,1,2.32-13.2c-2.84-3-3.12-3.93-2.41-7.9-3.67-2.66-4.2-4.32-2.93-8.83a13.92,13.92,0,0,0,.39-2.41c.15-1.56-.23-2.34-2.15-2.48-6.33-.45-9.32-6.9-5.77-12.2,1.58-2.36,3.27-4.64,4.91-7C187.74,204.06,190.32,200.41,193.11,196.45ZM159.89,345.74c2.38,3,4.48,5.57,6.54,8.2a8.11,8.11,0,0,0,6.79,3.28q78.25,0,156.49-.05c1.44,0,3.33-.17,4.24-1.05,3.2-3.12,6.07-6.58,9.06-9.91l-.49-.47ZM324.27,196.39c0,1.07,0,2,0,2.84-.24,4.32-.16,8.69-.81,13a65.12,65.12,0,0,1-20.25,38.29,5.7,5.7,0,0,0-1.91,4.54c0,11.59,0,23.18,0,34.77,0,.72.07,1.44.11,2.14h30.36V196.39Z" transform="translate(-0.03 -6.41)"/><path class="cls-2" d="M232.56,162.47c1.94.81,3.74,1.72,5.65,2.3a11,11,0,0,0,3.29,0c.14,0,.28-.14.42-.17,3.7-.74,5.61-3.16,6.48-6.7.6-2.42,2.35-3.56,4.81-3.57,2.84,0,5.68,0,8.52,0a4.21,4.21,0,0,1,4.19,3.13,3,3,0,0,1,.17.41c.64,4.61,4.21,6.09,7.94,7.31a3.81,3.81,0,0,0,2.28-.42c6.53-2.68,5.86-3.87,12.51,2.64.21.21.39.46.62.65,3.32,2.79,4.29,6,1.72,9.8-2.44,3.61.43,6.41,1.66,9.27.48,1.1,2.79,1.54,4.35,2,2.67.79,4,2.47,4,5.23,0,2.91-.07,5.82-.17,8.73a3.88,3.88,0,0,1-2.81,3.67,3,3,0,0,1-.62.25c-4.44.67-6.07,4-7.24,7.72a4,4,0,0,0,0,1.69,4.36,4.36,0,0,0,.42,1c2.84,6.65,2.84,6.66-2.26,11.81-.26.26-.56.5-.8.78-2.93,3.5-6.13,4.4-10.4,2-3.57-2-8.73.36-10.26,4.17-2.3,5.72-2.56,5.93-8.68,6-1.94,0-3.88-.19-5.82-.28a4.11,4.11,0,0,1-4-3.07,2.37,2.37,0,0,1-.17-.41c-.61-4.49-4-6.08-7.71-7.22a4.53,4.53,0,0,0-2.73.44c-6.11,2.51-5.53,3.71-11.81-2.29-.16-.15-.31-.32-.47-.48-4.71-4.87-4.78-4.9-2-11.07.75-1.67.44-2.95,0-4.6-1-3.53-3.19-5.3-6.53-6.15-2.72-.69-3.85-2.62-3.82-5.34s0-5.24.06-7.85a4.29,4.29,0,0,1,3.17-4.39,5.36,5.36,0,0,1,.62-.25c4.71-.49,5.75-4.35,7.09-7.85a3.71,3.71,0,0,0-.43-2.28c-2.7-6.61-3.81-5.89,2.66-12.5a26.38,26.38,0,0,1,3.39-2.94A15.52,15.52,0,0,1,232.56,162.47Zm61.05,35.77c.52-1.79-.48-2.57-2-3-.86-.25-1.66-.7-2.51-1a5.45,5.45,0,0,1-3.75-4.07,33.1,33.1,0,0,0-2.56-6.19,5.55,5.55,0,0,1-.19-5.54c.43-.86.7-1.82,1.19-2.65.81-1.36.37-2.27-.68-3.29s-2-1.72-3.45-.78c-.75.47-1.68.64-2.46,1.07a5.64,5.64,0,0,1-5.93-.23,28.92,28.92,0,0,0-6-2.48,5.29,5.29,0,0,1-4-3.76c-.26-.85-.75-1.64-1-2.5a2.51,2.51,0,0,0-2.87-2.07c-1.64,0-2.7.37-3.1,2.09-.17.72-.6,1.37-.8,2.09a5.58,5.58,0,0,1-4.65,4.28,10.58,10.58,0,0,0-3.94,1.54c-3.32,2.4-6.54,2-9.79,0-1.48-.9-2.49-.5-3.67.68s-1.39,2.18-.55,3.51c2.11,3.35,2.28,6.66-.14,10a5.39,5.39,0,0,0-.93,2.27c-.59,4-3.07,6.11-6.84,7-1.64.37-2.14,1.35-2.13,3.06s.57,2.44,2.09,2.82c3.7.92,6.3,2.91,6.88,7a5.54,5.54,0,0,0,1,2.47c2.48,3.27,2.05,6.52.08,9.78-.88,1.46-.58,2.49.65,3.67s2.11,1.45,3.5.61c3.35-2,6.67-2.28,10,.16a5.81,5.81,0,0,0,2.48,1c3.75.55,5.73,2.86,6.61,6.36a6,6,0,0,0,.67,1.66,1.77,1.77,0,0,0,.94.79c2.35.67,3.69,0,4.61-2.33.3-.76.67-1.51.91-2.29a5.18,5.18,0,0,1,3.9-3.6,36.1,36.1,0,0,0,6.39-2.67,5.43,5.43,0,0,1,5.33-.2c.87.43,1.83.7,2.66,1.19,1.43.87,2.39.42,3.49-.68s1.55-2.07.67-3.49c-.46-.76-.69-1.65-1.1-2.45a5.71,5.71,0,0,1,.22-5.74c1.13-2.08,1.68-4.48,2.8-6.57a11.09,11.09,0,0,1,3-3.31,8.89,8.89,0,0,1,3.08-1.28C293.2,200.71,294,199.93,293.61,198.24Z" transform="translate(-0.03 -6.41)"/><path class="cls-2" d="M157.54,330.32c-3.83,0-5.69-1.23-5.68-3.79s1.92-3.85,5.71-3.84a15.94,15.94,0,0,1,2.68.12,3.78,3.78,0,0,1-.47,7.5C159,330.37,158.29,330.32,157.54,330.32Z" transform="translate(-0.03 -6.41)"/><path class="cls-2" d="M176.79,330.33c-.67,0-1.35,0-2,0a3.68,3.68,0,0,1-3.69-3.7,3.75,3.75,0,0,1,3.55-3.88,26.75,26.75,0,0,1,3.8,0c2.49.11,4,1.63,4,3.87s-1.57,3.67-4.1,3.76c-.52,0-1,0-1.56,0Z" transform="translate(-0.03 -6.41)"/><path class="cls-2" d="M274.43,198.26a17.22,17.22,0,0,1-34.44,0,17.22,17.22,0,1,1,34.44,0Zm-7.65-.17a9.55,9.55,0,1,0-9.45,9.64A9.51,9.51,0,0,0,266.78,198.09Z" transform="translate(-0.03 -6.41)"/></svg>