<svg id="Layer_1" data-name="Layer 1" xmlns="http://www.w3.org/2000/svg" viewBox="0 0 485.89 497.6"><defs><style>.cls-1{fill:#e4e7ff;}.cls-2{fill:#3c80ce;}</style></defs><title>04</title><path class="cls-1" d="M492.9,251.2C495,409.07,427.57,500,272.84,500S69.87,368.63,19.35,239.61C-38.49,91.91,118.1,2.4,272.84,2.4S490.73,90.33,492.9,251.2" transform="translate(-7.06 -2.4)"/><path class="cls-2" d="M202.48,357.93c-2.55-1.33-5.34-2.34-7.58-4.06a12.38,12.38,0,0,1-4.61-9.45c-.06-1-.08-2.09-.08-3.13V276.06c0-8.26,0-16.52,0-24.78,0-9.59,6.05-15.56,15.64-15.57q12.82,0,25.64,0H234c0-.9.1-1.64.1-2.37,0-4.59,0-9.17,0-13.76a11.41,11.41,0,0,1,11.74-11.71q27.61-.06,55.23,0a11.57,11.57,0,0,1,11.85,11.89c0,5.2,0,10.41,0,16h2.3q12.93,0,25.85,0c8.1,0,13.16,3.86,15.33,11.65a2,2,0,0,0,.32.51v98a61.59,61.59,0,0,1-3.85,7.23c-1.95,2.75-5.15,3.81-8.24,4.86ZM197,283c0,.63-.13,1.11-.13,1.59,0,19.38,0,38.76,0,58.15,0,5.33,3.28,8.47,8.66,8.48H341.23c5.61,0,8.81-3.19,8.82-8.76q0-28.86,0-57.73c0-.57-.08-1.14-.11-1.55a59.93,59.93,0,0,1-6.83,2.2c-12.85,2.56-25.74,5-38.61,7.48-4.54.87-9.07,1.76-13.67,2.65,0,2.15,0,4.09,0,6-.13,9.94-7.68,17.6-17.33,17.61s-17.16-7.59-17.32-17.59c0-2,0-4,0-6-.69-.2-1.21-.4-1.75-.5-11.92-2.26-23.88-4.39-35.77-6.81C211.47,286.8,204,286.41,197,283Zm93.81,5.71c14.39-2.75,28.42-5.41,42.44-8.14a99.85,99.85,0,0,0,11.52-2.7c3.56-1.16,5.37-3.87,5.3-7.82-.11-6,0-12.08,0-18.12,0-6.78-2.83-9.62-9.61-9.62H272.72c-12.22,0-24.45.07-36.67.07-10.28,0-20.56-.08-30.84,0-4.7,0-8.13,2.95-8.24,7.34-.17,7.15,0,14.3,0,21.46a6.49,6.49,0,0,0,3.75,6,20.23,20.23,0,0,0,5.45,1.93c13.48,2.63,27,5.17,40.47,7.73,3.1.58,6.21,1.14,9.53,1.75,0-3.71,0-7.1,0-10.49,0-4.45,2.53-6.93,7-6.94q10.21,0,20.42,0c4.69,0,7.2,2.52,7.22,7.19C290.83,281.75,290.82,285.15,290.82,288.75Zm8-53.3h7.42c0-5,0-9.87,0-14.72,0-4.42-1.78-6.2-6.17-6.2H261.35c-5.14,0-10.27,0-15.41,0-2.81,0-5,1.7-5.09,4.19-.15,5.54,0,11.08,0,16.72h7.35V221.7h50.68Zm-35.92,42.47c0,8.55,0,16.87,0,25.2a5.8,5.8,0,0,0,.25,1.42,10.65,10.65,0,0,0,21-2.69c.08-7.63,0-15.27,0-22.9a7.11,7.11,0,0,0-.17-1Zm29.17-49.55H254.91v7.18h37.17Z" transform="translate(-7.06 -2.4)"/><path class="cls-2" d="M143.28,152.41c1.45-3.81,3.71-6.8,8-7.68a14.71,14.71,0,0,1,2.89-.23q46.37,0,92.74,0a9.55,9.55,0,0,1,7.26,3.05c8.58,9.09,17.18,18.17,25.56,27.45a10.54,10.54,0,0,1,2.35,6c.32,5.47.14,11,.11,16.45,0,2.18-1.32,3.59-3.19,3.66a3.43,3.43,0,0,1-3.46-3.65c-.06-4.3,0-8.6,0-13.24h-2.32c-4.93,0-9.87,0-14.8,0-8.46,0-13.79-5.36-13.81-13.78,0-6.31,0-12.63,0-19.25H154.73c-3.82,0-4.78,1-4.78,4.81V320.6c0,3.81,1,4.81,4.79,4.81h24.39c2.82,0,4.29,1.19,4.24,3.4s-1.49,3.24-4.2,3.25h-25c-5.4,0-8.62-2.29-10.52-7.43a2.32,2.32,0,0,0-.36-.48Zm108,4c0,5.48-.08,10.33,0,15.18a6,6,0,0,0,6,5.91c3.74.1,7.48,0,11.23,0,.57,0,1.14-.1,2-.17Z" transform="translate(-7.06 -2.4)"/><path class="cls-2" d="M356.72,207.85c-1.3.8-2.52,1.91-3.93,2.31-2.93.84-6,1.34-9,1.89a2.71,2.71,0,0,0-2.23,2,102.93,102.93,0,0,1-4.32,9.44c-1.12,2.15-3.15,2.66-4.86,1.57s-1.83-2.78-.85-4.94c1.63-3.58,3.16-7.21,4.51-10.91a4.15,4.15,0,0,1,3.3-3c3.47-.69,6.93-1.43,10.68-2.2,0-1.78.08-3.56-.06-5.33,0-.44-.76-1.08-1.26-1.2-3.17-.76-6.36-1.43-9.56-2.06a4,4,0,0,1-3.12-2.95c-1.38-3.68-2.87-7.33-4.52-10.9a4.11,4.11,0,0,1,.18-4.47c2-3,3.94-6,5.95-9.12l-4.54-4.37c-2.8,1.82-5.74,3.62-8.57,5.6-1.82,1.27-3.37,1.23-5.37.22a78.49,78.49,0,0,0-9.94-4.12c-2-.69-3.21-1.61-3.6-3.76-.61-3.41-1.41-6.78-2.16-10.26H297.2c-.73,3.49-1.46,7.06-2.24,10.62-.58,2.69-2.8,3.91-4.92,2.76a3.3,3.3,0,0,1-1.65-3.92c.92-4.48,1.89-9,2.85-13.43a3.32,3.32,0,0,1,3.57-2.83c3.62,0,7.23,0,10.84,0,2.33,0,3.43.92,3.92,3.19.71,3.26,1.45,6.5,2,9.78a2.43,2.43,0,0,0,1.9,2.09c2.34.84,4.58,2,6.93,2.8a3.43,3.43,0,0,0,2.58-.17c2.86-1.7,5.59-3.61,8.4-5.41,2-1.3,3.32-1.2,5,.46,2.58,2.53,5.1,5.11,7.66,7.67a3.42,3.42,0,0,1,.44,4.71c-1.81,2.8-3.59,5.62-5.48,8.36a2.6,2.6,0,0,0-.21,3c1.08,2.23,1.86,4.62,2.92,6.87a3.2,3.2,0,0,0,1.77,1.61c2.95.77,6,1.21,8.92,2a23.38,23.38,0,0,1,4.26,2.16Z" transform="translate(-7.06 -2.4)"/><path class="cls-2" d="M328.13,201.1c-.85,3.4-1.56,6.85-2.6,10.19-.78,2.5-2.67,3.4-4.59,2.64s-2.47-2.62-1.52-5.07C324,197,317.89,184.36,305.94,181a31.14,31.14,0,0,0-5.12-.76c-2.49-.26-3.83-1.49-3.75-3.56s1.52-3.14,4.08-3.12c14.59.15,26.53,12.5,26.47,27.38Z" transform="translate(-7.06 -2.4)"/><path class="cls-2" d="M205,189.46q11.23,0,22.48,0c2.62,0,4.16,1.27,4.12,3.33s-1.62,3.31-4.21,3.31q-22.38,0-44.76,0c-3.27,0-5.3-2.53-3.73-4.84a4.8,4.8,0,0,1,3.41-1.72C189.83,189.39,197.39,189.46,205,189.46Z" transform="translate(-7.06 -2.4)"/><path class="cls-2" d="M204.94,180.94H183.3a10.22,10.22,0,0,1-2.48-.18,2.77,2.77,0,0,1-2.35-3.19,6.27,6.27,0,0,1,2.34-3c.53-.43,1.6-.25,2.43-.25h43.29c3.38,0,5,1.08,5,3.31s-1.63,3.36-5,3.36Z" transform="translate(-7.06 -2.4)"/><path class="cls-2" d="M193.93,211.19c-3.89,0-7.78,0-11.67,0-2.41,0-3.94-1.38-3.89-3.38s1.54-3.26,3.82-3.27q11.77,0,23.55,0c2.46,0,3.89,1.33,3.85,3.4s-1.46,3.24-4,3.25C201.71,211.2,197.82,211.19,193.93,211.19Z" transform="translate(-7.06 -2.4)"/><path class="cls-2" d="M164.63,211.52a14.23,14.23,0,0,1-3.4-1.18,3.11,3.11,0,0,1-.29-4.76c1.42-1.48,5.67-1.54,7.18-.1a3.14,3.14,0,0,1-.08,4.77A13.83,13.83,0,0,1,164.63,211.52Z" transform="translate(-7.06 -2.4)"/><path class="cls-2" d="M164.6,189.25a12.92,12.92,0,0,1,3,.78,2.9,2.9,0,0,1,1.39,3.59c-.59,2-2.16,2.49-4.08,2.51s-4-.11-4.77-2.42a2.88,2.88,0,0,1,1.28-3.62A12.06,12.06,0,0,1,164.6,189.25Z" transform="translate(-7.06 -2.4)"/><path class="cls-2" d="M164,180.94a3.57,3.57,0,0,1-3.87-2.86c0-1.06.69-2.93,1.37-3.07a14.65,14.65,0,0,1,6.15.05c.69.16,1.34,2.17,1.3,3.31C168.92,180.14,167.28,180.93,164,180.94Z" transform="translate(-7.06 -2.4)"/><path class="cls-2" d="M276.73,301.54a3.23,3.23,0,0,1-3.38,3.18,3.28,3.28,0,1,1,.2-6.55A3.22,3.22,0,0,1,276.73,301.54Z" transform="translate(-7.06 -2.4)"/></svg>