<svg id="Layer_1" data-name="Layer 1" xmlns="http://www.w3.org/2000/svg" viewBox="0 0 496.39 480.99"><defs><style>.cls-1{fill:#fff7c0;}.cls-2{fill:#e3bd59;}</style></defs><title>01</title><path class="cls-1" d="M349.57,44.87S539.18,209,487.47,370.36c0,0-53.73,168.52-332.62,104.25-52.15-12-97.91-42.5-125.18-85.82A197.08,197.08,0,0,1,2.86,319.18c-8.67-46.8,2.73-95,30.42-134.76C93.63,97.67,230.57-64.53,349.57,44.87" transform="translate(-0.01 -8.24)"/><path class="cls-2" d="M340.13,387.44c-4.49-4.36-9-8.68-13.46-13.09-6.88-6.81-13.7-13.69-20.55-20.53-.35-.35-.72-.68-1.2-1.12-14.32,9.37-29.73,12-46,6.35s-26.85-17.12-32.33-33.61H177.26v-7.26h47.82A50.81,50.81,0,0,1,228,292.51a6.82,6.82,0,0,0,.2-2.32q0-17.52,0-35v-2.53h7.24v26c2.35-2.19,4.67-4.26,6.84-6.47a3.36,3.36,0,0,0,.47-2.17c0-7.41,0-14.81,0-22.22V245.3h7.19v21.25c2.51-1.14,4.71-2.06,6.81-3.18.41-.22.56-1.21.57-1.85,0-4.12,0-8.24,0-12.5h7.25v11.87l7.31-1V234.42h7.28v25.4l7.36,1.06V227.13h7.35v2.61c0,10.47,0,20.94,0,31.41,0,1.45.28,2.32,1.81,2.84a52.55,52.55,0,0,1,5.44,2.53V241.73h7.36v2.36c0,8.62,0,17.24,0,25.85a3.5,3.5,0,0,0,1.38,3.11c2.09,1.68,4.09,3.49,5.88,5V256.3H323v2.35c0,10.54,0,21.08,0,31.62a8.91,8.91,0,0,0,.5,3.12,49.32,49.32,0,0,1,2.63,23.74c0,.26,0,.54,0,1h4v7.07c-.19.09-.32.22-.43.2-4-.79-6.35.78-7,4.89a6.71,6.71,0,0,1-1.2,2.72c-1.36,1.91-.93,3.18.73,4.81,10.56,10.39,21,20.91,31.47,31.39,2.85,2.85,2.84,4.45,0,7.34s-5.72,5.76-8.62,8.6c-.86.84-1.85,1.53-2.78,2.3Zm-20.81-76.63a43.74,43.74,0,1,0-43.71,43.76A43.76,43.76,0,0,0,319.32,310.81ZM346.65,373l-30.78-30.79-5.3,5.87q15.24,15.27,30.45,30.51Z" transform="translate(-0.01 -8.24)"/><path class="cls-2" d="M228.05,343.69v7.15a11.87,11.87,0,0,1-1.32.15c-15.31,0-30.63.11-45.94-.05A18,18,0,0,1,163,336.58a24.7,24.7,0,0,1-.45-5.3q0-57,0-113.9c0-12,7.67-19.65,19.63-19.65H325.31c11.87,0,19.55,7.66,19.55,19.48q0,57.27,0,114.54a19.25,19.25,0,0,1-4.55,13L334.85,340c3-3.27,2.74-7.29,2.74-11.28q0-55.56,0-111.12c0-8.22-4.29-12.53-12.48-12.54H182.35c-8.24,0-12.53,4.27-12.53,12.5V331.2c0,8.23,4.28,12.49,12.53,12.49h45.7Z" transform="translate(-0.01 -8.24)"/><path class="cls-2" d="M322.85,190.34h-7.12c0-1,0-1.91,0-2.81-.05-7-4.64-11.65-11.66-11.66H160.45c-8.21,0-12.56,4.31-12.56,12.47q0,56.85,0,113.7c0,5.87,2.34,10,8.19,12.17l-1.71,6.91a17,17,0,0,1-9.05-5.42,17.83,17.83,0,0,1-4.68-12.29q0-58.14,0-116.27c0-10.8,8.06-18.55,19-18.55h144C316.09,168.59,324.17,177.66,322.85,190.34Z" transform="translate(-0.01 -8.24)"/><path class="cls-2" d="M199.14,267.17h7.05v43.54h-7.05Z" transform="translate(-0.01 -8.24)"/><path class="cls-2" d="M213.7,278.11h7.06v32.62H213.7Z" transform="translate(-0.01 -8.24)"/><path class="cls-2" d="M191.58,310.8h-7V289.17h7Z" transform="translate(-0.01 -8.24)"/><path class="cls-2" d="M162.36,190.33h-7v-7h7Z" transform="translate(-0.01 -8.24)"/><path class="cls-2" d="M177,183.26v7.08h-7v-7.08Z" transform="translate(-0.01 -8.24)"/><path class="cls-2" d="M184.54,190.31v-7h7v7Z" transform="translate(-0.01 -8.24)"/><path class="cls-2" d="M213.44,219.54h-7v-7.07h7Z" transform="translate(-0.01 -8.24)"/><path class="cls-2" d="M184.34,212.51v6.94h-7.07v-6.94Z" transform="translate(-0.01 -8.24)"/><path class="cls-2" d="M191.87,212.44h7v7h-7Z" transform="translate(-0.01 -8.24)"/><path class="cls-2" d="M275.58,274.36a36.47,36.47,0,1,1-36.43,36.37A36.44,36.44,0,0,1,275.58,274.36Zm-18.3,14.18c-9.23,6.19-13.12,20.91-9.59,29.55h55.9c3.48-9.85-1.19-24.25-9.8-29.48v22.08h-7.23v-2.5c0-7.48,0-14.95-.05-22.43,0-.77-.41-2-.95-2.2a61.23,61.23,0,0,0-6.37-1.81v29h-7.28V281.81c-2,.5-3.73,1-5.45,1.34-1.39.3-1.9,1-1.88,2.52.08,7.34,0,14.67,0,22v3h-7.34Zm43.5,37.06H250.39c6.17,9.39,14.47,14.42,25.42,14.34C286.57,339.87,294.74,334.85,300.78,325.6Z" transform="translate(-0.01 -8.24)"/></svg>