<svg id="Layer_1" data-name="Layer 1" xmlns="http://www.w3.org/2000/svg" viewBox="0 0 499.97 493.59"><defs><style>.cls-1{fill:#fcc;}.cls-2{fill:#ff5a5a;}</style></defs><title>07</title><path class="cls-1" d="M484.12,255.56c61,147.91-63.22,241.23-213,241.23S0,388.79,0,255.56,120.76,3.21,270.5,3.21s204,62.32,213.62,252.35" transform="translate(-0.03 -3.21)"/><path class="cls-2" d="M294.66,320.47v13.19c0,7.33,0,14.66,0,22,0,10.1-6.09,16.18-16.12,16.18h-105c-9.71,0-15.92-6.19-15.94-15.87q0-11,0-22c0-4.18,1.05-5.24,5.26-5.24H287v-8c-.17-.1-.3-.24-.44-.25-5.71-.33-5.88-.48-6.81-6.17a5.22,5.22,0,0,1-.14-1.23c.35-4.63-2.79-6.14-6.43-7.11a2.67,2.67,0,0,0-1.9.57c-1.92,1.41-3.75,3-5.65,4.4-2.14,1.63-3.84,1.59-5.72-.24-3.35-3.28-6.64-6.63-10-9.95a3.86,3.86,0,0,1-.48-5.54,38.62,38.62,0,0,1,2.74-3.8c2.06-2.19,2.14-4.22.83-7-1.05-2.21-2.22-3.11-4.53-3.11a40.85,40.85,0,0,1-5.16-.54c-2.68-.37-3.85-1.57-3.89-4.2-.06-4.78,0-9.56,0-14.33a3.82,3.82,0,0,1,3.49-4.08,18.33,18.33,0,0,1,3.17-.5c4,0,6.78-1.5,7.35-5.74a4.86,4.86,0,0,0-.44-3c-1.19-1.86-2.72-3.51-4.06-5.27-1.76-2.3-1.7-3.87.28-5.88q4.85-4.94,9.78-9.79c2-2,3.36-2,5.7-.46,1.91,1.29,3.7,2.78,5.69,3.92a4.92,4.92,0,0,0,3,.3c4.22-.74,5.54-3.61,5.27-7.54a1.06,1.06,0,0,1,0-.25c.6-6.1,1.11-6.56,7.28-6.56,3.71,0,7.42,0,11.12,0,3,0,4.1,1,4.65,4a18.43,18.43,0,0,1,.53,3.41c0,3.45,1.35,5.51,4.88,6.47,1.79.49,3,.68,4.36-.67a54,54,0,0,1,5-4,3.61,3.61,0,0,1,5.14.27q5.31,5.18,10.5,10.47a3.58,3.58,0,0,1,.4,4.94,25.4,25.4,0,0,1-2.57,3.62c-2.34,2.42-2.71,4.79-1,7.87.89,1.63,1.58,2.59,3.52,2.65,2.13.06,4.25.46,6.37.72a3.64,3.64,0,0,1,3.55,4q0,7.29,0,14.58a3.61,3.61,0,0,1-3.16,3.82c-2.33.47-4.67,1-7,1.24-1.52.18-2,1-2.8,2.2-2.07,3.39-1.12,5.79,1.3,8.6,4.81,5.6,4.64,5.74-.58,11-2.38,2.4-4.73,4.83-7.14,7.19-2.08,2-3.55,2.13-5.92.53a19.56,19.56,0,0,1-2.8-2c-2.58-2.54-5.21-3.11-8.5-1.16-1.34.79-2.21,1.41-2.3,3-.11,1.81-.4,3.6-.57,5.41-.39,4-1.41,4.91-5.5,4.93Zm24.21-18.06,6.32-6c-1.47-1.87-2.95-3.84-4.52-5.74a4.32,4.32,0,0,1-.5-5,68.68,68.68,0,0,0,3.21-8,4.76,4.76,0,0,1,4.37-3.68c2.41-.3,4.81-.81,7.09-1.21v-8.56c-2.63-.32-5.07-.69-7.53-.9-2.19-.19-3.31-1.38-4-3.39a61.11,61.11,0,0,0-3.23-7.7,4.7,4.7,0,0,1,.33-5.5c1.5-2,2.91-4.12,4-5.72l-5.79-6.49c-2,1.64-4,3.15-5.89,4.73a4.39,4.39,0,0,1-5.24.5,50.87,50.87,0,0,0-7.73-3.18,4.73,4.73,0,0,1-3.75-4.3c-.27-2-.57-3.91-1-5.83-.13-.56-.76-1.4-1.19-1.43-2.52-.13-5-.06-7.61-.06-.31,2.7-.66,5.06-.85,7.43s-1.43,3.62-3.66,4.35a53.33,53.33,0,0,0-7.48,3.15,4.66,4.66,0,0,1-5.49-.34c-2-1.52-4.1-2.93-5.75-4.1l-6.32,6c1.4,1.76,2.77,3.62,4.29,5.35,1.69,1.94,1.81,3.8.59,6.09a37.47,37.47,0,0,0-3,7.28,4.75,4.75,0,0,1-4.26,3.81c-2.41.35-4.82.83-7.27,1.26v8.51c2.51.29,4.94.6,7.38.85a4.39,4.39,0,0,1,4.11,3.28,65.67,65.67,0,0,0,3.36,7.93,4.75,4.75,0,0,1-.37,5.5c-1.47,2-2.85,4-4.13,5.83l6.05,6.16c1.85-1.46,3.82-2.94,5.71-4.51a4.44,4.44,0,0,1,5.24-.58,83.39,83.39,0,0,0,8.2,3.35,4.23,4.23,0,0,1,3.19,3.63c.39,2.59.89,5.17,1.36,7.79h8.61c.27-2.54.56-5,.79-7.41a4.61,4.61,0,0,1,3.48-4.26,73.42,73.42,0,0,0,7.93-3.33,4.42,4.42,0,0,1,5.06.31C315,299.74,317.14,301.18,318.87,302.41ZM165,336.31c0,6.87,0,13.6,0,20.33a7.39,7.39,0,0,0,7.79,7.75q53.35,0,106.71,0c4.66,0,7.64-3.09,7.68-7.82.06-6.26,0-12.51,0-18.77a14.16,14.16,0,0,0-.16-1.48Z" transform="translate(-0.03 -3.21)"/><path class="cls-2" d="M287.19,169.19H165V312.57c0,4-1.2,5.82-3.75,5.8s-3.68-1.83-3.68-5.85V150.16c0-10.5,6-16.52,16.55-16.52q52.51,0,105,0c7.5,0,13.24,4.26,15,11.14a16.57,16.57,0,0,1,.47,4.15c0,12.77,0,25.54,0,38.3,0,1.15-.3,2.7-1.06,3.34a5.19,5.19,0,0,1-3.74.95c-1.84-.29-2.56-1.93-2.58-3.73,0-5.1,0-10.21,0-15.32Zm-.29-7.72a2.92,2.92,0,0,0,.24-.69c0-3.62.05-7.25.05-10.87,0-6.11-2.76-8.83-8.93-8.83q-52.24,0-104.5,0c-.65,0-1.32,0-2,0-3.33.35-6.37,2.76-6.6,6-.32,4.72-.08,9.48-.08,14.33Z" transform="translate(-0.03 -3.21)"/><path class="cls-2" d="M235.48,177.93c2.89-.06,4.48,2.54,3.29,5.61-2.62,6.74-5.32,13.45-8,20.16l-12.91,32.53c-.18.46-.34.92-.55,1.37-1.06,2.31-2.92,3.2-4.95,2.37s-2.84-2.77-1.94-5.1c2.6-6.66,5.26-13.29,7.9-19.94q6.69-16.83,13.36-33.66C232.4,179.47,233.3,178,235.48,177.93Z" transform="translate(-0.03 -3.21)"/><path class="cls-2" d="M262.72,209.19l-11.94-11.45a24,24,0,0,1-1.72-1.78,3.68,3.68,0,0,1,0-5.13,3.61,3.61,0,0,1,5.31,0c2.28,2.14,4.44,4.41,6.64,6.64,2.84,2.86,5.71,5.71,8.5,8.62,2,2.07,2,4,0,6.05q-7.34,7.51-14.8,14.91c-1.91,1.9-4.07,1.94-5.65.27s-1.41-3.69.42-5.47C253.68,217.7,258,213.66,262.72,209.19Z" transform="translate(-0.03 -3.21)"/><path class="cls-2" d="M189.7,209.1c4.41,4.26,8.39,8.08,12.35,11.92a8.83,8.83,0,0,1,1.47,1.65,3.49,3.49,0,0,1-.44,4.72c-1.43,1.39-3.28,1.69-4.69.32q-8.31-8.1-16.34-16.49c-1.35-1.41-1.09-3.29.29-4.7q7.77-8,15.65-15.79a3.52,3.52,0,0,1,5.11,0,3.68,3.68,0,0,1,0,5.31c-3.36,3.51-6.8,6.94-10.24,10.37C192,207.24,191.07,207.93,189.7,209.1Z" transform="translate(-0.03 -3.21)"/><path class="cls-2" d="M290.9,249.22a19.75,19.75,0,1,1-19.65,19.83A19.76,19.76,0,0,1,290.9,249.22Zm3.76,31.1c5.37-1.23,9.2-7,8.54-12.48a12.3,12.3,0,0,0-24.5.09c-.41,5.86,3.4,11.49,8.51,12.34v-3.95c0-3.3-.08-6.6.07-9.88a3.7,3.7,0,0,1,3.85-3.69,3.74,3.74,0,0,1,3.5,3.77c.07,1,0,2,0,3Z" transform="translate(-0.03 -3.21)"/><path class="cls-2" d="M226.3,348c5.27,0,10.54,0,15.81,0,3,0,4.52,1.31,4.52,3.69s-1.6,3.73-4.53,3.74q-15.93,0-31.86,0c-3,0-4.77-1.49-4.69-3.86s1.7-3.56,4.69-3.57C215.59,348,221,348,226.3,348Z" transform="translate(-0.03 -3.21)"/><path class="cls-2" d="M235.51,155c-3,0-6.09,0-9.14,0a3.72,3.72,0,0,1-4-3.53,3.67,3.67,0,0,1,3.71-3.83q9.49-.17,19,0a3.67,3.67,0,0,1-.22,7.34C241.77,155,238.64,155,235.51,155Z" transform="translate(-0.03 -3.21)"/></svg>