<svg width="1147" height="1138" xmlns="http://www.w3.org/2000/svg" xmlns:xlink="http://www.w3.org/1999/xlink" xml:space="preserve" overflow="hidden"><defs><clipPath id="clip0"><rect x="1625" y="668" width="1147" height="1138"/></clipPath></defs><g clip-path="url(#clip0)" transform="translate(-1625 -668)"><path d="M2771.83 1106.41C2771.83 1420.39 2483.74 1805.93 2148.13 1805.93 1812.52 1805.93 1625.83 1572.65 1625.83 1258.68 1625.83 944.707 1812.55 668.93 2148.13 668.93 2483.71 668.93 2771.83 792.444 2771.83 1106.41" fill="#FFFFFF" fill-rule="evenodd"/><path d="M2457.2 1381.15C2444.78 1362.48 2427.45 1349.52 2407.09 1343.67 2406.89 1343.61 2406.69 1343.56 2406.49 1343.52L2332.97 1327.74 2313.17 1296.96C2313.07 1296.8 2312.96 1296.64 2312.85 1296.49 2309.85 1292.39 2305.29 1289.68 2300.33 1289.07 2295.37 1288.45 2290.3 1289.95 2286.44 1293.2 2286.37 1293.25 2286.32 1293.3 2286.26 1293.35L2198.33 1371 2110.4 1293.35C2110.34 1293.3 2110.28 1293.25 2110.22 1293.2 2106.35 1289.95 2101.29 1288.45 2096.33 1289.07 2091.37 1289.68 2086.8 1292.39 2083.81 1296.49 2083.69 1296.64 2083.59 1296.8 2083.49 1296.96L2063.69 1327.74 1990.17 1343.52C1989.97 1343.56 1989.77 1343.61 1989.57 1343.67 1969.21 1349.52 1951.88 1362.48 1939.45 1381.15 1928.09 1398.23 1921.83 1418.84 1921.83 1439.19L1921.83 1462.64C1921.83 1481.55 1938.37 1496.93 1958.7 1496.93L2170.66 1496.93C2170.67 1496.93 2170.68 1496.93 2170.69 1496.93 2170.7 1496.93 2170.72 1496.93 2170.73 1496.93L2225.93 1496.93C2225.94 1496.93 2225.96 1496.93 2225.97 1496.93 2225.98 1496.93 2225.99 1496.93 2226.01 1496.93L2437.96 1496.93C2458.29 1496.93 2474.83 1481.55 2474.83 1462.64L2474.83 1439.19C2474.83 1418.84 2468.57 1398.23 2457.2 1381.15ZM2298.1 1307.85 2316.15 1335.94 2252.52 1425.69 2232.5 1405.16C2232.5 1405.16 2232.5 1405.15 2232.5 1405.15L2211.87 1383.99 2298.1 1307.85ZM2189.11 1449.66 2207.55 1449.66C2208.1 1449.66 2208.65 1449.63 2209.2 1449.6L2214.74 1478.02 2181.92 1478.02 2187.46 1449.6C2188.01 1449.63 2188.56 1449.66 2189.11 1449.66ZM2216.76 1421.29C2216.76 1426.51 2212.63 1430.75 2207.55 1430.75L2189.11 1430.75C2184.03 1430.75 2179.9 1426.51 2179.9 1421.29L2179.9 1415.75 2198.33 1396.84 2216.76 1415.75 2216.76 1421.29ZM2098.56 1307.85 2184.79 1383.99 2164.17 1405.15C2164.16 1405.15 2164.16 1405.15 2164.16 1405.16L2144.14 1425.69 2080.51 1335.94 2098.56 1307.85ZM1940.27 1462.64 1940.27 1439.19C1940.27 1408.6 1958.81 1372.31 1994.25 1361.96L2065.35 1346.71 2135.58 1445.76C2137.16 1448 2139.62 1449.41 2142.31 1449.63 2142.55 1449.65 2142.79 1449.65 2143.03 1449.65 2145.47 1449.65 2147.81 1448.67 2149.55 1446.89L2163.67 1432.4C2165.18 1436.02 2167.41 1439.25 2170.16 1441.92L2163.13 1478.02 1958.7 1478.02C1948.53 1478.02 1940.27 1471.12 1940.27 1462.64ZM2456.4 1462.64C2456.4 1471.12 2448.13 1478.02 2437.96 1478.02L2233.54 1478.02 2226.5 1441.92C2229.25 1439.26 2231.48 1436.02 2232.99 1432.4L2247.11 1446.89C2248.85 1448.67 2251.2 1449.66 2253.63 1449.66 2253.87 1449.66 2254.11 1449.65 2254.35 1449.63 2257.04 1449.41 2259.5 1448 2261.08 1445.76L2331.31 1346.71 2402.41 1361.96C2437.85 1372.31 2456.4 1408.61 2456.4 1439.19L2456.4 1462.64 2456.4 1462.64Z" fill="#1930AB" fill-rule="evenodd"/><path d="M2134.27 1217.72 2134.27 1259.58C2134.27 1277.56 2146.52 1292.65 2162.89 1296.52 2166.66 1313.34 2181.33 1325.93 2198.83 1325.93 2216.32 1325.93 2231 1313.34 2234.77 1296.52 2251.14 1292.65 2263.38 1277.56 2263.38 1259.58L2263.38 1217.72C2322.94 1191.78 2364.83 1131.09 2364.83 1060.54 2364.83 966.464 2290.36 889.93 2198.83 889.93 2107.29 889.93 2032.83 966.464 2032.83 1060.54 2032.83 1131.09 2074.72 1191.78 2134.27 1217.72ZM2198.83 1306.97C2192.02 1306.97 2186.08 1303.15 2182.88 1297.5L2214.78 1297.5C2211.58 1303.15 2205.64 1306.97 2198.83 1306.97ZM2244.94 1259.58C2244.94 1270.04 2236.67 1278.54 2226.5 1278.54L2171.16 1278.54C2160.99 1278.54 2152.72 1270.04 2152.72 1259.58L2152.72 1224.44C2167.36 1228.8 2182.83 1231.15 2198.83 1231.15 2214.82 1231.15 2230.3 1228.8 2244.94 1224.44L2244.94 1259.58ZM2180.07 1209.75 2152.51 1103.52C2156.31 1105.73 2161.42 1107.93 2169.28 1107.93 2179.3 1107.93 2184.86 1104.36 2188.91 1101.76 2192.12 1099.7 2194.05 1098.46 2198.78 1098.46 2203.53 1098.46 2205.46 1099.7 2208.67 1101.76 2212.73 1104.36 2218.29 1107.93 2228.32 1107.93 2236.22 1107.93 2241.35 1105.71 2245.15 1103.5L2217.59 1209.75C2217.48 1210.16 2217.41 1210.58 2217.36 1211 2211.28 1211.78 2205.1 1212.19 2198.83 1212.19 2192.56 1212.19 2186.37 1211.78 2180.3 1211 2180.25 1210.58 2180.18 1210.17 2180.07 1209.75ZM2198.83 908.886C2280.19 908.886 2346.39 976.917 2346.39 1060.54 2346.39 1130.45 2300.12 1189.45 2237.41 1206.92L2272.29 1072.47C2273.61 1067.42 2270.68 1062.22 2265.76 1060.87 2260.84 1059.52 2255.79 1062.53 2254.47 1067.59L2251.23 1080.09C2245.19 1081.21 2241.28 1083.72 2238.21 1085.68 2235 1087.73 2233.07 1088.97 2228.32 1088.97 2223.57 1088.97 2221.64 1087.73 2218.43 1085.68 2214.36 1083.07 2208.8 1079.51 2198.78 1079.51 2188.76 1079.51 2183.2 1083.08 2179.14 1085.68 2175.94 1087.74 2174.01 1088.97 2169.28 1088.97 2164.55 1088.97 2162.62 1087.74 2159.43 1085.68 2156.37 1083.72 2152.46 1081.21 2146.43 1080.09L2143.18 1067.59C2141.87 1062.53 2136.82 1059.52 2131.9 1060.87 2126.97 1062.22 2124.05 1067.42 2125.36 1072.47L2160.25 1206.92C2097.54 1189.45 2051.27 1130.45 2051.27 1060.54 2051.27 976.917 2117.47 908.886 2198.83 908.886Z" fill="#1930AB" fill-rule="evenodd"/></g></svg>