<svg width="1147" height="1174" xmlns="http://www.w3.org/2000/svg" xmlns:xlink="http://www.w3.org/1999/xlink" xml:space="preserve" overflow="hidden"><defs><clipPath id="clip0"><rect x="1625" y="649" width="1147" height="1174"/></clipPath></defs><g clip-path="url(#clip0)" transform="translate(-1625 -649)"><path d="M1625.94 1236.43C1620.99 864.283 1780.02 649.932 2144.96 649.932 2509.9 649.932 2623.75 959.637 2742.83 1263.75 2879.25 1611.93 2509.92 1822.93 2144.96 1822.93 1780 1822.93 1631.06 1615.65 1625.94 1236.43" fill="#FFFFFF" fill-rule="evenodd"/><path d="M1848.81 1197.72 1860.84 1346.61C1862.47 1361.98 1866.08 1371.87 1870.47 1377.31 1874.19 1381.49 1879.99 1383.22 1885.39 1381.75L1945.83 1381.75C1952.39 1382.43 1958.87 1379.84 1963.16 1374.85L1963.42 1374.54C1967.77 1367.3 1969.91 1358.96 1969.59 1350.53L1969.59 1186.16C1969.34 1185.44 1969.21 1184.68 1969.23 1183.91 1969.2 1183.7 1969.2 1183.49 1969.23 1183.28 1968.75 1178.85 1966.36 1174.83 1962.69 1172.3 1956.44 1169.06 1949.4 1167.65 1942.38 1168.22L1868.48 1168.22C1862.32 1167.88 1856.28 1170.1 1851.79 1174.34 1848.29 1178.52 1847.03 1185.74 1848.75 1196.98L1848.75 1197.72 1848.81 1197.72ZM2319.09 1191.39C2319.08 1188.89 2319.23 1186.39 2319.56 1183.91L2292.4 1165.66C2288.47 1163.04 2284.18 1160.01 2279.83 1156.98 2264.13 1146.1 2248.43 1134.91 2231.01 1130.36 2220.84 1127.74 2210.41 1126.3 2199.92 1126.07 2190.3 1125.82 2180.68 1126.88 2171.34 1129.21 2165.9 1130.59 2160.63 1132.59 2155.64 1135.17 2151.25 1137.48 2147.19 1140.37 2143.55 1143.75L2124.92 1165.55C2124.36 1166.62 2123.58 1167.54 2122.62 1168.27L2072.01 1228.47C2072.67 1232 2074.18 1235.32 2076.41 1238.14 2078.86 1241.14 2082.08 1243.42 2085.72 1244.73 2089.95 1246.24 2094.45 1246.8 2098.91 1246.35 2107.4 1245.53 2115.46 1242.2 2122.05 1236.78L2136.12 1225.02C2139.68 1222.09 2142.67 1219.37 2145.6 1216.7 2151.65 1210.82 2158.27 1205.57 2165.38 1201.01 2181.08 1191.6 2196.78 1191.28 2212.48 1217.33L2292.03 1360.99 2319.09 1360.99 2319.09 1191.39ZM2325.52 1168.43C2326.75 1166.72 2328.15 1165.14 2329.71 1163.72 2338.09 1157.04 2348.68 1153.72 2359.38 1154.41L2428.47 1154.41C2442.96 1154.41 2454.63 1156.98 2462.9 1163.25 2471.95 1170.26 2476.24 1180.88 2474.41 1196.15L2459.13 1354.14C2458.88 1366.01 2454.85 1377.5 2447.62 1386.93 2440.11 1395.34 2429.01 1399.66 2417.79 1398.54L2355.67 1398.54C2347.64 1399.17 2339.66 1396.72 2333.37 1391.69 2328.57 1387.69 2324.73 1382.67 2322.12 1376.99L2300.61 1376.99C2303.33 1384.61 2303.47 1392.92 2301.03 1400.63 2298.61 1407.87 2294.11 1414.24 2288.1 1418.93 2282.22 1423.58 2275.25 1426.66 2267.85 1427.88 2260.49 1429.11 2252.93 1428.28 2246.03 1425.47 2239.12 1433.17 2230.23 1438.83 2220.33 1441.84 2211.3 1444.3 2201.72 1443.86 2192.96 1440.58 2185.45 1449.58 2175.25 1455.92 2163.86 1458.68 2152.05 1460.87 2139.85 1459.03 2129.22 1453.45 2125.56 1456.34 2121.53 1458.72 2117.23 1460.51 2111.35 1462.94 2105.01 1464.1 2098.65 1463.91 2086.07 1464.15 2073.84 1459.7 2064.37 1451.41 2056.53 1443.66 2050.03 1434.66 2045.12 1424.79L2010.78 1365.17 1984.2 1365.17C1982.99 1372.01 1980.3 1378.49 1976.29 1384.16L1975.93 1384.68C1968.55 1393.78 1957.09 1398.63 1945.42 1397.6L1887.38 1397.6C1876.61 1399.98 1865.37 1396.16 1858.28 1387.71 1851.48 1379.82 1846.77 1366.79 1844.78 1348.13L1844.78 1347.45 1832.74 1199.13C1830.33 1183.13 1832.74 1171.78 1839.44 1164.04 1846.73 1156.17 1857.08 1151.83 1867.81 1152.11L1942.28 1152.11C1952.43 1151.45 1962.57 1153.76 1971.43 1158.75 1977.6 1162.68 1982.12 1168.73 1984.14 1175.75L2034.12 1175.75C2045.56 1167.56 2058.13 1161.1 2071.44 1156.56 2085.37 1152.37 2100.04 1151.23 2114.46 1153.21L2131.57 1132.87 2132.2 1132.19C2136.9 1127.73 2142.18 1123.93 2147.9 1120.89 2154.01 1117.75 2160.45 1115.3 2167.1 1113.57 2177.87 1110.93 2188.94 1109.72 2200.03 1109.96 2211.77 1110.23 2223.45 1111.84 2234.83 1114.77 2254.77 1120 2271.98 1132.08 2288.73 1143.8 2292.76 1146.62 2296.74 1149.39 2301.03 1152.27L2325.36 1168.43 2325.52 1168.43ZM1914.38 1312.67C1914.4 1312.67 1914.42 1312.67 1914.43 1312.67 1922.07 1312.67 1928.36 1318.95 1928.36 1326.58 1928.36 1334.21 1922.07 1340.49 1914.43 1340.49 1906.8 1340.49 1900.51 1334.21 1900.51 1326.58 1900.51 1326.56 1900.51 1326.54 1900.51 1326.53 1900.54 1318.93 1906.79 1312.7 1914.38 1312.67ZM2283.81 1376.26C2281.58 1375.29 2279.89 1373.37 2279.2 1371.03L2198.51 1225.49C2189.56 1210.53 2181.5 1210.11 2173.65 1214.77 2167.44 1218.86 2161.64 1223.54 2156.32 1228.73 2152.77 1231.97 2149.21 1235.21 2146.28 1237.62L2131.99 1249.39C2122.89 1256.79 2111.8 1261.34 2100.12 1262.46 2093.28 1263.07 2086.38 1262.18 2079.92 1259.84 2073.56 1257.49 2067.93 1253.48 2063.64 1248.24 2058.76 1242.08 2055.86 1234.58 2055.32 1226.74 2055.15 1224.38 2056.01 1222.05 2057.67 1220.36L2101.27 1168.53C2092.74 1168.33 2084.24 1169.51 2076.1 1172.04 2063.7 1176.37 2052.01 1182.5 2041.4 1190.24 2039.92 1191.43 2038.06 1192.04 2036.16 1191.96L1985.77 1191.96 1985.77 1348.86 2015.44 1348.86C2018.48 1348.85 2021.27 1350.55 2022.66 1353.25L2059.3 1416.79C2063.37 1425.09 2068.66 1432.74 2075 1439.49 2081.68 1445.14 2090.22 1448.12 2098.97 1447.86 2103.09 1447.97 2107.19 1447.22 2111 1445.66 2113.45 1444.66 2115.75 1443.34 2117.86 1441.74L2094.26 1397.6C2093.78 1396.55 2093.53 1395.42 2093.53 1394.27 2093.53 1389.85 2097.17 1386.21 2101.59 1386.21 2104.38 1386.21 2106.97 1387.65 2108.44 1390.02L2134.29 1438.29C2149.44 1447.96 2169.72 1444.44 2180.71 1430.23L2143.5 1371.76C2141.09 1368.06 2142.15 1363.04 2145.86 1360.62 2149.6 1358.29 2154.59 1359.4 2157.01 1363.08L2196.21 1424.63C2202.42 1427.39 2209.39 1427.98 2215.99 1426.31 2222.94 1424.12 2229.17 1420.06 2233.99 1414.59L2198.56 1347.76C2197.92 1346.58 2197.59 1345.26 2197.59 1343.91 2197.59 1339.47 2201.25 1335.81 2205.7 1335.81 2208.68 1335.81 2211.43 1337.45 2212.85 1340.07L2249.48 1409.21C2254.24 1411.9 2259.8 1412.82 2265.18 1411.82 2269.87 1411.08 2274.29 1409.13 2278 1406.18 2281.51 1403.51 2284.15 1399.87 2285.59 1395.72 2287.18 1390.52 2286.75 1384.92 2284.39 1380.03 2283.87 1378.86 2283.66 1377.58 2283.76 1376.31L2283.81 1376.26ZM2390.16 1312.67C2397.75 1312.72 2403.97 1318.98 2403.97 1326.58 2403.97 1334.21 2397.69 1340.49 2390.05 1340.49 2382.41 1340.49 2376.13 1334.21 2376.13 1326.58 2376.13 1326.56 2376.13 1326.54 2376.13 1326.53 2376.16 1318.93 2382.4 1312.7 2390 1312.67L2390.16 1312.67Z" fill="#1930AB" fill-rule="evenodd"/></g></svg>