<svg width="1147" height="1160" xmlns="http://www.w3.org/2000/svg" xmlns:xlink="http://www.w3.org/1999/xlink" xml:space="preserve" overflow="hidden"><defs><clipPath id="clip0"><rect x="1625" y="656" width="1147" height="1160"/></clipPath></defs><g clip-path="url(#clip0)" transform="translate(-1625 -656)"><path d="M2431.98 764.544C2431.98 764.544 2870.83 1152.79 2751.15 1534.68 2751.15 1534.68 2626.79 1933.41 1981.31 1781.36 1860.61 1752.92 1754.7 1680.78 1691.58 1578.28 1660.77 1527.76 1639.71 1471.89 1629.53 1413.6 1609.46 1302.86 1674.55 1068.64 1738.64 974.469 1878.31 769.219 2156.56 505.694 2431.98 764.544" fill="#FFFFFF" fill-rule="evenodd"/><path d="M1999.25 1141.78 2169.88 1141.78 2169.88 1076.31C2169.88 1070.65 2172.18 1065.51 2175.89 1061.81 2179.51 1058.18 2184.45 1055.93 2189.85 1055.93L2397.87 1055.93C2403.27 1055.93 2408.21 1058.18 2411.83 1061.81 2415.53 1065.52 2417.83 1070.65 2417.83 1076.31L2417.83 1389.7C2417.83 1395.37 2415.53 1400.5 2411.83 1404.21 2408.21 1407.83 2403.26 1410.08 2397.87 1410.08L2227.24 1410.08 2227.24 1475.55C2227.24 1481.21 2224.93 1486.35 2221.22 1490.05 2217.61 1493.68 2212.66 1495.93 2207.27 1495.93L1999.25 1495.93C1993.85 1495.93 1988.91 1493.68 1985.29 1490.05 1981.58 1486.35 1979.28 1481.21 1979.28 1475.55L1979.28 1322.29C1978.99 1321.2 1978.83 1320.04 1978.83 1318.85 1978.83 1317.66 1978.99 1316.5 1979.28 1315.41L1979.28 1162.15C1979.28 1156.49 1981.58 1151.36 1985.29 1147.65 1988.91 1144.03 1993.85 1141.78 1999.25 1141.78ZM2315.43 1160.26C2320.42 1155 2328.73 1154.8 2333.97 1159.8 2339.23 1164.8 2339.43 1173.11 2334.44 1178.37L2295.41 1219.24 2392.44 1219.24 2392.44 1082.14 2195.27 1082.14 2195.27 1141.78 2207.27 1141.78C2212.66 1141.78 2217.61 1144.02 2221.22 1147.65 2224.93 1151.36 2227.24 1156.49 2227.24 1162.15L2227.24 1383.88 2392.44 1383.88 2392.44 1245.58 2295.34 1245.58 2334.44 1286.66C2339.43 1291.92 2339.23 1300.23 2333.97 1305.24 2328.73 1310.24 2320.42 1310.02 2315.43 1304.77L2255.19 1241.47C2250.4 1236.43 2250.35 1228.45 2255.19 1223.35L2315.43 1160.26ZM2060.89 1264.8C2055.89 1259.55 2056.1 1251.23 2061.35 1246.24 2066.6 1241.24 2074.9 1241.44 2079.89 1246.7L2140.13 1309.79C2144.98 1314.89 2144.93 1322.86 2140.13 1327.9L2079.89 1391.22C2074.9 1396.47 2066.6 1396.67 2061.35 1391.68 2056.1 1386.68 2055.89 1378.37 2060.89 1373.11L2099.99 1332.01 2004.68 1332.01 2004.68 1469.72 2201.85 1469.72 2201.85 1167.98 2004.68 1167.98 2004.68 1305.68 2099.91 1305.68 2060.89 1264.8Z" fill="#1930AB" fill-rule="evenodd"/></g></svg>