<svg width="958" height="959" xmlns="http://www.w3.org/2000/svg" xmlns:xlink="http://www.w3.org/1999/xlink" xml:space="preserve" overflow="hidden"><defs><clipPath id="clip0"><rect x="1721" y="758" width="958" height="959"/></clipPath><clipPath id="clip1"><rect x="1908" y="972" width="584" height="531"/></clipPath><clipPath id="clip2"><rect x="1908" y="972" width="584" height="531"/></clipPath><clipPath id="clip3"><rect x="1908" y="972" width="584" height="531"/></clipPath></defs><g clip-path="url(#clip0)" transform="translate(-1721 -758)"><path d="M1721 1237.5C1721 972.679 1935.46 758 2200 758 2464.54 758 2679 972.679 2679 1237.5 2679 1502.32 2464.54 1717 2200 1717 1935.46 1717 1721 1502.32 1721 1237.5Z" fill="#1930AB" fill-rule="evenodd"/><g clip-path="url(#clip1)"><g clip-path="url(#clip2)"><g clip-path="url(#clip3)"><path d="M219.664 334.112C204.748 320.854 192.957 311.289 190.448 283.73L188.838 283.73C185.136 283.724 181.499 282.761 178.278 280.936 172.949 277.601 168.857 272.611 166.63 266.731 161.232 254.42 157.16 221.936 170.513 212.656L168.003 210.951 167.672 207.4C167.151 200.865 167.056 193.194 166.914 184.671 166.441 154.129 165.825 117.148 141.25 109.713L130.738 106.541 137.651 97.9703C155.813 74.9674 176.457 54.0375 199.208 35.561 222.552 17.0465 246.796 4.73515 270.282 1.08908 295.085-2.9783 320.419 4.10882 339.51 20.4559 346.31 26.0162 352.529 32.2511 358.072 39.065 380.3 41.5052 400.443 53.2809 413.473 71.4534 421.647 82.3954 427.761 94.7347 431.514 107.867 435.382 121.271 436.982 135.226 436.249 149.157 435.515 174.301 425.239 198.223 407.507 216.065 410.629 216.137 413.693 216.931 416.456 218.385 426.684 223.831 427.016 235.716 424.364 245.707 421.665 254.041 418.303 263.701 414.894 271.845 411.011 282.783 405.424 284.819 394.391 283.635 393.87 310.768 381.322 318.202 364.465 334.112 365.175 374.977 218.432 370.147 219.332 334.112ZM212.04 367.779 255.698 482.417 277.669 419.913 266.92 408.17C258.823 396.332 261.617 382.932 276.391 380.517 281.803 379.975 287.25 379.865 292.68 380.185 298.623 379.801 304.59 380.039 310.484 380.896 324.405 383.926 325.873 397.421 318.912 408.17L308.164 419.913 330.135 482.417 369.578 367.779C397.989 393.444 498.469 398.605 529.863 416.078 573.332 440.416 572.148 487.436 581.666 531L0 531C9.4703 487.72 8.47592 440.038 51.8025 416.078 90.394 394.627 180.457 396.237 212.04 367.779Z" fill="#FFFFFF" fill-rule="evenodd" transform="matrix(1.00145 0 0 1 1908.65 972)"/></g></g></g></g></svg>