<svg width="1068" height="720" xmlns="http://www.w3.org/2000/svg" xmlns:xlink="http://www.w3.org/1999/xlink" xml:space="preserve" overflow="hidden"><defs><clipPath id="clip0"><rect x="106" y="0" width="1068" height="720"/></clipPath><linearGradient x1="553.494" y1="775.277" x2="553.494" y2="593.618" gradientUnits="userSpaceOnUse" spreadMethod="pad" id="fill1"><stop offset="0" stop-color="#D4E4FF"/><stop offset="1" stop-color="#EDFFFD"/></linearGradient><linearGradient x1="377.679" y1="1.07216" x2="877.746" y2="899.841" gradientUnits="userSpaceOnUse" spreadMethod="pad" id="fill2"><stop offset="0" stop-color="#D4E4FF"/><stop offset="1" stop-color="#EDFFFD"/></linearGradient><linearGradient x1="236.319" y1="403.933" x2="704.565" y2="403.933" gradientUnits="userSpaceOnUse" spreadMethod="pad" id="fill3"><stop offset="0" stop-color="#3FD4E6"/><stop offset="1" stop-color="#5477FF"/></linearGradient><linearGradient x1="539.009" y1="582.769" x2="92.3682" y2="582.769" gradientUnits="userSpaceOnUse" spreadMethod="pad" id="fill4"><stop offset="0" stop-color="#3FD4E6"/><stop offset="1" stop-color="#5477FF"/></linearGradient><linearGradient x1="539.006" y1="604.535" x2="92.3659" y2="604.535" gradientUnits="userSpaceOnUse" spreadMethod="pad" id="fill5"><stop offset="0" stop-color="#3FD4E6"/><stop offset="1" stop-color="#5477FF"/></linearGradient><linearGradient x1="539.006" y1="626.314" x2="92.3687" y2="626.314" gradientUnits="userSpaceOnUse" spreadMethod="pad" id="fill6"><stop offset="0" stop-color="#3FD4E6"/><stop offset="1" stop-color="#5477FF"/></linearGradient><linearGradient x1="1367.53" y1="303.182" x2="967.141" y2="303.182" gradientUnits="userSpaceOnUse" spreadMethod="pad" id="fill7"><stop offset="0" stop-color="#E4D3FF"/><stop offset="1" stop-color="#DAE1FF"/></linearGradient><linearGradient x1="553.494" y1="775.277" x2="553.494" y2="593.618" gradientUnits="userSpaceOnUse" spreadMethod="pad" id="fill8"><stop offset="0" stop-color="#F4F7FF"/><stop offset="1" stop-color="#F9FFFF"/></linearGradient><linearGradient x1="377.679" y1="1.07216" x2="877.746" y2="899.841" gradientUnits="userSpaceOnUse" spreadMethod="pad" id="fill9"><stop offset="0" stop-color="#F4F7FF"/><stop offset="1" stop-color="#F9FFFF"/></linearGradient><linearGradient x1="771.107" y1="578.105" x2="1013.01" y2="578.105" gradientUnits="userSpaceOnUse" spreadMethod="pad" id="fill10"><stop offset="0" stop-color="#3FD4E6"/><stop offset="1" stop-color="#5477FF"/></linearGradient><linearGradient x1="834.93" y1="294.175" x2="834.93" y2="473.28" gradientUnits="userSpaceOnUse" spreadMethod="pad" id="fill11"><stop offset="0" stop-color="#3FD4E6"/><stop offset="1" stop-color="#5477FF"/></linearGradient><linearGradient x1="834.803" y1="294.175" x2="834.803" y2="473.277" gradientUnits="userSpaceOnUse" spreadMethod="pad" id="fill12"><stop offset="0" stop-color="#3FD4E6"/><stop offset="1" stop-color="#5477FF"/></linearGradient><linearGradient x1="834.803" y1="328.221" x2="834.803" y2="474.215" gradientUnits="userSpaceOnUse" spreadMethod="pad" id="fill13"><stop offset="0" stop-color="#3FD4E6"/><stop offset="1" stop-color="#5477FF"/></linearGradient><linearGradient x1="553.494" y1="775.277" x2="553.494" y2="593.618" gradientUnits="userSpaceOnUse" spreadMethod="pad" id="fill14"><stop offset="0" stop-color="#D1DFF7"/><stop offset="1" stop-color="#E8F7F6"/></linearGradient><linearGradient x1="377.679" y1="1.07216" x2="877.746" y2="899.841" gradientUnits="userSpaceOnUse" spreadMethod="pad" id="fill15"><stop offset="0" stop-color="#D1DFF7"/><stop offset="1" stop-color="#E8F7F6"/></linearGradient><linearGradient x1="377.679" y1="1.07216" x2="877.746" y2="899.841" gradientUnits="userSpaceOnUse" spreadMethod="pad" id="fill16"><stop offset="0" stop-color="#D1DFF7"/><stop offset="1" stop-color="#E8F7F6"/></linearGradient><linearGradient x1="377.679" y1="1.07216" x2="877.746" y2="899.841" gradientUnits="userSpaceOnUse" spreadMethod="pad" id="fill17"><stop offset="0" stop-color="#D1DFF7"/><stop offset="1" stop-color="#E8F7F6"/></linearGradient><linearGradient x1="236.319" y1="403.933" x2="704.565" y2="403.933" gradientUnits="userSpaceOnUse" spreadMethod="pad" id="fill18"><stop offset="0" stop-color="#4BD1E1"/><stop offset="1" stop-color="#5E7EF7"/></linearGradient><linearGradient x1="539.009" y1="582.769" x2="92.3682" y2="582.769" gradientUnits="userSpaceOnUse" spreadMethod="pad" id="fill19"><stop offset="0" stop-color="#4BD1E1"/><stop offset="1" stop-color="#5E7EF7"/></linearGradient><linearGradient x1="539.006" y1="604.535" x2="92.3659" y2="604.535" gradientUnits="userSpaceOnUse" spreadMethod="pad" id="fill20"><stop offset="0" stop-color="#4BD1E1"/><stop offset="1" stop-color="#5E7EF7"/></linearGradient><linearGradient x1="539.006" y1="626.314" x2="92.3687" y2="626.314" gradientUnits="userSpaceOnUse" spreadMethod="pad" id="fill21"><stop offset="0" stop-color="#4BD1E1"/><stop offset="1" stop-color="#5E7EF7"/></linearGradient><linearGradient x1="377.679" y1="1.07216" x2="877.746" y2="899.841" gradientUnits="userSpaceOnUse" spreadMethod="pad" id="fill22"><stop offset="0" stop-color="#BACAE8"/><stop offset="1" stop-color="#CADBE6"/></linearGradient><linearGradient x1="377.679" y1="1.07216" x2="877.746" y2="899.841" gradientUnits="userSpaceOnUse" spreadMethod="pad" id="fill23"><stop offset="0" stop-color="#BACAE8"/><stop offset="1" stop-color="#CADBE6"/></linearGradient><linearGradient x1="377.679" y1="1.07216" x2="877.746" y2="899.841" gradientUnits="userSpaceOnUse" spreadMethod="pad" id="fill24"><stop offset="0" stop-color="#BACAE8"/><stop offset="1" stop-color="#CADBE6"/></linearGradient><linearGradient x1="236.319" y1="403.933" x2="704.565" y2="403.933" gradientUnits="userSpaceOnUse" spreadMethod="pad" id="fill25"><stop offset="0" stop-color="#5DC1D8"/><stop offset="1" stop-color="#6B85E8"/></linearGradient></defs><g clip-path="url(#clip0)" transform="translate(-106 0)"><path d="M741.025 708.096 357.41 708.096C349.34 708.096 342.794 701.55 342.794 693.477L342.794 670.771 383.801 670.771C402.764 679.891 424.015 684.998 446.462 684.998 468.911 684.998 490.163 679.891 509.126 670.771L734.31 670.771 734.31 688.888C734.31 696.153 736.821 702.828 741.025 708.096Z" fill="url(#fill1)" fill-rule="evenodd" transform="matrix(1.00061 0 0 1 106 0)"/><path d="M952.85 212.146C926.596 217.247 916.69 268.259 914.871 279.138 914.638 280.438 914.539 281.175 914.539 281.175 912.707 279.488 910.92 277.676 909.192 275.721 880.336 243.384 866.604 177.707 902.652 161.065 940.866 143.425 924.876 106.539 930.998 74.6321 937.12 42.7227 989.265 26.8867 989.265 26.8867 989.265 26.8867 970.713 63.8925 985.162 112.811 999.609 161.735 982.253 206.421 952.85 212.146Z" fill="#243DB2" transform="matrix(1.00061 0 0 1 106 0)"/><path d="M943.522 164.91C954.097 150.904 959.183 138.603 958.217 115.16L962.041 115.383C962.84 134.681 959.494 146.91 952.691 158.286 950.161 160.676 947.146 162.895 943.522 164.91Z" fill="#FFFFFF" fill-rule="evenodd" transform="matrix(1.00061 0 0 1 106 0)"/><path d="M921.571 287.138C893.701 318.908 879.802 333.788 863.084 316.894 862.39 316.199 861.685 315.408 860.979 314.509 859.638 312.854 858.284 310.875 856.901 308.554 837.127 275.37 862.415 187.071 923.812 172.226 985.211 157.376 952.921 112.383 987.768 81.6717 1024.98 48.8829 1067.08 91.2456 1067.08 91.2456 1037.93 81.9328 1013.52 171.975 993.867 216.213 970.092 269.721 952.797 251.557 921.571 287.138Z" fill="#243DB2" transform="matrix(1.00061 0 0 1 106 0)"/><path d="M935.678 215.481 935.678 212.524C961.226 195.92 975.562 174.927 981.221 146.603 989.581 104.727 1017.12 101.646 1017.4 101.623L1017.63 104.104C1017.37 104.134 991.634 107.13 983.653 147.1 977.757 176.646 962.681 198.378 935.678 215.481Z" fill="#FFFFFF" fill-rule="evenodd" transform="matrix(1.00061 0 0 1 106 0)"/><path d="M734.308 670.767 509.124 670.767C536.601 657.552 559.269 635.914 573.774 609.204L660.547 609.204 660.547 599.873 578.411 599.873C580.246 595.818 581.899 591.673 583.36 587.431L628.513 587.431 628.513 578.1 586.227 578.1C589.491 566.028 591.232 553.326 591.232 540.223 591.232 534.192 590.864 528.249 590.147 522.411L606.756 522.411 606.756 516.41 589.283 516.41C588.71 512.956 588.019 509.549 587.208 506.182L588.14 506.182 588.14 435.105C612.392 446.255 636.777 454.889 663.773 454.889 677.227 454.889 689.267 453.543 704.319 448.498L704.319 440.113C690.242 444.831 676.953 446.843 664.199 446.843 637.221 446.843 612.648 437.839 588.14 426.426L588.14 372.621C601.944 366.922 615.579 363.623 629.268 363.623 653.697 363.623 678.306 374.137 704.319 400.264L704.567 389.825C680.1 365.361 654.417 354.928 628.972 354.928 619.604 354.928 610.268 356.342 601.038 358.993 596.751 360.224 592.451 361.717 588.14 363.44L588.14 333.543 586.495 333.543 586.495 364.112C567.646 371.907 548.575 384.06 529.029 398.117 510.973 390.345 492.006 383.838 471.14 380.568L471.14 333.543 469.495 333.543 469.495 380.318C460.722 379.022 451.615 378.3 442.099 378.3 435.723 378.3 429.155 378.625 422.391 379.316 397.967 381.813 379.562 389.03 364.028 397.438 360.792 394.906 357.503 392.451 354.14 390.122L354.14 333.543 352.495 333.543 352.495 388.997C344.447 383.564 335.963 378.896 326.779 375.703 312.568 370.759 300.082 368.919 289.365 368.919 275.765 368.919 265.017 371.882 257.225 375.221 241.922 381.78 236.63 388.647 236.319 389.04L236.319 400.534C236.529 400.276 254.854 376.919 290.785 376.919 300.609 376.919 311.757 378.668 324.202 383.11 334.247 386.699 343.583 392.233 352.495 398.642L352.495 404.138C348.372 406.68 344.422 409.242 340.567 411.743 322.808 423.263 307.472 433.215 286.695 433.319 286.444 433.319 286.198 433.321 285.949 433.321 244.413 433.321 236.365 415.688 236.319 415.514L236.319 425.716C236.527 426.644 248.381 441.25 282.097 441.25 283.598 441.25 285.146 441.22 286.735 441.162 309.796 440.285 326.825 430.006 344.835 418.322 347.338 416.697 349.885 415.045 352.495 413.39L352.495 430.087C321.404 456.64 301.689 496.132 301.689 540.223 301.689 553.326 303.432 566.028 306.694 578.1L230.658 578.1 230.658 587.431 309.563 587.431C311.024 591.673 312.674 595.818 314.512 599.873L230.658 599.873 230.658 609.204 319.149 609.204C321.473 613.484 324.009 617.64 326.739 621.643L230.658 621.643 230.658 630.974 333.659 630.974C347.13 647.697 364.249 661.366 383.799 670.767L221.636 670.767C205.103 670.767 191.698 657.365 191.698 640.829L191.698 29.9335C191.698 13.4011 205.103-0.00460064 221.636-0.00460064L905.734-0.00460064C922.269-0.00460064 935.675 13.4011 935.675 29.9335L935.675 265.571 765.129 265.571C748.108 265.571 734.307 279.369 734.307 296.393L734.307 670.765ZM586.495 503.354C576.63 465.788 552.047 434.182 519.286 415.078 522.912 412.374 526.513 409.723 530.081 407.148 541.125 412.045 551.851 417.381 562.484 422.668 570.541 426.671 578.513 430.638 586.495 434.345L586.495 503.354ZM354.14 428.704 354.14 412.351C357.08 410.509 360.103 408.672 363.24 406.87 366.648 409.617 370.009 412.432 373.341 415.248 366.573 419.216 360.148 423.727 354.14 428.704ZM586.495 425.653C579.674 422.444 572.849 419.059 565.977 415.646 556.605 410.983 547.163 406.287 537.493 401.873 554.29 390.112 570.507 380.13 586.495 373.313L586.495 425.653ZM380.707 411.211C380.664 411.175 380.621 411.14 380.578 411.102 377.314 408.335 374.028 405.547 370.695 402.803 384.927 395.459 401.655 389.319 423.192 387.117 429.613 386.46 435.85 386.154 441.927 386.154 451.5 386.154 460.664 386.917 469.495 388.287L469.495 397.276C461.997 396.077 454.298 395.451 446.46 395.451 422.789 395.451 400.438 401.138 380.707 411.211ZM511.67 410.935C499.101 404.584 485.483 400.01 471.14 397.547L471.14 388.548C489.135 391.506 505.748 396.949 521.615 403.517 518.315 405.95 515.001 408.426 511.67 410.935ZM354.14 403.132 354.14 399.838C354.961 400.441 355.774 401.049 356.588 401.662 355.767 402.152 354.948 402.64 354.14 403.132Z" fill="url(#fill2)" fill-rule="evenodd" transform="matrix(1.00061 0 0 1 106 0)"/><path d="M235.495 333.545 237.142 333.545 237.142 506.184 235.495 506.184Z" fill="#E0E0E0" transform="matrix(1.00061 0 0 1 106 0)"/><path d="M352.495 333.545 354.14 333.545 354.14 506.184 352.495 506.184Z" fill="#E0E0E0" transform="matrix(1.00061 0 0 1 106 0)"/><path d="M469.495 333.545 471.14 333.545 471.14 506.184 469.495 506.184Z" fill="#E0E0E0" transform="matrix(1.00061 0 0 1 106 0)"/><path d="M586.495 333.545 588.14 333.545 588.14 506.184 586.495 506.184Z" fill="#E0E0E0" transform="matrix(1.00061 0 0 1 106 0)"/><path d="M703.495 333.545 705.14 333.545 705.14 506.184 703.495 506.184Z" fill="#E0E0E0" transform="matrix(1.00061 0 0 1 106 0)"/><path d="M236.319 312.271 264.344 312.271 264.344 316.772 236.319 316.772Z" fill="#D9D9D9" transform="matrix(1.00061 0 0 1 106 0)"/><path d="M236.319 320.591 276.071 320.591 276.071 325.089 236.319 325.089Z" fill="#D9D9D9" transform="matrix(1.00061 0 0 1 106 0)"/><path d="M352.057 312.271 384.96 312.271 384.96 316.772 352.057 316.772Z" fill="#D9D9D9" transform="matrix(1.00061 0 0 1 106 0)"/><path d="M352.057 320.591 373.095 320.591 373.095 325.089 352.057 325.089Z" fill="#D9D9D9" transform="matrix(1.00061 0 0 1 106 0)"/><path d="M471.14 312.271 491.529 312.271 491.529 316.772 471.14 316.772Z" fill="#D9D9D9" transform="matrix(1.00061 0 0 1 106 0)"/><path d="M471.14 320.591 494.902 320.591 494.902 325.089 471.14 325.089Z" fill="#D9D9D9" transform="matrix(1.00061 0 0 1 106 0)"/><path d="M588.14 312.271 617.84 312.271 617.84 316.772 588.14 316.772Z" fill="#D9D9D9" transform="matrix(1.00061 0 0 1 106 0)"/><path d="M588.14 320.591 611.905 320.591 611.905 325.089 588.14 325.089Z" fill="#D9D9D9" transform="matrix(1.00061 0 0 1 106 0)"/><path d="M704.318 312.271 722.056 312.271 722.056 316.772 704.318 316.772Z" fill="#D9D9D9" transform="matrix(1.00061 0 0 1 106 0)"/><path d="M704.318 320.591 718.511 320.591 718.511 325.089 704.318 325.089Z" fill="#D9D9D9" transform="matrix(1.00061 0 0 1 106 0)"/><path d="M353.319 516.412 371.932 516.412 371.932 522.413 353.319 522.413Z" fill="#B8B8B8" transform="matrix(1.00061 0 0 1 106 0)"/><path d="M471.14 516.412 489.756 516.412 489.756 522.413 471.14 522.413Z" fill="#B8B8B8" transform="matrix(1.00061 0 0 1 106 0)"/><path d="M588.14 516.412 606.756 516.412 606.756 522.413 588.14 522.413Z" fill="#B8B8B8" transform="matrix(1.00061 0 0 1 106 0)"/><path d="M705.14 516.412 723.756 516.412 723.756 522.413 705.14 522.413Z" fill="#B8B8B8" transform="matrix(1.00061 0 0 1 106 0)"/><path d="M663.774 454.891C636.778 454.891 612.393 446.257 588.141 435.107 587.594 434.854 587.044 434.6 586.496 434.347 578.514 430.64 570.542 426.674 562.486 422.67 551.852 417.384 541.126 412.047 530.082 407.151 532.565 405.357 535.036 403.598 537.494 401.875 547.164 406.289 556.607 410.985 565.978 415.648 572.85 419.061 579.675 422.447 586.496 425.655 587.047 425.913 587.594 426.17 588.141 426.428 612.649 437.842 637.222 446.846 664.2 446.846 676.954 446.846 690.243 444.833 704.32 440.115L704.32 448.5C689.268 453.545 677.228 454.891 663.774 454.891ZM282.099 441.252C248.382 441.252 236.528 426.646 236.32 425.718L236.32 415.516C236.366 415.691 244.414 433.323 285.95 433.323 286.199 433.323 286.445 433.321 286.696 433.321 307.473 433.217 322.809 423.266 340.569 411.745 344.423 409.244 348.374 406.682 352.496 404.14 353.042 403.806 353.591 403.469 354.141 403.134 354.95 402.643 355.768 402.154 356.589 401.665 358.829 403.363 361.044 405.104 363.241 406.872 360.104 408.674 357.081 410.512 354.141 412.354 353.591 412.701 353.042 413.045 352.496 413.393 349.886 415.047 347.34 416.699 344.836 418.324 326.826 430.008 309.797 440.287 286.736 441.164 285.147 441.222 283.599 441.252 282.099 441.252ZM521.616 403.52C505.749 396.951 489.136 391.508 471.141 388.55 470.596 388.462 470.044 388.373 469.496 388.289 460.665 386.919 451.502 386.156 441.928 386.156 435.851 386.156 429.615 386.462 423.193 387.119 401.656 389.321 384.928 395.461 370.696 402.805 368.495 400.993 366.275 399.199 364.029 397.441 379.563 389.032 397.969 381.815 422.392 379.319 429.156 378.627 435.724 378.302 442.1 378.302 451.616 378.302 460.723 379.025 469.496 380.32 470.047 380.401 470.596 380.484 471.141 380.571 492.007 383.84 510.975 390.348 529.03 398.12 526.567 399.891 524.097 401.693 521.616 403.52Z" fill="#243DB2" fill-rule="evenodd" transform="matrix(1.00061 0 0 1 106 0)"/><path d="M373.341 415.25C370.009 412.435 366.648 409.619 363.24 406.872 361.043 405.104 358.828 403.363 356.588 401.665 355.774 401.051 354.961 400.443 354.14 399.84 353.595 399.437 353.045 399.039 352.495 398.644 343.583 392.235 334.247 386.701 324.202 383.112 311.757 378.67 300.609 376.922 290.785 376.922 254.854 376.922 236.529 400.279 236.319 400.537L236.319 389.042C236.63 388.649 241.922 381.782 257.225 375.224 265.017 371.884 275.765 368.921 289.365 368.921 300.082 368.921 312.568 370.761 326.779 375.705 335.963 378.898 344.447 383.566 352.495 388.999 353.045 389.369 353.595 389.744 354.14 390.124 357.503 392.453 360.792 394.909 364.028 397.441 366.274 399.199 368.493 400.993 370.695 402.805 374.028 405.549 377.314 408.337 380.578 411.104 380.621 411.142 380.664 411.177 380.707 411.213 378.206 412.49 375.756 413.836 373.341 415.25ZM519.286 415.08C516.792 413.623 514.255 412.245 511.67 410.937 515.001 408.428 518.315 405.952 521.615 403.52 524.096 401.693 526.566 399.891 529.029 398.12 548.575 384.062 567.646 371.909 586.495 364.114 587.046 363.886 587.592 363.663 588.14 363.442 592.451 361.719 596.751 360.227 601.038 358.995 610.268 356.345 619.604 354.931 628.972 354.931 654.417 354.931 680.1 365.364 704.567 389.828L704.319 400.266C678.306 374.139 653.697 363.625 629.268 363.625 615.579 363.625 601.944 366.925 588.14 372.624 587.59 372.852 587.046 373.08 586.495 373.315 570.507 380.132 554.29 390.114 537.493 401.875 535.035 403.598 532.564 405.357 530.081 407.151 526.513 409.725 522.912 412.377 519.286 415.08Z" fill="url(#fill3)" fill-rule="evenodd" transform="matrix(1.00061 0 0 1 106 0)"/><path d="M339.113 143.956C335.152 163.607 319.435 177.892 300.759 180.956 296.309 181.686 291.689 181.78 287.019 181.156 285.99 181.017 284.954 180.847 283.922 180.639 273.535 178.546 264.65 173.172 258.13 165.81 248.713 155.186 244.22 140.433 247.238 125.449 248.237 120.502 249.978 115.898 252.321 111.727 262.007 94.4948 282.007 84.6523 302.429 88.7647 327.8 93.8789 344.222 118.587 339.113 143.956ZM305.518 73.4337C278.279 67.9445 251.61 81.0713 238.686 104.053 235.558 109.618 233.237 115.758 231.904 122.36 227.88 142.346 233.873 162.026 246.43 176.194 255.127 186.011 266.979 193.181 280.833 195.973 282.212 196.249 283.59 196.48 284.966 196.665 291.193 197.493 297.35 197.37 303.29 196.397 328.201 192.309 349.168 173.257 354.449 147.047 361.263 113.209 339.359 80.253 305.518 73.4337Z" fill="#FFFFFF" transform="matrix(1.00061 0 0 1 106 0)"/><path d="M258.13 165.81 246.43 176.194C233.873 162.026 227.88 142.346 231.904 122.36 233.237 115.758 235.558 109.618 238.686 104.053L252.321 111.727C249.978 115.898 248.237 120.502 247.238 125.449 244.22 140.433 248.713 155.186 258.13 165.81Z" fill="#1A598C" transform="matrix(1.00061 0 0 1 106 0)"/><path d="M287.019 181.156 284.966 196.665C283.59 196.48 282.212 196.249 280.833 195.973 266.979 193.181 255.127 186.011 246.43 176.194L258.13 165.81C264.65 173.172 273.535 178.546 283.922 180.639 284.954 180.847 285.99 181.017 287.019 181.156Z" fill="#2273B5" transform="matrix(1.00061 0 0 1 106 0)"/><path d="M303.29 196.397C297.35 197.37 291.193 197.493 284.966 196.665L287.019 181.156C291.689 181.78 296.309 181.686 300.759 180.956L303.29 196.397Z" fill="#3D96E0" transform="matrix(1.00061 0 0 1 106 0)"/><path d="M447.489 177.816C429.044 169.963 418.235 151.677 419.014 132.77 419.198 128.264 420.042 123.72 421.601 119.273 421.942 118.29 422.32 117.315 422.733 116.344 426.884 106.595 433.947 98.9827 442.474 94.0865 454.779 87.0136 470.142 85.5972 484.203 91.5878 488.846 93.5643 493.002 96.2028 496.615 99.3422 511.531 112.312 517.122 133.89 508.962 153.058 498.823 176.871 471.302 187.953 447.489 177.816ZM523.35 159.186C534.237 133.619 526.782 104.846 506.886 87.541 502.071 83.3498 496.524 79.8349 490.333 77.1964 471.574 69.2091 451.085 71.0971 434.672 80.5238 423.298 87.0596 413.876 97.2161 408.342 110.219 407.79 111.511 407.285 112.813 406.829 114.124 404.754 120.054 403.628 126.11 403.383 132.123 402.344 157.348 416.76 181.734 441.359 192.207 473.122 205.73 509.828 190.945 523.35 159.186Z" fill="#FFFFFF" transform="matrix(1.00061 0 0 1 106 0)"/><path d="M442.474 94.0865 434.672 80.5238C451.085 71.0971 471.574 69.2091 490.333 77.1964 496.524 79.8349 502.071 83.3498 506.886 87.541L496.615 99.3422C493.002 96.2028 488.846 93.5643 484.203 91.5878 470.142 85.5972 454.779 87.0136 442.474 94.0865Z" fill="#4B59C7" transform="matrix(1.00061 0 0 1 106 0)"/><path d="M421.601 119.273 406.829 114.124C407.285 112.813 407.79 111.511 408.342 110.219 413.876 97.2161 423.298 87.0596 434.672 80.5238L442.474 94.0865C433.947 98.9827 426.884 106.595 422.733 116.344 422.32 117.315 421.942 118.29 421.601 119.273Z" fill="#6F5BE0" transform="matrix(1.00061 0 0 1 106 0)"/><path d="M403.383 132.123C403.628 126.11 404.754 120.054 406.829 114.124L421.601 119.273C420.042 123.72 419.198 128.264 419.014 132.77L403.383 132.123Z" fill="#B487FE" transform="matrix(1.00061 0 0 1 106 0)"/><path d="M676.098 162.69C664.127 178.769 643.814 184.97 625.619 179.765 621.283 178.523 617.064 176.635 613.11 174.076 612.236 173.511 611.374 172.913 610.528 172.284 602.034 165.957 596.294 157.3 593.539 147.861 589.566 134.235 591.804 118.974 600.931 106.714 603.947 102.667 607.487 99.2484 611.39 96.476 627.506 85.0325 649.792 84.6748 666.501 97.1172 687.261 112.575 691.557 141.933 676.098 162.69ZM675.845 84.5758C653.56 67.9779 623.837 68.4541 602.338 83.7172 597.13 87.4116 592.409 91.9731 588.388 97.3731 576.211 113.726 573.226 134.083 578.525 152.252 582.202 164.847 589.855 176.39 601.19 184.831 602.315 185.67 603.463 186.47 604.626 187.223 609.905 190.632 615.528 193.15 621.313 194.805 645.582 201.751 672.677 193.477 688.649 172.031 709.262 144.348 703.533 105.191 675.845 84.5758Z" fill="#FFFFFF" transform="matrix(1.00061 0 0 1 106 0)"/><path d="M593.54 147.861 578.525 152.252C573.226 134.083 576.212 113.726 588.388 97.3731 592.41 91.9731 597.131 87.4116 602.339 83.7172L611.39 96.476C607.488 99.2484 603.948 102.667 600.932 106.714 591.804 118.974 589.567 134.235 593.54 147.861Z" fill="#1A598C" transform="matrix(1.00061 0 0 1 106 0)"/><path d="M613.11 174.076 604.626 187.223C603.462 186.47 602.315 185.67 601.189 184.831 589.854 176.39 582.201 164.847 578.524 152.252L593.539 147.861C596.293 157.3 602.033 165.957 610.528 172.284 611.374 172.913 612.236 173.511 613.11 174.076Z" fill="#2273B5" transform="matrix(1.00061 0 0 1 106 0)"/><path d="M621.311 194.805C615.525 193.15 609.902 190.632 604.623 187.223L613.108 174.076C617.061 176.635 621.28 178.523 625.616 179.765L621.311 194.805Z" fill="#3788CC" transform="matrix(1.00061 0 0 1 106 0)"/><path d="M230.658 226.914 355.693 226.914 355.693 236.554 230.658 236.554Z" fill="#C4C4C4" transform="matrix(1.00061 0 0 1 106 0)"/><path d="M230.658 247.408 324.227 247.408 324.227 257.047 230.658 257.047Z" fill="#C4C4C4" transform="matrix(1.00061 0 0 1 106 0)"/><path d="M403.329 226.914 472.275 226.914 472.275 236.554 403.329 236.554Z" fill="#C4C4C4" transform="matrix(1.00061 0 0 1 106 0)"/><path d="M403.329 247.408 505.667 247.408 505.667 257.047 403.329 257.047Z" fill="#C4C4C4" transform="matrix(1.00061 0 0 1 106 0)"/><path d="M587.346 226.914 663.973 226.914 663.973 236.554 587.346 236.554Z" fill="#C4C4C4" transform="matrix(1.00061 0 0 1 106 0)"/><path d="M587.346 247.408 676.101 247.408 676.101 257.047 587.346 257.047Z" fill="#C4C4C4" transform="matrix(1.00061 0 0 1 106 0)"/><path d="M781.303 101.816 872.228 101.816 872.228 110.941 781.303 110.941Z" fill="#B8D6FF" transform="matrix(1.00061 0 0 1 106 0)"/><path d="M781.303 130.056 885.808 130.056 885.808 139.181 781.303 139.181Z" fill="#B8D6FF" transform="matrix(1.00061 0 0 1 106 0)"/><path d="M781.148 158.141 835.216 158.141 835.216 167.264 781.148 167.264Z" fill="#B8D6FF" transform="matrix(1.00061 0 0 1 106 0)"/><path d="M781.148 186.225 864.452 186.225 864.452 195.35 781.148 195.35Z" fill="#B8D6FF" transform="matrix(1.00061 0 0 1 106 0)"/><path d="M230.658 578.105 628.513 578.105 628.513 587.435 230.658 587.435Z" fill="#FFFFFF" transform="matrix(1.00061 0 0 1 106 0)"/><path d="M230.658 599.877 660.547 599.877 660.547 609.208 230.658 609.208Z" fill="#FFFFFF" transform="matrix(1.00061 0 0 1 106 0)"/><path d="M230.658 621.644 509.598 621.644 509.598 630.975 230.658 630.975Z" fill="#FFFFFF" transform="matrix(1.00061 0 0 1 106 0)"/><path d="M309.563 587.433 230.658 587.433 230.658 578.102 306.694 578.102C307.548 581.257 308.503 584.366 309.563 587.433Z" fill="url(#fill4)" fill-rule="evenodd" transform="matrix(1.00061 0 0 1 106 0)"/><path d="M319.149 609.205 230.658 609.205 230.658 599.874 314.512 599.874C315.946 603.044 317.496 606.159 319.149 609.205Z" fill="url(#fill5)" fill-rule="evenodd" transform="matrix(1.00061 0 0 1 106 0)"/><path d="M333.659 630.978 230.658 630.978 230.658 621.647 326.739 621.647C328.923 624.853 331.232 627.962 333.659 630.978Z" fill="url(#fill6)" fill-rule="evenodd" transform="matrix(1.00061 0 0 1 106 0)"/><path d="M1018.99 719.712 765.132 719.712C755.374 719.712 746.672 715.174 741.026 708.096L749.573 708.096C757.646 708.096 764.192 701.55 764.192 693.477L764.192 670.771 905.738 670.771C922.273 670.771 935.679 657.368 935.679 640.833L935.679 273.592C939.882 270.277 943.83 267.758 947.604 265.576L1018.99 265.576C1036.01 265.576 1049.81 279.374 1049.81 296.398L1049.81 688.888C1049.81 705.912 1036.01 719.712 1018.99 719.712Z" fill="url(#fill7)" fill-rule="evenodd" transform="matrix(1.00061 0 0 1 106 0)"/><path d="M749.571 708.096 741.023 708.096C736.819 702.828 734.308 696.153 734.308 688.888L734.308 670.771 764.19 670.771 764.19 693.477C764.19 701.55 757.644 708.096 749.571 708.096Z" fill="url(#fill8)" fill-rule="evenodd" transform="matrix(1.00061 0 0 1 106 0)"/><path d="M935.678 273.591 935.678 265.575 947.603 265.575C943.83 267.757 939.882 270.276 935.678 273.591Z" fill="#D4E4CB" transform="matrix(1.00061 0 0 1 106 0)"/><path d="M905.734 670.767 734.306 670.767 734.306 296.395C734.306 279.371 748.107 265.573 765.128 265.573L935.674 265.573 935.674 640.829C935.674 657.365 922.269 670.767 905.734 670.767Z" fill="url(#fill9)" fill-rule="evenodd" transform="matrix(1.00061 0 0 1 106 0)"/><path d="M770.486 492.642 771.733 492.642 771.733 652.16 770.486 652.16Z" fill="#42CDE8" transform="matrix(1.00061 0 0 1 106 0)"/><path d="M830.962 492.642 832.206 492.642 832.206 652.16 830.962 652.16Z" fill="#42CDE8" transform="matrix(1.00061 0 0 1 106 0)"/><path d="M891.437 492.642 892.681 492.642 892.681 652.16 891.437 652.16Z" fill="#42CDE8" transform="matrix(1.00061 0 0 1 106 0)"/><path d="M771.107 587.479C771.107 587.479 793.522 601.061 817.34 576.483 841.156 551.905 866.841 532.501 891.126 553.2 915.408 573.896 930.352 579.068 954.635 555.787 978.918 532.501 977.053 504.041 1013.01 504.041L1013.01 652.157 771.107 652.157 771.107 587.479Z" fill="url(#fill10)" fill-rule="evenodd" transform="matrix(1.00061 0 0 1 106 0)"/><path d="M771.107 479.356 795.083 479.356 795.083 485.161 771.107 485.161Z" fill="#7BD6E8" transform="matrix(1.00061 0 0 1 106 0)"/><path d="M831.583 479.356 846.607 479.356 846.607 485.161 831.583 485.161Z" fill="#7BD6E8" transform="matrix(1.00061 0 0 1 106 0)"/><path d="M892.058 479.356 910.58 479.356 910.58 485.161 892.058 485.161Z" fill="#7BD6E8" transform="matrix(1.00061 0 0 1 106 0)"/><path d="M921.571 374.466 1002.44 374.466 1002.44 384.694 921.571 384.694Z" fill="#FFFFFF" transform="matrix(1.00061 0 0 1 106 0)"/><path d="M921.571 417.341 995.803 417.341 995.803 427.568 921.571 427.568Z" fill="#FFFFFF" transform="matrix(1.00061 0 0 1 106 0)"/><path d="M921.571 395.902 985.796 395.902 985.796 406.132 921.571 406.132Z" fill="#FFFFFF" transform="matrix(1.00061 0 0 1 106 0)"/><path d="M849.065 359.867C849.065 367.677 842.735 374.007 834.925 374.007 827.117 374.007 820.787 367.677 820.787 359.867 820.787 352.057 827.117 345.727 834.925 345.727 842.735 345.727 849.065 352.057 849.065 359.867Z" fill="url(#fill11)" fill-rule="evenodd" transform="matrix(1.00061 0 0 1 106 0)"/><path d="M860.434 405.96 860.434 432.849C852.624 436.405 843.942 438.379 834.802 438.379 825.664 438.379 816.982 436.405 809.174 432.849L809.174 405.96C809.174 391.812 820.641 380.333 834.802 380.333 848.963 380.333 860.434 391.812 860.434 405.96Z" fill="url(#fill12)" fill-rule="evenodd" transform="matrix(1.00061 0 0 1 106 0)"/><path d="M834.803 316.029C801.535 316.029 774.471 343.094 774.471 376.362 774.471 399.977 788.365 421.547 809.87 431.321 817.713 434.887 826.103 436.696 834.803 436.696 843.508 436.696 851.893 434.887 859.736 431.321 881.241 421.547 895.138 399.977 895.138 376.362 895.138 343.094 868.071 316.029 834.803 316.029ZM834.803 440.059C825.617 440.059 816.76 438.148 808.479 434.383 785.778 424.069 771.108 401.29 771.108 376.362 771.108 341.241 799.682 312.666 834.803 312.666 869.928 312.666 898.501 341.241 898.501 376.362 898.501 401.29 883.833 424.069 861.13 434.383 852.846 438.148 843.989 440.059 834.803 440.059Z" fill="url(#fill13)" fill-rule="evenodd" transform="matrix(1.00061 0 0 1 106 0)"/><path d="M7.74172 647.045 275.271 601.492 267.527 556.01-3.26895e-14 601.561 7.74172 647.045Z" fill="#243DB2" fill-rule="evenodd" transform="matrix(1.00061 0 0 1 106 0)"/><path d="M274.336 596.013 288.626 593.58 282.749 559.058 268.459 561.49 274.336 596.013Z" fill="#2D3038" transform="matrix(1.00061 0 0 1 106 0)"/><path d="M446.46 684.995C424.013 684.995 402.762 679.888 383.799 670.768L509.124 670.768C490.161 679.888 468.91 684.995 446.46 684.995Z" fill="url(#fill14)" fill-rule="evenodd" transform="matrix(1.00061 0 0 1 106 0)"/><path d="M509.124 670.767 383.799 670.767C364.249 661.366 347.13 647.697 333.659 630.974L509.598 630.974 509.598 621.643 326.739 621.643C324.009 617.64 321.473 613.484 319.149 609.204L573.774 609.204C559.269 635.914 536.601 657.552 509.124 670.767ZM578.411 599.873 575.069 599.873C576.972 595.826 578.69 591.676 580.211 587.431L583.36 587.431C581.899 591.673 580.246 595.818 578.411 599.873ZM570.736 599.873 314.512 599.873C312.674 595.818 311.024 591.673 309.563 587.431L567.842 587.431C568.876 591.473 569.841 595.616 570.736 599.873ZM586.227 578.1 583.191 578.1C586.617 565.909 588.452 553.05 588.452 539.764 588.452 487.093 559.644 441.154 516.919 416.847 517.712 416.249 518.498 415.666 519.286 415.078 552.047 434.182 576.63 465.788 586.495 503.354L586.495 506.182 587.208 506.182C588.019 509.549 588.71 512.956 589.283 516.41L588.14 516.41 588.14 522.411 590.147 522.411C590.864 528.249 591.232 534.192 591.232 540.223 591.232 553.326 589.491 566.028 586.227 578.1Z" fill="url(#fill15)" fill-rule="evenodd" transform="matrix(1.00061 0 0 1 106 0)"/><path d="M587.208 506.184 586.496 506.184 586.496 503.356C586.742 504.294 586.98 505.239 587.208 506.184Z" fill="#DCDCDC" transform="matrix(1.00061 0 0 1 106 0)"/><path d="M590.147 522.413 588.14 522.413 588.14 516.412 589.283 516.412C589.612 518.399 589.901 520.401 590.147 522.413Z" fill="#B8B8B8" transform="matrix(1.00061 0 0 1 106 0)"/><path d="M565.275 578.105 306.694 578.105C303.432 566.032 301.689 553.331 301.689 540.227 301.689 496.136 321.404 456.644 352.495 430.092L352.495 434.79C352.333 434.938 352.174 435.082 352.014 435.229 352.014 435.229 352.176 435.208 352.495 435.173L352.495 506.186 354.14 506.186 354.14 435.016C356.922 434.772 362.315 434.405 369.643 434.405 377.637 434.405 387.932 434.841 399.663 436.341 413.347 445.918 427.954 452.94 444.724 452.937 448.794 452.937 452.99 452.522 457.334 451.63 461.379 453.342 465.446 455.221 469.495 457.278L469.495 506.186 471.14 506.186 471.14 458.122C509.182 477.901 546.325 513.738 565.275 578.105ZM471.14 516.414 471.14 522.415 489.756 522.415 489.756 516.414 471.14 516.414ZM353.319 516.414 353.319 522.415 371.932 522.415 371.932 516.414 353.319 516.414ZM354.14 433.331 354.14 428.708C360.148 423.732 366.573 419.221 373.341 415.253 374.063 415.868 374.788 416.479 375.508 417.092 375.697 417.249 375.885 417.409 376.075 417.571 368.258 422.128 360.911 427.414 354.14 433.331Z" fill="url(#fill16)" fill-rule="evenodd" transform="matrix(1.00061 0 0 1 106 0)"/><path d="M354.14 506.184 352.495 506.184 352.495 435.171C352.853 435.132 353.405 435.077 354.14 435.013L354.14 506.184ZM352.495 434.788 352.495 430.09C353.043 429.621 353.587 429.165 354.14 428.706L354.14 433.328C353.587 433.81 353.04 434.296 352.495 434.788Z" fill="#DCDCDC" transform="matrix(1.00061 0 0 1 106 0)"/><path d="M471.14 506.184 469.495 506.184 469.495 457.276C470.048 457.555 470.587 457.833 471.14 458.12L471.14 506.184Z" fill="#DCDCDC" transform="matrix(1.00061 0 0 1 106 0)"/><path d="M353.319 516.412 371.932 516.412 371.932 522.413 353.319 522.413Z" fill="#B8B8B8" transform="matrix(1.00061 0 0 1 106 0)"/><path d="M471.14 516.412 489.756 516.412 489.756 522.413 471.14 522.413Z" fill="#B8B8B8" transform="matrix(1.00061 0 0 1 106 0)"/><path d="M438.911 444.866C433.098 444.228 427.541 442.636 422.148 440.33 427.599 441.577 433.209 443.075 438.911 444.866ZM383.465 413.55C382.55 412.777 381.63 411.996 380.707 411.213 400.438 401.14 422.789 395.454 446.46 395.454 454.298 395.454 461.997 396.079 469.495 397.278L469.495 400.197C462.21 399.039 454.737 398.436 447.124 398.436 424.223 398.436 402.595 403.882 383.465 413.55ZM509.233 412.779C497.373 406.968 484.581 402.769 471.14 400.468L471.14 397.549C485.483 400.012 499.101 404.587 511.67 410.937 510.86 411.55 510.046 412.166 509.233 412.779Z" fill="url(#fill17)" fill-rule="evenodd" transform="matrix(1.00061 0 0 1 106 0)"/><path d="M471.14 400.468C470.595 400.375 470.043 400.284 469.495 400.197L469.495 397.278C470.048 397.364 470.592 397.456 471.14 397.549L471.14 400.468Z" fill="#DCDCDC" transform="matrix(1.00061 0 0 1 106 0)"/><path d="M444.724 452.935C427.954 452.937 413.347 445.915 399.663 436.339 406.705 437.238 414.262 438.523 422.148 440.33 427.541 442.636 433.098 444.228 438.911 444.866 444.97 446.769 451.138 449.007 457.334 451.627 452.99 452.519 448.794 452.935 444.724 452.935ZM376.075 417.569C375.885 417.407 375.697 417.247 375.508 417.09 374.788 416.476 374.063 415.866 373.341 415.25 375.756 413.836 378.206 412.49 380.707 411.213 381.63 411.996 382.55 412.777 383.465 413.55 380.956 414.817 378.493 416.16 376.075 417.569ZM516.919 416.849C514.405 415.418 511.843 414.059 509.233 412.779 510.046 412.166 510.86 411.55 511.67 410.937 514.255 412.245 516.792 413.623 519.286 415.08 518.498 415.668 517.712 416.251 516.919 416.849Z" fill="url(#fill18)" fill-rule="evenodd" transform="matrix(1.00061 0 0 1 106 0)"/><path d="M583.361 587.433 580.211 587.433C581.309 584.369 582.302 581.259 583.191 578.102L586.227 578.102C585.373 581.257 584.418 584.366 583.361 587.433ZM567.842 587.433 437.819 587.433 437.819 578.102 306.694 578.102 565.275 578.102C566.172 581.148 567.026 584.257 567.842 587.433Z" fill="#F8F8F8" transform="matrix(1.00061 0 0 1 106 0)"/><path d="M573.774 609.205 454.498 609.205 454.498 599.874 314.512 599.874 570.736 599.874C571.164 601.914 571.575 603.972 571.97 606.063L571.972 606.06C573.052 604.025 574.086 601.965 575.069 599.874L578.411 599.874C576.975 603.044 575.427 606.159 573.774 609.205Z" fill="#F8F8F8" transform="matrix(1.00061 0 0 1 106 0)"/><path d="M509.598 630.978 375.9 630.978 375.9 621.647 326.739 621.647 509.598 621.647 509.598 630.978Z" fill="#F8F8F8" transform="matrix(1.00061 0 0 1 106 0)"/><path d="M437.819 587.433 309.563 587.433C308.503 584.366 307.548 581.257 306.694 578.102L437.819 578.102 437.819 587.433Z" fill="url(#fill19)" fill-rule="evenodd" transform="matrix(1.00061 0 0 1 106 0)"/><path d="M454.498 609.205 319.149 609.205C317.496 606.159 315.946 603.044 314.512 599.874L454.498 599.874 454.498 609.205Z" fill="url(#fill20)" fill-rule="evenodd" transform="matrix(1.00061 0 0 1 106 0)"/><path d="M375.9 630.978 333.659 630.978C331.232 627.962 328.923 624.853 326.739 621.647L375.9 621.647 375.9 630.978Z" fill="url(#fill21)" fill-rule="evenodd" transform="matrix(1.00061 0 0 1 106 0)"/><path d="M575.069 599.877 570.736 599.877C569.841 595.62 568.876 591.477 567.842 587.435L580.211 587.435C578.69 591.68 576.972 595.83 575.069 599.877ZM583.191 578.104 565.275 578.104C546.325 513.738 509.182 477.9 471.14 458.121L471.14 447.324C479.323 443.923 488.005 438.847 497.287 431.752 503.941 426.663 510.479 421.671 516.919 416.851 559.644 441.158 588.452 487.097 588.452 539.768 588.452 553.054 586.617 565.913 583.191 578.104ZM469.495 457.278C465.446 455.22 461.379 453.342 457.334 451.629 461.265 450.823 465.314 449.624 469.495 447.987L469.495 457.278Z" fill="url(#fill22)" fill-rule="evenodd" transform="matrix(1.00061 0 0 1 106 0)"/><path d="M471.14 458.12C470.587 457.833 470.048 457.555 469.495 457.276L469.495 447.986C470.04 447.773 470.59 447.55 471.14 447.322L471.14 458.12Z" fill="#C2C8D4" transform="matrix(1.00061 0 0 1 106 0)"/><path d="M444.61 445.178C442.679 445.178 440.784 445.072 438.911 444.866 433.209 443.075 427.599 441.577 422.148 440.33 408.804 434.618 396.427 424.512 383.465 413.55 402.595 403.882 424.223 398.436 447.124 398.436 454.737 398.436 462.21 399.039 469.495 400.197L469.495 439.542C460.562 443.468 452.345 445.178 444.61 445.178ZM471.14 438.797 471.14 400.468C484.581 402.769 497.373 406.968 509.233 412.779 503.706 416.963 498.138 421.228 492.523 425.521 484.936 431.321 477.84 435.678 471.14 438.797Z" fill="url(#fill23)" fill-rule="evenodd" transform="matrix(1.00061 0 0 1 106 0)"/><path d="M469.495 439.542 469.495 400.197C470.043 400.284 470.595 400.375 471.14 400.468L471.14 438.797C470.59 439.053 470.043 439.301 469.495 439.542Z" fill="#C2C8D4" transform="matrix(1.00061 0 0 1 106 0)"/><path d="M399.663 436.339C387.932 434.839 377.637 434.403 369.643 434.403 362.315 434.403 356.922 434.77 354.14 435.013L354.14 433.328C360.911 427.411 368.258 422.125 376.075 417.569 383.784 424.102 391.561 430.668 399.663 436.339ZM352.014 435.226C352.174 435.08 352.333 434.935 352.495 434.788L352.495 435.171C352.176 435.206 352.014 435.226 352.014 435.226Z" fill="url(#fill24)" fill-rule="evenodd" transform="matrix(1.00061 0 0 1 106 0)"/><path d="M352.495 435.171 352.495 434.788C353.04 434.296 353.587 433.81 354.14 433.328L354.14 435.013C353.405 435.077 352.853 435.132 352.495 435.171Z" fill="#C2C8D4" transform="matrix(1.00061 0 0 1 106 0)"/><path d="M457.334 451.627C451.138 449.007 444.97 446.769 438.911 444.866 440.784 445.072 442.679 445.178 444.61 445.178 452.345 445.178 460.562 443.468 469.495 439.542 470.043 439.301 470.59 439.053 471.14 438.797 477.84 435.678 484.936 431.321 492.523 425.521 498.138 421.228 503.706 416.963 509.233 412.779 511.843 414.059 514.405 415.418 516.919 416.849 510.479 421.669 503.941 426.661 497.287 431.75 488.005 438.845 479.323 443.921 471.14 447.322 470.59 447.55 470.04 447.773 469.495 447.986 465.314 449.623 461.265 450.821 457.334 451.627ZM422.148 440.33C414.262 438.523 406.705 437.238 399.663 436.339 391.561 430.668 383.784 424.102 376.075 417.569 378.493 416.16 380.956 414.817 383.465 413.55 396.427 424.512 408.804 434.618 422.148 440.33Z" fill="url(#fill25)" fill-rule="evenodd" transform="matrix(1.00061 0 0 1 106 0)"/><path d="M580.21 587.433 567.841 587.433C567.025 584.257 566.171 581.148 565.274 578.102L583.19 578.102C582.3 581.259 581.307 584.369 580.21 587.433Z" fill="#D6DCE8" transform="matrix(1.00061 0 0 1 106 0)"/><path d="M571.97 606.065C571.575 603.974 571.164 601.917 570.736 599.877L575.069 599.877C574.086 601.967 573.052 604.028 571.972 606.062L571.97 606.065Z" fill="#D6DCE8" transform="matrix(1.00061 0 0 1 106 0)"/><path d="M446.47 680.802C368.833 680.802 305.895 617.875 305.895 540.225 305.895 462.598 368.833 399.655 446.47 399.655 524.108 399.655 587.046 462.598 587.046 540.225 587.046 617.875 524.108 680.802 446.47 680.802ZM446.47 372.317C353.732 372.317 278.555 447.499 278.555 540.225 278.555 632.969 353.732 708.145 446.47 708.145 539.209 708.145 614.381 632.969 614.381 540.225 614.381 447.499 539.209 372.317 446.47 372.317Z" fill="#3F444F" transform="matrix(1.00061 0 0 1 106 0)"/></g></svg>