<svg width="1147" height="1132" xmlns="http://www.w3.org/2000/svg" xmlns:xlink="http://www.w3.org/1999/xlink" xml:space="preserve" overflow="hidden"><defs><clipPath id="clip0"><rect x="1625" y="669" width="1147" height="1132"/></clipPath></defs><g clip-path="url(#clip0)" transform="translate(-1625 -669)"><path d="M2735.46 1248.17C2875.27 1587.09 2590.55 1800.93 2247.25 1800.93 1903.95 1800.93 1625.83 1553.46 1625.83 1248.17 1625.83 942.883 1902.62 669.93 2245.83 669.93 2589.04 669.93 2713.41 812.732 2735.46 1248.17" fill="#FFFFFF" fill-rule="evenodd"/><path d="M2368.26 1125.45C2364.7 1116.48 2357.84 1109.46 2348.96 1105.67L2207.03 1044.9C2190.75 1037.92 2172.48 1037.03 2155.58 1042.39L2108.58 1057.27C2103.77 1058.8 2101.11 1063.92 2102.64 1068.72 2104.17 1073.51 2109.31 1076.17 2114.12 1074.64L2161.12 1059.75C2173.83 1055.72 2187.56 1056.4 2199.8 1061.65L2341.75 1122.42C2346.13 1124.29 2349.51 1127.75 2351.27 1132.17 2353.03 1136.59 2352.95 1141.42 2351.06 1145.76L2359.41 1149.45 2350.98 1145.92C2347.22 1154.39 2337.41 1158.55 2328.66 1155.39L2220.09 1116.23C2209.78 1112.5 2198.36 1112.38 2187.94 1115.89L2092.53 1148C2077.74 1152.99 2069.16 1168.7 2072.99 1183.78 2075.29 1192.75 2081.47 1200.04 2089.95 1203.79 2096.8 1206.82 2104.48 1207.2 2111.58 1204.86L2194.83 1177.45C2201.43 1175.29 2208.71 1178.57 2211.42 1184.96 2212.89 1188.39 2212.85 1192.17 2211.32 1195.61 2209.84 1198.93 2207.14 1201.46 2203.72 1202.72L2072.35 1251.36C2071.53 1251.68 2070.68 1251.97 2069.83 1252.25 2048.92 1259.16 2025.11 1255.6 2006.14 1242.72L1937.12 1195.83C1932.95 1193 1927.26 1194.07 1924.42 1198.23 1921.57 1202.39 1922.65 1208.06 1926.82 1210.89L1995.85 1257.77C2011.49 1268.41 2029.84 1273.93 2048.08 1273.93 2057.4 1273.93 2066.69 1272.49 2075.58 1269.55 2076.89 1269.12 2077.95 1268.74 2078.82 1268.41L2210.07 1219.81C2218.15 1216.83 2224.53 1210.86 2228.03 1203 2231.59 1195.01 2231.67 1185.84 2228.25 1177.84 2221.86 1162.8 2204.66 1155.03 2189.1 1160.15L2105.84 1187.56C2103.06 1188.47 2100.05 1188.32 2097.37 1187.14 2094.04 1185.66 2091.61 1182.8 2090.71 1179.29 2089.21 1173.38 2092.59 1167.22 2098.38 1165.27L2193.79 1133.16C2200.3 1130.97 2207.43 1131.04 2213.86 1133.37L2322.43 1172.52C2340.18 1178.93 2360.05 1170.48 2367.65 1153.41L2367.81 1153.06C2371.67 1144.22 2371.83 1134.41 2368.26 1125.45Z" fill="#1930AB" fill-rule="evenodd"/><path d="M2084.4 1074.32C2082.88 1069.49 2077.77 1066.83 2072.99 1068.36L2007.08 1089.49C2001.61 1091.25 1995.71 1090.9 1990.47 1088.51L1984.65 1085.87C1980.08 1083.79 1974.69 1085.85 1972.63 1090.47 1970.57 1095.08 1972.61 1100.51 1977.19 1102.58L1982.99 1105.22C1988.4 1107.69 1994.21 1108.93 2000.03 1108.93 2004.25 1108.93 2008.49 1108.28 2012.58 1106.96L2078.49 1085.83C2083.28 1084.3 2085.92 1079.15 2084.4 1074.32Z" fill="#1930AB" fill-rule="evenodd"/><path d="M2473.21 1426.64 2433 1368.66C2418.98 1348.44 2396.37 1335.7 2372.53 1334.58 2371.51 1334.52 2370.51 1334.52 2369.57 1334.49L2251.04 1333.07C2243.32 1332.96 2236.14 1335.89 2230.71 1341.31 2225.19 1346.81 2222.18 1354.42 2222.44 1362.15 2222.93 1376.69 2234.72 1388.64 2249.3 1389.36L2323.44 1392.95C2325.57 1393.05 2327.58 1393.94 2329.09 1395.45 2330.97 1397.32 2331.87 1399.9 2331.55 1402.52 2331.02 1406.93 2327.06 1410.23 2322.66 1410.05L2237.47 1406.48C2231.98 1406.25 2226.68 1404.15 2222.54 1400.56L2148.72 1336.69C2136.12 1325.78 2117 1326.44 2105.13 1338.27 2105.12 1338.28 2105.04 1338.36 2105.02 1338.38 2099.01 1344.46 2095.74 1352.51 2095.83 1361.05 2095.92 1369.58 2099.34 1377.56 2105.46 1383.51L2147.18 1424.1C2150.79 1427.61 2156.57 1427.55 2160.09 1423.95 2163.62 1420.35 2163.55 1414.59 2159.94 1411.07L2118.22 1370.47C2115.6 1367.93 2114.14 1364.51 2114.1 1360.86 2114.06 1357.21 2115.46 1353.76 2118.03 1351.17L2111.55 1344.75 2118.12 1351.08C2123.17 1346.05 2131.35 1345.77 2136.74 1350.44L2210.56 1414.31C2217.8 1420.59 2227.09 1424.27 2236.71 1424.67L2321.89 1428.24C2335.86 1428.8 2348.03 1418.48 2349.69 1404.68 2350.67 1396.47 2347.86 1388.41 2342.01 1382.57 2337.28 1377.86 2331 1375.08 2324.33 1374.76L2250.19 1371.17C2245.04 1370.91 2240.87 1366.69 2240.7 1361.54 2240.61 1358.77 2241.64 1356.17 2243.62 1354.19 2245.54 1352.28 2248.09 1351.23 2250.8 1351.28L2369.46 1352.7C2370.18 1352.7 2370.9 1352.73 2371.64 1352.77 2389.85 1353.62 2407.17 1363.44 2417.97 1379.02L2458.18 1437C2459.95 1439.56 2462.8 1440.93 2465.7 1440.93 2467.49 1440.93 2469.3 1440.41 2470.89 1439.31 2475.04 1436.45 2476.08 1430.78 2473.21 1426.64Z" fill="#1930AB" fill-rule="evenodd"/><path d="M2400.19 1497.44 2396.38 1493.6C2390.02 1487.17 2381.54 1483.34 2372.5 1482.8L2240.77 1474.92C2229.85 1474.27 2219.52 1469.71 2211.7 1462.09L2182.33 1433.52C2178.73 1430.01 2172.95 1430.08 2169.43 1433.67 2165.9 1437.26 2165.97 1443.02 2169.58 1446.53L2198.94 1475.1C2209.9 1485.78 2224.37 1492.17 2239.67 1493.08L2371.41 1500.96C2375.94 1501.23 2380.2 1503.15 2383.4 1506.39L2387.21 1510.23C2389 1512.03 2391.35 1512.93 2393.7 1512.93 2396.02 1512.93 2398.34 1512.05 2400.12 1510.3 2403.71 1506.77 2403.74 1501.01 2400.19 1497.44Z" fill="#1930AB" fill-rule="evenodd"/><path d="M2302.66 1202.93C2292.87 1202.93 2284.04 1207.63 2277.83 1215.14 2271.62 1207.63 2262.79 1202.93 2253 1202.93 2230.85 1202.93 2212.83 1223.43 2212.83 1248.62 2212.83 1262.66 2219.82 1276.94 2233.62 1291.07 2244.16 1301.86 2258.38 1312.11 2273.67 1319.93 2274.98 1320.6 2276.4 1320.93 2277.83 1320.93 2279.26 1320.93 2280.68 1320.6 2281.99 1319.93 2289.19 1316.25 2296.19 1312.01 2302.8 1307.33 2306.92 1304.4 2307.89 1298.7 2304.97 1294.58 2302.05 1290.46 2296.35 1289.49 2292.23 1292.4 2287.69 1295.62 2282.78 1298.7 2277.83 1301.44 2254.59 1288.58 2231.11 1267.43 2231.11 1248.62 2231.11 1233.51 2240.93 1221.22 2253 1221.22 2261.65 1221.22 2268.69 1230.23 2268.69 1241.31 2268.69 1246.36 2272.78 1250.45 2277.83 1250.45 2282.88 1250.45 2286.97 1246.36 2286.97 1241.31 2286.97 1230.23 2294.01 1221.22 2302.66 1221.22 2314.73 1221.22 2324.55 1233.51 2324.55 1248.62 2324.55 1255.4 2321.53 1262.82 2315.58 1270.67 2312.53 1274.69 2313.31 1280.42 2317.33 1283.47 2321.36 1286.53 2327.09 1285.74 2330.14 1281.72 2338.56 1270.62 2342.83 1259.48 2342.83 1248.61 2342.83 1223.43 2324.81 1202.93 2302.66 1202.93Z" fill="#1930AB" fill-rule="evenodd"/></g></svg>