<svg width="231" height="228" xmlns="http://www.w3.org/2000/svg" xmlns:xlink="http://www.w3.org/1999/xlink" xml:space="preserve" overflow="hidden"><defs><clipPath id="clip0"><rect x="524" y="246" width="231" height="228"/></clipPath></defs><g clip-path="url(#clip0)" transform="translate(-524 -246)"><path d="M747.411 362.376C775.561 430.588 718.236 473.625 649.116 473.625 579.996 473.625 524 423.818 524 362.376 524 300.935 579.728 246 648.83 246 717.932 246 742.972 274.74 747.411 362.376" fill="#EBF2FC"/><path d="M654.535 394.023C656.168 394.514 657.842 394.887 659.541 395.133 657.047 401.926 650.448 406.835 642.652 406.835L596.33 406.835C586.395 406.835 578.315 398.942 578.315 389.242L578.315 333.95C578.315 324.248 586.395 316.357 596.33 316.357L610.195 316.357C611.456 307.857 618.898 301.277 627.947 301.277L652.941 301.277C662.873 301.277 670.956 309.168 670.956 318.87L670.956 330.855C669.267 330.516 667.547 330.3 665.809 330.227L665.809 318.87C665.809 311.944 660.039 306.304 652.941 306.304L627.947 306.304C621.735 306.304 616.535 310.627 615.342 316.358L642.657 316.358C651.348 316.358 658.616 322.4 660.3 330.401 658.601 330.603 656.927 330.967 655.259 331.423 654.062 325.702 648.865 321.384 642.663 321.384L596.34 321.384C589.247 321.384 583.472 327.024 583.472 333.951L583.472 389.243C583.472 396.165 589.248 401.81 596.34 401.81L642.663 401.81C648.011 401.804 652.605 398.578 654.535 394.023ZM679.888 389.125C665.035 397.499 645.98 392.511 637.408 378.011 628.832 363.516 633.942 344.904 648.784 336.534 663.632 328.164 682.692 333.144 691.268 347.647 699.843 362.145 694.726 380.75 679.888 389.125ZM677.315 384.775C689.705 377.795 693.957 362.264 686.804 350.161 679.657 338.056 663.753 333.893 651.359 340.881 638.966 347.868 634.711 363.392 641.864 375.497 649.016 387.601 664.919 391.761 677.315 384.775ZM687.699 387.259 674.318 394.8 684.613 412.206 697.994 404.666 687.699 387.259ZM699.38 407.032 686.005 414.572C688.136 418.184 692.861 419.422 696.55 417.331 700.245 415.249 701.522 410.64 699.38 407.032ZM628.008 334.568 593.751 334.568 593.751 338.338 628.008 338.338 628.008 334.568 628.008 334.568ZM620.129 351.327 593.751 351.327 593.751 355.097 620.129 355.097 620.129 351.327ZM593.751 371.851 620.129 371.851 620.129 368.081 593.751 368.081 593.751 371.851ZM593.751 388.604 628.008 388.604 628.008 384.834 593.751 384.834 593.751 388.604ZM659.32 368.057 651.328 359.409 647.507 362.784 658.812 374.997 680.897 357.033 677.601 353.173 659.32 368.057Z" fill="#103CA3"/></g></svg>