<svg width="231" height="228" xmlns="http://www.w3.org/2000/svg" xmlns:xlink="http://www.w3.org/1999/xlink" xml:space="preserve" overflow="hidden"><defs><clipPath id="clip0"><rect x="524" y="246" width="231" height="228"/></clipPath></defs><g clip-path="url(#clip0)" transform="translate(-524 -246)"><path d="M747.411 362.376C775.561 430.588 718.236 473.625 649.116 473.625 579.996 473.625 524 423.818 524 362.376 524 300.935 579.728 246 648.83 246 717.932 246 742.972 274.74 747.411 362.376" fill="#EBF2FC"/><path d="M673.635 399.628C673.403 399.066 673.274 398.45 673.274 397.806 673.274 397.162 673.403 396.546 673.635 395.985 673.876 395.423 674.219 394.908 674.645 394.485L674.673 394.448C674.914 394.209 675.192 393.979 675.488 393.804 675.646 393.703 675.813 393.611 675.998 393.528L675.998 385.966 668.112 385.966C667.871 387.622 667.074 389.113 665.925 390.262 664.489 391.688 662.497 392.572 660.3 392.572L655.547 392.572 655.547 413.197 669.493 413.197C669.567 413.078 669.641 412.958 669.725 412.838 669.891 412.599 670.077 412.378 670.281 412.176 670.716 411.744 671.244 411.385 671.837 411.146 672.403 410.916 673.024 410.787 673.672 410.787 674.312 410.787 674.942 410.916 675.507 411.146 676.1 411.385 676.619 411.744 677.064 412.176 677.499 412.608 677.861 413.133 678.102 413.721 678.333 414.283 678.463 414.899 678.463 415.543 678.463 416.178 678.333 416.785 678.102 417.365 677.861 417.953 677.499 418.478 677.064 418.91 676.628 419.342 676.1 419.701 675.507 419.94 674.942 420.17 674.321 420.299 673.672 420.299 673.042 420.299 672.44 420.18 671.874 419.95L671.837 419.94C671.244 419.701 670.725 419.342 670.281 418.91 670.012 418.643 669.771 418.33 669.567 418.008 669.456 417.825 669.354 417.622 669.271 417.429L653.415 417.429C652.822 417.429 652.294 417.19 651.905 416.803 651.506 416.408 651.265 415.883 651.265 415.295L651.265 392.572 640.887 392.572 640.887 411.284C641.044 411.366 641.202 411.449 641.359 411.55 641.647 411.725 641.915 411.946 642.147 412.176 642.592 412.618 642.944 413.133 643.185 413.721 643.417 414.283 643.546 414.899 643.546 415.543 643.546 416.169 643.426 416.767 643.194 417.328L643.185 417.365C642.944 417.953 642.583 418.468 642.147 418.91 641.712 419.342 641.183 419.701 640.59 419.94 640.025 420.17 639.404 420.299 638.755 420.299 638.116 420.299 637.495 420.17 636.921 419.94 636.328 419.701 635.799 419.342 635.364 418.91 634.928 418.478 634.567 417.953 634.326 417.365 634.094 416.803 633.965 416.187 633.965 415.543 633.965 414.917 634.085 414.319 634.317 413.758L634.326 413.721C634.567 413.133 634.928 412.618 635.364 412.176 635.596 411.946 635.846 411.744 636.124 411.569L636.161 411.541C636.309 411.458 636.467 411.376 636.624 411.293L636.624 392.572 622.78 392.572 622.78 402.268C622.78 402.857 622.539 403.381 622.15 403.767 621.76 404.154 621.232 404.393 620.639 404.393L610.817 404.393C610.742 404.54 610.659 404.678 610.566 404.825 610.4 405.074 610.205 405.313 609.983 405.534L609.945 405.571C609.51 406.003 608.982 406.362 608.389 406.601 607.823 406.831 607.203 406.96 606.554 406.96 605.924 406.96 605.321 406.84 604.756 406.61L604.719 406.601C604.126 406.362 603.607 406.003 603.162 405.571 602.727 405.138 602.365 404.614 602.124 404.025 601.893 403.464 601.763 402.848 601.763 402.204 601.763 401.569 601.893 400.952 602.124 400.382 602.365 399.793 602.727 399.269 603.162 398.837 603.616 398.413 604.154 398.055 604.747 397.815 605.312 397.585 605.933 397.457 606.582 397.457 607.23 397.457 607.851 397.585 608.416 397.815 608.982 398.055 609.501 398.395 609.927 398.827L609.964 398.855C610.205 399.094 610.437 399.37 610.613 399.664 610.705 399.821 610.807 399.986 610.891 400.17L618.508 400.17 618.508 392.397C616.997 392.066 615.644 391.311 614.597 390.272 613.198 388.883 612.336 386.987 612.336 384.908L612.336 379.858 589.596 379.858 589.596 393.703C589.716 393.777 589.837 393.85 589.957 393.933 590.198 394.099 590.411 394.283 590.625 394.485 591.06 394.917 591.421 395.442 591.662 396.031 591.894 396.592 592.024 397.208 592.024 397.852 592.024 398.487 591.894 399.112 591.662 399.674 591.421 400.262 591.06 400.778 590.625 401.219 590.189 401.652 589.661 402.01 589.068 402.25 588.502 402.48 587.882 402.608 587.233 402.608 586.594 402.608 585.982 402.48 585.398 402.25 584.805 402.01 584.277 401.652 583.841 401.219 583.406 400.787 583.044 400.262 582.803 399.674 582.563 399.094 582.433 398.478 582.433 397.834 582.433 397.208 582.553 396.61 582.785 396.049L582.794 396.012C583.035 395.423 583.397 394.908 583.832 394.467 584.101 394.2 584.416 393.961 584.74 393.758 584.916 393.648 585.129 393.547 585.324 393.464L585.324 377.733C585.324 377.144 585.565 376.619 585.954 376.233 586.353 375.837 586.881 375.598 587.474 375.598L612.336 375.598 612.336 365.295 591.523 365.295C591.44 365.451 591.357 365.608 591.255 365.764 591.079 366.049 590.856 366.316 590.625 366.546 590.18 366.987 589.661 367.337 589.068 367.576 588.502 367.806 587.882 367.935 587.233 367.935 586.603 367.935 586 367.815 585.435 367.585L585.398 367.576C584.805 367.337 584.286 366.978 583.841 366.546 583.406 366.113 583.044 365.589 582.803 365 582.572 364.439 582.442 363.823 582.442 363.179 582.442 362.544 582.572 361.928 582.803 361.357 583.044 360.769 583.406 360.244 583.841 359.812 584.277 359.379 584.805 359.021 585.398 358.781 585.973 358.542 586.584 358.413 587.242 358.413 587.872 358.413 588.475 358.533 589.04 358.763L589.077 358.772C589.67 359.011 590.189 359.37 590.634 359.803 590.865 360.033 591.069 360.281 591.255 360.557L591.282 360.594C591.366 360.741 591.449 360.897 591.533 361.054L612.336 361.054 612.336 348.257C612.336 347.944 612.355 347.631 612.392 347.319L600.605 347.319C600.012 347.319 599.483 347.08 599.094 346.693 598.705 346.307 598.464 345.782 598.464 345.194L598.464 335.442C598.316 335.368 598.177 335.286 598.029 335.194 597.778 335.028 597.537 334.835 597.315 334.614L597.278 334.577C596.842 334.145 596.481 333.62 596.24 333.032 596.008 332.471 595.879 331.854 595.879 331.21 595.879 330.585 595.999 329.987 596.231 329.425L596.24 329.389C596.481 328.8 596.842 328.285 597.278 327.843 597.714 327.411 598.242 327.052 598.835 326.813 599.4 326.583 600.021 326.454 600.67 326.454 601.309 326.454 601.93 326.583 602.504 326.813 603.097 327.052 603.626 327.411 604.061 327.843 604.487 328.294 604.849 328.827 605.09 329.416 605.321 329.977 605.451 330.594 605.451 331.238 605.451 331.882 605.321 332.498 605.09 333.059 604.849 333.62 604.506 334.136 604.08 334.559L604.052 334.596C603.811 334.835 603.533 335.065 603.227 335.24 603.07 335.332 602.903 335.433 602.718 335.516L602.718 343.078 614.347 343.078 614.347 343.133C614.421 343.05 614.505 342.967 614.579 342.894 616.015 341.468 618.007 340.585 620.204 340.585L624.661 340.585 624.661 315.847 610.733 315.847C610.659 315.966 610.585 316.086 610.501 316.206 610.335 316.445 610.149 316.656 609.945 316.868 609.51 317.3 608.982 317.659 608.389 317.898 607.823 318.128 607.203 318.257 606.554 318.257 605.914 318.257 605.284 318.128 604.719 317.898 604.126 317.659 603.607 317.3 603.162 316.868 602.727 316.436 602.365 315.911 602.124 315.322 601.893 314.752 601.763 314.145 601.763 313.492 601.763 312.857 601.893 312.25 602.124 311.67 602.365 311.081 602.727 310.557 603.162 310.125 603.598 309.692 604.126 309.333 604.719 309.094 605.284 308.864 605.905 308.736 606.554 308.736 607.184 308.736 607.786 308.855 608.352 309.085L608.389 309.094C608.982 309.333 609.501 309.692 609.945 310.125 610.214 310.391 610.455 310.704 610.659 311.026 610.77 311.201 610.872 311.413 610.965 311.606L626.802 311.606C627.395 311.606 627.923 311.845 628.312 312.231 628.71 312.627 628.951 313.151 628.951 313.74L628.951 340.585 639.33 340.585 639.33 317.76C639.172 317.678 639.015 317.595 638.857 317.494 638.57 317.319 638.301 317.098 638.07 316.868 637.625 316.426 637.273 315.911 637.032 315.322 636.8 314.761 636.67 314.145 636.67 313.501 636.67 312.875 636.791 312.277 637.023 311.716L637.032 311.679C637.273 311.091 637.634 310.575 638.07 310.134 638.505 309.701 639.033 309.343 639.627 309.104 640.192 308.874 640.813 308.745 641.461 308.745 642.101 308.745 642.722 308.874 643.296 309.104 643.889 309.343 644.417 309.701 644.853 310.134 645.288 310.566 645.65 311.091 645.891 311.679 646.122 312.241 646.252 312.857 646.252 313.501 646.252 314.126 646.132 314.724 645.9 315.286L645.891 315.322C645.65 315.911 645.288 316.426 644.853 316.868 644.621 317.098 644.371 317.3 644.093 317.484L644.056 317.512C643.908 317.595 643.75 317.678 643.593 317.76L643.593 340.575 657.428 340.575 657.428 326.776C657.428 326.187 657.669 325.663 658.058 325.276 658.447 324.89 658.975 324.651 659.568 324.651L669.4 324.651C669.474 324.504 669.558 324.366 669.65 324.218 669.817 323.97 670.012 323.731 670.234 323.51L670.271 323.473C670.707 323.041 671.235 322.682 671.828 322.443 672.393 322.213 673.014 322.084 673.663 322.084 674.293 322.084 674.895 322.204 675.461 322.434L675.498 322.443C676.091 322.682 676.61 323.041 677.054 323.473 677.49 323.906 677.851 324.43 678.092 325.019 678.324 325.58 678.454 326.196 678.454 326.84 678.454 327.475 678.324 328.092 678.092 328.662 677.851 329.251 677.49 329.775 677.054 330.207 676.591 330.631 676.063 330.989 675.47 331.229 674.905 331.459 674.284 331.587 673.635 331.587 672.986 331.587 672.366 331.459 671.8 331.229 671.235 330.989 670.716 330.649 670.29 330.226L670.253 330.198C670.012 329.959 669.78 329.683 669.604 329.389 669.502 329.232 669.41 329.067 669.326 328.883L661.709 328.883 661.709 340.695C663.349 340.98 664.813 341.771 665.935 342.884 667.334 344.274 668.196 346.169 668.196 348.248L668.196 349.195 689.138 349.195 689.138 335.35C689.018 335.276 688.897 335.203 688.777 335.12 688.536 334.954 688.323 334.77 688.119 334.568 687.683 334.136 687.322 333.611 687.081 333.022 686.849 332.461 686.72 331.845 686.72 331.201 686.72 330.566 686.849 329.941 687.081 329.379 687.322 328.791 687.683 328.275 688.119 327.834 688.554 327.402 689.083 327.043 689.676 326.804 690.241 326.574 690.862 326.445 691.51 326.445 692.15 326.445 692.771 326.574 693.345 326.804 693.938 327.043 694.467 327.402 694.902 327.834 695.338 328.266 695.699 328.791 695.94 329.379 696.172 329.941 696.301 330.557 696.301 331.201 696.301 331.827 696.181 332.425 695.949 332.986L695.94 333.022C695.699 333.611 695.338 334.126 694.902 334.568 694.633 334.835 694.318 335.074 693.994 335.276 693.809 335.387 693.605 335.488 693.41 335.58L693.41 351.302C693.41 351.891 693.169 352.415 692.78 352.802 692.382 353.197 691.853 353.436 691.26 353.436L668.196 353.436 668.196 363.74 687.211 363.74C687.294 363.584 687.378 363.427 687.479 363.271 687.665 362.986 687.878 362.719 688.11 362.489 688.554 362.047 689.073 361.698 689.666 361.458 690.232 361.229 690.853 361.1 691.501 361.1 692.131 361.1 692.734 361.219 693.299 361.449L693.336 361.458C693.929 361.698 694.448 362.056 694.893 362.489 695.328 362.921 695.69 363.446 695.931 364.034 696.162 364.596 696.292 365.212 696.292 365.856 696.292 366.491 696.162 367.107 695.931 367.677 695.69 368.266 695.328 368.791 694.893 369.223 694.457 369.655 693.929 370.014 693.336 370.253 692.771 370.483 692.15 370.612 691.501 370.612 690.871 370.612 690.269 370.493 689.703 370.263L689.666 370.253C689.073 370.014 688.554 369.655 688.11 369.223 687.878 368.993 687.674 368.745 687.489 368.469L687.461 368.432C687.378 368.285 687.294 368.128 687.211 367.972L668.196 367.972 668.196 381.707 678.129 381.707C678.722 381.707 679.251 381.946 679.64 382.332 680.029 382.719 680.27 383.243 680.27 383.832L680.27 393.593C680.418 393.666 680.557 393.749 680.706 393.85 680.956 394.016 681.197 394.209 681.419 394.43L681.456 394.467C681.892 394.899 682.253 395.423 682.494 396.012 682.726 396.573 682.855 397.19 682.855 397.834 682.855 398.459 682.735 399.057 682.503 399.618L682.494 399.655C682.253 400.244 681.892 400.759 681.456 401.201 681.021 401.633 680.492 401.992 679.899 402.231 679.334 402.461 678.713 402.59 678.065 402.59 677.425 402.59 676.804 402.461 676.23 402.231 675.637 401.992 675.108 401.633 674.673 401.201 674.247 400.75 673.876 400.216 673.635 399.628ZM632 356.702 648.532 356.702C649.82 356.702 650.867 357.742 650.867 359.021L650.867 374.136C650.867 375.414 649.82 376.454 648.532 376.454L632 376.454C630.712 376.454 629.665 375.414 629.665 374.136L629.665 359.021C629.665 357.742 630.712 356.702 632 356.702ZM660.31 344.688 620.213 344.688C619.296 344.688 618.452 345.065 617.841 345.681 617.183 346.334 616.775 347.245 616.775 348.257L616.775 384.899C616.775 385.911 617.183 386.822 617.841 387.475 618.462 388.091 619.296 388.469 620.213 388.469L660.31 388.469C661.227 388.469 662.07 388.091 662.682 387.475 663.34 386.822 663.748 385.911 663.748 384.899L663.748 348.257C663.748 347.245 663.34 346.334 662.682 345.681 662.07 345.065 661.227 344.688 660.31 344.688Z" fill="#1930AB"/></g></svg>