<svg width="231" height="228" xmlns="http://www.w3.org/2000/svg" xmlns:xlink="http://www.w3.org/1999/xlink" xml:space="preserve" overflow="hidden"><defs><clipPath id="clip0"><rect x="524" y="246" width="231" height="228"/></clipPath></defs><g clip-path="url(#clip0)" transform="translate(-524 -246)"><path d="M747.411 362.376C775.561 430.588 718.236 473.625 649.116 473.625 579.996 473.625 524 423.818 524 362.376 524 300.935 579.728 246 648.83 246 717.932 246 742.972 274.74 747.411 362.376" fill="#EBF2FC"/><path d="M657.397 391.414 662.895 396.912 605.911 396.912C598.082 396.912 591.715 390.543 591.715 382.716L591.715 338.504C591.715 334.952 593.035 331.708 595.199 329.215L599.119 333.136C597.944 334.62 597.213 336.469 597.213 338.504L597.213 342.6 608.583 342.6 623.74 357.756 597.213 357.756 597.213 382.716C597.213 387.512 601.115 391.414 605.911 391.414L657.397 391.414ZM680.718 396.912 680.592 396.912 691.724 408.043C693.155 409.475 693.155 411.795 691.724 413.226 691.007 413.943 690.07 414.3 689.132 414.3 688.194 414.3 687.257 413.943 686.541 413.226L584.894 311.581C583.463 310.15 583.463 307.83 584.894 306.398 586.325 304.967 588.645 304.967 590.077 306.398L607.986 324.306 680.718 324.306C688.546 324.306 694.914 330.676 694.914 338.504L694.914 382.716C694.914 390.545 688.547 396.912 680.718 396.912ZM613.484 329.804 626.282 342.6 689.418 342.6 689.418 338.504C689.418 333.707 685.516 329.804 680.72 329.804L613.484 329.804ZM675.095 391.414 680.72 391.414C685.516 391.414 689.418 387.512 689.418 382.716L689.418 357.756 641.438 357.756 675.095 391.414Z" fill="#103CA3"/></g></svg>