<svg width="231" height="228" xmlns="http://www.w3.org/2000/svg" xmlns:xlink="http://www.w3.org/1999/xlink" xml:space="preserve" overflow="hidden"><defs><clipPath id="clip0"><rect x="524" y="246" width="231" height="228"/></clipPath><clipPath id="clip1"><rect x="580" y="301" width="118" height="118"/></clipPath></defs><g clip-path="url(#clip0)" transform="translate(-524 -246)"><path d="M747.411 362.376C775.561 430.588 718.236 473.625 649.116 473.625 579.996 473.625 524 423.818 524 362.376 524 300.935 579.728 246 648.83 246 717.932 246 742.972 274.74 747.411 362.376" fill="#EBF2FC"/><g clip-path="url(#clip1)"><path d="M585.71 306.155 693.025 306.155 693.025 413.47 585.71 413.47Z" fill="#FFFFFF" fill-rule="evenodd" fill-opacity="0.01"/><path d="M594.652 317.333 684.081 317.333 684.081 344.162 594.652 344.162Z" stroke="#103CA3" stroke-width="7.32" stroke-linejoin="round" fill="none" fill-rule="evenodd"/><path d="M594.652 397.887 621.874 370.386 636.583 384.473 654.566 366.52 664.583 376.285" stroke="#103CA3" stroke-width="7.32" stroke-linecap="round" stroke-linejoin="round" fill="none" fill-rule="evenodd"/><path d="M684.082 342.311 684.082 400.44" stroke="#103CA3" stroke-width="7.32" stroke-linecap="round" fill="none" fill-rule="evenodd"/><path d="M594.652 342.311 594.652 373.611" stroke="#103CA3" stroke-width="7.32" stroke-linecap="round" fill="none" fill-rule="evenodd"/><path d="M614.809 402.291 684.082 402.291" stroke="#103CA3" stroke-width="7.32" stroke-linecap="round" fill="none" fill-rule="evenodd"/><path d="M623.717 330.748 670.667 330.748" stroke="#103CA3" stroke-width="7.32" stroke-linecap="round" fill="none" fill-rule="evenodd"/><path d="M608.067 330.74 610.303 330.74" stroke="#103CA3" stroke-width="7.32" stroke-linecap="round" fill="none" fill-rule="evenodd"/></g></g></svg>