<svg xmlns="http://www.w3.org/2000/svg" viewBox="0 0 502 300"><defs><style>.a{fill:#0089d6;}</style></defs><title>01</title><path class="a" d="M191.39,215.89H65.93l-.08-.69L140.12,202c-8-9.52-15.2-18.17-22.45-26.8-5.45-6.51-11.08-12.88-16.28-19.58-1.3-1.68-2.33-4.75-1.7-6.57,6.21-17.92,12.8-35.71,19.3-53.53a17.34,17.34,0,0,1,1.52-2.37C144.17,134.12,167.49,174.51,191.39,215.89Z"/><path class="a" d="M19.8,201.82c1.29-2.57,1.94-4,2.74-5.45Q41.71,163.06,61,129.78a24.05,24.05,0,0,1,5-6.13C81,110.92,96,98.33,111,85.71a28.09,28.09,0,0,1,2.75-1.6l-4.46,9.54Q85.2,145.22,61.24,196.83c-1.72,3.72-3.77,5.18-7.89,5.08C42.58,201.64,31.79,201.82,19.8,201.82Z"/><path class="a" d="M208.35,201.3c.67-2.07,1.14-3.79,1.78-5.46,8.5-22.39,17.11-44.74,25.48-67.17,1.29-3.47,3.24-4.42,6.67-4.46s5,1.24,6.2,4.36c8.63,22.71,17.43,45.34,26.15,68,.52,1.36.82,2.79,1.22,4.17-7.21,2.56-8.94,1.74-11.45-4.78-2-5.1-2.79-12-6.56-14.67s-10.52-1-16-1.17a80.87,80.87,0,0,0-12.45.15,7.57,7.57,0,0,0-5,3.51c-1.82,3.52-2.81,7.45-4.16,11.21C217.55,202.62,217.55,202.61,208.35,201.3Zm47-29.59c-4.46-12.22-8.72-23.88-13.38-36.66l-13.22,36.68Z"/><path class="a" d="M478.24,191.27c1.42,4.28.59,7.54-4.23,9.21-10.52,3.64-21.15,5.14-30.32-2.57-10.26-8.62-11-20.5-8.18-32.57,2.48-10.5,8.93-18,20-19.9,16.88-3,28.68,9.44,26.4,28.21-.12,1-2.91,2.36-4.48,2.4-9.66.24-19.32.31-29,.09-4.43-.1-5.49,1.51-4.61,5.64,2,9.53,9.61,15.12,20,13.67C468.69,194.78,473.31,192.73,478.24,191.27ZM444.33,169h24.08c4.66,0,5.47-1.19,4.29-5.76-1.95-7.59-7.73-11.33-15.79-10.21-6.87.94-12.59,7.76-12.6,16Z"/><path class="a" d="M372.4,194.14c-5.16,7.19-11.48,9.59-19.16,8.94-10.05-.8-16.7-7.57-17.09-18.63s-.08-22.33-.24-33.49c0-3.4,1.51-4.23,4.55-4.27,3.28,0,4.4,1.32,4.38,4.48q-.12,14.51.09,29c.14,10.13,4.69,15.47,13,15.53s14.57-6.42,14.83-15.65c.26-9.49.19-19,.08-28.5,0-3.36,1-4.75,4.58-4.75s4.57,1.4,4.54,4.76c-.12,15-.08,30,0,45,0,3.1,0,5.44-4.34,5.45-3.92,0-5-1.58-4.69-5.07A15.71,15.71,0,0,0,372.4,194.14Z"/><path class="a" d="M292.86,194.31h26.71c1.61,0,3.77,0,4.67.93s.87,3.17.51,4.66c-.19.82-1.89,1.83-2.91,1.84-13.31.09-26.61,0-39.92,0a13.74,13.74,0,0,1-2.68-1c4.63-8.42,10.82-15.46,16.1-23.05s10.85-15,17.19-23.74H288c-1.44,0-3.36,0-4.18-.82s-.92-2.86-.57-4.15a3.68,3.68,0,0,1,2.76-2.07c12.63-.09,25.27,0,37.91.06.42,0,.84.43,2.26,1.2C315.31,163.18,304.6,178,292.86,194.31Z"/><path class="a" d="M427.91,154.14c-13.55-.63-18.86,4.45-19.07,18.4-.12,8-.12,16-.08,24,0,3.07,0,5.48-4.35,5.47-4.09,0-4.56-2-4.54-5.29.08-14.83.05-29.66,0-44.48,0-3.05,0-5.54,4.29-5.57,4,0,4.85,1.92,4.61,5.25a33.13,33.13,0,0,0,.25,3.59c1.4-1.8,2-3.1,3.05-3.84,2.89-2.06,5.73-4.87,9-5.6C428.24,144.43,429.89,146.73,427.91,154.14Z"/></svg>