<svg xmlns="http://www.w3.org/2000/svg" viewBox="0 0 502 300"><defs><style>.a{fill:#29b5e8;fill-rule:evenodd;}</style></defs><title>02</title><path class="a" d="M305.87,130.44h0a4.63,4.63,0,0,0-1.06-.21,3.47,3.47,0,0,0-1.47.43,3.09,3.09,0,0,0-1.06,1.26h0l-10.43,28.35-8.12-19h0a3,3,0,0,0-1.05-1.2,2.75,2.75,0,0,0-1.58-.43,3.52,3.52,0,0,0-1.48.43,3.13,3.13,0,0,0-1.05,1.26h0l-8.12,19.08-10.54-28.34h0a2.43,2.43,0,0,0-1.05-1.27,2.38,2.38,0,0,0-1.47-.41,3.49,3.49,0,0,0-1.06.2h0a2.83,2.83,0,0,0-1.53,2.48,3.36,3.36,0,0,0,.21,1h0l13,34.46h0a2.87,2.87,0,0,0,.43.74c.1.21.42.32.63.42l.21.21c.1.11.21.11.42.11a2,2,0,0,0,.95.21,3.29,3.29,0,0,0,1.47-.42,2.46,2.46,0,0,0,1-1.16h0l8.22-19.4,8.22,19.29h0a2.91,2.91,0,0,0,2.32,1.69h.32a3,3,0,0,0,.95-.21,1.66,1.66,0,0,0,.74-.42,2.78,2.78,0,0,0,.94-1.27h0l12.72-34.25a2.79,2.79,0,0,0,.21-1,3.61,3.61,0,0,0-1.89-2.64Zm-59.13,19.72a15,15,0,0,0-4.11-10.34A13.39,13.39,0,0,0,233,135.5a13.06,13.06,0,0,0-9.59,4.32,15,15,0,0,0,0,20.67,13,13,0,0,0,18.37.81c.28-.26.56-.53.81-.81a14.9,14.9,0,0,0,4.11-10.33Zm-.11-14a20.35,20.35,0,0,1,0,28A18.84,18.84,0,0,1,233,170.07a19.08,19.08,0,0,1-13.6-5.9,20.35,20.35,0,0,1,0-28,18.88,18.88,0,0,1,13.6-5.91,18.08,18.08,0,0,1,13.59,5.91Zm-54.48-5.91A16.75,16.75,0,0,0,181,134.57V133a2.91,2.91,0,0,0-.73-1.89,2.39,2.39,0,0,0-1.9-.85,2.81,2.81,0,0,0-2,.85,2.5,2.5,0,0,0-.74,1.89v35.2l.1.1h0c0,.11.11.21.22.32a3,3,0,0,0,1.79,1.38h.74a4.41,4.41,0,0,0,1.15-.21,1.92,1.92,0,0,0,.85-.74h0s0-.11.1-.11h0c.11-.21.32-.42.32-.52a1.08,1.08,0,0,1,.21-.53v-21.3a11.57,11.57,0,0,1,3.37-7.79,11.07,11.07,0,0,1,18.87,7.68v20.78a2.49,2.49,0,0,0,.84,1.89,2.61,2.61,0,0,0,1.9.74,3,3,0,0,0,1.9-.74,2.65,2.65,0,0,0,.84-1.89V146.46a16.6,16.6,0,0,0-16.65-16.23Zm270,16a14,14,0,0,0-27.2,0Zm6,2.64v.31a2.41,2.41,0,0,1-.84,1.9,3.75,3.75,0,0,1-1.9.74H434.66a14.07,14.07,0,0,0,13.91,13h1.79a13.28,13.28,0,0,0,6.75-2.1,17.2,17.2,0,0,0,5.06-5.27,2.31,2.31,0,0,1,1.05-1,2.9,2.9,0,0,1,1.26-.32,2.14,2.14,0,0,1,1.37.42h0a2.88,2.88,0,0,1,1.27,2.32,2,2,0,0,1-.42,1.37h0a22.44,22.44,0,0,1-6.85,7,17.29,17.29,0,0,1-9.49,3h-1.79a19.5,19.5,0,0,1-13.77-6,20.15,20.15,0,0,1-5.69-14,20.42,20.42,0,0,1,5.69-14.14,19.6,19.6,0,0,1,13.91-5.91A18.72,18.72,0,0,1,462,135.62a19.93,19.93,0,0,1,6.22,13.27Zm-126-35.1a2.55,2.55,0,0,0-1.9.85,2.67,2.67,0,0,0-.84,1.89v50.93a2.56,2.56,0,0,0,.84,1.9,2.68,2.68,0,0,0,1.9.83,2.81,2.81,0,0,0,2.85-2.73V116.53a2.88,2.88,0,0,0-2.85-2.74ZM163,149.2a65.57,65.57,0,0,0-7.27-2.63,46.48,46.48,0,0,1-6.32-2.32,5.44,5.44,0,0,1-1.9-1.47,2.73,2.73,0,0,1-.63-1.8,4.31,4.31,0,0,1,.84-2.52,7.47,7.47,0,0,1,3.37-2.39,12.22,12.22,0,0,1,3.9-.84,10.72,10.72,0,0,1,6.54,2.11c.73.53,1.37,1,2,1.48l1,.63a3,3,0,0,0,1,.32,1.82,1.82,0,0,0,.74-.11,2.31,2.31,0,0,0,.63-.42,2.86,2.86,0,0,0,.53-.63,2,2,0,0,0,.21-.74,2.09,2.09,0,0,0-.42-1.37,8.57,8.57,0,0,0-1.9-2.21,17,17,0,0,0-4.53-2.85,13.68,13.68,0,0,0-5.27-1.26,17.27,17.27,0,0,0-9.91,2.63A10.49,10.49,0,0,0,142.3,136a10.33,10.33,0,0,0-1.38,5.09v.32a8.24,8.24,0,0,0,1.69,5.16,14.11,14.11,0,0,0,6.32,4.11c2.32.84,4.64,1.37,6.12,1.9A27.63,27.63,0,0,1,161,155a6.17,6.17,0,0,1,1.9,1.69,3.37,3.37,0,0,1,.63,2v.11a4.2,4.2,0,0,1-1,2.84,8,8,0,0,1-3.79,2.53,12.76,12.76,0,0,1-4.11.74,16.71,16.71,0,0,1-7.7-1.69c-.84-.42-1.58-.84-2.21-1.16a4.41,4.41,0,0,0-1-.42,3.36,3.36,0,0,0-1-.21,2.08,2.08,0,0,0-.74.11,2.66,2.66,0,0,0-.63.42c-.21.21-.42.52-.63.74a3.05,3.05,0,0,0-.21.94,2.54,2.54,0,0,0,.53,1.48,7.83,7.83,0,0,0,1.89,1.79,26.9,26.9,0,0,0,3.06,1.69,24.26,24.26,0,0,0,8.43,1.89h0a16.32,16.32,0,0,0,10.12-3h0a10.86,10.86,0,0,0,4.53-8.64,8.72,8.72,0,0,0-1.11-4.76,8,8,0,0,0-5-4.84Zm220.49,1a15.16,15.16,0,0,0-4-10.33,13,13,0,0,0-18.36-.81c-.29.26-.56.53-.82.81a15,15,0,0,0-4.11,10.33,14.76,14.76,0,0,0,4.11,10.33,13.2,13.2,0,0,0,9.54,4.17,13,13,0,0,0,9.59-4.22,15,15,0,0,0,4-10.33ZM388.07,131a2.63,2.63,0,0,1,.85,1.9v34.42a2.45,2.45,0,0,1-.85,1.9,2.59,2.59,0,0,1-1.89.83,2.47,2.47,0,0,1-1.9-.83,2.69,2.69,0,0,1-.84-1.9V164a18.51,18.51,0,0,1-26.15,1.34c-.4-.36-.78-.73-1.15-1.13a20.37,20.37,0,0,1,0-28,18.62,18.62,0,0,1,26.31-.9c.34.32.67.66,1,1V133a2.46,2.46,0,0,1,.84-1.89,2.58,2.58,0,0,1,1.9-.75,1.86,1.86,0,0,1,1.89.64Zm38.73,3.44a2.87,2.87,0,0,0,.85-2,2.63,2.63,0,0,0-.85-1.91h0a2.56,2.56,0,0,0-3.61-.17l-.18.17-21.4,20.66V116.43a2.8,2.8,0,0,0-2.84-2.73,2.47,2.47,0,0,0-1.9.83,2.69,2.69,0,0,0-.84,1.9v50.91a2.51,2.51,0,0,0,.84,1.9,2.64,2.64,0,0,0,1.9.83,2.8,2.8,0,0,0,2.84-2.73v-8.43l7-7,14.23,17a3.18,3.18,0,0,0,1,.84A5.14,5.14,0,0,0,425,170a3.08,3.08,0,0,0,1.79-.53h0a2.83,2.83,0,0,0,.21-3.79h0l-14.53-17.37Zm-96-20.55h-1.05a15.56,15.56,0,0,0-4.54.63,7.81,7.81,0,0,0-3.69,2.42h0a9.59,9.59,0,0,0-2.1,4.11,21.13,21.13,0,0,0-.64,5.38v3.9H314.4a2.7,2.7,0,0,0-2.74,2.63,3,3,0,0,0,.85,2,2.71,2.71,0,0,0,1.89.84h4.32v31.73a2.48,2.48,0,0,0,.85,1.9,2.76,2.76,0,0,0,3.89-.13,2.67,2.67,0,0,0,.74-1.77V135.82h4.6a2.43,2.43,0,0,0,1.9-.84,2.64,2.64,0,0,0,.84-2v-.09a2.7,2.7,0,0,0-2.74-2.66h-4.6v-3.79a17.66,17.66,0,0,1,.43-3.9,4.15,4.15,0,0,1,.94-1.9,3.61,3.61,0,0,1,1.37-.84,9.85,9.85,0,0,1,2.75-.32h1.05a2.7,2.7,0,0,0,2.74-2.69v-.05a2.67,2.67,0,0,0-2.51-2.83h-.17Zm-276,38a7.14,7.14,0,0,0,.31-2.11,7.06,7.06,0,0,0-.21-1.58,6.49,6.49,0,0,0-3-3.9L29.63,131.71a6.55,6.55,0,0,0-9,2.36l0,.06A6.48,6.48,0,0,0,23,143l.06,0,12.44,7.17-12.4,7.05a6.47,6.47,0,0,0-2.45,8.8l0,.06a6.61,6.61,0,0,0,9,2.32l22.2-12.76a6.31,6.31,0,0,0,3-3.68Zm6.11,11.9a6.22,6.22,0,0,0-3.79.85L34.9,177.45a6.48,6.48,0,0,0,6.38,11.27l.15-.1,12.44-7.16v14.22a6.54,6.54,0,1,0,13.07.52,4.51,4.51,0,0,0,0-.52v-25.4a6.46,6.46,0,0,0-6-6.43ZM83.7,136.14a6.84,6.84,0,0,0,3.79-.84l22.24-12.75a6.48,6.48,0,0,0-6.54-11.18h0L90.8,118.55V104.31a6.54,6.54,0,1,0-13.07-.51v25.91a6.37,6.37,0,0,0,6,6.43ZM34.9,122.66l22.24,12.75a7.06,7.06,0,0,0,3.79.84,6.46,6.46,0,0,0,6-6.43V104.31a6.54,6.54,0,1,0-13.07-.51v14.75l-12.43-7.18a6.52,6.52,0,0,0-6.87,11.08ZM76.63,150a1.69,1.69,0,0,0-.52-1.17l-2.64-2.62a2.17,2.17,0,0,0-1.16-.53h-.1a1.64,1.64,0,0,0-1.16.53l-2.64,2.62A1.72,1.72,0,0,0,68,150v.12a2.7,2.7,0,0,0,.42,1.17l2.64,2.63a2.44,2.44,0,0,0,1.16.52h.1a1.63,1.63,0,0,0,1.16-.52l2.64-2.63a1.59,1.59,0,0,0,.52-1.27ZM84,152.48l-9.27,9.16a1.6,1.6,0,0,1-1.16.53H70.94a1.67,1.67,0,0,1-1.14-.53l-9.29-9.16a1.53,1.53,0,0,1-.53-1.17v-2.63a1.72,1.72,0,0,1,.53-1.16l9.29-9.17a1.72,1.72,0,0,1,1.16-.53H73.6a1.5,1.5,0,0,1,1.16.53L84,147.52a1.5,1.5,0,0,1,.53,1.16v2.63a1.5,1.5,0,0,1-.53,1.17Zm25.72,25L87.49,164.7a6.19,6.19,0,0,0-3.79-.85,6.48,6.48,0,0,0-6,6.43v25.4a6.54,6.54,0,1,0,13.07.52,4.51,4.51,0,0,0,0-.52V181.46l12.43,7.17a6.62,6.62,0,0,0,9-2.32,6.44,6.44,0,0,0-2.32-8.8l-.1,0Zm11.7-34.57L109,150.07l12.44,7a6.45,6.45,0,0,1,2.46,8.79l0,.06a6.6,6.6,0,0,1-9,2.32l-22.2-12.71a6.35,6.35,0,0,1-3-3.69,7.48,7.48,0,0,1-.31-2.11,8.45,8.45,0,0,1,.21-1.58,6.56,6.56,0,0,1,3-3.9l22.29-12.75a6.57,6.57,0,0,1,6.54,11.39h0Zm360.76-12.68a6.21,6.21,0,0,1-5.88,6.54h-.51a6.3,6.3,0,0,1-6.43-6.15v-.4a6.43,6.43,0,0,1,12.86,0h0Zm-1.26,0a5,5,0,0,0-4.61-5.35,3,3,0,0,0-.52,0c-3.06,0-5.06,2.2-5.06,5.36s2,5.39,5.06,5.39a5.1,5.1,0,0,0,5.18-5c0-.12,0-.24,0-.36Zm-7.7-2.95H476c1.48,0,2.53.85,2.53,2.11a2.27,2.27,0,0,1-.95,1.79l1.06,1.59v.3H477L476,131.59h-1.26v1.48h-1.48v-5.79Zm2.74,1.37h-1.26v1.48H476c.53,0,.95-.21.95-.74S476.6,128.65,476,128.65Z"/></svg>