<svg xmlns="http://www.w3.org/2000/svg" viewBox="0 0 502 300"><defs><style>.a{fill:#00678c;}.a,.b{fill-rule:evenodd;}.b{fill:#ce8b2c;}</style></defs><title>03</title><path class="a" d="M81.39,160.66A21,21,0,0,0,72.54,162c-.69.27-1.78.27-1.86,1.14.35.36.41,1,.74,1.45a10.83,10.83,0,0,0,2.34,2.79l3,2.1c1.77,1.1,3.77,1.72,5.52,2.82A18.87,18.87,0,0,1,85,174.38c.49.35.82,1,1.45,1.17v-.13c-.33-.41-.41-1-.74-1.45l-1.37-1.31a21.41,21.41,0,0,0-4.72-4.59c-1.45-1-4.65-2.38-5.25-4L74.3,164a16.11,16.11,0,0,0,3.14-.74c1.56-.41,3-.33,4.56-.74l2.15-.63v-.41c-.82-.82-1.42-1.92-2.27-2.68a59.55,59.55,0,0,0-7.51-5.6c-1.42-.9-3.23-1.51-4.73-2.27-.55-.27-1.45-.41-1.78-.87a18.29,18.29,0,0,1-1.85-3.5l-3.75-8a47.2,47.2,0,0,0-2.32-5.19,46,46,0,0,0-17.62-17,22.34,22.34,0,0,0-5.82-1.86l-3.42-.19a19.87,19.87,0,0,1-2.1-1.58c-2.6-1.64-9.29-5.19-10.93-.49-1.23,3,1.83,5.87,2.87,7.37a21.89,21.89,0,0,1,2.32,3.42c.33.76.41,1.58.74,2.4l2.37,6.1a22.81,22.81,0,0,0,1.7,2.81c.35.49,1,.74,1.14,1.56-.62.9-.68,2.27-1,3.41-1.64,5.14-1,11.53,1.31,15.31.74,1.14,2.73,3.63,4.78,2.67s1.58-3.41,2.19-5.68c.13-.55.05-.9.32-1.28v.08l1.86,3.77a25.6,25.6,0,0,0,5.93,6.09c1.09.82,2,2.24,3.33,2.73v-.15h-.19a4.3,4.3,0,0,0-1-.9,22.19,22.19,0,0,1-2.37-2.74A58.14,58.14,0,0,1,41.24,151c-.74-1.42-1.37-3-2-4.37-.27-.54-.27-1.36-.74-1.64A17.07,17.07,0,0,0,36.32,148c-.88,2-1,4.37-1.29,6.89-1.64-.28-2.13-1.78-2.67-3.06A19.82,19.82,0,0,1,32,139.71c.32-1,1.69-4,1.14-4.87-.27-.87-1.17-1.36-1.69-2a18.15,18.15,0,0,1-1.64-3,63.13,63.13,0,0,0-2.79-8,22.62,22.62,0,0,0-2.29-3.47,28.36,28.36,0,0,1-2.53-3.53c-.25-.55-.55-1.37-.19-1.92.08-.35.27-.49.63-.6.6-.49,2.27.14,2.87.41A24.43,24.43,0,0,1,30,115a8.18,8.18,0,0,0,2.13,1.56h.95c1.45.33,3.09.08,4.46.49a28.82,28.82,0,0,1,6.55,3.14A40.4,40.4,0,0,1,58.27,135.8c.55,1,.77,2,1.29,3.08l3.08,6.7a30.36,30.36,0,0,0,3.23,6.09c.68,1,3.41,1.45,4.64,2a28.45,28.45,0,0,1,3.15,1.21L78.22,158c.74.55,2.73,1.7,3.14,2.6Z"/><path class="a" d="M34.94,121.07a7.34,7.34,0,0,0-1.86.22v.08h.08a14.5,14.5,0,0,0,1.45,1.86l1,2.18.08-.08a2.56,2.56,0,0,0,1-2.27,7.46,7.46,0,0,1-.55-1c-.27-.47-.87-.69-1.23-1Z"/><path class="b" d="M276.59,172.52h39.17a29.71,29.71,0,0,0,12.53-2.64c5.93-2.73,8.74-6.36,8.74-11.14v-10c0-3.83-3.22-7.52-9.67-10a34.24,34.24,0,0,0-11.56-2H299.35c-5.52,0-8.11-1.64-8.85-5.3a4.81,4.81,0,0,1-.11-1.26V124.1a5,5,0,0,1,.11-1.15c.74-2.81,2.19-3.55,7-4.09h40.12v-9.08H299.43c-5.51,0-8.47.33-11,1.15-8,2.46-11.56,6.45-11.56,13.45v7.92c0,6.15,6.88,11.37,18.58,12.57,1.25.11,2.59.11,4,.11h14.07a6.36,6.36,0,0,1,1.45.11c4.26.41,6.15,1.14,7.38,2.73a3.18,3.18,0,0,1,1,2.51v7.93a4.54,4.54,0,0,1-1.92,3.22,9.88,9.88,0,0,1-5.84,1.91c-.55,0-.82.11-1.37.11h-37.6Zm145.23-15.74q0,13.93,21,15.52l4,.22h35.41v-9H446.44c-8.2,0-10.93-2-10.93-6.77V109.81H421.85v47Zm-76.15.41V124.88c0-8.2,5.82-13.22,17.21-14.75l3.63-.22h25.85c1.37,0,2.52.11,3.83.22,11.37,1.55,17.08,6.55,17.08,14.75v32.3c0,6.67-2.41,10.22-8,12.57l13.3,12.13H402.83L392,172.08l-10.93.63H366.46a33.41,33.41,0,0,1-8.2-1c-8.63-2.4-12.92-7-12.92-14.48Zm14.7-.71a10.49,10.49,0,0,0,.32,1.37c.74,3.74,4.27,5.82,9.68,5.82h12.29l-11.25-10.22h15.73l9.9,9a6.47,6.47,0,0,0,3.44-4.37,5.25,5.25,0,0,0,.11-1.37V125.8a4.89,4.89,0,0,0-.11-1.26c-.74-3.55-4.26-5.52-9.56-5.52h-20.5c-6,0-10,2.6-10,6.78Z"/><path class="a" d="M95.76,172.57h13.53V118.88l21.15,46.78c2.4,5.63,5.84,7.7,12.51,7.7s9.89-2.07,12.41-7.7l21-46.78v53.69h13.7V118.88c0-5.19-2.08-7.7-6.45-9.07-10.3-3.12-17.22-.41-20.33,6.56l-20.77,46.29-20-46.26c-3-7-10-9.68-20.41-6.56-4.26,1.37-6.34,3.82-6.34,9Zm105.53-43.69H215v29.54c-.11,1.64.55,5.41,8.2,5.52h29.29V128.69H266.1v48.19c0,11.89-14.7,14.48-21.59,14.59h-42.9V182.4h43c8.74-.93,7.71-5.3,7.71-6.78v-3.51H223.47c-13.44-.11-22.07-6-22.18-12.84Z"/></svg>