<svg xmlns="http://www.w3.org/2000/svg" xmlns:xlink="http://www.w3.org/1999/xlink" viewBox="0 0 502 300"><defs><style>.a{fill:none;}.b{clip-path:url(#a);}.c{clip-path:url(#b);}.d{clip-path:url(#c);}.e{fill:url(#d);}.f{clip-path:url(#e);}.g{clip-path:url(#f);}.h{fill:url(#h);}.i{fill:#14559a;}.j{clip-path:url(#i);}.k{clip-path:url(#j);}.l{clip-path:url(#k);}.m{clip-path:url(#l);}.n{clip-path:url(#m);}.o{fill:url(#n);}.p{clip-path:url(#o);}.q{clip-path:url(#p);}.r{fill:#3092c4;}.s{fill:#1969bc;}.t{clip-path:url(#q);}.u{clip-path:url(#r);}.v{fill:url(#t);}.w{clip-path:url(#u);}.x{clip-path:url(#v);}.y{fill:url(#x);}.z{clip-path:url(#y);}.aa{clip-path:url(#z);}.ab{fill:#33bdf2;}.ac{fill:#2b74b1;}.ad{fill:#125a9e;}.ae{clip-path:url(#aa);}.af{clip-path:url(#ab);}.ag{clip-path:url(#ac);}.ah{clip-path:url(#ad);}.ai{clip-path:url(#ae);}.aj{fill:url(#af);}.ak{clip-path:url(#ag);}.al{clip-path:url(#ah);}.am{fill:#05a1e6;}.an{fill:#0d82ca;}.ao{clip-path:url(#ai);}.ap{clip-path:url(#aj);}.aq{clip-path:url(#ak);}.ar{fill:url(#al);}.as{fill:#127bca;}.at{clip-path:url(#am);}.au{clip-path:url(#an);}.av{clip-path:url(#ao);}.aw{clip-path:url(#ap);}.ax{clip-path:url(#aq);}.ay{fill:url(#ar);}.az{clip-path:url(#as);}.ba{clip-path:url(#at);}.bb{fill:url(#av);}.bc{clip-path:url(#aw);}.bd{clip-path:url(#ax);}.be{clip-path:url(#ay);}.bf{fill:url(#az);}.bg{clip-path:url(#ba);}.bh{clip-path:url(#bb);}.bi{fill:url(#bd);}.bj{clip-path:url(#be);}.bk{clip-path:url(#bf);}.bl{clip-path:url(#bg);}.bm{clip-path:url(#bh);}.bn{fill:url(#bj);}.bo{fill:#079ae1;}.bp{fill:#1e5cb3;}.bq{fill:#1d60b5;}.br{fill:#175fab;}.bs{clip-path:url(#bk);}.bt{clip-path:url(#bl);}.bu{clip-path:url(#bm);}.bv{fill:url(#bn);}.bw{clip-path:url(#bo);}.bx{clip-path:url(#bp);}.by{fill:#7dcbec;}.bz{fill:#5ec5ed;}.ca{clip-path:url(#bq);}.cb{clip-path:url(#br);}.cc{clip-path:url(#bs);}.cd{fill:url(#bt);}.ce{clip-path:url(#bu);}.cf{clip-path:url(#bv);}.cg{clip-path:url(#bw);}.ch{fill:url(#bx);}.ci{clip-path:url(#by);}.cj{clip-path:url(#bz);}.ck{clip-path:url(#ca);}.cl{clip-path:url(#cb);}.cm{clip-path:url(#cc);}.cn{fill:url(#cd);}.co{fill:#231f20;}</style><clipPath id="a"><path class="a" d="M130,122.86c9.09,27.82,12.54,77.44,39.14,77.44a33.15,33.15,0,0,0,6.13-.58c-24.18-5.64-27.05-54.73-41.81-80.14-1.17,1.07-2.33,2.16-3.46,3.29"/></clipPath><clipPath id="b"><rect class="a" x="129.91" y="119.59" width="45.27" height="80.73"/></clipPath><clipPath id="c"><polygon class="a" points="175.18 119.58 175.18 200.32 129.91 200.32 129.91 119.59 175.18 119.59 175.18 119.58"/></clipPath><linearGradient id="d" x1="341.5" y1="-10.95" x2="341.5" y2="-184.02" gradientTransform="matrix(0.7, 0, 0, -0.7, -86.51, 96.95)" gradientUnits="userSpaceOnUse"><stop offset="0" stop-color="#0994dc"/><stop offset="0.11" stop-color="#0994dc"/><stop offset="0.35" stop-color="#66cef5"/><stop offset="0.45" stop-color="#66cef5"/><stop offset="0.85" stop-color="#127bca"/><stop offset="1" stop-color="#127bca"/></linearGradient><clipPath id="e"><path class="a" d="M133.46,119.57c14.76,25.42,17.63,74.51,41.81,80.15a40.09,40.09,0,0,0,5.71-1.54c-21.7-10.64-27.7-58.3-44.46-81.25-1,.84-2,1.72-3,2.65"/></clipPath><clipPath id="f"><rect class="a" x="133.61" y="117.04" width="47.51" height="82.79"/></clipPath><linearGradient id="h" x1="348.42" y1="-6.7" x2="348.42" y2="-184.19" gradientTransform="matrix(0.7, 0, 0, -0.7, -86.51, 96.95)" gradientUnits="userSpaceOnUse"><stop offset="0" stop-color="#0e76bc"/><stop offset="0.18" stop-color="#0e76bc"/><stop offset="0.36" stop-color="#36aee8"/><stop offset="0.52" stop-color="#36aee8"/><stop offset="0.85" stop-color="#00adef"/><stop offset="1" stop-color="#00adef"/></linearGradient><clipPath id="i"><polygon class="a" points="159.48 104.5 204.66 104.5 204.66 188.38 159.48 188.38 159.48 104.5 159.48 104.5"/></clipPath><clipPath id="j"><rect class="a" x="159.49" y="104.49" width="45.08" height="83.87"/></clipPath><clipPath id="k"><path class="a" d="M197.92,188.38l6.68-5.83c-9.25-27.69-12.55-78-39.34-78a32,32,0,0,0-5.78.54c24.4,6.06,27.53,59.15,38.44,83.34"/></clipPath><clipPath id="l"><polygon class="a" points="159.54 104.5 204.66 104.5 204.66 188.38 159.54 188.38 159.54 104.5 159.54 104.5"/></clipPath><clipPath id="m"><rect class="a" x="159.54" y="104.51" width="45.12" height="83.87"/></clipPath><linearGradient id="n" x1="383.73" y1="-145.64" x2="383.73" y2="-4.42" gradientTransform="matrix(0.7, 0, 0, -0.7, -86.51, 96.95)" gradientUnits="userSpaceOnUse"><stop offset="0" stop-color="#1c63b7"/><stop offset="0.5" stop-color="#33bdf2"/><stop offset="1" stop-color="#33bdf2"/></linearGradient><clipPath id="o"><rect class="a" x="154.71" y="104.45" width="10.53" height="0.58"/></clipPath><clipPath id="p"><rect class="a" x="154.74" y="104.45" width="10.51" height="0.58"/></clipPath><clipPath id="q"><path class="a" d="M153.24,106.77C175.1,118.2,177,170,194.44,191c1.16-.82,2.32-1.69,3.46-2.62-10.91-24.18-14-77.27-38.43-83.33a37.51,37.51,0,0,0-6.24,1.74"/></clipPath><clipPath id="r"><rect class="a" x="153.36" y="105.13" width="44.68" height="85.95"/></clipPath><linearGradient id="t" x1="374.58" y1="11.28" x2="374.58" y2="-172.99" gradientTransform="matrix(0.7, 0, 0, -0.7, -86.51, 96.95)" gradientUnits="userSpaceOnUse"><stop offset="0" stop-color="#166ab8"/><stop offset="0.1" stop-color="#166ab8"/><stop offset="0.4" stop-color="#36aee8"/><stop offset="0.52" stop-color="#36aee8"/><stop offset="0.85" stop-color="#0798dd"/><stop offset="1" stop-color="#0798dd"/></linearGradient><clipPath id="u"><path class="a" d="M136.52,116.93c16.76,22.94,22.75,70.62,44.46,81.24A55,55,0,0,0,194.44,191c-17.44-21-19.34-72.78-41.2-84.21a58.62,58.62,0,0,0-16.71,10.16"/></clipPath><clipPath id="v"><rect class="a" x="136.49" y="106.79" width="57.92" height="91.4"/></clipPath><linearGradient id="x" x1="359.95" y1="10.43" x2="359.95" y2="-185.52" gradientTransform="matrix(0.7, 0, 0, -0.7, -86.51, 96.95)" gradientUnits="userSpaceOnUse"><stop offset="0" stop-color="#124379"/><stop offset="0.11" stop-color="#124379"/><stop offset="0.39" stop-color="#1487cb"/><stop offset="0.52" stop-color="#1487cb"/><stop offset="0.78" stop-color="#165197"/><stop offset="1" stop-color="#165197"/></linearGradient><clipPath id="y"><rect class="a" x="110.72" y="115.43" width="19.27" height="30.69"/></clipPath><clipPath id="z"><rect class="a" x="110.74" y="115.43" width="19.24" height="30.7"/></clipPath><clipPath id="aa"><rect class="a" x="216.12" y="102.28" width="78.63" height="98"/></clipPath><clipPath id="ab"><polygon class="a" points="216.2 200.28 294.74 200.28 294.74 102.33 216.2 102.33 216.2 200.28 216.2 200.28"/></clipPath><clipPath id="ac"><path class="a" d="M281.3,102.38c-12.35,47.67-38.18,86-59.82,95.61h0c-.38.17-.77.34-1.17.49l-.15.06-.32.13h-.15l-.54.2-.22.07-.27.09a1.14,1.14,0,0,1-.26.09l-.23.08a1.42,1.42,0,0,0-.46.14h-.19l-.32.09H217a1.43,1.43,0,0,0-.34.09l-.41.09a8.61,8.61,0,0,0,3.09.55c20.53,0,41.22-36.79,75.46-97.95H281.3Z"/></clipPath><clipPath id="ad"><polygon class="a" points="216.12 102.28 294.67 102.28 294.67 200.24 216.12 200.24 216.12 102.28 216.12 102.28"/></clipPath><clipPath id="ae"><rect class="a" x="216.12" y="102.28" width="78.55" height="97.95"/></clipPath><linearGradient id="af" x1="488.5" y1="-142.03" x2="488.5" y2="-4.46" gradientTransform="matrix(0.7, 0, 0, -0.7, -86.51, 96.95)" gradientUnits="userSpaceOnUse"><stop offset="0" stop-color="#136ab4"/><stop offset="0.32" stop-color="#59caf5"/><stop offset="0.6" stop-color="#59caf5"/><stop offset="1" stop-color="#59caf5"/></linearGradient><clipPath id="ag"><polygon class="a" points="42.31 104.45 113.81 104.45 113.81 202.88 42.31 202.88 42.31 104.45 42.31 104.45"/></clipPath><clipPath id="ah"><rect class="a" x="42.34" y="104.45" width="71.48" height="98.42"/></clipPath><clipPath id="ai"><path class="a" d="M57.58,179.66c21.08-40.61,31.06-66.28,48.69-73.28-18.17,7.13-38.62,33.94-48.69,73.28"/></clipPath><clipPath id="aj"><polygon class="a" points="57.56 106.44 106.24 106.44 106.24 179.72 57.56 179.72 57.56 106.44 57.56 106.44"/></clipPath><clipPath id="ak"><rect class="a" x="57.56" y="106.44" width="48.69" height="73.27"/></clipPath><linearGradient id="al" x1="240.59" y1="-145.64" x2="240.59" y2="-4.78" gradientTransform="matrix(0.7, 0, 0, -0.7, -86.51, 96.95)" gradientUnits="userSpaceOnUse"><stop offset="0" stop-color="#318ed5"/><stop offset="0.68" stop-color="#38a7e4"/><stop offset="1" stop-color="#38a7e4"/></linearGradient><clipPath id="am"><polygon class="a" points="65.46 146.13 110.74 146.13 110.74 202.81 65.46 202.81 65.46 146.12 65.46 146.13"/></clipPath><clipPath id="an"><rect class="a" x="65.48" y="146.11" width="45.24" height="56.7"/></clipPath><clipPath id="ao"><path class="a" d="M67.16,202.69h-1.7c21.33-.59,31.09-11.28,35.92-26.76l9.35-30a423.27,423.27,0,0,0-26.94,44.36c-4.35,8.09-11,11.47-16.64,12.19"/></clipPath><clipPath id="ap"><rect class="a" x="65.48" y="146.13" width="45.26" height="56.7"/></clipPath><clipPath id="aq"><rect class="a" x="65.47" y="146.13" width="45.26" height="56.7"/></clipPath><linearGradient id="ar" x1="249.46" y1="-146.06" x2="249.46" y2="-9.14" gradientTransform="matrix(0.7, 0, 0, -0.7, -86.51, 96.95)" gradientUnits="userSpaceOnUse"><stop offset="0" stop-color="#05a1e6"/><stop offset="1" stop-color="#05a1e6"/></linearGradient><clipPath id="as"><path class="a" d="M67.16,202.68h0c5.67-.73,12.29-4.1,16.64-12.2a427.44,427.44,0,0,1,26.92-44.35,249.44,249.44,0,0,1,8.56-23.93c-17.79,16.93-35.65,45.09-52.12,80.48"/></clipPath><clipPath id="at"><rect class="a" x="67.26" y="122.31" width="52.13" height="80.49"/></clipPath><linearGradient id="av" x1="256.91" y1="-153.21" x2="256.91" y2="-37.51" gradientTransform="matrix(0.7, 0, 0, -0.7, -86.51, 96.95)" gradientUnits="userSpaceOnUse"><stop offset="0" stop-color="#1959a6"/><stop offset="0.15" stop-color="#1959a6"/><stop offset="0.48" stop-color="#05a1e6"/><stop offset="0.5" stop-color="#05a1e6"/><stop offset="0.92" stop-color="#7ec5ea"/><stop offset="1" stop-color="#7ec5ea"/></linearGradient><clipPath id="aw"><path class="a" d="M113.09,104.63h-.15a1.5,1.5,0,0,1-.3,0h-.18l-.31.06H112l-.69.13h-.08l-.31.06h-.17l-.32.06h-.15l-1.13.44H109l-.34.1-.15,0-.34.1a.24.24,0,0,1-.12,0l-.78.27-.38.14-.15.06-.32.12-.11,0C88.71,113.38,78.72,139,57.65,179.66a196.67,196.67,0,0,0-4.49,23.2H67.22c16.47-35.57,34.33-63.73,52.13-80.66a44.47,44.47,0,0,1,6-10.39,19.84,19.84,0,0,0-4.1-5.11h0l-.25-.12-.25-.13a1.34,1.34,0,0,1-.24-.12.77.77,0,0,1-.28-.12l-.22-.1-.47-.19-.2-.08-.35-.14-.19-.06-.48-.17h0l-.56-.16h-.13l-.46-.13h-.11c-.39-.1-.78-.18-1.18-.25h-.12l-.6-.21h-.09l-.61-.08h-.1a3.42,3.42,0,0,0-.46,0l-.75.05"/></clipPath><clipPath id="ax"><polygon class="a" points="55.1 215.19 36.12 107.52 122.89 92.22 141.87 199.88 55.1 215.19 55.1 215.19"/></clipPath><clipPath id="ay"><polygon class="a" points="55.1 215.19 36.12 107.52 122.89 92.22 141.87 199.88 55.1 215.19 55.1 215.19"/></clipPath><linearGradient id="az" x1="262.12" y1="-145.64" x2="240" y2="-20.19" gradientTransform="matrix(0.7, 0, 0, -0.7, -86.51, 96.95)" gradientUnits="userSpaceOnUse"><stop offset="0" stop-color="#165096"/><stop offset="0.1" stop-color="#165096"/><stop offset="1" stop-color="#0d82ca"/></linearGradient><clipPath id="ba"><path class="a" d="M233,128.72l-10.2,32.52c11.13-15.31,22.09-34.56,32.53-56.79C243.16,108.27,236.68,117,233,128.72"/></clipPath><clipPath id="bb"><rect class="a" x="222.89" y="104.43" width="32.52" height="56.8"/></clipPath><linearGradient id="bd" x1="465.23" y1="-74.68" x2="465.23" y2="-9.12" gradientTransform="matrix(0.7, 0, 0, -0.7, -86.51, 96.95)" gradientUnits="userSpaceOnUse"><stop offset="0" stop-color="#05a1e6"/><stop offset="0.65" stop-color="#05a1e6"/><stop offset="0.87" stop-color="#0495d6"/><stop offset="1" stop-color="#0495d6"/></linearGradient><clipPath id="be"><polygon class="a" points="205.09 91.97 297.62 91.97 297.62 208.03 205.09 208.03 205.09 91.97 205.09 91.97"/></clipPath><clipPath id="bf"><polygon class="a" points="221.47 197.94 281.31 197.94 281.31 102.33 221.47 102.33 221.47 197.94 221.47 197.94"/></clipPath><clipPath id="bg"><path class="a" d="M223.16,197.13l-1.7.81c21.7-9.64,47.48-47.93,59.85-95.56h-2.53c-28.39,50.73-37.53,84.7-55.62,94.81"/></clipPath><clipPath id="bh"><polygon class="a" points="297.61 105.08 279.45 208.01 205.09 194.91 223.24 91.97 297.61 105.08 297.61 105.08"/></clipPath><linearGradient id="bj" x1="495.62" y1="-2.24" x2="468.96" y2="-153.42" gradientTransform="matrix(0.7, 0, 0, -0.7, -86.51, 96.95)" gradientUnits="userSpaceOnUse"><stop offset="0" stop-color="#38a7e4"/><stop offset="0.36" stop-color="#38a7e4"/><stop offset="0.96" stop-color="#0e88d3"/><stop offset="1" stop-color="#0e88d3"/></linearGradient><clipPath id="bk"><path class="a" d="M270.87,102.38H258.29l-2,.09-1,2c-10.43,22.23-21.39,41.5-32.52,56.8-5.23,16.11-9.07,25.88-13.78,31.63,2,3.43,4.35,5.84,7.15,6.87h.41l.34-.09h.22l.31-.09.19-.05.47-.14.23-.07.25-.1.27-.08.22-.09.55-.19.15-.06a1.66,1.66,0,0,0,.31-.12h.16l1.17-.5h0c.56-.25,1.12-.53,1.69-.82,18.09-10.1,27.22-44.07,55.62-94.79h-7.91Z"/></clipPath><clipPath id="bl"><rect class="a" x="209" y="102.34" width="69.76" height="97.42"/></clipPath><clipPath id="bm"><rect class="a" x="209" y="102.34" width="69.76" height="97.42"/></clipPath><linearGradient id="bn" x1="471.98" y1="-8.4" x2="471.98" y2="-151.43" gradientTransform="matrix(0.7, 0, 0, -0.7, -86.51, 96.95)" gradientUnits="userSpaceOnUse"><stop offset="0" stop-color="#168cd4"/><stop offset="0.5" stop-color="#1c87cc"/><stop offset="1" stop-color="#154b8d"/></linearGradient><clipPath id="bo"><rect class="a" x="110.11" y="93.09" width="47.42" height="28.64"/></clipPath><clipPath id="bp"><rect class="a" x="111.63" y="104.45" width="43.11" height="9.26"/></clipPath><clipPath id="bq"><path class="a" d="M113.82,104.56l1.71-.07a21.89,21.89,0,0,1,12.92,4.19c4-3.12,8.75-4.22,15.4-4.22H111.63a14.41,14.41,0,0,1,2.19.11"/></clipPath><clipPath id="br"><polygon class="a" points="116.33 93.09 145.32 105.11 139.09 120.11 110.11 108.09 116.33 93.09 116.33 93.09"/></clipPath><clipPath id="bs"><rect class="a" x="119.59" y="90.92" width="16.24" height="31.38" transform="translate(-19.69 183.72) rotate(-67.47)"/></clipPath><linearGradient id="bt" x1="291.28" y1="-7.66" x2="324.22" y2="-21.32" gradientTransform="matrix(0.7, 0, 0, -0.7, -86.51, 96.95)" gradientUnits="userSpaceOnUse"><stop offset="0" stop-color="#97d6ee"/><stop offset="0.7" stop-color="#55c1ea"/><stop offset="1" stop-color="#55c1ea"/></linearGradient><clipPath id="bu"><path class="a" d="M143.85,104.45c-6.65,0-11.44,1.1-15.4,4.22a30.53,30.53,0,0,1,3.78,3.21A47,47,0,0,1,148.6,105a34,34,0,0,1,6.13-.58H143.85Z"/></clipPath><clipPath id="bv"><rect class="a" x="128.1" y="99.32" width="27" height="17.61" transform="translate(-32 68.09) rotate(-24.38)"/></clipPath><clipPath id="bw"><rect class="a" x="128.1" y="99.31" width="27" height="17.61" transform="translate(-32.01 68.12) rotate(-24.39)"/></clipPath><linearGradient id="bx" x1="311.59" y1="-22.44" x2="337.61" y2="-10.64" gradientTransform="matrix(0.7, 0, 0, -0.7, -86.51, 96.95)" gradientUnits="userSpaceOnUse"><stop offset="0" stop-color="#7accec"/><stop offset="0.34" stop-color="#7accec"/><stop offset="0.84" stop-color="#3fb7ed"/><stop offset="1" stop-color="#3fb7ed"/></linearGradient><clipPath id="by"><rect class="a" x="204.63" y="102.43" width="51.88" height="80.06"/></clipPath><clipPath id="bz"><polygon class="a" points="204.63 182.5 256.26 182.5 256.26 102.45 204.63 102.45 204.63 182.5 204.63 182.5"/></clipPath><clipPath id="ca"><path class="a" d="M222.81,161.26,233,128.73c3.66-11.71,10.15-20.45,22.32-24.28l.94-2c-19.86,1.19-29.11,11.29-33.79,26.25-8.16,26.1-13.11,43-17.87,53.79a158.1,158.1,0,0,0,18.2-21.23"/></clipPath><clipPath id="cb"><rect class="a" x="204.84" y="102.43" width="51.66" height="80.04"/></clipPath><clipPath id="cc"><rect class="a" x="204.84" y="102.43" width="51.66" height="80.03"/></clipPath><linearGradient id="cd" x1="453.12" y1="-16.26" x2="453.12" y2="-156.16" gradientTransform="matrix(0.7, 0, 0, -0.7, -86.51, 96.95)" gradientUnits="userSpaceOnUse"><stop offset="0" stop-color="#1da7e7"/><stop offset="1" stop-color="#37abe7"/></linearGradient></defs><title>04</title><g class="b"><g class="c"><g class="d"><path class="e" d="M175.16,200.33H129.91V119.59h45.25Z"/></g></g></g><g class="f"><g class="g"><g class="g"><path class="h" d="M181.16,199.83H133.61V117h47.55Z"/></g></g></g><path class="i" d="M154.73,104.45a34,34,0,0,0-6.13.59,47.34,47.34,0,0,0-16.37,6.84,40.86,40.86,0,0,1,4.29,5,58.67,58.67,0,0,1,16.72-10.16,39.84,39.84,0,0,1,6.24-1.74,20,20,0,0,0-4.75-.58"/><g class="j"><g class="k"><g class="l"><g class="m"><g class="n"><path class="o" d="M159.54,104.49h45.12v83.89H159.54V104.49Z"/></g></g></g></g></g><g class="p"><g class="q"><path class="r" d="M159.48,105a19.49,19.49,0,0,0-4.75-.58h10.53a32,32,0,0,0-5.78.54"/></g></g><path class="s" d="M197.46,194.26a38.74,38.74,0,0,1-3-3.28A55.65,55.65,0,0,1,181,198.16a21.11,21.11,0,0,0,5,1.71,22.06,22.06,0,0,0,4.29.43c5,0,9-.6,12.33-2.21a23.85,23.85,0,0,1-5.14-3.84"/><g class="t"><g class="u"><g class="u"><path class="v" d="M198,191.09H153.36v-86H198Z"/></g></g></g><g class="w"><g class="x"><g class="x"><path class="y" d="M194.41,198.19H136.49v-91.4h57.92Z"/></g></g></g><g class="z"><g class="aa"><path class="ab" d="M119.28,122.2a249.44,249.44,0,0,0-8.56,23.93A178.19,178.19,0,0,1,130,122.87a71.17,71.17,0,0,0-2.84-7.44,96,96,0,0,0-7.88,6.78"/></g></g><path class="ac" d="M129.48,113.72l-2.32,1.71a69,69,0,0,1,2.84,7.44l3.47-3.29a47.24,47.24,0,0,0-4-5.85"/><path class="ad" d="M132.23,111.88l-2.75,1.84a46.5,46.5,0,0,1,4,5.85l3-2.65a41.62,41.62,0,0,0-4.29-5"/><g class="ae"><g class="af"><g class="ag"><g class="ah"><g class="ai"><path class="aj" d="M216.16,102.28h78.55v97.95H216.16Z"/></g></g></g></g></g><g class="ak"><g class="al"><path class="am" d="M106.27,106.38h0l.36-.14h.15l.36-.12.79-.28h.12l.33-.11.16,0,.34-.1H109l1.13-.3h.15l.33-.06h.16l.32,0h.08l.68-.13H112l.31-.06H113l.75-.07-2.19-.11c-23.11,0-55,42.88-69.3,98.41h2.84c4.6-8.19,8.72-15.93,12.49-23.2,10-39.7,30.51-66.53,48.68-73.64"/></g></g><path class="an" d="M119.28,122.2a94,94,0,0,1,7.88-6.77l-1.9-3.62a44.47,44.47,0,0,0-6,10.39"/><path class="an" d="M121.16,106.71a20,20,0,0,1,4.1,5.1l1.19-1.34a23.42,23.42,0,0,0-5.59-3.91l.25.13h0"/><g class="ao"><g class="ap"><g class="aq"><path class="ar" d="M57.56,106.44h48.68v73.28H57.56Z"/></g></g></g><path class="as" d="M126.47,110.47l-1.19,1.34c.66,1.1,1.27,2.31,1.89,3.62l2.32-1.71a30.72,30.72,0,0,0-3-3.25"/><g class="at"><g class="au"><g class="av"><g class="aw"><g class="ax"><path class="ay" d="M65.48,146.13h45.26v56.7H65.48Z"/></g></g></g></g></g><g class="az"><g class="ba"><g class="ba"><path class="bb" d="M67.26,122.31h52.13V202.8H67.26Z"/></g></g></g><path class="am" d="M57.58,179.66c-3.78,7.27-7.89,15-12.48,23.2h8a196.91,196.91,0,0,1,4.44-23.2"/><g class="bc"><g class="bd"><g class="be"><path class="bf" d="M55.1,215.19,36.16,107.51l86.73-15.29,19,107.66Z"/></g></g></g><g class="bg"><g class="bh"><g class="bh"><path class="bi" d="M222.89,104.43h32.52v56.8H222.89Z"/></g></g></g><g class="bj"><g class="bk"><g class="bl"><g class="bm"><g class="bm"><path class="bn" d="M297.61,105.07,279.45,208,205.09,194.9,223.24,92Z"/></g></g></g></g></g><path class="bo" d="M209,192.87c4.71-5.75,8.55-15.51,13.78-31.62a157.56,157.56,0,0,1-18.2,21.24h0a55.86,55.86,0,0,0,4.44,10.33"/><path class="s" d="M209,192.87a19.35,19.35,0,0,1-5.19,4.56l-1.25.66a18.14,18.14,0,0,0,6.6,2.09h0l1.07.09h3.65l.45-.07h.14l.5-.08h.16l1-.22c-2.79-1-5.13-3.43-7.14-6.87"/><path class="bp" d="M169.16,200.3a32.31,32.31,0,0,0,6.13-.58,40.09,40.09,0,0,0,5.71-1.54,21,21,0,0,0,9.3,2.12Z"/><path class="bp" d="M190.27,200.3c5,0,9-.58,12.33-2.21a18.14,18.14,0,0,0,6.6,2.09h0l1.08.09h-20Z"/><path class="bq" d="M211.49,200.3H214l.45-.07h.13l.51-.08h.06l1-.21a8.61,8.61,0,0,0,3.1.54h-7.8Z"/><path class="br" d="M204.6,182.55h0l-6.69,5.83L194.42,191l3,3.28a22.74,22.74,0,0,0,5.15,3.84l1.25-.67a19,19,0,0,0,5.19-4.55,55.77,55.77,0,0,1-4.44-10.32"/><g class="bs"><g class="bt"><g class="bu"><path class="bv" d="M278.75,199.76H209V102.38h69.75Z"/></g></g></g><g class="bw"><g class="bx"><path class="by" d="M113.82,104.56h.56l.61.08h.1l.5.08h.13l1.17.26H117l.47.13h.13l.56.16h0l.48.17.19.06.34.16.2.07.47.19.22.1.28.12.25.13.25.12a23,23,0,0,1,5.58,3.91,19.94,19.94,0,0,1,2-1.8,21.77,21.77,0,0,0-12.91-4.17,14,14,0,0,0-1.71.07"/><path class="bz" d="M126.47,110.47a29.7,29.7,0,0,1,3,3.25l2.76-1.84a28.91,28.91,0,0,0-3.79-3.2,18.92,18.92,0,0,0-2,1.79"/><g class="ca"><g class="cb"><g class="cc"><path class="cd" d="M116.33,93.09l29,12-6.22,15-29-12Z"/></g></g></g><g class="ce"><g class="cf"><g class="cg"><path class="ch" d="M125.66,105.67l24.6-11.15,7.27,16-24.59,11.14Z"/></g></g></g></g></g><g class="ci"><g class="cj"><g class="ck"><g class="cl"><g class="cm"><path class="cn" d="M256.5,182.47H204.84v-80H256.5Z"/></g></g></g></g></g><path class="co" d="M252.59,198.77l-.31.77h0a4.35,4.35,0,0,0-.28-.76l-2-4.4h-1v6.34h.7v-5.48h0a5.31,5.31,0,0,0,.19.65l2.16,4.83h.36l2.16-4.86a5.1,5.1,0,0,0,.2-.63h0l-.06,1.23v4.25h.74v-6.33h-.93l-2,4.41ZM243.66,195h1.83v5.66h.75V195h1.82v-.66h-4.39v.67Zm46-3.46a4.82,4.82,0,0,0-3.54,1.5,5.25,5.25,0,0,0,0,7.24,4.64,4.64,0,0,0,3.54,1.52,4.83,4.83,0,0,0,3.63-1.52,5.13,5.13,0,0,0-3.63-8.74m124.74-49h18.76v58.2h7.63V142.61h18.75V135.7H414.39v6.88Zm-34.07,28.57h23.51v-6.89H380.33V142.61H405.7V135.7h-33v65.1h34.49v-6.9H380.36V171.15Zm-29.62,10.4.46,9.57H351c-.45-.88-1.34-2.32-2.65-4.35L315.76,135.7h-9.87v65.09h7.63v-47l-.36-8.95h.28a23.2,23.2,0,0,0,2,4.1L349,200.82h9.26v-65.1h-7.57v45.83Zm90.14-58.86c0,3.48,1.54,5.23,4.64,5.23a5.26,5.26,0,0,0,2.67-.54v-2.45a3,3,0,0,1-1.84.58,2.5,2.5,0,0,1-2-.76,4.22,4.22,0,0,1-.6-2.52v-10h4.44v-2.42H443.7v-5.25l-2.84.92v4.33h-3.05v2.41h3.05V122.7Zm-11.6,4.84h2.83V112.2h4.16v-2.4h-4.16v-2.73q0-3.76,3-3.76a3.85,3.85,0,0,1,1.88.46v-2.56a5.89,5.89,0,0,0-2-.31,5.47,5.47,0,0,0-3.9,1.48,5.93,5.93,0,0,0-1.81,4.58v2.88h-3v2.41h3Zm-19.35-8.77a7.55,7.55,0,0,1,1.67-5.24,5.55,5.55,0,0,1,4.24-1.73A5.26,5.26,0,0,1,420,113.5a7.7,7.7,0,0,1,1.54,5.19,7.8,7.8,0,0,1-1.43,5,5.16,5.16,0,0,1-4.28,1.81,5.5,5.5,0,0,1-4.31-1.79,7.23,7.23,0,0,1-1.6-5M422,125.38a9.56,9.56,0,0,0,2.4-6.81,9.77,9.77,0,0,0-2.23-6.77,8,8,0,0,0-6.18-2.42,8.85,8.85,0,0,0-6.44,2.36A9.62,9.62,0,0,0,407,118.9a9.21,9.21,0,0,0,2.28,6.48,8.15,8.15,0,0,0,6.34,2.57,8.38,8.38,0,0,0,6.44-2.57m-19.5,1a4.57,4.57,0,0,0,1.6-3.61,4.38,4.38,0,0,0-1.31-3.25,10,10,0,0,0-3.27-2,9.1,9.1,0,0,1-2.65-1.48,2.35,2.35,0,0,1-.71-1.83,2.22,2.22,0,0,1,.85-1.78,3.55,3.55,0,0,1,2.27-.69,6.81,6.81,0,0,1,4,1.26v-2.82a8.69,8.69,0,0,0-3.79-.83,6.78,6.78,0,0,0-4.5,1.47,4.88,4.88,0,0,0-.62,6.86h0a9.09,9.09,0,0,0,3.15,2,11.79,11.79,0,0,1,3,1.7,2.24,2.24,0,0,1,.75,1.71c0,1.65-1.13,2.48-3.38,2.48a7.09,7.09,0,0,1-4.61-1.7v3a8.87,8.87,0,0,0,4.42,1.07,7.08,7.08,0,0,0,4.86-1.57m-25.3-12.86a5.46,5.46,0,0,1,4.23-1.73,5.18,5.18,0,0,1,4.17,1.7,9.55,9.55,0,0,1,.1,10.21,5.19,5.19,0,0,1-4.27,1.82,5.51,5.51,0,0,1-4.31-1.8,7.16,7.16,0,0,1-1.61-5,7.56,7.56,0,0,1,1.68-5.25m4,14.43a8.36,8.36,0,0,0,6.46-2.52,9.6,9.6,0,0,0,2.4-6.79,9.8,9.8,0,0,0-2.22-6.78,8,8,0,0,0-6.2-2.43,8.91,8.91,0,0,0-6.44,2.35,9.6,9.6,0,0,0-2.59,7.15,9.3,9.3,0,0,0,2.27,6.5,8.13,8.13,0,0,0,6.33,2.57M367,110.44a6.32,6.32,0,0,0-1.92,3H365v-3.66h-2.82v17.74H365v-9a7.73,7.73,0,0,1,1.34-4.83,3.78,3.78,0,0,1,5.07-1v-3a4.65,4.65,0,0,0-1.7-.26,4.33,4.33,0,0,0-2.71,1M353,128a9.06,9.06,0,0,0,4.85-1.25V124a7.12,7.12,0,0,1-4.36,1.51,5.62,5.62,0,0,1-4.39-1.8,7,7,0,0,1-1.63-4.9,7.36,7.36,0,0,1,1.78-5.15,5.71,5.71,0,0,1,4.42-1.89,7.25,7.25,0,0,1,4.22,1.39v-2.9a9.07,9.07,0,0,0-4.1-.91,8.71,8.71,0,0,0-6.72,2.69,9.86,9.86,0,0,0-2.51,7,9,9,0,0,0,2.28,6.34,8,8,0,0,0,6.15,2.53m-15.66-.42h2.84V109.74h-2.83Zm1.45-22.22a1.86,1.86,0,0,0,1.87-1.85v0a1.7,1.7,0,0,0-.55-1.29,1.85,1.85,0,0,0-1.32-.54,1.81,1.81,0,0,0-1.31.54,1.73,1.73,0,0,0-.54,1.29,1.76,1.76,0,0,0,.54,1.34,1.83,1.83,0,0,0,1.31.52m-30.1,5.6-.13-4.85h.06a14.29,14.29,0,0,0,.74,2.55l8.48,18.94h1.42l8.47-19.1a15,15,0,0,0,.74-2.39h.07l-.24,4.81v16.69h2.88V102.68H327.5l-7.78,17.23c-.3.66-.69,1.68-1.19,3h-.12a22.15,22.15,0,0,0-1.12-3l-7.62-17.32h-3.84v24.9h2.8V110.85Zm143.25-3.06a4.06,4.06,0,0,1,3-1.2,4.1,4.1,0,1,1-3,1.19m3,7.63a4.55,4.55,0,0,0,3.38-1.35,4.73,4.73,0,0,0,0-6.69,4.57,4.57,0,0,0-3.34-1.3,4.68,4.68,0,0,0-4.75,4.6v.1a4.5,4.5,0,0,0,1.34,3.34,4.65,4.65,0,0,0,3.34,1.28m-1-7h.75a1.84,1.84,0,0,1,1.1.26.87.87,0,0,1,.3.75c0,.68-.42,1-1.25,1h-.9Zm0,2.77h.55c.39,0,.76.37,1.08,1.08l.65,1.45h1l-.79-1.61a1.94,1.94,0,0,0-1-1.11h0a2.17,2.17,0,0,0,1.14-.59,1.42,1.42,0,0,0,.4-1.06,1.38,1.38,0,0,0-.49-1.12,2.46,2.46,0,0,0-1.71-.51H453v6h.85v-2.52Z"/></svg>