<svg xmlns="http://www.w3.org/2000/svg" viewBox="0 0 502 300"><defs><style>.a{fill:#54565b;}.b{fill:#009c4d;}.c{fill:#4a4d4d;}</style></defs><title>05</title><path class="a" d="M142.94,148.56a39.43,39.43,0,1,1,0-.06v.06m21.56,36.79a2.44,2.44,0,0,0-.15-3.45l-.08-.08-10.4-9a43.54,43.54,0,1,0-12.24,12l11.4,9.93a2.45,2.45,0,0,0,3.47-.16l.06-.07Zm29.13,3.46V108.24a2.89,2.89,0,0,0-2.81-2.94H177.73a2.88,2.88,0,0,0-2.94,2.82.24.24,0,0,0,0,.12v80.57a2.87,2.87,0,0,0,2.81,2.94h13.16a2.85,2.85,0,0,0,2.94-2.94m31.86-72.4v-8.34a2.73,2.73,0,0,0-2.64-2.82H210.23a2.73,2.73,0,0,0-2.82,2.64.54.54,0,0,0,0,.18v8.34a2.73,2.73,0,0,0,2.63,2.82h12.64a2.66,2.66,0,0,0,2.82-2.5,1.71,1.71,0,0,0,0-.32m.53,72.4V130.63a2.89,2.89,0,0,0-2.81-2.94H210.4a2.89,2.89,0,0,0-2.94,2.82v58.3a2.87,2.87,0,0,0,2.81,2.94H223.1c2.93.06,2.93-2.94,2.93-2.94m54.54-35.67a3.89,3.89,0,0,1,.52-4.64l18-18.58c2.06-2.11-.91-2.11-.91-2.11H281.41a7.65,7.65,0,0,0-5,2.11l-16.65,17.65c-2,2.12-2-.82-2-.82V108.18a2.88,2.88,0,0,0-2.82-2.93H242.14a2.73,2.73,0,0,0-2.82,2.64v80.87a2.87,2.87,0,0,0,2.8,2.93h12.71a2.73,2.73,0,0,0,2.82-2.64V174.71a7.34,7.34,0,0,1,2.17-4.94l5.94-5.58,14.92,25a5.57,5.57,0,0,0,4.47,2.53H301c2.94,0,1.41-2.53,1.41-2.53Z"/><path class="b" d="M399.51,148.15a30.46,30.46,0,1,1,0-.08v.08m25.39,38.13L411,174.65a49.84,49.84,0,1,0-13.46,14.11l14.81,12.45a2.85,2.85,0,0,0,4-.3l0,0,8.76-10.51a2.73,2.73,0,0,0-.06-3.86l-.23-.2"/><path class="a" d="M349.39,148.15A19.57,19.57,0,1,1,369,167.72a19.57,19.57,0,0,1-19.56-19.57h0"/><path class="c" d="M420.67,112.83h1.47c.91,0,1.47-.18,1.47-1.18s-.65-1.18-1.47-1.18h-1.47Zm0,3.58H420v-6.64h2.41a1.83,1.83,0,0,1,2,1.63v.19a1.65,1.65,0,0,1-1.46,1.82h-.13l1.82,2.94h-.91l-1.75-2.94h-1.35v3Zm1.27-8a4.54,4.54,0,0,0-4.55,4.54v.16a4.55,4.55,0,0,0,9.06.91,4.61,4.61,0,0,0,0-.91,4.54,4.54,0,0,0-4.39-4.7h-.12m-5.46,4.68a5.42,5.42,0,1,1,5.46,5.41,5.42,5.42,0,0,1-5.46-5.41"/></svg>