<svg xmlns="http://www.w3.org/2000/svg" xmlns:xlink="http://www.w3.org/1999/xlink" viewBox="0 0 502 300"><defs><style>.a{fill:#646464;}.b{fill:url(#a);}.c{fill:url(#b);}</style><linearGradient id="a" x1="34.66" y1="271.6" x2="96.6" y2="325.4" gradientTransform="translate(-8.95 -173.56)" gradientUnits="userSpaceOnUse"><stop offset="0" stop-color="#5a9fd4"/><stop offset="1" stop-color="#306998"/></linearGradient><linearGradient id="b" x1="120.66" y1="358.09" x2="98.55" y2="326.5" gradientTransform="translate(-8.95 -173.56)" gradientUnits="userSpaceOnUse"><stop offset="0" stop-color="#ffd43b"/><stop offset="1" stop-color="#ffe873"/></linearGradient></defs><title>06</title><path class="a" d="M209.31,150.91q0-22.07-12.58-22.67a23.81,23.81,0,0,0-9.77,1.6,14.08,14.08,0,0,0-5.13,2.71v35.11c5.37,3.36,10.14,5,14.29,4.68Q209.31,171.47,209.31,150.91Zm10.34.58q0,11.22-5.25,18.61a19.43,19.43,0,0,1-16.33,8.62q-7.87.24-16.21-4.92v31.9l-9-3.21V131.67a19.87,19.87,0,0,1,5.68-4.68q8-4.69,19.52-4.81l.13.13a17.9,17.9,0,0,1,16.18,8.61q5.3,8,5.31,20.58Zm55,21q0,15-3,20.82t-11.53,9.24a44.32,44.32,0,0,1-14.87,3l-1.46-5.67a73.15,73.15,0,0,0,11.46-2.21q6.54-2.22,9-6.78c1.32-2.47,2-7.18,2-14.16v-2.42a46.26,46.26,0,0,1-19.34,4.18,17.82,17.82,0,0,1-11.71-4.18,14.27,14.27,0,0,1-5.67-11.58V125.29l9-3.08V159.9q0,6,3.9,9.33c2.6,2.21,6,3.22,10.09,3.14s8.55-1.68,13.24-4.8v-44h9v48.88Zm35.13,5.8-3,.12q-7.63,0-11.89-3.64t-4.24-10.07V129.23h-6.11v-5.66h6.17v-15l9-3.2v18.2h10.11v5.66H299.65v35.19c0,3.38.88,5.77,2.71,7.16,1.56,1.16,4,1.81,7.4,2v4.69Zm54.47-.74h-9V142.78a16.38,16.38,0,0,0-2.47-9.12,9,9,0,0,0-7.92-4.31q-6.19,0-15.48,6.53v41.63h-9v-83l9-2.84v37.8a31.34,31.34,0,0,1,18.85-6.28,15,15,0,0,1,11.58,4.8,16.91,16.91,0,0,1,4.44,12v37.56Zm47.83-28q0-8.48-3.21-14a13.43,13.43,0,0,0-11.82-7.12q-14.81.85-14.79,21.18,0,9.33,3.09,15.57,4,8,11.87,7.83,14.86-.12,14.86-23.45Zm9.85.06q0,12.06-6.16,20.08c-4.52,6-10.79,9-18.73,9s-14-3-18.48-9q-6-8-6-20.08,0-11.34,6.53-19.1a22.44,22.44,0,0,1,18.08-8.24,22.88,22.88,0,0,1,18.24,8.24q6.52,7.77,6.53,19.1Zm51.58,28h-9v-36.8q0-6-3.64-9.43t-9.67-3.28a21.56,21.56,0,0,0-12.2,4.18v45.23h-9V131.19c5.17-3.78,9.91-6.23,14.29-7.38a42.82,42.82,0,0,1,10.85-1.61,28.1,28.1,0,0,1,6,.62,17.42,17.42,0,0,1,8.62,4.56,12.06,12.06,0,0,1,3.7,8.87v41.26Z"/><path class="b" d="M84,94.82A78,78,0,0,0,71,95.93C59.54,98,57.54,102.2,57.54,110v10.32h27v3.44H47.33c-7.87,0-14.79,4.73-16.92,13.73-2.49,10.32-2.63,16.75,0,27.52,1.93,8,6.52,13.73,14.39,13.73h9.31V166.38A17.2,17.2,0,0,1,71,149.56H98.08a13.65,13.65,0,0,0,13.54-13.76h0V110c0-7.34-6.19-12.85-13.54-14.07A83.3,83.3,0,0,0,84,94.85ZM69.33,103.1a5.16,5.16,0,1,1-5.08,5.24v-.07A5.13,5.13,0,0,1,69.33,103.1Z"/><path class="c" d="M115,123.77v12c0,9.32-7.88,17.17-16.92,17.17H71a13.81,13.81,0,0,0-13.49,13.78v25.79c0,7.34,6.38,11.65,13.54,13.76a45.38,45.38,0,0,0,27.05,0c6.82-2,13.54-6,13.54-13.76V182.19H84.54v-3.44h40.58c7.87,0,10.81-5.49,13.54-13.73,2.83-8.49,2.71-16.64,0-27.52-1.94-7.84-5.65-13.73-13.54-13.73ZM99.78,189.1a5.16,5.16,0,1,1-5.08,5.24v-.1A5.12,5.12,0,0,1,99.78,189.1Z"/></svg>