<svg width="311" height="316" xmlns="http://www.w3.org/2000/svg" xmlns:xlink="http://www.w3.org/1999/xlink" xml:space="preserve" overflow="hidden"><defs><clipPath id="clip0"><rect x="484" y="202" width="311" height="316"/></clipPath><clipPath id="clip1"><rect x="565" y="287" width="165" height="146"/></clipPath></defs><g clip-path="url(#clip0)" transform="translate(-484 -202)"><path d="M794.709 359.55C796.052 459.519 752.928 517.1 653.974 517.1 555.02 517.1 524.169 433.911 491.86 352.211 454.869 258.681 555.013 202 653.974 202 752.935 202 793.321 257.681 794.709 359.55" fill="#EBF2FC"/><g clip-path="url(#clip1)"><path d="M569.844 362.296 594.102 362.296C596.366 362.303 598.227 364.163 598.234 366.427L598.234 416.01C598.227 418.274 596.366 420.134 594.102 420.141L569.844 420.141C567.581 420.134 565.72 418.274 565.713 416.01L565.713 366.427C565.72 364.163 567.581 362.303 569.844 362.296ZM603.592 415.29 603.592 367.001 629.383 367.001C638.606 368.653 647.83 373.665 657.04 379.463L673.94 379.463C681.578 379.916 685.59 387.673 678.166 392.791 672.234 397.136 664.424 396.883 656.413 396.177 650.882 395.897 650.642 403.321 656.413 403.347 658.413 403.507 660.585 403.041 662.491 403.028 672.488 403.028 680.725 401.108 685.763 393.218L688.335 387.207 713.46 374.744C726.042 370.613 734.972 383.768 725.709 392.911 708.18 405.708 689.429 416.74 669.729 425.846 655.867 434.283 641.992 433.99 628.13 425.846L603.606 415.29 603.592 415.29ZM648.35 297.226C648.196 297.099 648.02 297.004 647.83 296.946 647.689 296.914 647.544 296.914 647.403 296.946 647.026 296.984 646.678 297.165 646.43 297.452L643.058 301.451C642.441 302.193 641.377 302.4 640.526 301.944 640.073 301.704 639.593 301.477 639.113 301.277 638.633 301.078 638.06 300.864 637.554 300.691 637.047 300.518 636.527 300.371 635.927 300.198 635.328 300.025 634.821 299.891 634.301 299.771 633.419 299.547 632.786 298.762 632.755 297.852L632.249 292.361C632.228 292.166 632.174 291.977 632.089 291.801 632.007 291.657 631.904 291.527 631.782 291.414 631.662 291.304 631.515 291.226 631.356 291.188 631.176 291.147 630.989 291.147 630.809 291.188L623.732 291.881C623.543 291.906 623.358 291.96 623.185 292.041 623.012 292.135 622.858 292.262 622.732 292.414 622.627 292.545 622.546 292.694 622.492 292.854 622.465 292.999 622.465 293.148 622.492 293.294L622.985 298.478C623.08 299.465 622.447 300.385 621.493 300.651 621.066 300.798 620.586 300.971 620.04 301.197 619.493 301.424 619.027 301.651 618.6 301.877L618.52 301.877C618.067 302.117 617.587 302.37 617.188 302.637L617.054 302.637C616.601 302.904 616.161 303.183 615.721 303.463 614.977 303.956 613.994 303.912 613.296 303.357L608.684 299.785C608.543 299.672 608.386 299.582 608.217 299.518 608.086 299.489 607.949 299.489 607.818 299.518 607.627 299.545 607.442 299.604 607.271 299.691L607.191 299.691C607.067 299.779 606.955 299.882 606.858 299.998L602.393 305.423C602.258 305.585 602.154 305.77 602.086 305.969 602.06 306.11 602.06 306.255 602.086 306.396L602.086 306.489C602.1 306.647 602.146 306.801 602.22 306.942L602.22 307.009C602.308 307.14 602.416 307.257 602.539 307.355L606.538 310.727C607.292 311.343 607.501 312.42 607.031 313.273 606.792 313.707 606.574 314.151 606.378 314.606 606.156 315.116 605.961 315.636 605.792 316.165 605.632 316.659 605.458 317.192 605.285 317.792 605.112 318.391 604.979 318.911 604.859 319.418 604.689 320.313 603.94 320.991 603.033 321.07L597.528 321.577C597.338 321.598 597.153 321.652 596.981 321.737 596.831 321.82 596.696 321.928 596.582 322.057 596.478 322.182 596.401 322.327 596.355 322.483 596.319 322.659 596.319 322.84 596.355 323.016L597.048 330.094C597.067 330.288 597.121 330.478 597.208 330.654 597.297 330.827 597.419 330.981 597.568 331.107 597.703 331.207 597.851 331.288 598.008 331.347 598.171 331.375 598.338 331.375 598.501 331.347L603.686 330.853C604.645 330.794 605.523 331.42 605.778 332.346 605.925 332.773 606.111 333.266 606.338 333.799 606.565 334.332 606.778 334.799 607.018 335.252L607.111 335.439C607.324 335.852 607.564 336.305 607.831 336.771L608.724 338.238C609.196 338.982 609.142 339.949 608.591 340.637L604.899 345.182C604.801 345.313 604.721 345.457 604.659 345.608 604.638 345.736 604.638 345.867 604.659 345.995 604.676 346.19 604.73 346.38 604.819 346.555 604.905 346.714 605.023 346.855 605.165 346.968 607.004 348.5 608.897 350.007 610.723 351.553 610.845 351.64 610.98 351.708 611.123 351.753 611.29 351.787 611.462 351.787 611.629 351.753 611.832 351.731 612.03 351.677 612.216 351.593L612.283 351.593C612.409 351.508 612.529 351.414 612.642 351.313L615.975 347.314C616.59 346.56 617.663 346.347 618.52 346.808 618.98 347.054 619.451 347.276 619.933 347.474 620.453 347.701 620.973 347.887 621.493 348.061 622.012 348.234 622.506 348.394 623.119 348.567 623.732 348.74 624.225 348.874 624.745 348.994 625.645 349.198 626.3 349.99 626.331 350.913L626.837 356.338C626.859 356.529 626.917 356.715 627.011 356.884 627.084 357.037 627.189 357.173 627.317 357.284 627.446 357.382 627.59 357.459 627.744 357.511 627.924 357.545 628.11 357.545 628.29 357.511L635.354 356.817C635.553 356.798 635.747 356.744 635.927 356.658 636.086 356.575 636.23 356.467 636.354 356.338 636.474 356.19 636.569 356.023 636.634 355.845 636.674 355.687 636.674 355.522 636.634 355.365L636.154 350.167C636.055 349.237 636.608 348.353 637.487 348.034 638.007 347.861 638.527 347.661 639.033 347.448L639.193 347.448C639.619 347.261 640.046 347.048 640.526 346.808L640.606 346.808C641.112 346.555 641.605 346.288 642.045 346.021L643.525 345.128C644.265 344.654 645.234 344.714 645.911 345.275L650.416 348.954C650.55 349.054 650.698 349.135 650.855 349.194 650.996 349.227 651.142 349.227 651.282 349.194 651.472 349.184 651.659 349.134 651.828 349.047 651.981 348.95 652.116 348.828 652.228 348.687 653.761 346.848 655.267 344.955 656.813 343.129 656.903 343.014 656.971 342.883 657.013 342.743 657.041 342.575 657.041 342.404 657.013 342.236 656.99 342.034 656.936 341.836 656.853 341.65 656.767 341.49 656.654 341.345 656.52 341.223L652.521 337.971C651.751 337.361 651.531 336.274 652.002 335.412 652.248 334.953 652.47 334.481 652.668 333.999 652.895 333.453 653.095 332.933 653.255 332.453 653.415 331.973 653.574 331.413 653.748 330.813 653.921 330.214 654.054 329.721 654.174 329.187 654.383 328.273 655.196 327.615 656.134 327.601L661.678 327.015C661.873 326.994 662.062 326.94 662.238 326.855 662.379 326.769 662.508 326.666 662.625 326.548 662.723 326.42 662.799 326.275 662.851 326.122 662.88 325.954 662.88 325.783 662.851 325.615L662.158 318.551C662.135 318.362 662.081 318.177 661.998 318.005L661.998 317.925C661.906 317.784 661.794 317.659 661.665 317.552 661.533 317.447 661.385 317.365 661.225 317.312 661.08 317.284 660.931 317.284 660.785 317.312L655.547 317.685C654.619 317.774 653.741 317.225 653.415 316.352 653.241 315.859 653.055 315.339 652.815 314.806 652.575 314.273 652.348 313.713 652.122 313.273L652.122 313.18C651.896 312.723 651.646 312.278 651.375 311.847 651.109 311.394 650.802 310.941 650.496 310.514 649.983 309.76 650.032 308.75 650.616 308.048L654.268 303.53C654.383 303.391 654.473 303.233 654.534 303.063 654.562 302.936 654.562 302.804 654.534 302.677 654.507 302.482 654.448 302.293 654.361 302.117L654.361 302.024C654.283 301.905 654.188 301.797 654.081 301.704L649.083 297.599C648.815 297.528 648.565 297.401 648.35 297.226ZM703.503 330.014C703.079 329.652 702.525 329.479 701.97 329.534 701.42 329.596 700.913 329.869 700.558 330.294L698.518 332.759C697.87 332.424 697.197 332.139 696.506 331.906 695.786 331.68 695.173 331.48 694.4 331.307L694.08 327.868C694.031 327.319 693.768 326.811 693.347 326.455 692.927 326.099 692.373 325.938 691.827 326.015L687.482 326.442C686.965 326.512 686.491 326.768 686.149 327.161 685.784 327.583 685.61 328.139 685.67 328.694L685.963 331.853C685.259 332.081 684.576 332.371 683.924 332.719 683.276 333.039 682.653 333.404 682.058 333.812L679.312 331.6C678.91 331.227 678.364 331.047 677.819 331.107 677.265 331.17 676.758 331.447 676.406 331.88L673.741 335.199C673.424 335.572 673.25 336.046 673.25 336.535 673.25 337.16 673.534 337.752 674.02 338.144L676.34 340.183C676.003 340.829 675.722 341.503 675.5 342.196 675.26 342.916 675.06 343.529 674.887 344.302L671.448 344.622C670.9 344.675 670.394 344.938 670.035 345.355 669.705 345.792 669.574 346.349 669.675 346.888L670.102 351.22C670.155 351.763 670.418 352.265 670.835 352.619 671.25 352.987 671.803 353.161 672.354 353.099L675.513 352.806C675.731 353.503 676.008 354.181 676.34 354.832 676.67 355.49 677.035 356.131 677.433 356.751L675.22 359.417C674.85 359.82 674.675 360.366 674.74 360.909 674.817 361.433 675.088 361.909 675.5 362.242L678.872 365.135C679.3 365.487 679.855 365.647 680.405 365.574 680.957 365.521 681.47 365.265 681.844 364.855L683.897 362.349C684.541 362.692 685.215 362.978 685.91 363.202 686.6 363.44 687.303 363.641 688.015 363.802L688.335 367.254C688.393 367.796 688.655 368.297 689.068 368.653 689.493 369.012 690.05 369.177 690.601 369.106L694.933 368.68C695.475 368.621 695.975 368.359 696.332 367.947 696.698 367.525 696.872 366.969 696.812 366.414L696.506 363.255C697.212 363.032 697.894 362.742 698.545 362.389 699.2 362.065 699.837 361.705 700.451 361.309L703.117 363.522C703.539 363.887 704.094 364.061 704.649 364.002 705.204 363.95 705.714 363.676 706.062 363.242L708.835 359.883C709.188 359.455 709.352 358.901 709.288 358.35 709.236 357.795 708.974 357.279 708.555 356.911L706.049 354.885C706.427 354.245 706.744 353.571 706.995 352.872 707.232 352.186 707.432 351.487 707.595 350.78L711.047 350.46C711.568 350.391 712.044 350.129 712.38 349.727 712.74 349.303 712.905 348.746 712.833 348.194L712.407 343.862C712.332 343.344 712.071 342.87 711.674 342.529 711.254 342.159 710.698 341.98 710.141 342.036L706.982 342.343C706.744 341.642 706.455 340.961 706.116 340.303 705.81 339.649 705.444 339.024 705.023 338.437L707.249 335.692C707.611 335.284 707.785 334.742 707.728 334.199 707.666 333.648 707.394 333.142 706.969 332.786L703.636 330.054 703.53 330.054 703.503 330.014ZM690.335 339.117C691.465 339.015 692.605 339.128 693.693 339.45 694.737 339.782 695.709 340.307 696.559 340.997 697.404 341.695 698.106 342.55 698.625 343.516 699.168 344.506 699.495 345.601 699.585 346.728 699.688 347.858 699.575 348.998 699.251 350.087 698.63 352.201 697.19 353.982 695.253 355.031 694.258 355.564 693.165 355.886 692.041 355.978 690.91 356.088 689.769 355.974 688.682 355.645 687.635 355.317 686.659 354.797 685.803 354.112 684.965 353.404 684.269 352.545 683.75 351.579 683.177 350.587 682.827 349.482 682.724 348.341 682.358 344.945 684.106 341.651 687.122 340.05 688.112 339.504 689.208 339.177 690.335 339.091L690.335 339.117ZM649.096 293.027C649.562 293.174 650.01 293.375 650.429 293.627 650.723 293.697 650.996 293.834 651.229 294.027L656.6 298.492C657.098 298.9 657.522 299.392 657.853 299.945L657.96 300.118C658.299 300.746 658.516 301.434 658.599 302.144 658.692 302.889 658.615 303.646 658.373 304.356 658.161 304.981 657.841 305.563 657.426 306.076L654.681 309.488 654.854 309.768C655.204 310.354 655.52 310.959 655.8 311.58 656.12 312.202 656.387 312.776 656.6 313.3L656.707 313.566 660.305 313.22C661.004 313.139 661.712 313.202 662.385 313.406L662.491 313.406C663.109 313.611 663.687 313.922 664.197 314.326L664.384 314.486C664.86 314.904 665.261 315.4 665.57 315.952L665.677 316.125C665.983 316.73 666.177 317.384 666.25 318.058 666.25 319.844 666.703 323.31 666.943 325.176 667.023 325.85 666.973 326.533 666.796 327.188L666.796 327.308C666.593 327.995 666.253 328.635 665.797 329.187 665.359 329.73 664.82 330.182 664.211 330.52 663.578 330.845 662.891 331.053 662.185 331.133L657.946 331.507 657.84 331.893C657.693 332.426 657.506 333.026 657.266 333.706 657.027 334.386 656.827 335.039 656.6 335.532L656.493 335.758 659.412 338.118C659.966 338.597 660.419 339.181 660.745 339.837 660.989 340.422 661.133 341.044 661.172 341.676L661.172 341.743C661.261 342.458 661.202 343.184 660.998 343.875 660.813 344.525 660.511 345.135 660.105 345.675L655.454 351.299C655.01 351.846 654.461 352.299 653.841 352.632 653.213 352.984 652.518 353.202 651.802 353.272 651.091 353.355 650.371 353.296 649.683 353.099L649.576 353.099C648.969 352.893 648.402 352.587 647.896 352.192L644.444 349.38 644.098 349.58C643.511 349.927 642.938 350.233 642.392 350.5 641.845 350.766 641.379 351.006 640.832 351.246L640.353 351.406 640.726 355.005C640.808 355.746 640.731 356.496 640.499 357.204 640.274 357.861 639.931 358.471 639.486 359.003L639.406 359.083C638.975 359.568 638.466 359.978 637.9 360.296L637.767 360.296C637.166 360.599 636.516 360.793 635.847 360.869 634.061 360.869 630.596 361.336 628.73 361.576 628.015 361.655 627.291 361.596 626.597 361.403 625.909 361.195 625.27 360.85 624.718 360.39L624.651 360.39C624.139 359.935 623.71 359.393 623.385 358.79 623.052 358.161 622.844 357.473 622.772 356.764L622.386 352.539 622.012 352.432 620.2 351.859C619.56 351.646 618.867 351.419 618.374 351.18L618.12 351.073 615.721 353.992C615.282 354.49 614.753 354.901 614.162 355.205L614.015 355.298C613.43 355.572 612.804 355.752 612.163 355.831L612.096 355.831C611.376 355.92 610.646 355.861 609.95 355.658 609.31 355.464 608.709 355.157 608.177 354.752L602.539 350.1C601.996 349.653 601.543 349.105 601.207 348.487 600.867 347.863 600.649 347.18 600.567 346.475 600.48 345.756 600.558 345.027 600.793 344.342 600.991 343.728 601.298 343.154 601.7 342.649L604.512 339.197 604.365 338.864C604.072 338.371 603.792 337.838 603.512 337.278 603.179 336.665 602.899 336.078 602.646 335.478L602.526 335.172 598.954 335.505C598.219 335.592 597.473 335.519 596.768 335.292 596.147 335.088 595.569 334.772 595.062 334.359L594.862 334.212C594.319 333.744 593.867 333.179 593.529 332.546 593.225 331.946 593.031 331.296 592.956 330.627 592.956 328.828 592.49 325.415 592.25 323.523 592.14 322.789 592.181 322.041 592.37 321.324 592.577 320.635 592.922 319.996 593.383 319.444 593.832 318.909 594.374 318.457 594.982 318.111 595.613 317.783 596.301 317.579 597.008 317.512L601.233 317.125 601.34 316.739C601.5 316.219 601.686 315.606 601.913 314.939 602.14 314.273 602.366 313.606 602.593 313.1L602.699 312.847 599.967 310.527C599.438 310.117 598.987 309.616 598.634 309.048L598.554 308.915C598.249 308.325 598.059 307.683 597.994 307.022L597.994 306.915C597.919 306.193 597.991 305.463 598.208 304.77 598.429 304.082 598.782 303.443 599.247 302.89L603.712 297.439C604.12 296.939 604.617 296.518 605.178 296.199L605.338 296.093C605.964 295.746 606.653 295.528 607.364 295.453 608.096 295.36 608.84 295.437 609.537 295.679 610.16 295.893 610.742 296.213 611.256 296.626L614.682 299.385 615.028 299.118C615.575 298.798 616.135 298.505 616.694 298.225 617.254 297.945 617.867 297.639 618.414 297.399L618.734 297.279 618.374 293.693C618.293 292.995 618.356 292.287 618.56 291.614L618.56 291.508C618.765 290.89 619.076 290.312 619.48 289.802L619.68 289.695C620.139 289.152 620.695 288.7 621.319 288.362 621.921 288.044 622.576 287.841 623.252 287.762 625.038 287.762 628.503 287.309 630.369 287.069 631.085 286.982 631.81 287.041 632.502 287.242 633.189 287.446 633.828 287.786 634.381 288.242 634.917 288.686 635.369 289.224 635.714 289.828 636.055 290.476 636.272 291.181 636.354 291.907L636.727 296.146 637.114 296.253C637.633 296.399 638.247 296.586 638.926 296.812L640.752 297.492 641.019 297.612 643.325 294.826C643.775 294.281 644.327 293.828 644.951 293.494 645.589 293.137 646.291 292.911 647.017 292.827 647.738 292.738 648.47 292.806 649.163 293.027L649.096 293.027ZM627.97 308.502C628.995 308.415 630.025 308.415 631.049 308.502 632.116 308.606 633.169 308.816 634.195 309.128 635.171 309.435 636.117 309.832 637.02 310.314L637.14 310.381C637.985 310.848 638.788 311.388 639.539 311.994 641.104 313.32 642.41 314.924 643.391 316.725 643.909 317.649 644.32 318.628 644.618 319.644 644.928 320.668 645.125 321.723 645.204 322.79 645.297 323.809 645.297 324.836 645.204 325.855 645.113 326.923 644.908 327.977 644.591 329.001L644.591 329.134C644.289 330.055 643.905 330.947 643.445 331.8 642.963 332.69 642.406 333.537 641.779 334.332L641.645 334.479C640.347 336.001 638.779 337.271 637.02 338.224 636.088 338.734 635.105 339.144 634.088 339.45 633.065 339.747 632.016 339.943 630.956 340.037 629.914 340.123 628.866 340.123 627.824 340.037 626.757 339.934 625.703 339.724 624.678 339.41 623.707 339.101 622.765 338.704 621.866 338.224 620.976 337.736 620.129 337.174 619.333 336.545 618.557 335.893 617.843 335.17 617.201 334.386 616.549 333.585 615.97 332.729 615.468 331.826 614.962 330.894 614.556 329.911 614.255 328.894 613.945 327.87 613.748 326.816 613.669 325.749 613.576 324.729 613.576 323.703 613.669 322.683 613.76 321.616 613.965 320.561 614.282 319.538 614.586 318.56 614.983 317.614 615.468 316.712L615.535 316.592C615.996 315.739 616.536 314.932 617.148 314.179L617.254 314.046C617.88 313.301 618.576 312.618 619.333 312.007 620.134 311.36 620.991 310.784 621.892 310.288 622.82 309.777 623.798 309.366 624.811 309.061 625.839 308.766 626.892 308.57 627.957 308.475L627.97 308.502ZM630.636 312.593C629.847 312.52 629.053 312.52 628.264 312.593 627.483 312.658 626.71 312.801 625.958 313.02 625.222 313.238 624.512 313.533 623.838 313.9 623.149 314.287 622.493 314.733 621.879 315.232 621.332 315.677 620.824 316.168 620.36 316.699 619.908 317.262 619.507 317.864 619.16 318.498L619.16 318.605C618.803 319.283 618.509 319.992 618.28 320.724 618.003 321.492 617.807 322.287 617.694 323.096 617.627 323.886 617.627 324.679 617.694 325.469 617.758 326.255 617.906 327.033 618.134 327.788 618.35 328.539 618.649 329.263 619.027 329.947 619.41 330.636 619.856 331.287 620.36 331.893 620.829 332.478 621.356 333.014 621.932 333.493 622.521 333.96 623.15 334.375 623.812 334.732 624.496 335.09 625.209 335.389 625.944 335.625 626.694 335.861 627.467 336.013 628.25 336.078 629.053 336.152 629.86 336.152 630.663 336.078 631.448 336.012 632.225 335.869 632.982 335.652 633.69 335.43 634.374 335.135 635.021 334.772 635.714 334.389 636.37 333.943 636.98 333.439 637.529 332.986 638.037 332.487 638.5 331.946 639.002 331.349 639.449 330.707 639.833 330.027 640.173 329.375 640.462 328.698 640.699 328.001L640.699 327.921C640.931 327.165 641.087 326.389 641.166 325.602 641.232 324.813 641.232 324.019 641.166 323.23 641.101 322.443 640.954 321.666 640.726 320.91 640.509 320.175 640.214 319.464 639.846 318.791 639.466 318.101 639.02 317.449 638.513 316.845 638.044 316.261 637.517 315.725 636.94 315.246 636.383 314.802 635.79 314.405 635.168 314.06L635.061 314.06C634.377 313.701 633.664 313.402 632.929 313.166 632.183 312.933 631.414 312.781 630.636 312.713L630.636 312.593ZM587.372 401.455C587.376 401.455 587.38 401.455 587.385 401.455 589.988 401.455 592.13 403.597 592.13 406.2 592.13 408.803 589.988 410.945 587.385 410.945 584.782 410.945 582.64 408.803 582.64 406.2 582.64 403.602 584.774 401.462 587.372 401.455Z" fill="#2F49BA" fill-rule="evenodd"/></g></g></svg>