<svg width="325" height="303" xmlns="http://www.w3.org/2000/svg" xmlns:xlink="http://www.w3.org/1999/xlink" xml:space="preserve" overflow="hidden"><defs><clipPath id="clip0"><rect x="477" y="208" width="325" height="303"/></clipPath></defs><g clip-path="url(#clip0)" transform="translate(-477 -208)"><path d="M801.278 324.514C801.278 408.133 719.758 510.813 624.793 510.813 529.828 510.813 477 448.685 477 365.066 477 281.447 529.835 208 624.793 208 719.752 208 801.278 240.895 801.278 324.514" fill="#EBF2FC"/><path d="M702.844 390.319 551.094 390.319 551.094 365.027C551.094 363.476 549.835 362.217 548.284 362.217 546.733 362.217 545.474 363.476 545.474 365.027L545.474 404.37C545.474 406.607 546.362 408.751 547.944 410.33 549.523 411.912 551.667 412.8 553.904 412.8L565.145 412.8C566.696 412.8 567.955 411.541 567.955 409.99 567.955 408.439 566.696 407.18 565.145 407.18L553.904 407.18C553.159 407.18 552.443 406.885 551.917 406.356 551.389 405.831 551.094 405.114 551.094 404.37L551.094 395.939 702.844 395.939 702.844 404.37C702.844 405.114 702.549 405.831 702.021 406.356 701.495 406.885 700.779 407.18 700.034 407.18L576.386 407.18C574.834 407.18 573.576 408.439 573.576 409.99 573.576 411.541 574.834 412.8 576.386 412.8L611.811 412.8C611.361 420.337 609.408 430.074 602.209 435.282L597.462 435.282C595.911 435.282 594.652 436.541 594.652 438.092 594.652 439.643 595.911 440.902 597.462 440.902L656.476 440.902C658.027 440.902 659.286 439.643 659.286 438.092 659.286 436.541 658.027 435.282 656.476 435.282L651.73 435.282C644.53 430.072 642.577 420.337 642.127 412.8L700.034 412.8C702.271 412.8 704.415 411.912 705.995 410.33 707.577 408.751 708.465 406.607 708.465 404.37L708.465 320.064C708.465 317.827 707.577 315.683 705.995 314.103 704.415 312.521 702.271 311.633 700.034 311.633L669.122 311.633C667.571 311.633 666.312 312.892 666.312 314.443 666.312 315.995 667.571 317.254 669.122 317.254L700.034 317.254C700.779 317.254 701.495 317.549 702.021 318.077 702.549 318.603 702.844 319.319 702.844 320.064L702.844 390.319ZM636.507 412.8 617.431 412.8C616.996 419.913 615.225 428.762 610.167 435.282L643.771 435.282C638.713 428.762 636.943 419.91 636.507 412.8ZM618.539 387.508 636.805 387.508C638.356 387.508 639.615 386.249 639.615 384.698 639.615 383.147 638.356 381.888 636.805 381.888L618.539 381.888C616.987 381.888 615.728 383.147 615.728 384.698 615.728 386.249 616.987 387.508 618.539 387.508ZM556.714 376.268 556.714 381.888C556.714 383.439 557.973 384.698 559.525 384.698 561.076 384.698 562.335 383.439 562.335 381.888L562.335 376.268C562.335 374.716 561.076 373.457 559.525 373.457 557.973 373.457 556.714 374.716 556.714 376.268ZM614.323 379.078 641.02 379.078C642.571 379.078 643.83 377.819 643.83 376.268 643.83 374.716 642.571 373.457 641.02 373.457L614.323 373.457C612.772 373.457 611.513 374.716 611.513 376.268 611.513 377.819 612.772 379.078 614.323 379.078ZM621.352 370.647 611.78 370.647C611.047 370.647 610.344 370.361 609.819 369.849 600.421 360.696 590.437 346.603 590.437 328.382 590.437 308.284 606.803 291.962 626.969 291.962 647.135 291.962 663.502 308.284 663.502 328.382 663.502 346.603 653.517 360.696 644.12 369.849 643.594 370.361 642.892 370.647 642.158 370.647L632.59 370.647C632.59 370.647 629.779 370.639 629.779 367.837L629.779 336.925 624.159 336.925 624.159 367.834C624.159 369.667 622.903 370.647 621.352 370.647ZM562.335 367.837 562.335 331.305C562.335 329.753 561.076 328.494 559.525 328.494 557.973 328.494 556.714 329.753 556.714 331.305L556.714 367.837C556.714 369.388 557.973 370.647 559.525 370.647 561.076 370.647 562.335 369.388 562.335 367.837ZM635.4 365.027 641.006 365.027C649.271 356.74 657.881 344.344 657.881 328.382 657.881 311.38 644.027 297.582 626.969 297.582 609.911 297.582 596.057 311.38 596.057 328.382 596.057 344.344 604.668 356.74 612.932 365.027L618.539 365.027 618.539 336.925 612.918 336.925C606.713 336.925 601.677 331.889 601.677 325.684 601.677 319.479 606.713 314.443 612.918 314.443 619.123 314.443 624.159 319.479 624.159 325.684L624.159 331.305 629.779 331.305 629.779 325.684C629.779 319.479 634.815 314.443 641.02 314.443 647.225 314.443 652.261 319.479 652.261 325.684 652.261 331.889 647.225 336.925 641.02 336.925L635.4 336.925 635.4 365.027ZM584.816 311.633 553.904 311.633C551.667 311.633 549.523 312.521 547.944 314.103 546.362 315.683 545.474 317.827 545.474 320.064L545.474 353.786C545.474 355.337 546.733 356.596 548.284 356.596 549.835 356.596 551.094 355.337 551.094 353.786L551.094 320.064C551.094 319.319 551.389 318.603 551.917 318.077 552.443 317.549 553.159 317.254 553.904 317.254L584.816 317.254C586.368 317.254 587.626 315.995 587.626 314.443 587.626 312.892 586.368 311.633 584.816 311.633ZM635.4 331.305 641.02 331.305C644.123 331.305 646.641 328.787 646.641 325.684 646.641 322.582 644.123 320.064 641.02 320.064 637.918 320.064 635.4 322.582 635.4 325.684L635.4 331.305ZM618.539 331.305 618.539 325.684C618.539 322.582 616.021 320.064 612.918 320.064 609.816 320.064 607.298 322.582 607.298 325.684 607.298 328.787 609.816 331.305 612.918 331.305L618.539 331.305ZM611.488 289.736 608.678 284.869C607.902 283.526 606.182 283.065 604.839 283.84 603.496 284.616 603.035 286.336 603.81 287.679L606.621 292.546C607.396 293.89 609.116 294.351 610.459 293.575 611.803 292.799 612.263 291.08 611.488 289.736ZM647.318 292.546 650.128 287.679C650.904 286.336 650.443 284.616 649.099 283.84 647.756 283.065 646.036 283.526 645.261 284.869L642.451 289.736C641.675 291.08 642.136 292.799 643.479 293.575 644.822 294.351 646.542 293.89 647.318 292.546ZM629.779 286.342 629.779 280.721C629.779 279.17 628.52 277.911 626.969 277.911 625.418 277.911 624.159 279.17 624.159 280.721L624.159 286.342C624.159 287.893 625.418 289.152 626.969 289.152 628.52 289.152 629.779 287.893 629.779 286.342Z" fill="#2F49BA" fill-rule="evenodd"/></g></svg>