<svg width="325" height="313" xmlns="http://www.w3.org/2000/svg" xmlns:xlink="http://www.w3.org/1999/xlink" xml:space="preserve" overflow="hidden"><defs><clipPath id="clip0"><rect x="477" y="203" width="325" height="313"/></clipPath><clipPath id="clip1"><rect x="558" y="278" width="162" height="181"/></clipPath></defs><g clip-path="url(#clip0)" transform="translate(-477 -203)"><path d="M705.373 226.787C705.373 226.787 829.249 333.352 795.466 438.118 795.466 438.118 760.363 547.533 578.159 505.805 544.088 498.014 514.192 478.211 496.376 450.084 487.696 436.265 481.751 420.924 478.861 404.889 473.197 374.503 480.644 343.208 498.735 317.393 538.163 261.069 627.628 155.757 705.373 226.787" fill="#EBF2FC"/><g clip-path="url(#clip1)"><path d="M663.47 339.177 668.951 344.529C670.393 345.939 670.422 348.269 669.014 349.715L664.702 354.126C665.95 356.387 666.889 358.805 667.495 361.316L673.148 361.246C675.162 361.221 676.833 362.853 676.857 364.867L676.945 372.528C676.97 374.545 675.341 376.216 673.324 376.237L667.158 376.311C666.439 378.789 665.392 381.16 664.046 383.36L668.092 387.312C669.534 388.722 669.562 391.056 668.155 392.495L662.803 397.979C661.393 399.421 659.059 399.45 657.617 398.039L653.202 393.73C650.942 394.977 648.525 395.916 646.016 396.523L646.082 402.173C646.107 404.19 644.475 405.861 642.461 405.885L634.801 405.973C632.786 405.998 631.116 404.369 631.091 402.352L631.018 396.186C628.541 395.463 626.17 394.415 623.968 393.07L620.017 397.12C618.606 398.562 616.273 398.59 614.83 397.179L609.353 391.828C607.907 390.417 607.879 388.087 609.289 386.641L613.599 382.23C612.356 379.971 611.409 377.549 610.805 375.044L605.152 375.11C603.138 375.135 601.468 373.503 601.443 371.489L601.355 363.829C601.331 361.814 602.959 360.144 604.977 360.119L611.142 360.046C611.866 357.568 612.912 355.197 614.255 352.992L610.209 349.041C608.767 347.631 608.742 345.301 610.149 343.858L615.501 338.377C616.908 336.935 619.241 336.907 620.683 338.317L625.098 342.627C627.358 341.379 629.775 340.44 632.285 339.833L632.218 334.184C632.193 332.169 633.825 330.499 635.843 330.475L643.5 330.383C645.517 330.359 647.184 331.987 647.209 334.005L647.283 340.17C649.762 340.891 652.135 341.938 654.339 343.283L658.287 339.237C659.698 337.795 662.031 337.77 663.474 339.177L663.47 339.177ZM634.836 318.831 634.836 310.287C632.052 309.55 629.513 308.088 627.477 306.051 624.529 303.089 622.705 299.015 622.705 294.534 622.705 290.06 624.526 285.99 627.477 283.038L627.491 283.024C630.442 280.077 634.509 278.252 638.987 278.252 643.465 278.252 647.535 280.077 650.486 283.024L650.5 283.038C653.448 285.99 655.273 290.06 655.273 294.534 655.273 299.015 653.448 303.089 650.493 306.041 648.344 308.207 645.624 309.722 642.65 310.409L642.65 318.709C640.338 318.719 638.015 318.768 635.702 318.796 635.411 318.8 635.123 318.81 634.836 318.831ZM642.865 426.003C645.795 426.719 648.416 428.238 650.486 430.305L650.5 430.323C653.448 433.274 655.273 437.341 655.273 441.819 655.273 446.296 653.448 450.363 650.5 453.314L650.486 453.332C647.535 456.28 643.465 458.104 638.987 458.104 634.509 458.104 630.442 456.28 627.491 453.332L627.477 453.314C624.526 450.363 622.705 446.296 622.705 441.819 622.705 437.341 624.526 433.274 627.477 430.323L627.491 430.305C629.547 428.252 632.148 426.743 635.05 426.017L635.05 417.651C637.562 417.648 640.085 417.588 642.594 417.56L642.865 417.553 642.865 426.003ZM644.977 435.814C643.458 434.295 641.338 433.351 638.987 433.351 636.639 433.351 634.52 434.295 633 435.814L632.983 435.828C631.463 437.351 630.52 439.467 630.52 441.819 630.52 444.17 631.463 446.286 632.983 447.809L633 447.823C634.52 449.342 636.639 450.286 638.987 450.286 641.338 450.286 643.458 449.342 644.977 447.823L644.991 447.809C646.514 446.286 647.458 444.17 647.458 441.819 647.458 439.467 646.514 437.351 644.991 435.828L644.977 435.814ZM644.977 288.534C643.458 287.011 641.338 286.067 638.987 286.067 636.639 286.067 634.52 287.011 633 288.534L632.983 288.548C631.463 290.067 630.52 292.187 630.52 294.534 630.52 296.885 631.463 299.005 632.983 300.528 634.53 302.058 636.65 303.005 638.987 303.005 641.328 303.005 643.447 302.058 644.977 300.528 646.514 299.005 647.458 296.885 647.458 294.534 647.458 292.187 646.514 290.067 644.991 288.548L644.977 288.534ZM703.049 388.67C707.527 388.67 711.597 390.494 714.549 393.442L714.563 393.456C717.51 396.407 719.335 400.478 719.335 404.955 719.335 409.433 717.51 413.5 714.563 416.451L714.549 416.469C711.597 419.416 707.527 421.238 703.049 421.238 698.572 421.238 694.498 419.413 691.546 416.458 688.592 413.521 686.763 409.447 686.763 404.955 686.763 403.313 687.009 401.727 687.462 400.232L679.735 395.769C680.514 393.853 680.893 391.803 680.868 389.757 680.861 388.936 680.784 388.119 680.647 387.312L691.438 393.54 691.536 393.442C694.48 390.498 698.558 388.67 703.049 388.67ZM709.039 398.951C707.52 397.428 705.4 396.484 703.049 396.484 700.712 396.484 698.589 397.435 697.059 398.965 695.47 400.552 694.578 402.71 694.582 404.955 694.582 407.296 695.529 409.412 697.059 410.942 698.582 412.479 700.702 413.423 703.049 413.423 705.4 413.423 707.52 412.479 709.039 410.959L709.053 410.942C710.576 409.422 711.52 407.306 711.52 404.955 711.52 402.604 710.576 400.485 709.053 398.965L709.039 398.951ZM575.255 388.67C579.655 388.67 583.655 390.424 586.585 393.263L596.674 387.434C596.6 388.084 596.569 388.733 596.576 389.385 596.597 391.544 597.074 393.691 597.99 395.677L590.73 399.871C591.256 401.471 591.54 403.18 591.54 404.955 591.54 409.447 589.712 413.521 586.768 416.469 583.806 419.413 579.732 421.238 575.255 421.238 570.777 421.238 566.706 419.416 563.755 416.469L563.741 416.451C560.794 413.5 558.969 409.433 558.969 404.955 558.969 400.474 560.794 396.404 563.748 393.449 566.685 390.498 570.759 388.67 575.255 388.67ZM581.245 398.965C579.658 397.376 577.501 396.483 575.255 396.484 572.914 396.484 570.794 397.435 569.265 398.965 567.728 400.485 566.784 402.604 566.784 404.955 566.784 407.306 567.728 409.422 569.25 410.942L569.265 410.959C570.784 412.479 572.903 413.423 575.255 413.423 577.602 413.423 579.722 412.479 581.245 410.959 582.775 409.412 583.722 407.296 583.722 404.955 583.722 402.615 582.775 400.495 581.245 398.965ZM703.049 315.027C707.544 315.027 711.618 316.852 714.566 319.8 717.51 322.744 719.335 326.818 719.335 331.313 719.335 335.791 717.51 339.861 714.563 342.813L714.549 342.827C711.597 345.774 707.527 347.599 703.049 347.599 698.558 347.599 694.48 345.771 691.536 342.827L691.329 342.613 681.696 348.181C681.724 347.778 681.735 347.374 681.728 346.974 681.703 344.594 681.127 342.252 680.047 340.132L687.416 335.872C686.995 334.426 686.763 332.896 686.763 331.313 686.763 326.836 688.588 322.769 691.536 319.817L691.553 319.8C694.505 316.852 698.572 315.027 703.049 315.027ZM709.043 325.323C707.454 323.734 705.296 322.842 703.049 322.846 700.698 322.846 698.582 323.79 697.059 325.309L697.045 325.323C695.526 326.846 694.582 328.962 694.582 331.313 694.582 333.65 695.529 335.773 697.059 337.303 698.646 338.893 700.803 339.786 703.049 339.784 705.4 339.784 707.52 338.84 709.039 337.317L709.053 337.303C710.576 335.784 711.52 333.664 711.52 331.313 711.52 328.973 710.569 326.85 709.043 325.323ZM575.255 315.027C579.732 315.027 583.799 316.852 586.75 319.8L586.768 319.817C589.716 322.769 591.54 326.836 591.54 331.313 591.54 332.633 591.379 333.917 591.084 335.145L598.881 339.872C597.676 342.452 597.208 345.317 597.53 348.146L587.487 342.058C587.256 342.321 587.014 342.581 586.768 342.827 583.824 345.771 579.746 347.599 575.255 347.599 570.759 347.599 566.685 345.771 563.741 342.827 560.794 339.865 558.969 335.794 558.969 331.313 558.969 326.836 560.794 322.769 563.741 319.817L563.755 319.8C566.706 316.852 570.777 315.027 575.255 315.027ZM581.245 325.309C579.722 323.79 577.606 322.846 575.255 322.846 572.903 322.846 570.784 323.79 569.265 325.309L569.25 325.323C567.728 326.846 566.784 328.962 566.784 331.313 566.784 333.664 567.728 335.784 569.25 337.303 570.794 338.833 572.914 339.784 575.255 339.784 577.592 339.784 579.715 338.833 581.245 337.303 582.833 335.716 583.725 333.559 583.722 331.313 583.722 328.962 582.778 326.846 581.259 325.323L581.245 325.309ZM638.969 353.119C647.286 353.021 654.111 359.684 654.209 367.997 654.311 376.314 647.644 383.139 639.327 383.237 631.014 383.339 624.189 376.672 624.091 368.359 623.993 360.042 630.656 353.217 638.969 353.119Z" fill="#2F49BA" fill-rule="evenodd"/></g></g></svg>