<svg width="336" height="334" xmlns="http://www.w3.org/2000/svg" xmlns:xlink="http://www.w3.org/1999/xlink" xml:space="preserve" overflow="hidden"><defs><clipPath id="clip0"><rect x="472" y="193" width="336" height="334"/></clipPath></defs><g clip-path="url(#clip0)" transform="translate(-472 -193)"><path d="M807.867 321.257C807.867 413.304 723.433 526.333 625.075 526.333 526.716 526.333 472 457.943 472 365.896 472 273.85 526.723 193 625.075 193 723.426 193 807.867 229.211 807.867 321.257" fill="#EBF2FC"/><path d="M629.644 297.625C629.644 295.629 630.214 293.776 631.199 292.199L648.668 292.199C649.653 293.765 650.223 295.629 650.223 297.625 650.223 303.305 645.613 307.911 639.933 307.911 634.254 307.911 629.644 303.305 629.644 297.625ZM606.065 348.958C604.654 348.958 603.507 347.815 603.507 346.4 603.507 344.992 604.654 343.845 606.065 343.845L673.801 343.845C675.213 343.845 676.36 344.992 676.36 346.4 676.36 347.815 675.213 348.958 673.801 348.958L606.065 348.958ZM606.065 364.045C604.654 364.045 603.507 362.902 603.507 361.49 603.507 360.078 604.654 358.931 606.065 358.931L671.301 358.931C672.713 358.931 673.86 360.078 673.86 361.49 673.86 362.902 672.713 364.045 671.301 364.045L606.065 364.045ZM606.065 379.135C604.654 379.135 603.507 377.988 603.507 376.577 603.507 375.165 604.654 374.022 606.065 374.022L661.777 374.022C663.188 374.022 664.335 375.165 664.335 376.577 664.335 377.988 663.188 379.135 661.777 379.135L606.065 379.135ZM606.065 409.312C604.654 409.312 603.507 408.165 603.507 406.754 603.507 405.342 604.654 404.195 606.065 404.195L623.861 404.195C625.273 404.195 626.42 405.342 626.42 406.754 626.42 408.165 625.273 409.312 623.861 409.312L606.065 409.312ZM606.065 394.222C604.654 394.222 603.507 393.079 603.507 391.667 603.507 390.255 604.654 389.108 606.065 389.108L634.371 389.108C635.783 389.108 636.93 390.255 636.93 391.667 636.93 393.079 635.783 394.222 634.371 394.222L606.065 394.222ZM606.194 265.717 673.676 265.717C684.884 265.717 693.972 274.819 693.972 286.02L693.972 433.317C693.972 444.526 684.884 453.616 673.676 453.616L606.194 453.616C594.986 453.616 585.895 444.526 585.895 433.317L585.895 285.994C585.895 274.76 594.967 265.717 606.194 265.717ZM592.887 425.417 686.95 425.417 686.95 285.825 592.887 285.825 592.887 425.417ZM639.908 431.769C644.499 431.769 648.252 435.468 648.252 440.114 648.252 444.713 644.558 448.463 639.908 448.463 635.316 448.463 631.559 444.768 631.559 440.114 631.559 435.526 635.257 431.769 639.908 431.769ZM652.068 409.143C652.96 409.925 653.051 411.302 652.27 412.194 651.487 413.091 650.12 413.179 649.223 412.396L642.411 406.427C641.514 405.644 641.426 404.276 642.209 403.379L642.429 403.162 649.223 397.211C649.616 396.866 650.122 396.675 650.645 396.675 651.268 396.675 651.86 396.944 652.27 397.413 652.615 397.806 652.805 398.312 652.805 398.835 652.805 399.458 652.536 400.05 652.068 400.46L647.113 404.802 652.068 409.143ZM668.412 412.396C667.52 413.175 666.146 413.084 665.364 412.194 664.581 411.294 664.67 409.93 665.567 409.143L670.522 404.802 665.567 400.46C665.099 400.05 664.83 399.458 664.83 398.835 664.83 397.651 665.805 396.676 666.989 396.676 667.513 396.676 668.018 396.866 668.412 397.211L675.209 403.162 675.426 403.379C675.771 403.773 675.961 404.278 675.961 404.802 675.961 405.424 675.692 406.017 675.224 406.427L668.412 412.396ZM658.424 395.975C658.696 394.814 659.861 394.09 661.027 394.358 662.188 394.63 662.913 395.795 662.644 396.961L658.751 413.628C658.479 414.79 657.314 415.517 656.152 415.245 654.996 414.975 654.265 413.804 654.531 412.646L658.424 395.975ZM669.629 295.861 669.629 300.169C669.629 302.184 667.982 303.834 665.964 303.834L662.214 303.834C661.736 305.948 660.968 307.951 659.953 309.801L662.457 312.304C663.879 313.73 663.879 316.061 662.457 317.487L659.409 320.535C657.983 321.961 655.652 321.961 654.226 320.535L651.943 318.256C650.024 319.45 647.937 320.352 645.753 320.932L645.753 324.045C645.753 326.06 644.102 327.71 642.087 327.71L637.779 327.71C635.761 327.71 634.114 326.06 634.114 324.045L634.114 320.976C631.908 320.407 629.8 319.509 627.861 318.314L625.641 320.535C624.214 321.961 621.88 321.961 620.457 320.535L617.41 317.487C615.984 316.065 615.984 313.73 617.41 312.304L619.81 309.907C618.75 308.005 617.969 305.959 617.491 303.834L613.899 303.834C611.885 303.834 610.234 302.184 610.234 300.169L610.234 295.861C610.234 293.901 611.789 292.291 613.726 292.199L625.997 292.199C625.409 293.818 625.109 295.528 625.111 297.25 625.111 297.504 625.115 297.761 625.13 298.015 625.115 298.269 625.111 298.522 625.111 298.776 625.111 306.918 631.71 313.521 639.852 313.521 647.995 313.521 654.594 306.918 654.594 298.776 654.594 298.522 654.59 298.269 654.575 298.015 654.59 297.761 654.594 297.504 654.594 297.25 654.594 295.475 654.281 293.773 653.708 292.199L666.14 292.199C668.074 292.291 669.629 293.901 669.629 295.861Z" fill="#2F49BA" fill-rule="evenodd"/></g></svg>